<svg xmlns="http://www.w3.org/2000/svg" width="256" height="256" viewBox="0 0 256 256" version="1.1">
	<path d="M 31.368 19.571 C 27.199 23.991, 27.037 27.422, 30.784 31.910 C 32.738 34.251, 34.731 35.434, 37.472 35.879 L 41.377 36.514 43.052 45.007 C 48.389 72.064, 58.504 92.751, 79.193 118.926 C 82.920 123.642, 85.970 127.950, 85.970 128.500 C 85.970 129.050, 82.841 133.459, 79.017 138.297 C 58.318 164.487, 48.489 184.632, 43.062 211.993 L 41.377 220.486 37.472 221.121 C 34.731 221.566, 32.738 222.749, 30.784 225.090 C 27.037 229.578, 27.199 233.009, 31.368 237.429 L 34.736 241 128.500 241 L 222.264 241 225.632 237.429 C 229.801 233.009, 229.963 229.578, 226.216 225.090 C 224.263 222.750, 222.269 221.566, 219.530 221.121 L 215.628 220.487 213.842 211.255 C 208.974 186.100, 197.809 163.382, 177.983 138.297 C 174.159 133.459, 171.026 129.050, 171.021 128.500 C 171.015 127.950, 173.535 124.350, 176.619 120.500 C 197.225 94.781, 208.880 71.389, 213.827 45.819 L 215.628 36.513 219.530 35.879 C 222.269 35.434, 224.263 34.250, 226.216 31.910 C 229.963 27.422, 229.801 23.991, 225.632 19.571 L 222.264 16 128.500 16 L 34.736 16 31.368 19.571 M 63.311 37.631 C 62.426 39.938, 64.725 50.672, 68.168 60.305 C 73.625 75.574, 83.869 92.284, 98.940 110.500 C 109.645 123.439, 111.557 126.964, 110.113 131.106 C 109.560 132.692, 106.026 137.705, 102.260 142.245 C 79.500 169.683, 68.225 190.061, 63.891 211.592 C 61.799 221.987, 55.019 221, 128.500 221 C 201.874 221, 195.215 221.944, 193.127 211.835 C 188.817 190.970, 178.064 170.842, 158.330 146.697 C 147.164 133.036, 145.466 129.971, 146.855 125.985 C 147.426 124.348, 150.987 119.293, 154.767 114.754 C 177.198 87.820, 188.590 67.129, 193.154 45.034 C 195.210 35.078, 201.811 36, 128.500 36 C 69.724 36, 63.881 36.146, 63.311 37.631 M 99.655 68.829 C 98.745 69.835, 98 71.525, 98 72.586 C 98 75.904, 107.677 94.156, 113.595 102 C 120.119 110.647, 122.947 116.231, 122.978 120.527 C 122.990 122.193, 123.701 124.555, 124.557 125.777 C 127.855 130.487, 133.974 127.092, 134.022 120.527 C 134.053 116.231, 136.881 110.647, 143.405 102 C 149.464 93.968, 159 75.877, 159 72.412 C 159 71.256, 158.177 69.565, 157.171 68.655 C 155.565 67.201, 152.062 67, 128.326 67 C 103.423 67, 101.181 67.143, 99.655 68.829 M 124.557 141.223 C 123.701 142.445, 123 144.717, 123 146.272 C 123 152.333, 118.238 158.676, 107.174 167.351 C 96.367 175.824, 83.418 189.262, 77.250 198.405 C 71.555 206.847, 71.034 208.816, 73.829 211.345 C 75.482 212.841, 80.745 213, 128.674 213 C 178.765 213, 181.781 212.899, 183.345 211.171 C 185.870 208.382, 185.432 206.827, 179.750 198.405 C 173.731 189.484, 160.812 176.016, 150.254 167.657 C 138.569 158.407, 134 152.393, 134 146.262 C 134 142.428, 131.404 139, 128.500 139 C 127.167 139, 125.426 139.982, 124.557 141.223" stroke="none"  fill-rule="evenodd"/>
</svg>