<svg xmlns="http://www.w3.org/2000/svg" width="256" height="256" viewBox="0 0 256 256" version="1.1">
	<path d="M 66.500 24.022 C 44.194 28.499, 26.161 46.086, 20.381 69 C 17.757 79.403, 19.585 100.520, 24.255 113.750 L 25.402 117 51.372 117 C 73.800 117, 77.584 117.219, 79.115 118.604 C 80.767 120.099, 80.982 119.981, 82.307 116.854 C 83.088 115.009, 87.221 105.175, 91.490 95 C 101.350 71.500, 102.445 69.378, 105.062 68.694 C 108.143 67.888, 111.897 69.589, 112.873 72.232 C 113.334 73.479, 116.583 89.880, 120.094 108.678 C 123.605 127.475, 126.667 142.667, 126.897 142.436 C 127.128 142.205, 128.523 134.816, 129.998 126.015 C 131.873 114.818, 133.223 109.411, 134.494 108.007 C 136.137 106.192, 137.566 106, 149.464 106 C 158.486 106, 163.109 106.393, 164.183 107.250 C 165.044 107.938, 168.097 112.030, 170.967 116.343 L 176.187 124.187 179.478 120.593 L 182.770 117 206.805 117 L 230.839 117 232.371 112.250 C 237.014 97.849, 238.347 78.593, 235.467 67.533 C 232.537 56.287, 228.313 49.088, 219.603 40.500 C 210.436 31.462, 202.139 26.773, 191.217 24.458 C 177.600 21.572, 163.085 23.640, 150.728 30.225 C 144.708 33.433, 134.450 42.549, 130.162 48.500 L 128 51.500 125.838 48.500 C 121.550 42.549, 111.292 33.433, 105.272 30.225 C 93.846 24.136, 78.313 21.651, 66.500 24.022 M 96.045 118.013 C 91.458 128.992, 87.071 138.881, 86.296 139.988 C 84.506 142.543, 78.922 142.697, 76.771 140.250 C 75.925 139.287, 74.271 136.588, 73.096 134.250 L 70.959 130 51.004 130 L 31.050 130 31.923 132.296 C 35.556 141.852, 50.981 163.676, 66.019 180.537 C 83.689 200.349, 122.310 233, 128.074 233 C 130.923 233, 149.154 219.315, 165.490 204.912 C 183.358 189.160, 197.373 173.777, 209.887 156.182 C 215.169 148.755, 225 132.239, 225 130.792 C 225 130.356, 216.728 130, 206.619 130 L 188.237 130 185.747 133.250 C 179.383 141.555, 175.638 143.563, 171.866 140.693 C 170.968 140.009, 167.247 134.848, 163.597 129.225 L 156.962 119 150.712 119 L 144.461 119 139.122 151.250 C 136.185 168.988, 133.371 184.277, 132.868 185.227 C 130.024 190.601, 122.721 189.311, 120.995 183.130 C 120.438 181.134, 116.586 161.287, 112.434 139.027 C 108.283 116.767, 104.774 98.440, 104.635 98.302 C 104.497 98.163, 100.631 107.033, 96.045 118.013" stroke="none"  fill-rule="evenodd"/>
</svg>