<svg xmlns="http://www.w3.org/2000/svg" width="256" height="256" viewBox="0 0 256 256" version="1.1"  fill="white">
	<path d="M 82 8.944 C 63.169 12.939, 47.721 21.462, 34.407 35.203 C 20.800 49.247, 12.780 64.850, 9.500 83.659 C 7.438 95.483, 7.432 134.480, 9.490 146.281 C 13.280 168.017, 25.344 189.281, 40.753 201.387 C 46.669 206.035, 46.729 206.134, 47.360 212.289 C 49.180 230.032, 58.411 242.124, 73.855 246.995 C 79.845 248.885, 82.954 249, 127.924 249 C 179.686 249, 181.239 248.859, 190.747 243.297 C 196.060 240.190, 202.142 233.357, 204.992 227.294 C 206.191 224.743, 207.685 218.895, 208.312 214.298 L 209.451 205.940 215.334 201.319 C 226.915 192.220, 237.592 176.392, 242.869 160.500 C 247.460 146.674, 248.259 138.394, 247.755 109.846 C 247.267 82.219, 246.439 77.004, 240.177 62.100 C 231.501 41.451, 211.435 21.958, 190.525 13.866 C 174.461 7.650, 168.607 7.020, 127.500 7.083 C 95.805 7.133, 89.281 7.399, 82 8.944 M 74.806 81.344 C 69.864 82.732, 68.580 83.513, 63.128 88.448 C 55.115 95.699, 52.596 109.295, 57.366 119.538 C 60.509 126.288, 67.792 132.593, 74.800 134.630 C 92.121 139.666, 110 126.140, 110 108 C 110 89.985, 92.156 76.470, 74.806 81.344 M 167.500 80.938 C 158.588 83.117, 150.397 90.450, 147.554 98.795 C 141.817 115.633, 152.884 133.191, 170.726 135.558 C 186.092 137.596, 200.964 124.357, 200.990 108.616 C 201.005 99.564, 199.256 95.221, 193.026 88.841 C 185.607 81.244, 177.065 78.599, 167.500 80.938 M 123.811 155.750 C 122.987 156.713, 119.060 163.234, 115.086 170.241 C 104.679 188.592, 105.032 189.108, 128 189.108 C 151.110 189.108, 151.364 188.706, 140.428 169.470 C 136.192 162.020, 131.918 155.491, 130.929 154.962 C 128.203 153.503, 125.477 153.805, 123.811 155.750" stroke="none"  fill-rule="evenodd"/>
</svg>