<svg xmlns="http://www.w3.org/2000/svg" width="256" height="256" viewBox="0 0 256 256" version="1.1">
	<path d="M 123.069 4.399 C 112.951 19.105, 85.364 28.877, 49.042 30.620 C 41.594 30.978, 34.938 31.714, 34.250 32.257 C 32.316 33.785, 32.490 162.931, 34.438 172.122 C 39.928 198.022, 69.640 226.782, 114.549 249.668 L 127.956 256.500 141.228 249.807 C 185.758 227.351, 216.068 198.040, 221.562 172.122 C 223.510 162.931, 223.684 33.785, 221.750 32.257 C 221.063 31.714, 214.406 30.978, 206.958 30.620 C 170.880 28.888, 143.761 19.416, 133.335 4.903 C 131.289 2.055, 129.033 -0, 127.954 -0 C 126.884 -0, 124.813 1.865, 123.069 4.399 M 121.645 33.568 C 111.808 44.627, 90.822 51.042, 60.500 52.259 L 54.500 52.500 54.500 108.500 L 54.500 164.500 57.610 171 C 66.494 189.568, 87.388 207.863, 116.750 222.783 L 128 228.500 139.250 222.783 C 160.025 212.227, 179.247 197.890, 189.303 185.450 C 191.948 182.178, 195.775 176.149, 197.806 172.053 L 201.500 164.606 201.500 108.553 L 201.500 52.500 190.310 51.851 C 165.626 50.418, 149.074 45.847, 138.007 37.408 C 135.442 35.451, 132.565 32.534, 131.615 30.925 C 130.665 29.316, 129.125 28.025, 128.193 28.055 C 127.262 28.086, 124.315 30.566, 121.645 33.568 M 128.226 68.250 L 128.500 85.500 134.356 85.803 L 140.211 86.106 139.774 89.084 C 139.370 91.841, 139.776 92.296, 145.245 95.211 C 155.554 100.706, 162.686 111.444, 163.739 123.059 C 164.231 128.484, 164.483 129, 166.639 129 C 168.837 129, 169 129.384, 169 134.551 C 169 139.950, 168.904 140.142, 165.500 141.564 C 163.311 142.479, 162 143.711, 162 144.854 C 162 148.274, 155.940 158.821, 151.853 162.514 C 146.822 167.059, 139.030 170.773, 132.750 171.618 L 128 172.258 128 192.629 C 128 203.833, 128.235 213, 128.522 213 C 130.023 213, 146.604 204.013, 154 199.190 C 165.301 191.822, 180.616 176.429, 184.535 168.500 L 187.500 162.500 187.500 116.500 L 187.500 70.500 176.232 69.846 C 155.603 68.650, 140.242 63.459, 132.753 55.155 C 130.692 52.870, 128.768 51, 128.479 51 C 128.190 51, 128.076 58.763, 128.226 68.250 M 128 105 C 128 116.778, 128.238 119, 129.500 119 C 130.325 119, 131 118.564, 131 118.030 C 131 116.638, 133.965 95.929, 134.548 93.250 C 134.984 91.250, 134.647 91, 131.519 91 L 128 91 128 105 M 146 146.641 C 145.175 146.866, 140.900 147.377, 136.500 147.775 L 128.500 148.500 128.201 155.389 L 127.902 162.278 131.656 161.668 C 137.560 160.710, 144.189 156.774, 147.741 152.118 C 149.533 149.767, 151 147.430, 151 146.922 C 151 145.998, 148.809 145.875, 146 146.641" stroke="none"  fill-rule="evenodd"/>
</svg>