<svg xmlns="http://www.w3.org/2000/svg" width="256" height="256" viewBox="0 0 256 256" version="1.1">
	<path d="M 217.500 17.385 C 215.850 18.164, 170.092 63.284, 115.815 117.651 C 8.536 225.108, 14.704 218.276, 16.472 227.701 C 17.395 232.623, 23.377 238.605, 28.299 239.528 C 37.728 241.297, 30.847 247.517, 138.754 139.688 C 211.188 67.307, 238.309 39.595, 239.120 37.136 C 241.341 30.406, 238.871 23.233, 232.763 18.672 C 229.423 16.179, 221.472 15.508, 217.500 17.385 M 108.204 49.109 C 70.605 54.156, 39.237 73.576, 9.811 110.023 C -0.335 122.591, -1.811 126.837, 1.379 134.282 C 3.228 138.598, 17.512 155.531, 27.951 165.783 L 36.402 174.082 58.201 152.299 C 79.423 131.094, 80 130.410, 80 126.469 C 80 115.367, 86.301 101.714, 95.247 93.431 C 104.206 85.137, 116.149 80, 126.473 80 C 130.356 80, 131.125 79.400, 144.841 65.659 L 159.156 51.319 151.828 50.052 C 142.269 48.400, 117.480 47.864, 108.204 49.109 M 197.659 103.841 C 178.751 122.764, 176 125.911, 176 128.622 C 176 145.350, 164.836 163.050, 149.561 170.540 C 142.608 173.950, 134.736 176, 128.601 176 C 125.909 176, 123.479 177.999, 111.137 190.362 L 96.801 204.725 105.150 206.112 C 118.403 208.315, 145.178 207.825, 157.734 205.149 C 191.722 197.907, 219.315 179.333, 246.699 145.261 C 257.955 131.256, 258.697 125.906, 250.785 115.793 C 243.462 106.431, 228.269 89.610, 223.727 85.833 L 219.317 82.166 197.659 103.841" stroke="none"  fill-rule="evenodd"/>
</svg>