<svg version="1.1" xmlns="http://www.w3.org/2000/svg" viewBox="0 0 239.3 220.9">
<path d="M125.2,1.7c-2.2,1.8-2.3,2.6-2.7,20.5L122,40.9c3.6,0,10.9,0,14.5,0L136,22.2c-0.4-17.9-0.6-18.7-2.7-20.5
	C130.4-0.6,128.2-0.6,125.2,1.7 M72.5,16.1c-4.5,1.2,6.2,19.3,8.9,24.8c2.7,0,14.3,0.2,14.9-0.6c0-1.2-13.3-22.9-14.8-24.1
	C79.5,14.6,74.1,14.5,72.5,16.1 M175.5,17.7c-2.5,3.5-14.2,22.2-14.2,22.6c0,0.2,2.8,0.6,6.2,0.8c3.4,0.3,6.9,0.8,7.8,1.2
	c1.7,2,11.1-18.2,13.3-22C186.2,15.1,179.3,12.3,175.5,17.7 M214.8,54.3c-5.9,1.9-17.9,8.2-24.5,12.6c0,3-0.2,14.4,0.8,15.3
	c1.4,0.9,32-17.7,33.1-20.2C227.2,54.3,223.8,51,214.8,54.3 M90.1,69c-1.6,0.9-1.8,3.1-1.8,23.2c0,12.2,0.4,22.8,0.8,23.5
	c-2.4,1.9,60.2,0.7,71.7,0.7c0-12,0-36,0-48C147.9,68.4,92.1,67.5,90.1,69 M103.3,89.9c-0.8,1.9-4.1,0-3.5,3.8
	c-0.3,3.9,2.6,1.7,3.5,3.4c-0.2,1,3.2,1.3,2.6,0c-0.3-0.5,0.3-0.7,1.3-0.4c2.7,1.6,2.3-6.8-0.2-5.3c-2.9,0.9,0.1-2.4-2.2-2.4
	C104,88.9,103.3,89.3,103.3,89.9 M115.3,90.2c-6.9,6.7,6.9,11,6.8,3.6c0.3-3.8-2.8-2.2-2.3-3.9C120.7,88.5,117.1,88.7,115.3,90.2
	 M129.3,89.9c-0.7,1.8-2.6,0.2-2.6,4.1c-0.3,4.5,1.8,1.2,2.6,3c-0.1,1.2,3,1.3,3,0.1c0.3-1.3,3.5-0.3,3.8-2c0.8-2.1-1.8,0.5-1.8-1.1
	c-0.1-1.4,2-0.7,2-2.1c0.1-1.4-4.1-0.6-4-2C132.3,88.6,129.3,88.6,129.3,89.9 M190.7,104.4c-0.6,1.5,0,10.1,0.1,13
	c9.5-0.2,42.4-0.4,46.2-1.6c3.7-0.4,2.4-10-0.7-10.5C232.6,103.6,191.3,102.8,190.7,104.4 M53.4,118.5c-4,7.8-13.6,19.7-13.1,27.4
	c5,0,15,0,20,0c0,2.7,0,8.3,0,11c2.5,0,7.5,0,10,0v-5.5c0-5.4,0-5.5,3-5.5c2.8,0,3-0.3,3-3.5s-0.2-3.5-3-3.5h-3c0-6.7,0-20.3,0-27
	c-3.2,0-9.6,0-12.8,0L53.4,118.5 M55.3,128c-6.3,12.6-7,10.7,5,10.9c0-4.4-0.1-13.7,0.6-16.9C62,116.5,59.9,118.7,55.3,128
	 M19.2,125c-15.4,6.3-9.8,34.8,8.2,32.9c9.8,0.3,9-2.1,8.9-8c-4.7-0.1-11.4,0.9-14.1-2.9c-6.8-5.5-0.6-17.9,8.1-17.1
	c4.3,0,4.8-0.2,5.5-2.7c0.4-1.7,0.2-2.9-0.6-3.5C32.7,122.2,23.9,122.9,19.2,125 M90.4,125.3c-1.4,1.5-0.8,8.3-0.6,11.1
	c3.2,0,9.8,0,13,0c0.4-6.1,2-13.5-6.5-12.5C93.4,123.9,91.1,124.5,90.4,125.3 M109.3,130.4v6.5c3.1-0.1,9.4-0.4,12.5-0.6
	c1-13.4,1.3-12.8-12.5-12.5V130.4 M128.9,125.5c-1.7,1.7-2.1,8-0.7,10.2c0.6,1.8,9.9,0.8,12.6,0.7c0.1-2.6,1.1-11-0.7-11.6
	C137.9,123.3,130.6,123.8,128.9,125.5 M148,124.5c-0.9,1-0.7,9.8-0.7,12.4c3.3,0,9.8,0,13.1,0c-0.1-3.1-0.4-9.4-0.6-12.5
	C157.3,124.3,149,123.6,148,124.5 M191,139.6c-0.8,1.1-0.6,11.3-0.7,14.2c5.7,3.9,35.3,24.1,35,10c0-4.1-3-6.7-18.8-16.2
	C191,138.1,191.9,138.6,191,139.6 M90.5,144.6c-1.8,0.7-1.7,10.8,0.2,12.3c1.5,1.4,9.2,0.7,12.1,0.6C104,145,103.4,142.6,90.5,144.6
	 M109.8,146.2c-0.6,2.3-0.2,8.2,0,11.2c6.2,0,13.5,2.8,12.5-6.2c0-5.4-1.9-7.3-7.5-7.3C111,143.9,110.3,144.2,109.8,146.2
	 M128.9,145.5c-1.7,1.7-2.1,9-0.7,11.2c0.6,1.8,9.9,0.8,12.6,0.7c0.2-2.9,0.8-10.5-0.6-12.1C138.6,143.4,130.9,143.5,128.9,145.5
	 M148.4,145.3c-1.4,1.5-0.7,9.2-0.6,12.1c3,0,9,0,12,0c0.1-3.1,1.3-11.4-1.1-12.2C156.3,143.5,149.8,143.6,148.4,145.3 M75.9,190.7
	c-7.7,13-5,19,5.6,15c1.7-1.4,13.8-21.3,13.8-22.8c-0.5-1.3-12.1-0.9-14.9-1L75.9,190.7 M122.5,199.8c0.4,20.1,0.8,21.1,6.8,21.1
	s6.4-1,6.8-21.1l0.4-17.9c-3.6,0-10.9,0-14.5,0L122.5,199.8 M162.4,182.7c2,3.1,13.9,26.5,18.5,24c4.5,0.7,5.6-2.1,7.8-5
	c-2.4-4.9-7.3-14.8-9.7-19.7C175.9,181.9,162.9,181.6,162.4,182.7 M171.6,173.3H8.3c-4.6,0-8.3-3.7-8.3-8.3V65
	c0-4.6,3.7-8.3,8.3-8.3h163.3c4.6,0,8.3,3.7,8.3,8.3v100C179.9,169.6,176.2,173.3,171.6,173.3z"/>
</svg>
