<svg version="1.1" xmlns="http://www.w3.org/2000/svg" viewBox="0 0 17 21.1">
<path d="M8.5,21.1L8.3,21C7.9,20.8,0,16.7,0,10.5V3.2L8.5,0L17,3.2v7.3c0,6.2-7.9,10.3-8.3,10.4L8.5,21.1z M1,3.8v6.7
	c0,5.1,6.2,8.7,7.5,9.4c1.3-0.7,7.5-4.4,7.5-9.4V3.8L8.5,1L1,3.8z"/>
<path d="M8.5,2.3L2.1,4.7v5.6c0,4.8,6.4,8,6.4,8s6.4-3.2,6.4-8V4.7L8.5,2.3z M11.2,7.6c0.2,0.2,0.6,0.7,0.8,1.3
	c0.2,0.6,0.3,1.1,0.3,1.4v0.5l0.5,0.5c0.1,0,0.2,0.2,0.1,0.3c0,0.2-0.2,0.2-0.3,0.2H4.4c-0.1,0-0.3,0-0.3-0.2
	c-0.1-0.1,0-0.3,0.1-0.3l0.5-0.5v-0.5c0-1,0.4-1.9,1.1-2.7C6,7.4,7,6.5,8.6,6.5C10,6.6,11,7.4,11.2,7.6z"/>
</svg>
