<svg xmlns="http://www.w3.org/2000/svg" width="256" height="256" viewBox="0 0 256 256" version="1.1">
	<path d="M 134.945 19.843 C 132.758 21.614, 132.651 22.416, 132.202 40.343 L 131.734 59 139 59 L 146.266 59 145.798 40.343 C 145.349 22.416, 145.242 21.614, 143.055 19.843 C 141.803 18.829, 139.978 18, 139 18 C 138.022 18, 136.197 18.829, 134.945 19.843 M 82.200 34.200 C 80.121 36.279, 80.875 39.220, 86.060 49.250 L 91.100 59 98.550 59 C 102.648 59, 106 58.727, 106 58.394 C 106 57.163, 92.667 35.456, 91.169 34.250 C 89.196 32.660, 83.770 32.630, 82.200 34.200 M 185.212 35.750 C 182.740 39.283, 171 58.006, 171 58.415 C 171 58.586, 173.813 58.967, 177.250 59.261 C 180.688 59.555, 184.196 60.079, 185.046 60.426 C 186.226 60.908, 187.986 58.379, 192.491 49.726 L 198.391 38.394 196.445 35.729 C 193.650 31.899, 187.899 31.909, 185.212 35.750 M 224.500 72.406 C 220.014 73.832, 209.528 79.010, 203.787 82.634 L 200 85.025 200 92.454 C 200 96.539, 200.354 100.101, 200.787 100.368 C 202.207 101.246, 232.791 82.636, 233.927 80.203 C 235.344 77.170, 235.288 73.688, 233.800 72.200 C 232.307 70.707, 229.658 70.766, 224.500 72.406 M 13.388 73.971 C 12.227 74.445, 10.314 76.057, 9.138 77.552 C 7.018 80.247, 7 80.698, 7 130.712 L 7 181.154 9.923 184.077 L 12.846 187 96.701 187 C 172.606 187, 180.776 186.845, 182.883 185.369 C 187.873 181.874, 188 180.509, 188 130.181 C 188 100.196, 187.625 82.253, 186.958 80.399 C 186.385 78.805, 184.698 76.600, 183.208 75.500 C 180.557 73.542, 178.772 73.496, 98 73.304 C 52.625 73.197, 14.550 73.497, 13.388 73.971 M 99.750 87.073 C 98.166 88.002, 98.001 90.205, 98.015 110.300 C 98.024 122.510, 98.391 133.068, 98.832 133.763 C 99.459 134.750, 107.385 134.968, 135.067 134.763 L 170.500 134.500 170.500 110.500 L 170.500 86.500 136 86.273 C 113.796 86.127, 100.876 86.412, 99.750 87.073 M 113 108 C 113 108.550, 112.192 109, 111.204 109 C 109.895 109, 109.424 109.747, 109.470 111.750 C 109.515 113.725, 110.022 114.461, 111.266 114.361 C 112.220 114.285, 113 114.622, 113 115.111 C 113 115.600, 113.702 116, 114.559 116 C 115.416 116, 115.866 115.592, 115.558 115.093 C 115.249 114.595, 115.835 114.406, 116.859 114.673 C 118.397 115.076, 118.702 114.616, 118.611 112.031 C 118.522 109.518, 118.140 108.996, 116.671 109.378 C 115.391 109.711, 115.006 109.426, 115.390 108.427 C 115.711 107.590, 115.330 107, 114.469 107 C 113.661 107, 113 107.450, 113 108 M 124.966 108.282 C 122.472 110.262, 122.643 114.673, 125.240 115.353 C 129.351 116.427, 131.869 115.101, 131.778 111.909 C 131.727 110.115, 131.157 109, 130.289 109 C 129.515 109, 129.160 108.550, 129.500 108 C 130.370 106.592, 126.816 106.812, 124.966 108.282 M 139 108 C 139 108.550, 138.438 109.001, 137.750 109.002 C 137.048 109.004, 136.452 110.341, 136.391 112.055 C 136.313 114.243, 136.666 114.958, 137.641 114.584 C 138.388 114.297, 139 114.499, 139 115.031 C 139 115.564, 139.675 116, 140.500 116 C 141.325 116, 142 115.600, 142 115.111 C 142 114.622, 142.739 114.285, 143.642 114.361 C 144.546 114.438, 145.504 113.875, 145.772 113.111 C 146.069 112.263, 145.819 111.994, 145.130 112.420 C 144.508 112.804, 144 112.641, 144 112.059 C 144 111.477, 144.450 111, 145 111 C 145.550 111, 146 110.550, 146 110 C 146 109.450, 145.100 109, 144 109 C 142.900 109, 142 108.550, 142 108 C 142 107.450, 141.325 107, 140.500 107 C 139.675 107, 139 107.450, 139 108 M 200.363 122.498 C 200.104 123.172, 200.029 126.374, 200.196 129.612 L 200.500 135.500 222.426 135.158 C 234.485 134.971, 245.423 134.409, 246.733 133.911 C 248.805 133.124, 249.075 132.453, 248.808 128.760 C 248.561 125.362, 248.001 124.286, 246 123.368 C 242.292 121.667, 200.984 120.879, 200.363 122.498 M 63.112 136.558 C 60.850 140.165, 59 143.299, 59 143.522 C 59 143.746, 56.975 147.265, 54.500 151.341 C 52.025 155.418, 50 159.934, 50 161.377 L 50 164 60 164 L 70 164 70 169.500 L 70 175 75 175 L 80 175 80 169.500 C 80 164.056, 80.030 164, 83 164 C 85.762 164, 86 163.722, 86 160.500 C 86 157.278, 85.762 157, 83 157 L 80 157 80 143.500 L 80 130 73.612 130 L 67.223 130 63.112 136.558 M 65 146.112 C 62.525 151.082, 60.350 155.565, 60.167 156.074 C 59.983 156.584, 62.121 157, 64.917 157 L 70 157 70 150.125 C 70 146.344, 70.281 141.844, 70.625 140.125 C 71.732 134.592, 69.614 136.846, 65 146.112 M 28.899 143.096 C 22.827 145.775, 20 150.645, 20 158.426 C 20 169.288, 26.542 176.019, 37.066 175.986 C 44.566 175.963, 46 175.225, 46 171.383 L 46 168 40.423 168 C 35.592 168, 34.455 167.609, 31.923 165.077 C 27.869 161.022, 27.932 156.286, 32.104 151.535 C 34.845 148.413, 35.766 148, 39.995 148 C 44.343 148, 44.844 147.756, 45.450 145.345 C 45.883 143.619, 45.658 142.399, 44.808 141.860 C 42.412 140.341, 33.588 141.026, 28.899 143.096 M 100.064 143.422 C 99.404 144.218, 99.020 146.971, 99.192 149.672 L 99.500 154.500 106 154.500 L 112.500 154.500 112.808 149.672 C 113.207 143.422, 111.945 142, 106 142 C 103.109 142, 100.782 142.557, 100.064 143.422 M 119 148.548 L 119 155.095 125.250 154.798 L 131.500 154.500 131.820 150.595 C 131.995 148.448, 131.874 145.635, 131.551 144.345 C 131.015 142.212, 130.421 142, 124.981 142 L 119 142 119 148.548 M 138.571 143.571 C 136.908 145.235, 136.464 151.606, 137.858 153.805 C 138.425 154.699, 140.544 155.013, 144.593 154.805 L 150.500 154.500 150.808 149.095 C 151.015 145.447, 150.690 143.420, 149.808 142.860 C 147.552 141.429, 140.251 141.892, 138.571 143.571 M 157.710 142.623 C 157.320 143.014, 157 145.958, 157 149.167 L 157 155 163.548 155 L 170.095 155 169.798 148.750 L 169.500 142.500 163.960 142.206 C 160.913 142.045, 158.101 142.232, 157.710 142.623 M 200.667 157.667 C 200.300 158.033, 200 161.387, 200 165.119 L 200 171.904 204.400 174.931 C 206.820 176.596, 212.722 179.993, 217.514 182.479 C 229.411 188.651, 235 188.452, 235 181.856 C 235 177.776, 231.956 175.146, 216.228 165.632 C 200.705 156.243, 201.621 156.712, 200.667 157.667 M 100.250 162.662 C 98.460 163.385, 98.598 173.421, 100.419 174.933 C 101.236 175.611, 104.098 175.981, 107.169 175.805 L 112.500 175.500 112.810 170.030 C 113.053 165.732, 112.745 164.287, 111.369 163.280 C 109.664 162.034, 102.759 161.650, 100.250 162.662 M 119.453 164.330 C 119.132 165.612, 119.011 168.649, 119.184 171.080 L 119.500 175.500 124.905 175.808 C 131.161 176.164, 131.962 175.430, 131.985 169.321 C 132.005 163.878, 130.072 162, 124.448 162 C 120.664 162, 119.955 162.331, 119.453 164.330 M 138.571 163.571 C 136.893 165.250, 136.429 172.552, 137.858 174.805 C 138.425 175.699, 140.544 176.013, 144.593 175.805 L 150.500 175.500 150.805 170.169 C 150.981 167.098, 150.611 164.236, 149.933 163.419 C 148.315 161.470, 140.569 161.574, 138.571 163.571 M 158.067 163.419 C 157.389 164.236, 157.019 167.098, 157.195 170.169 L 157.500 175.500 163.500 175.500 L 169.500 175.500 169.810 170.030 C 170.053 165.732, 169.745 164.287, 168.369 163.280 C 166.022 161.564, 159.534 161.651, 158.067 163.419 M 85.560 208.750 C 80.936 217.643, 80.043 221.643, 82.200 223.800 C 83.770 225.370, 89.197 225.340, 91.166 223.750 C 92.915 222.337, 105 202.423, 105 200.953 C 105 200.429, 101.650 200, 97.555 200 L 90.110 200 85.560 208.750 M 132.175 217.905 C 132.648 237.978, 132.979 239, 139 239 C 145.021 239, 145.352 237.978, 145.825 217.905 L 146.248 200 139 200 L 131.752 200 132.175 217.905 M 172.057 200.750 C 172.088 201.162, 175.360 206.675, 179.329 213 C 186.438 224.328, 186.605 224.504, 190.523 224.752 C 193.827 224.961, 194.821 224.558, 196.396 222.371 L 198.291 219.738 193.435 209.869 L 188.580 200 180.290 200 C 175.730 200, 172.025 200.338, 172.057 200.750" stroke="none"  fill-rule="evenodd"/>
</svg>