<?xml version="1.0" encoding="utf-8"?>
<!-- Generator: Adobe Illustrator 24.1.1, SVG Export Plug-In . SVG Version: 6.00 Build 0)  -->
<svg version="1.1" id="Layer_1" xmlns="http://www.w3.org/2000/svg" xmlns:xlink="http://www.w3.org/1999/xlink" x="0px" y="0px"
	 viewBox="0 0 16 16" style="enable-background:new 0 0 16 16;" xml:space="preserve">
<g id="Layer_1_2_" class="st0">
	<rect x="0" class="st1" width="16" height="15.9"/>
	<g id="Layer_1_1_" class="st1">
	</g>
	<g id="Layer_2_1_" class="st1">
		<g class="st0">
			<path class="st2" d="M11.9,9.5c0,0.2,0,0.3,0.1,0.3c0.1,0,0.2,0,0.3-0.2c0-0.1,0.1-0.4,0.1-0.7c0-0.4,0-0.7-0.1-1
				c-0.1-0.4-0.3-0.6-0.4-1C11.5,5.6,10.1,4.1,9.2,4"/>
			<path class="st2" d="M3.8,9.6c0,0.2,0.3,0.2,0.3,0.2s0.1,0,0.1-0.2s0-0.3,0-0.5s0.2-0.3,0.4-0.4c0.2-0.1,0.6-0.4,3.2-0.4
				s2.8,0.2,3.2,0.4c0.3,0.2,0.5,0.2,0.5,0.2"/>
		</g>
		<g>
			<g>
				<path class="st3" d="M8,15.6c-0.6,0-3-0.8-4.5-2.2c-1.4-1.3-2.2-3-2.2-4.6V0.8C1.8,0.7,3.4,0.4,8,0.4c4.1,0,6,0.3,6.7,0.4v7.9
					c0,1.5-0.8,3.2-2.3,4.6S8.6,15.6,8,15.6z"/>
				<path class="st4" d="M8,0.8c3.6,0,5.5,0.2,6.3,0.4v7.6c0,1.4-0.8,3-2.2,4.3c-1.4,1.4-3.6,2.1-4.1,2.1c-0.5,0-2.8-0.7-4.2-2.1
					c-1.3-1.2-2.1-2.8-2.1-4.3V1.1C2.3,1,4.1,0.8,8,0.8 M8,0C1.9,0,0.9,0.6,0.9,0.6s0,5.4,0,8.1c0,1.8,0.9,3.6,2.3,4.9
					C4.7,15.1,7.2,16,8,16c0.8,0,3.1-0.9,4.6-2.3C14,12.3,15,10.5,15,8.8c0-3.7,0-8.2,0-8.2S13.3,0,8,0L8,0z"/>
			</g>
			<g class="st0">
				<path class="st5" d="M12.4,9.9c0,0-0.1,0-0.2,0c0,0-0.1,0-0.2,0v0c0-0.2,0-0.3,0-0.5c0,0,0-0.4-0.4-0.6l0,0
					C11.1,8.4,10.7,8.1,8,8.1c-2.9,0-3.4,0.3-3.6,0.5S3.9,9.1,3.9,9.4v0.5c0,0-0.1,0-0.2,0c0,0-0.1,0-0.1,0c0,0-0.2-0.2-0.2-0.7
					c0-0.5,0-0.7,0.2-1l0-0.1c0-0.1,0.1-0.3,0.2-0.4C3.9,7.3,4,7.1,4.1,6.8C4.2,6.4,4.6,5.3,5,4.7c0.7-0.8,1.6-1.2,3-1.2
					c1.7,0,2.3,0.5,2.9,1.2l0,0C11.2,5,11.6,5.6,11.9,7c0.1,0.3,0.2,0.5,0.3,0.7c0,0.1,0.1,0.2,0.2,0.4c0.1,0.3,0.1,0.5,0.1,1
					C12.5,9.4,12.5,9.7,12.4,9.9C12.4,9.8,12.4,9.9,12.4,9.9C12.4,9.9,12.4,9.9,12.4,9.9z"/>
				<path class="st5" d="M8,3.8c1.6,0,2.1,0.4,2.7,1.1l0,0c0.2,0.2,0.6,0.7,0.9,2.1c0.1,0.3,0.2,0.6,0.3,0.8C12,8,12,8.2,12.1,8.3
					c0.1,0.2,0.1,0.4,0.1,0.9c0,0.2,0,0.3,0,0.4c0-0.1,0-0.1,0-0.3c0-0.1,0-0.5-0.6-0.9l0,0c-0.5-0.3-1-0.5-3.6-0.5
					c-2.7,0-3.4,0.3-3.8,0.6C3.9,8.7,3.6,9,3.6,9.4c0,0,0-0.1,0-0.2c0-0.5,0-0.6,0.1-0.9l0-0.1C3.8,8,3.9,7.9,4,7.7
					C4.1,7.5,4.2,7.3,4.3,7c0.1-0.3,0.5-1.5,0.9-2C5.8,4.1,6.8,3.8,8,3.8 M8,3.2C6.2,3.2,5.3,4,4.8,4.5c-0.5,0.6-0.9,1.8-1,2.2
					C3.7,7.2,3.5,7.5,3.3,7.9C3.1,8.3,3,8.4,3,9.1c0,0.6,0.2,1,0.4,1c0,0,0.1,0,0.1,0c0.1,0,0.3,0,0.3,0s0,0,0,0c0,0,0.1,0,0.1-0.2
					c0-0.3,0-0.4,0-0.5S4.3,9,4.6,8.8S5.3,8.3,8,8.3s3,0.2,3.4,0.4c0.3,0.2,0.3,0.4,0.3,0.4c0,0.3,0,0.3,0,0.6c0,0.1,0,0.2,0.2,0.3
					c0.2,0,0.3,0,0.4,0c0.1,0,0.2,0,0.3-0.2c0-0.1,0.1-0.4,0.1-0.7c0-0.4,0-0.7-0.2-1c-0.2-0.4-0.3-0.6-0.5-1.1c0-0.3-0.3-1.7-1-2.4
					C10.5,3.9,9.9,3.2,8,3.2L8,3.2z"/>
			</g>
		</g>
	</g>
</g>
<g id="Layer_3" class="st0">
	<rect x="0" class="st1" width="16" height="16"/>
</g>
<g id="armor_x2B_helmet" class="st0">
	<g id="armor_x2B_helmet_1_">
		<path class="st5" d="M8,0.9c3.4,0,5.3,0.2,6.2,0.3v7.5c0,1.3-0.8,2.9-2.1,4.2s-3.5,2.1-4,2.1c-0.5,0-2.8-0.7-4.1-2.1
			c-1.3-1.2-2-2.8-2-4.2V1.2C2.6,1.1,4.3,0.9,8,0.9 M8,0C1.9,0,0.9,0.6,0.9,0.6s0,5.4,0,8.1c0,1.8,0.9,3.6,2.3,4.9
			C4.8,15.1,7.3,16,8,16c0.8,0,3.1-0.9,4.6-2.3c1.4-1.3,2.4-3.1,2.4-4.8c0-3.7,0-8.2,0-8.2S13.4,0,8,0L8,0z"/>
	</g>
	<path class="st5" d="M8,0C1.9,0,0.9,0.6,0.9,0.6s0,5.4,0,8.1c0,1.8,0.9,3.6,2.3,4.9C4.8,15.1,7.3,16,8,16c0.8,0,3.1-0.9,4.6-2.3
		c1.4-1.3,2.4-3.1,2.4-4.8c0-3.7,0-8.2,0-8.2S13.4,0,8,0z M12.8,9.8c0,0-0.1,0.3-0.5,0.3h-0.2c-0.2,0-0.2-0.1-0.2-0.3V9.3
		c0,0,0-0.4-0.8-0.7c-0.8-0.2-2-0.3-3-0.3s-2.2,0-3,0.3S4.2,9.3,4.2,9.3v0.5c0,0.2,0,0.3-0.2,0.3H3.7c-0.3,0-0.5-0.3-0.5-0.3
		s-0.4-0.9,0.1-2C4.1,6.4,3.5,7,4.5,5.1C4.9,4.4,5.4,4,5.9,3.7l0,0c0,0,0.8-0.4,2.1-0.4s2.1,0.4,2.1,0.4l0,0c0.5,0.2,1,0.7,1.4,1.4
		c0.9,1.9,0.3,1.3,1.1,2.7C13.2,8.9,12.8,9.8,12.8,9.8z"/>
	<path id="armor_1_" class="st4" d="M8,0C1.9,0,0.9,0.6,0.9,0.6s0,5.4,0,8.1c0,1.8,0.9,3.6,2.3,4.9C4.8,15.1,7.3,16,8,16
		c0.8,0,3.1-0.9,4.6-2.3c1.4-1.3,2.4-3.1,2.4-4.8c0-3.7,0-8.2,0-8.2S13.4,0,8,0z"/>
</g>
<g id="Layer_2_2_" class="st0">
</g>
<g id="Layer_1_3_" class="st0">
	<rect x="0" y="0" class="st1" width="16" height="15.9"/>
	<g id="Layer_1_4_" class="st1">
	</g>
	<g id="Layer_2_4_" class="st1">
		<g class="st0">
			<path class="st2" d="M11.9,9.6c0,0.2,0,0.3,0.1,0.3c0.1,0,0.2,0,0.3-0.2c0-0.1,0.1-0.4,0.1-0.7c0-0.4,0-0.7-0.1-1
				c-0.1-0.4-0.3-0.6-0.4-1c-0.3-1.2-1.7-2.7-2.6-2.8"/>
			<path class="st2" d="M3.8,9.7c0,0.2,0.3,0.2,0.3,0.2s0.1,0,0.1-0.2s0-0.3,0-0.5c0-0.1,0.2-0.3,0.4-0.4c0.2-0.1,0.6-0.4,3.2-0.4
				s2.8,0.2,3.2,0.4C11.4,8.9,11.6,9,11.6,9"/>
		</g>
		<g>
			<g>
				<path class="st3" d="M8,15.6c-0.6,0-3-0.8-4.5-2.2c-1.4-1.3-2.2-3-2.2-4.6V0.9C1.8,0.7,3.4,0.4,8,0.4c4.1,0,6,0.3,6.7,0.4v7.9
					c0,1.5-0.8,3.2-2.3,4.6S8.6,15.6,8,15.6z"/>
				<path class="st4" d="M8,0.8c3.6,0,5.5,0.2,6.3,0.4v7.6c0,1.4-0.8,3-2.2,4.3c-1.4,1.4-3.6,2.1-4.1,2.1c-0.5,0-2.8-0.7-4.2-2.1
					c-1.3-1.2-2.1-2.8-2.1-4.3V1.2C2.3,1,4.1,0.8,8,0.8 M8,0.1c-6.1,0-7.1,0.5-7.1,0.5s0,5.4,0,8.1c0,1.8,0.9,3.6,2.3,4.9
					C4.7,15.1,7.2,16,8,16c0.8,0,3.1-0.9,4.6-2.3C14,12.4,15,10.6,15,8.8c0-3.7,0-8.2,0-8.2S13.3,0.1,8,0.1L8,0.1z"/>
			</g>
			<g class="st0">
				<path class="st5" d="M12.4,9.9c0,0-0.1,0-0.2,0c0,0-0.1,0-0.2,0v0c0-0.2,0-0.3,0-0.5c0,0,0-0.4-0.4-0.6l0,0
					C11.1,8.4,10.7,8.2,8,8.2c-2.9,0-3.4,0.3-3.6,0.5C4.2,8.9,3.9,9.1,3.9,9.4v0.5c0,0-0.1,0-0.2,0c0,0-0.1,0-0.1,0
					c0,0-0.2-0.2-0.2-0.7c0-0.5,0-0.7,0.2-1l0-0.1c0-0.1,0.1-0.3,0.2-0.4C3.9,7.4,4,7.1,4.1,6.9C4.2,6.5,4.6,5.3,5,4.7
					c0.7-0.8,1.6-1.2,3-1.2c1.7,0,2.3,0.5,2.9,1.2l0,0c0.2,0.3,0.6,0.9,0.9,2.2c0.1,0.3,0.2,0.5,0.3,0.7c0,0.1,0.1,0.2,0.2,0.4
					c0.1,0.3,0.1,0.5,0.1,1C12.5,9.5,12.5,9.7,12.4,9.9C12.4,9.9,12.4,9.9,12.4,9.9C12.4,9.9,12.4,9.9,12.4,9.9z"/>
				<path class="st5" d="M8,3.8c1.6,0,2.1,0.4,2.7,1.1l0,0c0.2,0.2,0.6,0.7,0.9,2.1c0.1,0.3,0.2,0.6,0.3,0.8c0,0.1,0.1,0.2,0.2,0.3
					c0.1,0.2,0.1,0.4,0.1,0.9c0,0.2,0,0.3,0,0.4c0-0.1,0-0.1,0-0.3c0-0.1,0-0.5-0.6-0.9l0,0c-0.5-0.3-1-0.5-3.6-0.5
					c-2.7,0-3.4,0.3-3.8,0.6C3.9,8.7,3.6,9,3.6,9.4c0,0,0-0.1,0-0.2c0-0.5,0-0.6,0.1-0.9l0-0.1C3.8,8,3.9,7.9,4,7.8
					C4.1,7.5,4.2,7.3,4.3,7c0.1-0.3,0.5-1.5,0.9-2C5.8,4.2,6.8,3.8,8,3.8 M8,3.3C6.2,3.3,5.3,4,4.8,4.6c-0.5,0.6-0.9,1.8-1,2.2
					C3.7,7.2,3.5,7.5,3.3,7.9C3.1,8.3,3,8.5,3,9.1s0.2,1,0.4,1c0,0,0.1,0,0.1,0c0.1,0,0.3,0,0.3,0s0,0,0,0c0,0,0.1,0,0.1-0.2
					c0-0.3,0-0.4,0-0.5c0-0.1,0.2-0.3,0.4-0.5S5.3,8.4,8,8.4s3,0.2,3.4,0.4c0.3,0.2,0.3,0.4,0.3,0.4c0,0.3,0,0.3,0,0.6
					c0,0.1,0,0.2,0.2,0.3c0.2,0,0.3,0,0.4,0c0.1,0,0.2,0,0.3-0.2c0-0.1,0.1-0.4,0.1-0.7c0-0.4,0-0.7-0.2-1c-0.2-0.4-0.3-0.6-0.5-1.1
					c0-0.3-0.3-1.7-1-2.4C10.5,3.9,9.9,3.3,8,3.3L8,3.3z"/>
			</g>
		</g>
	</g>
</g>
<g id="Layer_3_1_" class="st0">
	<rect x="0" y="0" class="st1" width="16" height="16"/>
</g>
<g id="armor">
	<g id="armor_x2B_helmet_3_" class="st0">
		<path class="st5" d="M8,0.9c3.4,0,5.3,0.2,6.2,0.3v7.5c0,1.3-0.8,2.9-2.1,4.2s-3.5,2.1-4,2.1c-0.5,0-2.8-0.7-4.1-2.1
			c-1.3-1.2-2-2.8-2-4.2V1.2C2.6,1.1,4.3,0.9,8,0.9 M8,0C1.9,0,0.9,0.6,0.9,0.6s0,5.4,0,8.1c0,1.8,0.9,3.6,2.3,4.9
			C4.8,15.1,7.3,16,8,16c0.8,0,3.1-0.9,4.6-2.3c1.4-1.3,2.4-3.1,2.4-4.8c0-3.7,0-8.2,0-8.2S13.4,0,8,0L8,0z"/>
	</g>
	<path class="st3" d="M8,0C1.9,0,0.9,0.6,0.9,0.6s0,5.4,0,8.1c0,1.8,0.9,3.6,2.3,4.9C4.8,15.1,7.3,16,8,16c0.8,0,3.1-0.9,4.6-2.3
		c1.4-1.3,2.4-3.1,2.4-4.8c0-3.7,0-8.2,0-8.2S13.4,0,8,0z M12.8,9.8c0,0-0.1,0.3-0.5,0.3h-0.2c-0.2,0-0.2-0.1-0.2-0.3V9.3
		c0,0,0-0.4-0.8-0.7c-0.8-0.2-2-0.3-3-0.3s-2.2,0-3,0.3S4.2,9.3,4.2,9.3v0.5c0,0.2,0,0.3-0.2,0.3H3.7c-0.3,0-0.5-0.3-0.5-0.3
		s-0.4-0.9,0.1-2C4.1,6.4,3.5,7,4.5,5.1C4.9,4.4,5.4,4,5.9,3.7l0,0c0,0,0.8-0.4,2.1-0.4s2.1,0.4,2.1,0.4l0,0c0.5,0.2,1,0.7,1.4,1.4
		c0.9,1.9,0.3,1.3,1.1,2.7C13.2,8.9,12.8,9.8,12.8,9.8z"/>
	<path id="armor_2_" class="st4" d="M8,0C1.9,0,0.9,0.6,0.9,0.6s0,5.4,0,8.1c0,1.8,0.9,3.6,2.3,4.9C4.8,15.1,7.3,16,8,16
		c0.8,0,3.1-0.9,4.6-2.3c1.4-1.3,2.4-3.1,2.4-4.8c0-3.7,0-8.2,0-8.2S13.4,0,8,0z"/>
</g>
<g id="Layer_2_3_" class="st0">
</g>
</svg>
