<svg xmlns="http://www.w3.org/2000/svg" width="256" height="256" viewBox="0 0 256 256" version="1.1">
	<path d="M 123.069 4.399 C 112.951 19.105, 85.364 28.877, 49.042 30.620 C 41.594 30.978, 34.938 31.714, 34.250 32.257 C 32.316 33.785, 32.490 162.931, 34.438 172.122 C 39.928 198.022, 69.640 226.782, 114.549 249.668 L 127.956 256.500 141.228 249.807 C 185.758 227.351, 216.068 198.040, 221.562 172.122 C 223.510 162.931, 223.684 33.785, 221.750 32.257 C 221.063 31.714, 214.406 30.978, 206.958 30.620 C 170.880 28.888, 143.761 19.416, 133.335 4.903 C 131.289 2.055, 129.033 -0, 127.954 -0 C 126.884 -0, 124.813 1.865, 123.069 4.399 M 121.645 33.568 C 111.808 44.627, 90.822 51.042, 60.500 52.259 L 54.500 52.500 54.500 108.500 L 54.500 164.500 57.610 171 C 66.494 189.568, 87.388 207.863, 116.750 222.783 L 128 228.500 139.250 222.783 C 160.025 212.227, 179.247 197.890, 189.303 185.450 C 191.948 182.178, 195.775 176.149, 197.806 172.053 L 201.500 164.606 201.500 108.553 L 201.500 52.500 190.310 51.851 C 165.626 50.418, 149.074 45.847, 138.007 37.408 C 135.442 35.451, 132.565 32.534, 131.615 30.925 C 130.665 29.316, 129.125 28.025, 128.193 28.055 C 127.262 28.086, 124.315 30.566, 121.645 33.568" stroke="none"  fill-rule="evenodd"/>
</svg>