<?xml version="1.0" encoding="utf-8"?>
<!-- Generator: Adobe Illustrator 24.1.1, SVG Export Plug-In . SVG Version: 6.00 Build 0)  -->
<svg version="1.1" id="Layer_1" xmlns="http://www.w3.org/2000/svg" xmlns:xlink="http://www.w3.org/1999/xlink" x="0px" y="0px"
	 viewBox="0 0 16 16" style="enable-background:new 0 0 16 16;" xml:space="preserve">
<style type="text/css">
	
	.st4BHTR{fill:#FFFFFF;}
	.st5{display:inline;fill:#FFFFFF;}
</style>

<g id="armor_x2B_helmet">
	<path class="st4BHTR" d="M8,0C1.9,0,0.9,0.6,0.9,0.6s0,5.4,0,8.1c0,1.8,0.9,3.6,2.3,4.9C4.8,15.1,7.3,16,8,16c0.8,0,3.1-0.9,4.6-2.3
		c1.4-1.3,2.4-3.1,2.4-4.8c0-3.7,0-8.2,0-8.2S13.4,0,8,0z M12.8,9.8c0,0-0.1,0.3-0.5,0.3h-0.2c-0.2,0-0.2-0.1-0.2-0.3V9.3
		c0,0,0-0.4-0.8-0.7c-0.8-0.2-2-0.3-3-0.3s-2.2,0-3,0.3S4.2,9.3,4.2,9.3v0.5c0,0.2,0,0.3-0.2,0.3H3.7c-0.3,0-0.5-0.3-0.5-0.3
		s-0.4-0.9,0.1-2C4.1,6.4,3.5,7,4.5,5.1C4.9,4.4,5.4,4,5.9,3.7l0,0c0,0,0.8-0.4,2.1-0.4s2.1,0.4,2.1,0.4l0,0c0.5,0.2,1,0.7,1.4,1.4
		c0.9,1.9,0.3,1.3,1.1,2.7C13.2,8.9,12.8,9.8,12.8,9.8z"/>
</g>
</svg>
