<svg xmlns="http://www.w3.org/2000/svg" width="256" height="256" viewBox="0 0 256 256" version="1.1">
	<path d="M 80.398 1.821 C 65.129 6.363, 53.649 17.697, 48.964 32.855 C 47.132 38.783, 47 42.316, 47 85.395 C 47 123.769, 47.261 132.588, 48.542 137.540 C 52.928 154.489, 68.346 168.161, 86.250 170.977 C 108.914 174.541, 131.815 159.496, 137.500 137.307 C 138.846 132.053, 139.032 124.236, 138.787 83.331 C 138.503 35.955, 138.478 35.445, 136.182 29.760 C 131.375 17.858, 120.753 7.297, 109.264 2.997 C 101.150 -0.040, 88.403 -0.559, 80.398 1.821 M 7.121 68.027 C 2.139 71.636, -0.557 76.644, 0.409 80.493 C 0.782 81.980, 3.318 85.335, 6.044 87.949 L 11 92.701 11.013 115.100 C 11.030 143.295, 12.456 151.390, 20.145 166.936 C 24.787 176.321, 26.494 178.622, 35.435 187.553 C 43.770 195.877, 47.047 198.391, 54.500 202.177 C 59.450 204.692, 65.875 207.521, 68.777 208.464 L 74.054 210.179 73.777 224.339 L 73.500 238.500 66.250 238.794 L 59 239.088 59 247.544 L 59 256 93 256 L 127 256 127 247.544 L 127 239.088 119.750 238.794 L 112.500 238.500 112.223 224.389 L 111.947 210.278 119.723 207.557 C 144.861 198.761, 164.294 178.096, 172.141 151.815 C 174.079 145.327, 174.374 141.563, 174.752 118.514 L 175.179 92.529 180.046 87.863 C 182.723 85.296, 185.223 81.960, 185.603 80.448 C 186.532 76.743, 183.591 71.443, 178.600 67.826 C 175.116 65.301, 173.871 65, 166.923 65 L 159.145 65 158.762 103.750 C 158.427 137.548, 158.149 143.203, 156.591 148 C 147.573 175.767, 124.458 194.127, 96.549 195.692 C 70.244 197.166, 45.036 182.139, 33.770 158.268 C 27.810 145.641, 27.705 144.754, 27.262 103.250 L 26.853 65 19.077 65 C 12.007 65, 10.920 65.275, 7.121 68.027" stroke="none"  fill-rule="evenodd"/>
</svg>