<svg xmlns="http://www.w3.org/2000/svg" width="256" height="256" viewBox="0 0 256 256" version="1.1">
	<path d="M 97.557 9.223 C 95.448 12.234, 95.584 17.314, 97.829 19.345 C 99.034 20.436, 101.420 21, 104.829 21 L 110 21 110 30.981 L 110 40.962 107.250 41.557 C 70.068 49.605, 39.939 76.422, 28.673 111.500 C 24.486 124.535, 23.546 130.760, 23.612 145 C 23.660 155.209, 24.194 160.614, 25.801 167.172 C 35.572 207.051, 63.332 235.136, 103.969 246.255 C 114.853 249.233, 141.147 249.233, 152.031 246.255 C 165.022 242.700, 175.684 238.064, 185.126 231.864 C 241.653 194.746, 249.073 115.747, 200.419 69.038 C 185.460 54.677, 169.057 45.952, 148.750 41.557 L 146 40.962 146 30.981 L 146 21 151.345 21 C 155.253 21, 157.135 20.508, 158.345 19.171 C 160.429 16.869, 160.476 12.124, 158.443 9.223 C 156.896 7.013, 156.717 7, 128 7 C 99.283 7, 99.104 7.013, 97.557 9.223 M 56.925 37.493 C 51.942 39.089, 45.937 44.288, 43.392 49.209 C 41.309 53.237, 40.499 62.698, 41.923 66.361 L 43.035 69.221 50.595 62.040 C 58.120 54.891, 69.827 46.557, 75.843 44.065 C 77.579 43.346, 79 42.371, 79 41.899 C 79 40.324, 70.922 36.895, 66.182 36.458 C 63.575 36.218, 59.472 36.677, 56.925 37.493 M 116.500 57.943 C 80.907 63.811, 54.693 86.613, 44.349 120.703 C 42.027 128.357, 41.671 131.318, 41.610 143.500 C 41.552 155.066, 41.933 158.951, 43.801 165.845 C 57.648 216.935, 110.803 243.880, 160.209 224.855 C 180.834 216.912, 199.461 198.707, 207.899 178.245 C 213.214 165.356, 214.444 158.762, 214.379 143.500 C 214.328 131.299, 213.977 128.370, 211.651 120.703 C 206.766 104.604, 199.079 91.980, 187.650 81.289 C 175.973 70.366, 164.571 64.011, 149.630 60.097 C 140.834 57.793, 124.033 56.701, 116.500 57.943 M 112.500 71.404 C 90.518 76.432, 71.330 91.467, 61.693 111.213 C 55.819 123.250, 54 131.039, 54 144.154 C 54 176.394, 73.164 203.471, 103.681 214.348 C 151.285 231.315, 202 195.434, 202 144.787 C 202 131.820, 199.881 122.620, 194.218 111 C 190.295 102.950, 188.208 100.124, 180.544 92.482 C 165.028 77.011, 151.512 71.047, 130.500 70.400 C 122.636 70.159, 116.432 70.504, 112.500 71.404 M 115.276 86.511 C 96.519 90.587, 79.156 107.174, 72.894 127 C 69.680 137.174, 69.094 156.298, 71.859 160.771 C 72.438 161.709, 78.285 159.862, 95.067 153.440 C 107.405 148.718, 119.862 143.955, 122.750 142.855 L 128 140.856 128 112.928 L 128 85 124.750 85.079 C 122.963 85.123, 118.699 85.768, 115.276 86.511" stroke="none"  fill-rule="evenodd"/>
</svg>