<svg xmlns="http://www.w3.org/2000/svg" width="256" height="256" viewBox="0 0 256 256" version="1.1">
	<path d="M 123.069 4.399 C 112.951 19.105, 85.364 28.877, 49.042 30.620 C 41.594 30.978, 34.938 31.714, 34.250 32.257 C 32.316 33.785, 32.490 162.931, 34.438 172.122 C 39.928 198.022, 69.640 226.782, 114.549 249.668 L 127.956 256.500 141.228 249.807 C 185.758 227.351, 216.068 198.040, 221.562 172.122 C 223.510 162.931, 223.684 33.785, 221.750 32.257 C 221.063 31.714, 214.406 30.978, 206.958 30.620 C 170.880 28.888, 143.761 19.416, 133.335 4.903 C 131.289 2.055, 129.033 -0, 127.954 -0 C 126.884 -0, 124.813 1.865, 123.069 4.399 M 121.645 33.568 C 111.669 44.784, 91.883 50.736, 59.500 52.264 L 54.500 52.500 54.500 108.500 L 54.500 164.500 57.610 171 C 66.494 189.568, 87.388 207.863, 116.750 222.783 L 128 228.500 139.250 222.783 C 160.025 212.227, 179.247 197.890, 189.303 185.450 C 191.948 182.178, 195.775 176.149, 197.806 172.053 L 201.500 164.606 201.500 108.553 L 201.500 52.500 190.310 51.851 C 165.626 50.418, 149.074 45.847, 138.007 37.408 C 135.442 35.451, 132.565 32.534, 131.615 30.925 C 130.665 29.316, 129.125 28.025, 128.193 28.055 C 127.262 28.086, 124.315 30.566, 121.645 33.568 M 123 55.240 C 115.991 63.391, 100.434 68.647, 79.768 69.846 L 68.500 70.500 68.500 116.500 L 68.500 162.500 71.494 168.500 C 75.496 176.522, 90.800 191.911, 102.082 199.259 C 106.803 202.333, 114.565 206.783, 119.332 209.147 L 128 213.446 136.668 209.147 C 141.435 206.783, 149.197 202.333, 153.918 199.259 C 165.200 191.911, 180.504 176.522, 184.506 168.500 L 187.500 162.500 187.500 116.500 L 187.500 70.500 176.232 69.846 C 155.603 68.650, 140.242 63.459, 132.753 55.155 C 130.692 52.870, 128.442 51.038, 127.753 51.085 C 127.064 51.131, 124.925 53.001, 123 55.240 M 116.218 89.031 C 116.632 91.854, 116.257 92.279, 110.755 95.211 C 100.446 100.706, 93.314 111.444, 92.261 123.059 C 91.769 128.484, 91.517 129, 89.361 129 C 87.163 129, 87 129.384, 87 134.551 C 87 139.950, 87.096 140.142, 90.500 141.564 C 92.689 142.479, 94 143.711, 94 144.854 C 94 148.281, 100.064 158.825, 104.166 162.531 C 111.202 168.887, 118.144 171.500, 128 171.500 C 137.856 171.500, 144.798 168.887, 151.834 162.531 C 155.936 158.825, 162 148.281, 162 144.854 C 162 143.711, 163.311 142.479, 165.500 141.564 C 168.904 140.142, 169 139.950, 169 134.551 C 169 129.384, 168.837 129, 166.639 129 C 164.483 129, 164.231 128.484, 163.739 123.059 C 162.686 111.444, 155.554 100.706, 145.245 95.211 C 139.743 92.279, 139.368 91.854, 139.782 89.031 L 140.227 86 128 86 L 115.773 86 116.218 89.031 M 121.452 93.250 C 122.035 95.929, 125 116.638, 125 118.030 C 125 118.564, 126.350 119, 128 119 C 129.650 119, 131 118.564, 131 118.030 C 131 116.638, 133.965 95.929, 134.548 93.250 C 135.020 91.083, 134.777 91, 128 91 C 121.223 91, 120.980 91.083, 121.452 93.250 M 105 146.888 C 105 147.414, 106.467 149.767, 108.259 152.118 C 115.316 161.369, 128.999 164.358, 139.517 158.945 C 144.012 156.632, 151 149.294, 151 146.888 C 151 146.301, 148.972 146.234, 145.750 146.716 C 142.863 147.147, 134.875 147.500, 128 147.500 C 121.125 147.500, 113.138 147.147, 110.250 146.716 C 107.028 146.234, 105 146.301, 105 146.888" stroke="none"  fill-rule="evenodd"/>
</svg>