<svg version="1.1" id="Capa_1" xmlns="http://www.w3.org/2000/svg" viewBox="0 0 512 512">
<style type="text/css">
	.st0{fill:#FFFFFF;}
	.st1{fill:#DBD8DC;}
	.st2{fill:#867E88;}
	.st3{fill:none;}
	.st4{fill:#6F6571;}
	.st5{fill:#C9C6CA;}
	.st6{fill:#B7B2B8;}
</style>
<path class="st0" d="M249.3,0.1C118.8,3.7,16.5,114,16.5,244.5v143.7c0,31.9,25.9,57.8,57.8,57.8h41.3c9.1,0,16.5,7.4,16.5,16.5
	v24.8c0,13.7,11.1,24.8,24.8,24.8h198.2c13.7,0,24.8-11.1,24.8-24.8v-24.8c0-9.1,7.4-16.5,16.5-16.5h41.3
	c31.9,0,57.8-25.9,57.8-57.8V239.5C495.5,105,384.6-3.6,249.3,0.1z M148.7,363.4c-41.1,0-74.3-33.3-74.3-74.3
	c0-41.1,33.3-74.3,74.3-74.3c41,0,74.3,33.3,74.3,74.3C223,330.1,189.7,363.4,148.7,363.4z M363.4,363.4c-41,0-74.3-33.3-74.3-74.3
	c0-41.1,33.3-74.3,74.3-74.3c41,0,74.3,33.3,74.3,74.3C437.7,330.1,404.4,363.4,363.4,363.4z"/>
<path class="st1" d="M181.7,462.5V512h-24.8c-13.7,0-24.8-11.1-24.8-24.8v-24.8c0-9.1-7.4-16.5-16.5-16.5H74.3
	c-31.9,0-57.8-25.9-57.8-57.8V244.5c0-123.3,91.2-230.1,213.8-243.1c23.1-2.5,45.6-1.5,67.2,2.2C187.4,23,104.4,119.4,99.3,233.4
	c-15.3,13.6-25,33.5-25,55.6c0,22,9.6,41.8,24.8,55.4v35.4c0,22.8,18.5,41.3,41.3,41.3C163.2,421.2,181.7,439.7,181.7,462.5z"/>
<path class="st2" d="M248.4,364.6l-26.2,63.3c-2.8,6.8,3.9,13.5,10.7,10.8l17-6.8c3.9-1.6,8.3-1.6,12.3,0l17,6.8
	c6.8,2.7,13.5-4.1,10.7-10.8l-26.2-63.3C260.8,357.8,251.2,357.8,248.4,364.6z"/>
<path class="st3" d="M223,289c0,41-33.3,74.3-74.3,74.3c-19,0-36.4-7.2-49.6-18.9v-100c0-3.7,0.1-7.4,0.2-11
	c13.1-11.6,30.4-18.7,49.3-18.7C189.7,214.7,223,248,223,289z"/>
<path class="st4" d="M148.6,247.7c35.4,0,64.9,24.7,72.4,57.8c1.2-5.3,1.9-10.8,1.9-16.5c0-41-33.3-74.3-74.3-74.3
	S74.3,248,74.3,289c0,5.7,0.7,11.2,1.9,16.5C83.7,272.5,113.3,247.7,148.6,247.7z"/>
<path class="st3" d="M437.7,289c0,41-33.3,74.3-74.3,74.3c-41,0-74.3-33.3-74.3-74.3c0-41.1,33.3-74.3,74.3-74.3
	C404.4,214.7,437.7,248,437.7,289z"/>
<path class="st4" d="M363.4,247.7c35.4,0,64.9,24.7,72.4,57.8c1.2-5.3,1.9-10.8,1.9-16.5c0-41-33.3-74.3-74.3-74.3S289,248,289,289
	c0,5.7,0.7,11.2,1.9,16.5C298.5,272.5,328,247.7,363.4,247.7z"/>
<path class="st4" d="M237.6,401.2c5.9-2.4,12.1-3.5,18.4-3.5s12.5,1.2,18.4,3.5l5.3,2.1l-16-38.7c-2.8-6.8-12.4-6.8-15.3,0l-16,38.7
	L237.6,401.2z"/>
<path class="st5" d="M223,512h-16.5v-24.8c0-4.6,3.7-8.3,8.3-8.3l0,0c4.6,0,8.3,3.7,8.3,8.3L223,512L223,512z"/>
<path class="st5" d="M305.5,512H289v-24.8c0-4.6,3.7-8.3,8.3-8.3l0,0c4.6,0,8.3,3.7,8.3,8.3V512z"/>
<path class="st5" d="M346.8,512h-16.5v-24.8c0-4.6,3.7-8.3,8.3-8.3l0,0c4.6,0,8.3,3.7,8.3,8.3V512z"/>
<path class="st5" d="M264.3,512h-16.5v-24.8c0-4.6,3.7-8.3,8.3-8.3l0,0c4.6,0,8.3,3.7,8.3,8.3V512z"/>
<path class="st6" d="M181.7,512h-16.5v-24.8c0-4.6,3.7-8.3,8.3-8.3l0,0c4.6,0,8.3,3.7,8.3,8.3L181.7,512L181.7,512z"/>
</svg>
