<svg version="1.1" xmlns="http://www.w3.org/2000/svg" viewBox="0 0 256 256">
<path d="M32.6,20.9c-0.7,1.1,2.9,6.4,17.7,25.6c11.6,15.2,12.5,16,16,16.3c2.1,0.2,3.7,0.8,3.7,1.4
	c0,2.3-7.2,10.8-9.1,10.8c-2,0-2.3-0.5-3.3-5c-0.5-2.2-2.5-3.3-16.8-8.8c-31.1-12-30.7-11.9-32.3-9.7c-1.1,1.5-1.1,2.2-0.2,3.3
	c0.6,0.8,10.5,9,21.9,18.3C47.7,87.4,52,90.4,58.5,93c11.6,4.6,12.8,5.4,17.5,11.7c12.2,16.2,12.7,17.4,15.4,44.2
	c0.8,8,2.2,16.9,3.1,19.8c5,16.7,15.3,34.2,26.6,45.4c7.9,7.7,19.2,16.6,25.5,19.8c3.7,1.9,4.4,2,7.3,0.8c4.1-1.7,7.3-7.6,6.9-12.5
	c-0.3-3.1-1.2-4.3-7.3-8.9c-10.4-7.9-17-14.8-23-23.8c-9.1-13.7-13.3-25.1-16-44.2c-0.9-6.1-2-12.7-2.6-14.5c-0.5-1.8-1-4.2-1-5.2
	c0-1.8,0.1-1.8,2-0.1c1.9,1.7,5,1.5,5-0.3c0-0.5-2.2-2.6-4.8-4.7c-4.1-3.3-14.5-16.8-15.4-20c-0.2-0.6,0.9-2.5,2.4-4.3l2.7-3.2
	l7.3,2.6c6.8,2.5,8.1,2.6,18.3,2c6.1-0.4,15.3-1.3,20.5-2.1c28-4.4,47.6,0.2,77.6,18.1c10.4,6.2,14.6,6.9,18.9,3.2
	c3.8-3.3,4.5-9.5,1.3-12.4c-4.1-3.8-24.1-17-33.3-22.1c-14.5-8-21.7-9.4-46.5-9.4c-11.4,0-27.2,0.5-35.2,1.1c-14,1-14.7,1-24.2-1.5
	c-15.3-4-15.6-4.1-23.6-15.4c-4-5.6-7.6-10.1-8.1-10.1c-0.5,0-9.6-6.1-20.1-13.5C37.7,20.8,33.9,18.7,32.6,20.9 M118.7,103.4
	c-0.8,2.1,2.9,3.6,9.4,3.6c8.4,0,5.5-3-4.3-4.5C120.1,101.9,119.2,102.1,118.7,103.4 M114.2,109.7c0.4,2.3,13.8,5.9,13.8,3.7
	c0-1.7-8-5.4-11.7-5.4C114.5,108,113.9,108.5,114.2,109.7 M110,113.8c0,1.1,10.5,7.2,12.5,7.2c2.9,0,1.1-2.4-4.1-5.2
	C113.6,113.1,110,112.2,110,113.8"/>
</svg>
