<svg xmlns="http://www.w3.org/2000/svg" width="256" height="256" viewBox="0 0 256 256" version="1.1">
	<path d="M 126.210 11.967 C 122.289 33.248, 113.325 56.354, 102.465 73.173 C 97.364 81.074, 85.321 96, 84.048 96 C 82.356 96, 60.634 117.655, 56.463 123.500 C 46.005 138.155, 42.360 152.317, 43.336 174.500 C 44.291 196.222, 50.439 213.762, 62.726 229.828 C 67.999 236.722, 80.689 248.644, 81.689 247.644 C 81.940 247.393, 81.665 245.458, 81.078 243.344 C 79.546 237.826, 79.754 225.365, 81.489 218.703 C 84.638 206.615, 88.162 201.522, 104.464 185.500 C 123.673 166.622, 129.228 158.557, 130.855 147.185 L 131.509 142.612 134.728 151.056 C 139.181 162.735, 145.494 173.071, 153.931 182.500 C 157.869 186.900, 162.180 192.750, 163.511 195.500 C 170.214 209.349, 168.364 228.413, 158.395 248.208 C 156.514 251.944, 155.240 255, 155.563 255 C 156.870 255, 169.004 245.047, 176.880 237.514 C 192.520 222.558, 203.522 206.373, 209.181 190 C 212.429 180.601, 212.464 180.309, 212.414 162.500 C 212.374 147.805, 211.954 142.572, 210.130 134 C 202.794 99.526, 183.062 59.328, 158.341 28.500 C 149.673 17.689, 135.924 4.046, 131.276 1.643 L 128.388 0.149 126.210 11.967" stroke="none"  fill-rule="evenodd"/>
</svg>