<svg xmlns="http://www.w3.org/2000/svg" width="256" height="256" viewBox="0 0 256 256" version="1.1">
	<path d="M 44.256 25.617 C 42.472 26.512, 40.110 28.705, 39.006 30.490 C 37.035 33.679, 37 35.384, 37 127.500 C 37 219.763, 37.032 221.316, 39.016 224.526 C 42.804 230.656, 45.272 231.141, 70.947 230.802 L 93.873 230.500 96.943 227.557 C 98.631 225.938, 100.457 223.013, 101.001 221.057 C 102.342 216.227, 102.342 38.773, 101.001 33.943 C 100.457 31.987, 98.631 29.062, 96.943 27.443 L 93.873 24.500 70.686 24.245 C 50.922 24.028, 47.021 24.231, 44.256 25.617 M 161.500 24.954 C 158.427 26.225, 155.057 30.314, 153.976 34.083 C 152.646 38.723, 152.668 216.263, 153.999 221.057 C 154.543 223.013, 156.369 225.938, 158.057 227.557 L 161.127 230.500 184.053 230.802 C 209.728 231.141, 212.196 230.656, 215.984 224.526 C 217.968 221.316, 218 219.763, 218 127.500 C 218 35.237, 217.968 33.684, 215.984 30.474 C 212.307 24.525, 209.761 23.993, 185.349 24.063 C 173.332 24.098, 162.600 24.499, 161.500 24.954" stroke="none"  fill-rule="evenodd"/>
</svg>