<svg version="1.1" xmlns="http://www.w3.org/2000/svg" viewBox="0 0 247 194.5">
<path d="M244,24.3c-5.2-5.7-20-11.9-34.1-14.3c-4.2-0.7-12.2-1.3-18.7-1.3h-11.4l-3.2-2.8l-3.2-2.8h-74
	c-71.8,0-74.1,0-77.9-1.6c-4.7-1.9-9.4-2-14.2-0.4C0.3,3.5,0,4.7,0,31c0,25.7,0.3,27.1,6.3,29.9c4.2,2,12.2,1.6,16.4-0.7l3.6-2h73.6
	h73.6l2.7-2.4c2.6-2.4,2.8-2.4,13.8-2.4c13.4,0,21.4-1,31.7-4.1C243.5,42.7,252.1,33.1,244,24.3 M244,90.4
	c-5.2-5.7-20-11.9-34.1-14.3c-4.2-0.7-12.2-1.3-18.7-1.3h-11.4l-3.2-2.8l-3.2-2.8h-74c-71.8,0-74.1,0-77.9-1.6
	c-4.7-1.9-9.4-2-14.2-0.4C0.3,69.7,0,70.8,0,97.2c0,25.7,0.3,27.1,6.3,29.9c4.2,2,12.2,1.6,16.4-0.7l3.6-2h73.6h73.6l2.7-2.4
	c2.6-2.4,2.8-2.4,13.8-2.4c13.4,0,21.4-1,31.7-4.1C243.5,108.9,252.1,99.3,244,90.4 M244,156.6c-5.2-5.7-20-11.9-34.1-14.3
	c-4.2-0.7-12.2-1.3-18.7-1.3h-11.4l-3.2-2.8l-3.2-2.8h-74c-71.8,0-74.1,0-77.9-1.6c-4.7-1.9-9.4-2-14.2-0.4C0.3,135.9,0,137,0,163.4
	c0,25.7,0.3,27.1,6.3,29.9c4.2,2,12.2,1.6,16.4-0.7l3.6-2h73.6h73.6l2.7-2.4c2.6-2.4,2.8-2.4,13.8-2.4c13.4,0,21.4-1,31.7-4.1
	C243.5,175.1,252.1,165.5,244,156.6 M162.2,13.1c-2.5-1.1-11-1.2-69.4-1c-64.2,0.2-66.6,0.3-68.2,1.8c-2.2,2-2.2,4,0.2,5.6
	c1.7,1.1,9.7,1.3,69.6,1.3c51.1,0,68.1-0.2,69.2-1C166.1,18.1,165.3,14.4,162.2,13.1 M162.2,79.3c-2.5-1.1-11-1.2-69.4-1
	c-64.2,0.2-66.6,0.3-68.2,1.8c-2.2,2-2.2,4,0.2,5.6c1.7,1.1,9.7,1.3,69.6,1.3c51.1,0,68.1-0.2,69.2-1
	C166.1,84.2,165.3,80.6,162.2,79.3 M162.2,145.4c-2.5-1.1-11-1.2-69.4-1c-64.2,0.2-66.6,0.3-68.2,1.8c-2.2,2-2.2,4,0.2,5.6
	c1.7,1.1,9.7,1.3,69.6,1.3c51.1,0,68.1-0.2,69.2-1C166.1,150.4,165.3,146.8,162.2,145.4"/>
</svg>
