<svg xmlns="http://www.w3.org/2000/svg" width="256" height="256" viewBox="0 0 256 256" version="1.1">
	<path d="M 121.315 58.007 C 120.114 58.491, 118.622 59.838, 118 61 C 117.378 62.161, 113.758 81.424, 109.954 103.806 C 106.150 126.188, 102.917 145.084, 102.769 145.798 C 102.621 146.511, 89.261 134.924, 73.079 120.048 C 47.556 96.582, 43.241 93, 40.504 93 C 36.868 93, 33 96.473, 33 99.738 C 33 100.898, 40.891 122.440, 50.536 147.608 C 60.181 172.777, 67.881 193.869, 67.646 194.479 C 67.412 195.089, 54.684 198.418, 39.360 201.877 C 15.404 207.285, 11.185 208.513, 9.250 210.639 C 6.553 213.603, 6.365 217.047, 8.750 219.794 C 10.219 221.486, 60.267 243.454, 72.286 247.683 C 78.301 249.799, 83 246.690, 83 240.593 C 83 236.849, 79.332 234.636, 58.671 225.919 C 47.765 221.318, 39.348 217.384, 39.967 217.178 C 40.586 216.971, 50.386 214.648, 61.745 212.014 C 83.440 206.984, 86 205.787, 86 200.672 C 86 199.514, 81.084 185.726, 75.075 170.033 C 58.135 125.793, 58.755 127.557, 60.691 129.126 C 61.622 129.882, 71.826 139.162, 83.365 149.750 C 101.300 166.206, 104.800 169, 107.484 169 C 110.188 169, 115 166.052, 115 164.395 C 115 163.616, 123.931 109.979, 124.610 106.678 C 124.929 105.127, 125.370 104.037, 125.590 104.257 C 125.810 104.477, 129.122 117.833, 132.951 133.937 C 136.780 150.041, 140.617 164.293, 141.479 165.608 C 144.844 170.744, 147.466 169.620, 182.671 147.956 C 200.587 136.931, 215.363 128.044, 215.508 128.206 C 215.653 128.367, 207.276 143.800, 196.893 162.500 C 186.244 181.679, 178.012 197.615, 178.008 199.059 C 177.992 204.401, 180.070 205.399, 210.239 214.547 C 215.595 216.171, 219.983 217.745, 219.989 218.045 C 219.995 218.345, 212.463 222.111, 203.250 226.414 C 184.716 235.071, 182 236.964, 182 241.220 C 182 244.472, 185.907 249.003, 188.705 248.995 C 191.578 248.987, 245.320 223.164, 247.250 220.864 C 248.212 219.717, 249 217.753, 249 216.500 C 249 211.564, 246.347 210.203, 222 202.647 C 209.075 198.635, 197.964 195.161, 197.310 194.927 C 196.540 194.651, 197.804 191.500, 200.891 186 C 225.716 141.769, 244 107.734, 244 105.754 C 244 102.588, 240.077 99, 236.614 99 C 234.763 99, 220.492 107.211, 193.204 123.974 C 165.653 140.899, 152.339 148.554, 151.894 147.724 C 151.533 147.051, 149.794 140.425, 148.029 133 C 146.264 125.575, 141.723 106.450, 137.936 90.500 C 131.904 65.089, 130.733 61.222, 128.470 59.250 C 125.686 56.824, 124.684 56.650, 121.315 58.007 M 124.115 169.250 C 122.835 184.787, 121.637 197.661, 121.453 197.857 C 121.269 198.054, 111.979 189.659, 100.809 179.203 C 89.639 168.746, 80.405 160.280, 80.289 160.390 C 80.172 160.500, 85.950 172.191, 93.128 186.372 C 100.306 200.552, 105.975 212.358, 105.725 212.608 C 105.475 212.858, 96.210 214.720, 85.136 216.746 C 74.061 218.773, 65 220.727, 65 221.090 C 65 221.453, 66.463 222.042, 68.250 222.399 C 75.212 223.790, 106 233.315, 106 234.078 C 106 234.523, 103.525 237.804, 100.500 241.369 C 97.475 244.935, 95 248.111, 95 248.426 C 95 248.742, 110.118 249, 128.595 249 L 162.190 249 159.595 244.572 C 158.168 242.136, 157 239.754, 157 239.278 C 157 238.802, 165.546 234.190, 175.991 229.031 C 186.436 223.871, 194.829 219.496, 194.642 219.309 C 194.455 219.122, 185.412 217.428, 174.545 215.545 C 163.679 213.662, 154.630 211.963, 154.436 211.769 C 154.242 211.576, 162.430 198.836, 172.632 183.459 C 194.254 150.866, 192.769 153.206, 190.942 154.600 C 176.738 165.433, 138.819 193.143, 138.573 192.869 C 138.391 192.666, 135.845 180.912, 132.915 166.750 C 129.986 152.588, 127.331 141, 127.016 141 C 126.701 141, 125.395 153.713, 124.115 169.250" stroke="none"  fill-rule="evenodd"/>
</svg>