<svg version="1.1" xmlns="http://www.w3.org/2000/svg" viewBox="0 0 14 14" fill="white">

<path id="skull" d="M12.6,7.3c0,0-0.1-0.2-0.1-0.5c0-0.3,0-3.9,0-3.9s-2-3-5.5-3S1.5,3,1.5,3s0,3.6,0,3.9
	c0,0.3-0.1,0.5-0.1,0.5C0.9,8.5,1.3,9.5,1.3,9.5c0.4,1.1,2.9,1.9,2.9,1.9c0,0.4-0.2,1.8-0.2,1.8C5.1,13.9,7,14,7,14s1.9-0.1,3-0.8
	c0,0-0.2-1.3-0.2-1.8c0,0,2.5-0.8,2.9-1.9C12.7,9.5,13.1,8.5,12.6,7.3z M4.1,8.7c-0.7,0-1.7-0.1-1.7-1.6s1-1.8,2.2-2.1
	c0,0,1.6-0.4,1.6,1.4C6.2,8.3,4.7,8.7,4.1,8.7z M8.3,10.5c-0.1,0.1-0.1,0.1-0.2,0.2c0,0,0,0,0,0c0,0,0,0-0.1,0
	c-0.1,0.1-0.4,0.2-0.7,0.1c-0.1,0-0.2-0.1-0.2-0.2C7,10.4,7,10.2,7,10.2s0,0.2-0.1,0.4c-0.1,0.1-0.1,0.1-0.2,0.2
	c-0.3,0.1-0.6,0-0.7-0.1c0,0,0,0-0.1,0c0,0,0,0,0,0c-0.1,0-0.1-0.1-0.2-0.2c-0.1-0.2-0.3-0.4-0.3-0.7c0-1,1.6-1.7,1.6-1.7
	s1.6,0.7,1.6,1.7C8.6,10.1,8.5,10.4,8.3,10.5z M9.9,8.7c-0.7,0-2.1-0.4-2.1-2.2C7.8,4.6,9.5,5,9.5,5c1.2,0.3,2.2,0.6,2.2,2.1
	S10.6,8.7,9.9,8.7z"/>
</svg>
