<?xml version="1.0" encoding="utf-8"?>
<!-- Generator: Adobe Illustrator 16.0.0, SVG Export Plug-In . SVG Version: 6.00 Build 0)  -->
<!DOCTYPE svg PUBLIC "-//W3C//DTD SVG 1.1//EN" "http://www.w3.org/Graphics/SVG/1.1/DTD/svg11.dtd">
<svg version="1.1" xmlns="http://www.w3.org/2000/svg" xmlns:xlink="http://www.w3.org/1999/xlink" x="0px" y="0px"
	 width="33.334px" height="32px" viewBox="0 0 33.334 32" enable-background="new 0 0 33.334 32" xml:space="preserve">
<symbol  id="dude-transit" viewBox="0 -25.1 21.25 25.118">
	<path fill-rule="evenodd" clip-rule="evenodd" fill="#FFFFFF" d="M15.5-4.2l0.75-1.05l1-3.1l3.9-2.65v-0.05
		c0.067-0.1,0.1-0.233,0.1-0.4c0-0.2-0.05-0.383-0.15-0.55c-0.167-0.233-0.383-0.35-0.65-0.35l-4.3,1.8l-1.2,1.65l-1.5-3.95
		l2.25-5.05l-3.25-6.9c-0.267-0.2-0.633-0.3-1.1-0.3c-0.3,0-0.55,0.15-0.75,0.45c-0.1,0.133-0.15,0.25-0.15,0.35
		c0,0.067,0.017,0.15,0.05,0.25c0.033,0.1,0.067,0.184,0.1,0.25l2.55,5.6L10.7-14l-3.05-4.9L0.8-18.7
		c-0.367,0.033-0.6,0.184-0.7,0.45c-0.067,0.3-0.1,0.467-0.1,0.5c0,0.5,0.2,0.767,0.6,0.8l5.7,0.15l2.15,5.4l3.1,5.65L9.4-5.6
		c-1.367-2-2.1-3.033-2.2-3.1C7.1-8.8,6.95-8.85,6.75-8.85C6.35-8.85,6.1-8.667,6-8.3C5.9-8,5.9-7.8,6-7.7H5.95l2.5,4.4l3.7,0.3
		L14-3.5L15.5-4.2z M14.55-2.9c-0.333,0.4-0.45,0.85-0.35,1.35c0.033,0.5,0.25,0.9,0.65,1.2S15.7,0.066,16.2,0
		c0.5-0.067,0.9-0.3,1.2-0.7c0.333-0.4,0.467-0.85,0.4-1.35c-0.066-0.5-0.3-0.9-0.7-1.2c-0.4-0.333-0.85-0.45-1.35-0.35
		C15.25-3.533,14.85-3.3,14.55-2.9z"/>
</symbol>
<g id="Layer_1">
	<g>
		<path fill-rule="evenodd" clip-rule="evenodd" fill="#FFFFFF" d="M9.104,13.277c1.709,0.854,2.089-2.563,2.089-2.563L9.104,9.86
			c0,0-2.942-1.677-3.322-2.167c-0.38-0.491-0.475-1.631-1.803-1.82c-1.33-0.19-1.994-0.188-2.184,0.571
			c-0.19,0.758,0,1.249,0,1.249s-0.19-0.364-0.76,0c-0.57,0.363-0.854,1.407-0.57,1.786c0.286,0.381,0.855,0.746,1.614,0.8
			c0.76,0.056,0.665-0.624,1.899,0C5.213,10.904,9.104,13.277,9.104,13.277z"/>
		<path fill-rule="evenodd" clip-rule="evenodd" fill="#FFFFFF" d="M21.825,9.86c0,0,4.557-2.278,4.937-2.563
			c0.379-0.284,0.664-1.063,0.949-1.528s1.044-1.36,1.804-1.008c0.759,0.353,1.14,1.59,1.14,1.684c0,0.093,0,0.093,0,0.093
			l0.475-0.093c0,0,0.664,0.79,0.854,1.249c0.189,0.458,0,1.597-0.38,1.786c-0.379,0.19-0.948,0.936-1.614,0.8
			c-0.664-0.134-1.708-0.244-2.183,0c-0.475,0.245-3.513,2.541-3.893,2.485c-0.379-0.057-1.518,0.65-1.518,0.65L21.825,9.86z"/>
		<path fill-rule="evenodd" clip-rule="evenodd" fill="#FFFFFF" d="M22.68,17.549c0,0,4.326,2.748,4.651,2.943
			c0.44,0.263,1.519,1.104,2.278,1.358c0.759,0.256,1.857-0.124,2.448,0.16c0.589,0.285,0.685,0.38,0.969,0.76
			c0.285,0.379,0.112,0.969-0.166,1.397c-0.545,0.843-0.937,0.691-0.937,0.691h-0.194c0,0,0.23,0.133,0.075,0.52
			c-0.1,0.247-0.183,0.362-0.569,0.735c-0.636,0.611-1.145,0.543-1.657,0.233c-0.604-0.364-1.023-0.913-1.298-1.394
			c-0.629-1.106-6.455-4.937-6.455-4.937L22.68,17.549z"/>
		<path fill-rule="evenodd" clip-rule="evenodd" fill="#FFFFFF" d="M9.967,18.033c0,0-3.346,2.174-4.192,2.554
			c-0.846,0.38-2.08,1.14-2.745,1.044c-0.664-0.095-1.328-0.38-1.803,0s-0.699,1.14-0.872,1.519
			c-0.173,0.38,0.017,1.614,0.587,1.805c0.569,0.189,0.569,0.189,0.569,0.189l0.569,0.947c0,0-0.095,0.571,0.854,0.477
			c0.95-0.095,1.52-0.475,1.898-1.329c0.38-0.854,1.805-1.993,1.805-1.993l4.556-3.228L9.967,18.033z"/>
	</g>
	<g>
		<g>
			<path fill="none" stroke="#58595B" stroke-width="0.5" stroke-linejoin="bevel" stroke-miterlimit="10" d="M23.696,12.149
				c-0.029-0.906-0.126-1.779-0.199-1.989c-0.079-0.227-0.165-0.531-0.421-0.928l0.63,3.633
				C23.706,12.632,23.703,12.39,23.696,12.149z M9.125,13.286l0.107-3.373c-0.266,0.519-0.352,1.059-0.259,2.036
				C9.054,12.799,9.095,12.957,9.125,13.286z M23.686,18.188l-0.825,2.523c1.032-0.604,1.021-1.193,1.035-1.601
				C23.911,18.658,23.796,18.391,23.686,18.188z M8.775,19.11c0.045,0.748,0.186,1.011,1.303,1.697l-1.297-2.014
				C8.771,18.891,8.769,18.996,8.775,19.11z"/>
		</g>
	</g>
	<g>
		<g>
			<path fill-rule="evenodd" clip-rule="evenodd" fill="#FFFFFF" d="M24.093,16.127c0.014-1.093-0.372-1.119-0.396-1.791
				c-0.013-0.335,0.027-1.277,0-2.187c-0.029-0.906-0.126-1.779-0.199-1.989c-0.148-0.424-0.318-1.121-1.591-2.189
				c-1.394-1.168-4.08-2.163-5.571-2.188c-1.492-0.025-3.231,0.722-4.576,1.593c-1.342,0.869-1.665,1.242-2.187,1.988
				c-0.523,0.746-0.723,1.269-0.599,2.586c0.125,1.319,0.154,0.971,0.199,2.188c0.038,1.008-0.419,1.319-0.397,1.989
				c0.032,1.003,0.409,1.21,0.397,1.592c-0.008,0.25-0.447,0.563-0.397,1.392c0.051,0.846,0.224,1.071,1.791,1.99
				c1.017,0.598,2.213,0.822,2.188,1.194c-0.037,0.545-0.175,1.441-0.198,1.989c-0.025,0.547,0.224,0.597,0.795,0.795
				c0.572,0.2,1.914,0.623,3.383,0.597c1.468-0.023,2.089-0.323,2.785-0.597c0.695-0.273,0.795-0.521,0.795-0.995
				c0-0.472-0.396-1.44-0.396-1.789s1.191-0.722,2.585-1.394c1.394-0.669,1.377-1.342,1.394-1.791
				c0.029-0.845-0.398-1.044-0.398-1.392C23.497,17.039,24.085,16.923,24.093,16.127z M12.355,18.115
				c-0.696,0.026-2.188,0.026-2.188-1.988c0-2.789,1.491-3.108,2.586-3.183c1.095-0.076,1.243-0.198,1.791,0.199
				c0.982,0.715,0.92,1.98,0.597,2.983c-0.237,0.734-0.498,1.021-0.995,1.393C13.649,17.894,13.054,18.092,12.355,18.115z
				 M16.933,21.3l-0.273-1.016l-0.423,0.004l-0.3,1.012c-1.144-0.312-1.604-0.771-1.591-1.393s0.36-1.269,0.994-1.792
				c0.635-0.521,0.737-0.602,1.194-0.596c0.436,0.007,0.475,0.091,0.795,0.398c0.693,0.664,1.141,1.106,1.195,1.989
				C18.575,20.776,17.566,21.262,16.933,21.3z M20.513,18.115c-0.696-0.023-1.293-0.222-1.79-0.596
				c-0.498-0.372-0.791-0.648-0.995-1.393c-0.258-0.936-0.385-2.269,0.597-2.983c0.548-0.397,0.697-0.275,1.791-0.199
				c1.094,0.074,2.586,0.394,2.586,3.183C22.701,18.142,21.209,18.142,20.513,18.115z"/>
		</g>
	</g>
</g>
<g id="Layer_2">
</g>
</svg>
