<?xml version="1.0" encoding="utf-8"?>
<!-- Generator: Adobe Illustrator 24.1.1, SVG Export Plug-In . SVG Version: 6.00 Build 0)  -->
<svg version="1.1" id="Layer_1" xmlns="http://www.w3.org/2000/svg" xmlns:xlink="http://www.w3.org/1999/xlink" x="0px" y="0px"
	 viewBox="0 0 100 100" style="enable-background:new 0 0 100 100;" xml:space="preserve">
<style type="text/css">
	.st-d3{fill:#FFFFFF;}
	.st-d4{font-family:'ArialMT';}
	.st-d5{font-size:20.0666px;}
	.st-d6{font-size:36.1222px;}
</style>
<g id="decoy_1_">
	<path id="decoy" class="st-d3" d="M59.3,1.5H42.4c-3.4,0-3.7,4.1-3.7,4.1h3.7v8.6c0,3.3-5.3,3.5-5.3,3.5s-5,0.4-5,6.9
		c0,4,2.2,4.7,2.2,4.7s2.4,0.8,2.4,3.5v6V39c1.9,0.4,3.4,2.1,3.4,4.2c0,2.1-1.5,3.8-3.4,4.2V54c1.9,0.4,3.4,2.1,3.4,4.2
		c0,2.1-1.5,3.8-3.4,4.2V69c1.9,0.4,3.4,2.1,3.4,4.2s-1.5,3.8-3.4,4.2v7.4c0,0-0.3,1.5-1.7,1.9s-3,1.6-3,4.4s0.1,7.6,4.7,7.6
		c4.7,0,11.9,0,11.9,0s7.3,0,11.9,0c4.7,0,4.7-4.8,4.7-7.6c0-2.8-1.6-4-3-4.4s-1.7-1.9-1.7-1.9v-7.4c-1.9-0.4-3.4-2.1-3.4-4.2
		s1.5-3.8,3.4-4.2v-6.6c-1.9-0.4-3.4-2.1-3.4-4.2c0-2.1,1.5-3.8,3.4-4.2v-6.6c-1.9-0.4-3.4-2.1-3.4-4.2c0-2.1,1.5-3.8,3.4-4.2v-0.2
		v-6c0-2.8,2.4-3.5,2.4-3.5s2.2-0.7,2.2-4.7c0-6.5-5-6.9-5-6.9c-2,0-1.5-2.9-1.5-2.9V9.3l15.8,16.2v41.4L67.9,70l-1,2.9l9.4-4.5V25
		L59.3,1.5z"/>
	<text transform="matrix(1 0 0 1 70.6113 20.3267)" class="st-d3 st-d4 st-d5">*</text>
	<text transform="matrix(1 0 0 1 20.3486 27.6475)" class="st-d3 st-d4 st-d6">*</text>
</g>
</svg>
