<?xml version="1.0" encoding="utf-8"?>
<!-- Generator: Adobe Illustrator 24.1.1, SVG Export Plug-In . SVG Version: 6.00 Build 0)  -->
<svg version="1.1" id="Layer_1" xmlns="http://www.w3.org/2000/svg" xmlns:xlink="http://www.w3.org/1999/xlink" x="0px" y="0px"
	 viewBox="0 0 100 100" style="enable-background:new 0 0 100 100;" xml:space="preserve">
<style type="text/css">
	.st-h1{fill:#FFFFFF;}
</style>
<g id="grenade">
	<path class="st-h1" d="M53.7,41v-6h-7.9h-7.9v6c-12.3,1.2-17.3,5.3-20.3,9.5c-2.8,4-2.9,12.8-2.9,16.1c0,0.4-0.1,0.8-0.1,1.3
		c0,15,13.9,27.2,31,27.2s31-12.2,31-27.2c0,0,0.7-12.3-2.8-17.3C70.9,46.3,65.9,42.2,53.7,41z"/>
	<path class="st-h1" d="M61.2,5.1h-5.4v3.8h-20h-3.5c0,0-2,0.4-2,3.5s2.2,2.9,2.2,2.9h3.3v16.6h21.5H69l14.5,19.7v38.3l2.6-2.6V50.6
		L61.2,5.1z"/>
</g>
</svg>
