<?xml version="1.0" encoding="utf-8"?>
<!-- Generator: Adobe Illustrator 24.1.1, SVG Export Plug-In . SVG Version: 6.00 Build 0)  -->
<svg version="1.1" id="Layer_1" xmlns="http://www.w3.org/2000/svg" xmlns:xlink="http://www.w3.org/1999/xlink" x="0px" y="0px"
	 viewBox="0 0 100 100" style="enable-background:new 0 0 100 100;" xml:space="preserve">
<style type="text/css">
	.st-i3{fill:#FFFFFF;}
</style>
<g id="CT_molie">
	<path class="st-i3" d="M47.6,85.8c0,0-11.9,0.2-19.1-2v14.7h37.7V84C59,86,47.6,85.8,47.6,85.8z"/>
	<path class="st-i3" d="M70,20.6c2.3-4,0.6-8.8,0.6-8.8c-1.4-4.1-6-5.4-7.7-5.7V4.7h-3l-0.7-2.5H42.4l-0.9,0.4C37.2,1.4,37.1,3,37.1,3
		C36,7.1,41,7.5,41,7.5s0.4,5.1,0.4,9.3c0,1-0.7,7.6-12.9,7.6V77c1.7,0.7,7.2,2.3,19.1,2.3c10.9,0,16.4-1.4,18.6-2.1V24.3
		c-0.1,0-0.3,0-0.4,0c0.6-0.3,1.2-0.6,1.7-1l5,4.3V77l2.6,2.7V26.4L70,20.6z M53.1,73.6c0.4-4-1.5-5.7-4.8-8.4c-3.2-2.6-3-9-3-9
		c-7.6,8.1-1.6,16.5-1.6,16.5s-9.1,1.3-9.1-16.2C34.6,39.1,47,32.1,47,32.1c-0.9,11.5,13.6,17.5,13.6,29
		C60.6,72.7,53.1,73.6,53.1,73.6z M62.4,24.2c-9.1-0.9-8.9-5.2-8.9-5.2c-0.6-2,5.1-3,5.1-3l7.4,6.3C64.8,23.1,63.5,23.7,62.4,24.2z
		 M69.6,16.7c-0.1,0.9-0.4,1.8-0.8,2.5l-5.9-6.8V7.6C70.6,9.7,69.6,16.7,69.6,16.7z"/>
</g>
</svg>
