<?xml version="1.0" encoding="utf-8"?>
<!-- Generator: Adobe Illustrator 24.1.1, SVG Export Plug-In . SVG Version: 6.00 Build 0)  -->
<svg version="1.1" id="Layer_1" xmlns="http://www.w3.org/2000/svg" xmlns:xlink="http://www.w3.org/1999/xlink" x="0px" y="0px"
	 viewBox="0 0 100 100" style="enable-background:new 0 0 100 100;" xml:space="preserve">
<style type="text/css">
	.st-mol0{fill:#FFFFFF;}
</style>
<path id="T_molie" class="st-mol0" d="M79.2,11.6c0,0-1.7-1.8-1.8-5.1c-0.1-3.2-4.7-5.7-7.7-4.7c-1.8,0.6-2.8,1.9-3.3,2.9
	c-0.7-0.2-1.4-0.2-2,0c0,0-2.9,1.4-2.9,4.2c0,0-8.8,15.2-12.4,19.4c0,0-1.2,1.7-2.5,1.9c-1.3,0.2-5.7,0.4-7.5,4.3
	c-1.8,3.8-25.3,52-25.3,52l23.1,12L63,45.9c0,0,0.9-5.3-1.6-10.2c0,0-0.3-0.3,1.8-6.5c2.1-6.1,6.4-16.7,6.4-16.7s2.2-1.2,1-4.1
	c-0.3-0.7-0.7-1.2-1.1-1.7c3.1-3.7,4.4,0.8,4.1,1.7s0.4,1.4,0.6,6c0.2,4.5-3.9,11.3-7.2,13.9c-3.3,2.7-0.8,6.3-1.4,11.2
	c-1,6.2,4.3,6.7,5.1,6.7c0.9,0.1,4.7-5.2,4.9-6.1c0.1-0.9,3.3-9.6,3.3-9.6s0.1-3.6,1-7.4C80.8,19.3,79.2,11.6,79.2,11.6z"/>
</svg>
