<?xml version="1.0" encoding="utf-8"?>
<!-- Generator: Adobe Illustrator 24.1.1, SVG Export Plug-In . SVG Version: 6.00 Build 0)  -->
<svg version="1.1" id="Layer_1" xmlns="http://www.w3.org/2000/svg" xmlns:xlink="http://www.w3.org/1999/xlink" x="0px" y="0px"
	 viewBox="0 0 100 100" style="enable-background:new 0 0 100 100;" xml:space="preserve">
<style type="text/css">
	.st-sm1{fill:#FFFFFF;}
</style>
<path id="smoke" class="st-sm1" d="M70,20.6c2.3-4,0.6-8.8,0.6-8.8c-1.4-4.1-6-5.4-7.7-5.7V4.7h-3l-0.7-2.5H42.4l-0.9,0.4
	C37.2,1.4,37.1,3,37.1,3C36,7.1,41,7.5,41,7.5s0.4,5.1,0.4,9.3c0,1-0.7,7.6-12.9,7.6v74.2h37.7V24.3c-0.1,0-0.3,0-0.4,0
	c0.6-0.3,1.2-0.6,1.7-1l5,4.3v49.5l2.6,2.5V26.4L70,20.6z M69.6,16.7c-0.1,0.9-0.4,1.8-0.8,2.5l-5.9-6.8V7.6
	C70.6,9.7,69.6,16.7,69.6,16.7z M62.4,24.2c-9.1-0.9-8.9-5.2-8.9-5.2c-0.6-2,5.1-3,5.1-3l7.4,6.3C64.8,23.1,63.5,23.7,62.4,24.2z"/>
</svg>
