<svg xmlns="http://www.w3.org/2000/svg"   viewBox="0 0 678 222" version="1.1" fill="white">
	<path d="M 635.200 22.200 C 634.540 22.860, 634 25.403, 634 27.852 C 634 31.305, 632.991 34.053, 629.500 40.105 C 627.025 44.396, 625 48.603, 625 49.453 C 625 50.802, 622.170 51, 602.858 51 C 571.555 51, 565.992 49.186, 560.598 37.220 L 558.696 33 544.504 33 C 523.364 33, 509 31.959, 509 30.428 C 509 29.602, 506.690 28.912, 502.386 28.451 C 493.407 27.489, 439.825 27.321, 433.082 28.233 C 428.333 28.875, 427.493 28.721, 426.275 26.983 C 425.250 25.518, 423.740 25, 420.502 25 C 418.091 25, 415.866 24.593, 415.558 24.095 C 415.251 23.597, 411.380 23.437, 406.956 23.740 C 401.268 24.130, 398.189 23.904, 396.437 22.966 C 394.534 21.948, 393.686 21.914, 392.780 22.820 C 391.237 24.363, 380.747 24.347, 379.200 22.800 C 378.267 21.867, 378 22.079, 378 23.754 C 378 25.718, 378.597 25.935, 384.750 26.204 C 392.574 26.547, 393.217 28.495, 385.512 28.510 C 381.670 28.517, 380.450 28.900, 380.205 30.174 C 379.912 31.696, 374 31.833, 306.889 31.876 L 233.891 31.923 227.301 37.961 C 223.676 41.283, 220.105 44, 219.366 44 C 218.626 44, 216.377 46.475, 214.369 49.500 C 211.636 53.616, 210.115 55, 208.325 55 C 207.010 55, 196.045 57.479, 183.960 60.510 L 161.987 66.020 155.744 63.375 L 149.500 60.730 101.465 59.447 C 75.046 58.742, 51.871 58.483, 49.965 58.872 C 47.223 59.432, 45.992 60.499, 44.067 63.986 C 41.743 68.194, 41.567 69.816, 40.141 100.103 C 38.745 129.750, 38.759 131.983, 40.347 134.407 C 43.778 139.644, 46.362 138.891, 103.525 115.999 C 154.941 95.409, 156.389 94.900, 177.506 89.976 C 196.955 85.440, 200.061 84.973, 209.522 85.159 L 220 85.365 220 88.557 C 220 90.312, 220.648 93.586, 221.441 95.832 C 222.854 99.839, 222.769 100.253, 216.941 117.677 C 208.557 142.740, 208.697 143.859, 220.846 148.875 C 228.112 151.875, 229.516 152.137, 234.957 151.505 L 241 150.804 241 145.893 C 241 142.182, 242.869 136.100, 248.650 120.995 C 255.242 103.773, 256.763 100.655, 259.650 98.453 C 262.317 96.419, 263 96.224, 263 97.495 C 263 98.373, 264.012 100.083, 265.250 101.295 C 267.417 103.418, 268.049 103.481, 282.310 103 C 296.452 102.523, 297.201 102.393, 298.910 100.123 C 300.663 97.795, 300.711 97.788, 301.240 99.810 C 301.663 101.428, 302.722 101.942, 306.140 102.187 L 310.500 102.500 310.149 107.871 C 309.604 116.216, 311.715 113.224, 312.533 104.493 C 312.919 100.372, 313.632 97, 314.117 97 C 314.603 97, 315 97.667, 315 98.482 C 315 103.088, 325.698 128.535, 333.408 142.269 C 344.154 161.410, 357.194 176.826, 373 189.075 C 378.775 193.550, 383.823 198.064, 384.218 199.106 C 384.613 200.147, 385.329 201, 385.811 201 C 386.292 201, 392.130 192.787, 398.784 182.750 C 410.654 164.846, 410.843 164.472, 408.781 163.021 C 396.831 154.616, 388.677 146.782, 379.271 134.671 C 369.654 122.289, 368.651 120.541, 362.525 105.500 C 358.532 95.696, 355.765 87.322, 355.381 83.877 L 354.754 78.253 374.498 77.513 C 388.250 76.997, 394.443 77.099, 394.906 77.847 C 397.574 82.165, 413.184 83.294, 425.239 80.041 C 430.240 78.691, 441.526 77.433, 461.500 75.998 C 477.450 74.852, 492.975 73.421, 496 72.818 C 499.025 72.215, 503.445 71.511, 505.822 71.254 C 508.232 70.994, 510.381 70.171, 510.679 69.394 C 511.509 67.231, 569.807 67.335, 570.638 69.500 C 571.447 71.607, 578.579 71.539, 579.393 69.418 C 579.931 68.016, 583.448 67.861, 610.250 68.064 C 642.197 68.306, 646 67.876, 646 64.025 C 646 62.164, 646.635 62, 653.833 62 C 658.142 62, 661.918 61.749, 662.225 61.442 C 663.540 60.127, 661.425 56.596, 657.708 53.904 C 654.900 51.869, 652.521 51, 649.763 51 L 645.827 51 646.134 37.250 C 646.303 29.688, 646.091 22.938, 645.662 22.250 C 644.666 20.654, 636.783 20.617, 635.200 22.200 M 631.557 44.223 C 630.701 45.445, 630 46.795, 630 47.223 C 630 47.650, 632.700 48, 636 48 L 642 48 642 45 C 642 42.117, 641.827 42, 637.557 42 C 634.099 42, 632.768 42.493, 631.557 44.223 M 516 46.988 C 510.717 47.530, 510.296 47.687, 513.750 47.827 C 516.784 47.951, 518 48.429, 518 49.500 C 518 50.776, 520.619 51, 535.570 51 L 553.139 51 552.820 48.750 C 552.505 46.536, 552.263 46.499, 537.500 46.410 C 529.250 46.361, 519.575 46.621, 516 46.988 M 433.802 48.143 C 433.086 48.598, 445.512 48.976, 461.417 48.985 C 477.321 48.993, 489.996 48.662, 489.583 48.250 C 488.552 47.218, 435.421 47.117, 433.802 48.143 M 515.500 62.650 C 513.850 62.927, 512.072 63.569, 511.550 64.077 C 510.969 64.642, 522.403 65, 541 65 C 561.647 65, 571.073 64.673, 570.381 63.981 C 569.309 62.909, 520.936 61.736, 515.500 62.650 M 579.638 63.500 C 579.135 64.812, 582.344 64.980, 605.281 64.840 C 619.702 64.752, 630.038 64.498, 628.250 64.277 C 626.462 64.055, 625 63.452, 625 62.937 C 625 62.382, 615.859 62, 602.607 62 C 583.625 62, 580.126 62.228, 579.638 63.500 M 284.670 81.981 C 275.190 82.468, 271.604 83.014, 270.935 84.070 C 269.419 86.466, 269.898 91.321, 271.989 94.750 C 273.079 96.537, 273.558 98, 273.053 98 C 271.189 98, 267.718 91.681, 267.237 87.409 C 266.851 83.982, 266.332 83, 264.908 83 C 263.257 83, 263.131 83.668, 263.636 89.750 C 263.972 93.791, 264.905 97.503, 265.961 99 C 267.700 101.465, 267.922 101.500, 281.815 101.500 C 292.044 101.500, 296.260 101.144, 297.202 100.200 C 298.443 98.957, 299.205 80.777, 298 81.162 C 297.725 81.250, 291.727 81.618, 284.670 81.981" stroke="none" fill-rule="evenodd"/>
</svg>