<svg xmlns="http://www.w3.org/2000/svg"   viewBox="0 0 454 222" version="1.1" fill="white">
	<path d="M 226.694 25.064 C 220.750 25.490, 212.754 26.398, 208.924 27.083 C 202.587 28.215, 201.845 28.170, 200.681 26.578 C 198.787 23.989, 193.600 24.799, 193.180 27.750 C 192.870 29.935, 191 31.007, 191 29 C 191 28.450, 189.650 28, 188 28 C 186.350 28, 185 28.494, 185 29.098 C 185 29.807, 182.969 30.072, 179.250 29.848 L 173.500 29.500 173.194 35.458 C 172.686 45.348, 173.064 45.952, 179.364 45.302 C 182.823 44.945, 184.973 45.148, 185.422 45.874 C 186.283 47.267, 191 47.374, 191 46 C 191 44.746, 193.685 44.682, 194.449 45.917 C 194.760 46.421, 195.287 48.814, 195.619 51.234 L 196.222 55.633 189.320 55.683 C 181.951 55.736, 178.400 57.035, 173.698 61.399 L 170.897 64 104.192 64 C 66.129 64, 36.096 64.399, 34.249 64.929 C 29.099 66.406, 22.322 72.590, 20.433 77.535 C 18.870 81.628, 18.870 82.694, 20.424 93.708 C 23.076 112.510, 28.061 139.230, 29.526 142.498 C 32.765 149.725, 34.057 150.468, 44.060 150.854 C 49.106 151.049, 56.049 150.907, 59.487 150.538 C 64.885 149.960, 65.896 149.523, 66.892 147.338 C 67.852 145.231, 67.707 144.262, 66.026 141.542 C 63.088 136.789, 64.616 133.537, 73.045 126.603 C 81.354 119.767, 95.765 112.560, 97.780 114.232 C 98.779 115.062, 100.543 114.305, 105.090 111.099 C 112.449 105.909, 115.362 105.882, 115.800 111 C 115.964 112.925, 117.660 123.557, 119.567 134.627 C 122.275 150.339, 124.458 159.175, 129.518 174.903 C 133.083 185.985, 136 195.989, 136 197.133 C 136 198.380, 136.501 199.027, 137.250 198.748 C 137.938 198.492, 145.813 195.867, 154.750 192.915 C 163.688 189.962, 171 187.116, 171 186.589 C 171 186.062, 170.122 183.802, 169.050 181.566 C 167.977 179.330, 164.621 170.750, 161.592 162.500 C 157.240 150.648, 155.341 143.448, 152.542 128.192 C 150.594 117.572, 149.006 108.122, 149.012 107.192 C 149.019 106.261, 150.666 104.437, 152.671 103.137 C 155.759 101.136, 158.671 100.559, 171.695 99.373 L 187.072 97.973 189.505 100.736 C 193.237 104.978, 192.823 109.382, 188.220 114.388 C 181.323 121.889, 175.376 132.794, 173.525 141.331 C 172.592 145.637, 172.128 149.462, 172.495 149.831 C 172.862 150.199, 182.083 150.638, 192.987 150.807 C 210.927 151.086, 213.462 150.912, 219.656 148.984 L 226.500 146.854 238.500 131.827 C 245.100 123.563, 253.331 113.464, 256.792 109.386 L 263.083 101.972 280.542 102.077 C 297.035 102.176, 301.861 102.993, 294.932 104.515 C 291.079 105.361, 290.495 106.857, 292.318 111.219 C 293.621 114.337, 293.528 115.966, 291.356 128.085 C 290.033 135.463, 289.075 143.975, 289.226 147 L 289.500 152.500 295.500 153.085 C 301.254 153.646, 312.624 152.710, 313.752 151.581 C 314.049 151.284, 313.062 149.181, 311.558 146.908 L 308.822 142.775 309.161 122.887 L 309.500 102.999 305.750 102.999 C 301.551 103, 301.431 102.833, 303.394 99.715 C 304.161 98.497, 305.093 94.912, 305.466 91.750 L 306.144 86 312.822 85.822 C 316.495 85.724, 320.398 85.659, 321.495 85.677 C 322.593 85.696, 324.007 85.005, 324.638 84.142 C 325.656 82.750, 332.033 82.569, 381.143 82.537 L 436.500 82.500 436.500 76.500 L 436.500 70.500 424 70.593 C 417.125 70.644, 405.425 70.834, 398 71.015 C 383.426 71.370, 311.877 69.837, 316 69.258 C 319.332 68.790, 324 66.928, 324 66.067 C 324 64.871, 320.145 61.181, 318.275 60.587 C 317.289 60.274, 316.036 59.002, 315.491 57.759 C 314.875 56.355, 313.554 55.449, 312 55.364 C 310.625 55.289, 308.317 54.759, 306.871 54.185 C 304.920 53.411, 303.760 53.476, 302.371 54.439 C 300.954 55.421, 294.249 55.730, 274.750 55.713 C 251.529 55.692, 249 55.528, 249 54.045 C 249 51.724, 246.997 50, 244.300 50 C 242.922 50, 242 49.399, 242 48.500 C 242 46.814, 248.882 46.325, 250.550 47.893 C 251.073 48.384, 252.963 48.558, 254.750 48.279 L 258 47.773 258 37.387 L 258 27 255.250 26.842 C 253.738 26.754, 251.644 26.761, 250.598 26.857 C 249.551 26.952, 247.655 26.349, 246.383 25.515 C 243.909 23.894, 243.233 23.879, 226.694 25.064 M 224 107.500 L 224 113 220 113 C 217.800 113, 216 113.450, 216 114 C 216 114.550, 214.463 115, 212.584 115 C 209.822 115, 208.610 115.718, 206.252 118.750 C 201.858 124.400, 196.980 133.975, 196.073 138.730 C 195.275 142.912, 195.301 142.965, 198.383 143.432 C 208.850 145.019, 214.349 145.043, 218.819 143.521 C 223.262 142.009, 224.099 141.063, 235.264 124.942 L 247.028 107.955 245.488 104.978 L 243.949 102 233.974 102 L 224 102 224 107.500" stroke="none" fill-rule="evenodd"/>
</svg>