<svg xmlns="http://www.w3.org/2000/svg"   viewBox="0 0 696 222" version="1.1" fill="white">
	<path d="M 250.250 52.710 C 248.371 53.068, 248 53.787, 248 57.070 C 248 59.741, 247.559 61, 246.622 61 C 245.865 61, 244.685 61.675, 244 62.500 C 242.610 64.174, 238 64.559, 238 63 C 238 61.598, 229.653 61.747, 228.226 63.174 C 227.327 64.073, 224.291 63.937, 215.276 62.593 C 207.272 61.400, 199.336 60.944, 190.500 61.169 L 177.500 61.500 177.500 70.500 L 177.500 79.500 194.500 79.449 C 203.850 79.420, 215.438 79.016, 220.250 78.550 L 229 77.703 228.999 83.101 L 228.997 88.500 220.292 88.620 C 214.807 88.695, 211.447 89.158, 211.210 89.870 C 210.970 90.591, 207.785 91, 202.417 91 L 194 91 194 96.339 C 194 101.091, 193.719 101.807, 191.453 102.839 C 189.707 103.635, 179.771 104, 159.854 104 L 130.802 104 128 101 L 125.198 98 96.533 98 C 78.096 98, 67.156 98.382, 65.870 99.069 C 64.771 99.658, 63.338 99.767, 62.686 99.313 C 62.034 98.860, 56.107 98.491, 49.516 98.494 L 37.533 98.500 36.888 103 C 35.964 109.451, 34.649 161.624, 35.381 162.807 C 35.768 163.434, 38.720 163.099, 43.426 161.893 C 48.665 160.551, 56.538 159.770, 70.106 159.245 L 89.353 158.500 90.485 153.464 C 91.108 150.695, 91.955 147.882, 92.368 147.214 C 92.888 146.373, 96.746 146, 104.939 146 L 116.759 146 120.372 150.410 C 122.360 152.835, 126.240 156.474, 128.996 158.497 C 133.433 161.754, 134.456 162.099, 137.942 161.510 C 143.278 160.608, 156.079 162.590, 164 165.544 C 168.268 167.136, 173.073 168.059, 177.994 168.234 L 185.489 168.500 186.553 160.500 C 187.138 156.100, 188.641 149.459, 189.892 145.743 L 192.168 138.987 194.719 140.993 C 196.935 142.737, 198.771 143, 208.713 143 L 220.157 143 224.117 139 C 227.219 135.866, 228.827 135, 231.539 135 L 235 135 235 141 C 235 148.055, 233.180 147.581, 254 145.944 C 273.436 144.416, 272 145.051, 272 137.981 L 272 132 276.414 132 C 279.207 132, 285.728 130.208, 294.168 127.121 L 307.508 122.243 342.004 121.528 L 376.500 120.813 378.500 124.612 C 379.600 126.702, 381.983 129.273, 383.795 130.325 C 386.934 132.146, 387.298 132.158, 391.453 130.571 C 395.260 129.117, 399.462 128.958, 424.408 129.325 C 441.673 129.579, 453 129.377, 453 128.816 C 453 127.796, 490.256 128.380, 498.305 129.526 C 502.128 130.070, 503.501 129.856, 505.023 128.479 C 506.725 126.939, 506.778 126.521, 505.503 124.701 C 504.440 123.183, 502.734 122.571, 498.887 122.328 C 496.036 122.149, 493.139 122.470, 492.449 123.042 C 491.088 124.172, 456.260 123.741, 447.658 122.489 C 444.539 122.035, 442.422 122.178, 441.708 122.892 C 440.217 124.383, 433.703 124.303, 432.175 122.775 C 431.208 121.808, 430.536 121.808, 428.989 122.775 C 427.662 123.604, 422.735 123.952, 413.764 123.850 C 406.469 123.768, 401.738 123.513, 403.250 123.284 C 404.762 123.055, 406 122.447, 406 121.934 C 406 121.420, 406.675 121, 407.500 121 C 408.716 121, 409 119.389, 409 112.500 L 409 104 514.042 104 C 617.701 104, 619.112 104.026, 621.230 106 C 624.139 108.710, 630.861 108.710, 633.770 106 C 635.668 104.232, 637.299 104, 647.851 104 C 660.660 104, 661 103.858, 661 98.500 C 661 93.121, 660.702 93, 647.393 93 C 639.798 93, 635 92.613, 635 92 C 635 91.422, 631.833 91, 627.500 91 C 623.167 91, 620 91.422, 620 92 C 620 93.118, 314.414 93.448, 300.250 92.346 C 294.302 91.883, 292 91.326, 292 90.352 C 292 89.482, 290.664 88.950, 288.250 88.858 C 284.669 88.723, 282.297 88.547, 279 88.171 C 277.889 88.044, 277.500 86.702, 277.500 83 L 277.500 78 282.301 78 C 284.941 78, 293.356 79.575, 301 81.500 C 311.734 84.203, 316.935 85, 323.842 85 C 331.075 85, 332.902 84.697, 333.393 83.418 C 334.177 81.375, 334.158 61.193, 333.370 58.250 C 332.809 56.157, 332.215 56, 324.838 56 C 318.907 56, 312.903 57.007, 301 60 C 284.967 64.031, 278.637 64.839, 277.500 63 C 277.160 62.450, 275.135 62, 273 62 C 270.865 62, 268.840 62.450, 268.500 63 C 267.493 64.629, 262.673 64.078, 260.250 62.056 C 258.683 60.749, 258 59.090, 258 56.590 C 258 54.158, 257.543 53, 256.582 53 C 255.802 53, 254.564 52.838, 253.832 52.640 C 253.099 52.443, 251.488 52.474, 250.250 52.710 M 238 82.893 C 238 85.918, 238.477 87.946, 239.250 88.204 C 240.318 88.562, 264.619 88.496, 267.500 88.128 C 268.050 88.058, 268.500 85.750, 268.500 83 C 268.500 78.045, 268.472 78, 265.309 78 C 263.554 78, 261.840 78.450, 261.500 79 C 261.160 79.550, 257.335 80, 253 80 C 248.665 80, 244.840 79.550, 244.500 79 C 244.160 78.450, 242.559 78, 240.941 78 C 238.087 78, 238 78.145, 238 82.893 M 640 97.500 C 640 98.875, 640.450 100, 641 100 C 641.550 100, 642 98.875, 642 97.500 C 642 96.125, 641.550 95, 641 95 C 640.450 95, 640 96.125, 640 97.500 M 154.930 122.612 C 148.368 124.626, 144.831 128.700, 144.232 134.935 C 143.788 139.561, 143.998 140.195, 146.856 142.865 C 156.275 151.665, 173.261 144.039, 174.166 130.605 C 174.661 123.248, 165.398 119.398, 154.930 122.612 M 196.249 123.250 C 195.701 123.938, 194.947 126.613, 194.573 129.197 C 193.766 134.772, 195.696 139.418, 199.210 140.359 C 202.423 141.220, 218.270 141.123, 219.600 140.235 C 223.090 137.905, 224.064 129.959, 221.474 124.950 C 220.006 122.111, 219.686 122, 212.974 122 L 206 122 206 127.515 C 206 132.663, 206.216 133.161, 209.250 135.011 C 212.457 136.966, 212.466 136.993, 209.924 136.996 C 205.744 137.002, 202.912 133.093, 202.776 127.128 C 202.665 122.249, 202.527 122, 199.952 122 C 198.463 122, 196.797 122.563, 196.249 123.250" stroke="none" fill-rule="evenodd"/>
</svg>