<svg xmlns="http://www.w3.org/2000/svg"   viewBox="0 0 594 222" version="1.1" fill="white">
	<path d="M 525.060 39.650 C 523.914 41.108, 522.707 43.981, 522.379 46.034 L 521.782 49.767 467.891 49.915 L 414 50.064 413.978 45.782 C 413.959 41.942, 413.623 41.345, 410.728 40 C 407.798 38.638, 406.963 38.672, 401.673 40.363 C 396.514 42.013, 394.698 42.106, 385.842 41.176 C 380.341 40.598, 375.200 40.370, 374.419 40.669 C 373.556 41, 373 40.584, 373 39.607 C 373 38.723, 372.520 38, 371.934 38 C 371.347 38, 371.010 39.237, 371.184 40.750 C 371.372 42.387, 372.107 43.500, 373 43.500 C 373.825 43.500, 374.644 44.513, 374.820 45.750 L 375.139 48 303.572 48 L 232.006 48 227.970 51.646 C 224.355 54.912, 223.673 55.172, 221.420 54.146 C 217.812 52.501, 217.386 52.653, 215.962 56.092 C 214.896 58.666, 214.914 59.329, 216.073 60.045 C 217.187 60.734, 216.920 61.475, 214.732 63.757 C 213.230 65.326, 212 67.597, 212 68.805 C 212 70.856, 211.541 71, 204.986 71 C 201.129 71, 197.036 71.562, 195.891 72.250 C 194.085 73.334, 193.606 73.201, 192.283 71.250 C 190.308 68.339, 185.649 68.235, 183.673 71.057 C 182.236 73.108, 181.980 73.113, 105.541 72.807 L 28.850 72.500 29.628 82 C 30.284 90.027, 30.287 108.969, 29.636 140 L 29.500 146.500 36.500 146.261 C 40.350 146.130, 45.750 145.393, 48.500 144.623 C 109.475 127.555, 195.625 104.444, 196.013 105.050 C 196.295 105.491, 199.445 105.225, 203.013 104.461 C 206.581 103.696, 212.285 103.054, 215.689 103.035 L 221.877 103 222.585 107.750 C 222.975 110.362, 223.920 113.461, 224.686 114.635 C 225.939 116.556, 225.222 119.521, 217.529 144.206 C 211.422 163.801, 209.147 172.479, 209.570 174.571 C 210.098 177.186, 211.174 177.910, 219.596 181.320 C 228.018 184.729, 229.618 185.067, 234.486 184.458 C 241.292 183.608, 242.690 182.154, 241.241 177.432 C 240.272 174.276, 240.918 171.703, 248.041 150.378 C 252.370 137.416, 256.437 126.179, 257.078 125.406 C 259.057 123.021, 264.721 123.645, 266.559 126.449 C 269.225 130.519, 273.616 131.296, 289.341 130.485 C 304.969 129.679, 307.520 129.089, 308.482 126.057 C 309.234 123.687, 312.679 123.313, 315.403 125.306 C 317.077 126.529, 317.088 126.854, 315.581 130.459 C 314.697 132.576, 314.212 134.545, 314.504 134.837 C 315.301 135.634, 316.431 133.984, 318.501 129 C 319.529 126.525, 321.187 123.571, 322.185 122.436 C 323.377 121.080, 324 118.790, 324 115.766 L 324 111.161 327.250 111.984 C 329.038 112.436, 331.738 113.083, 333.250 113.422 C 335.786 113.990, 336 114.415, 336 118.872 C 336 121.531, 336.289 126.473, 336.642 129.853 L 337.285 136 340.642 136 C 343.557 136, 344 135.670, 344 133.500 L 344 131 422.500 131 C 500.333 131, 501 131.017, 501 133 C 501 134.866, 501.667 135, 510.922 135 L 520.845 135 522.172 131.250 C 523.600 127.216, 523.975 99.801, 522.672 94.750 C 522.097 92.524, 521.394 92, 518.981 92 C 515.638 92, 515.035 90.108, 517.571 87.571 C 519.543 85.600, 523.638 85.531, 524.712 87.450 C 525.158 88.248, 527.431 89.205, 529.762 89.578 C 533.631 90.197, 534 90.070, 534 88.128 C 534 85.666, 534.924 85.604, 552 86.924 C 565.877 87.996, 566.164 87.824, 565.793 78.692 L 565.500 71.500 555 71.658 C 549.225 71.745, 542.154 72.085, 539.286 72.413 L 534.072 73.009 534.691 56.544 C 535.371 38.468, 535.015 37, 529.950 37 C 528.107 37, 526.430 37.909, 525.060 39.650 M 379.813 43.683 C 380.534 43.972, 381.397 43.936, 381.729 43.604 C 382.061 43.272, 381.471 43.036, 380.417 43.079 C 379.252 43.127, 379.015 43.364, 379.813 43.683 M 387.250 43.689 C 388.212 43.941, 389.788 43.941, 390.750 43.689 C 391.712 43.438, 390.925 43.232, 389 43.232 C 387.075 43.232, 386.288 43.438, 387.250 43.689 M 523 62 C 523 62.550, 523.450 63, 524 63 C 524.550 63, 525 62.550, 525 62 C 525 61.450, 524.550 61, 524 61 C 523.450 61, 523 61.450, 523 62 M 528 62 C 528 62.550, 528.477 63, 529.059 63 C 529.641 63, 529.840 62.550, 529.500 62 C 529.160 61.450, 528.684 61, 528.441 61 C 528.198 61, 528 61.450, 528 62 M 441.376 67.462 C 440.250 70.396, 442.550 71.600, 448.193 71.033 C 452.656 70.585, 453.500 70.182, 453.500 68.500 C 453.500 66.766, 452.733 66.460, 447.738 66.200 C 443.243 65.966, 441.844 66.243, 441.376 67.462 M 469.336 67.567 C 468.354 70.127, 470.696 71.421, 475.748 71.110 C 484.155 70.593, 483.344 66, 474.846 66 C 471.312 66, 469.769 66.439, 469.336 67.567 M 496.110 67.367 C 494.235 69.626, 497.487 71.434, 502.835 71.105 C 507.763 70.802, 509.583 69.407, 507.820 67.284 C 506.384 65.553, 497.563 65.616, 496.110 67.367 M 186 71.500 C 184.937 72.781, 185.229 73, 188 73 C 190.771 73, 191.063 72.781, 190 71.500 C 189.315 70.675, 188.415 70, 188 70 C 187.585 70, 186.685 70.675, 186 71.500 M 547 75 C 547 75.556, 549.667 76, 553 76 C 556.333 76, 559 75.556, 559 75 C 559 74.444, 556.333 74, 553 74 C 549.667 74, 547 74.444, 547 75 M 58.742 82.749 L 38.983 83.042 39.452 86.771 C 40.639 96.200, 40.899 112.510, 40.028 122.953 C 39.503 129.252, 39.177 134.510, 39.304 134.637 C 39.431 134.765, 72.927 126.520, 113.740 116.316 C 181.783 99.305, 187.865 97.616, 186.991 95.983 C 185.968 94.072, 183.099 94.375, 176.300 97.113 C 173.480 98.248, 172.857 98.180, 171.050 96.545 C 168.219 93.983, 168.452 92.514, 172.585 86.884 L 176.170 82 127.335 82.228 C 100.476 82.353, 69.609 82.587, 58.742 82.749 M 174.494 87.445 C 172.115 90.898, 170.978 93.500, 171.384 94.559 C 172.065 96.332, 173.335 96.225, 180.250 93.817 C 183.671 92.625, 184 92.187, 184 88.814 C 184 86.781, 184.450 84.840, 185 84.500 C 187.157 83.167, 185.814 82, 182.122 82 C 178.551 82, 177.946 82.432, 174.494 87.445 M 547 82.907 C 547 83.407, 549.519 83.969, 552.597 84.157 C 557.953 84.485, 559.690 84.023, 558.306 82.639 C 557.310 81.644, 547 81.888, 547 82.907 M 499 86.936 C 499 87.715, 440.950 88.654, 381.705 88.834 C 367.541 88.878, 359.467 89.867, 360.974 91.375 C 362.499 92.902, 501.311 94.330, 505.148 92.858 C 506.983 92.154, 507.928 90.944, 508.225 88.921 C 508.648 86.037, 508.592 86, 503.827 86 C 501.172 86, 499 86.421, 499 86.936 M 334.667 90.667 C 334.300 91.033, 334 92.421, 334 93.750 C 334 97.021, 336.211 96.121, 336.575 92.702 C 336.853 90.103, 336.067 89.266, 334.667 90.667 M 285.500 102 C 285.160 102.550, 284.029 103, 282.986 103 C 280.451 103, 279.470 108.319, 280.975 113.908 C 281.821 117.048, 282.998 118.656, 285.557 120.166 C 289.668 122.591, 289.793 122.874, 286.476 122.240 C 282.073 121.399, 278.228 116.790, 276.379 110.139 C 274.817 104.520, 274.439 104, 271.919 104 C 270.405 104, 268.940 103.438, 268.662 102.750 C 268.385 102.063, 268.122 103.638, 268.079 106.250 C 268.036 108.862, 267.550 111, 267 111 C 265.601 111, 265.748 121.352, 267.191 124.519 C 269.256 129.053, 272.920 129.803, 289.037 128.994 C 296.992 128.594, 304.291 127.932, 305.259 127.523 C 307.515 126.569, 307.851 124.791, 308.234 111.750 L 308.551 101 297.334 101 C 290.935 101, 285.853 101.430, 285.500 102" stroke="none" fill-rule="evenodd"/>
</svg>