<svg xmlns="http://www.w3.org/2000/svg"   viewBox="0 0 196 171" version="1.1" fill="white">
	<path d="M 45 33.793 C 45 34.229, 43.538 35.017, 41.750 35.543 C 39.431 36.226, 37.964 37.597, 36.631 40.327 C 34.781 44.114, 34.749 44.130, 33.606 41.827 C 32.058 38.710, 28.387 38.206, 27.503 40.990 C 26.779 43.271, 28.440 46, 30.551 46 C 31.269 46, 32.561 46.704, 33.421 47.564 C 34.803 48.945, 34.816 49.454, 33.540 51.923 C 32.745 53.460, 30.723 55.286, 29.047 55.980 C 25.576 57.418, 25.111 59.454, 27.911 60.952 C 30.535 62.357, 34 68.204, 34 71.228 C 34 72.599, 32.947 75.273, 31.659 77.170 C 28.433 81.924, 19.335 103.515, 17.319 111.198 C 15.387 118.564, 16.026 123, 19.019 123 C 20.355 123, 21 123.673, 21 125.069 C 21 127.087, 21.389 127.130, 36.799 126.819 C 50.625 126.540, 52.966 126.250, 55.549 124.500 L 58.500 122.500 55.750 122.184 C 53.232 121.894, 53 121.509, 53 117.627 C 53 113.353, 58.469 97.881, 63.352 88.341 C 66.734 81.734, 68.742 80.645, 74.072 82.525 C 79.803 84.547, 85.243 84.303, 93.500 81.652 L 100.500 79.405 100.515 72.238 C 100.533 63.630, 102.282 60.737, 103.906 66.630 C 106.572 76.305, 123.287 136.650, 123.645 137.893 C 124.472 140.761, 144.504 137.455, 145.735 134.248 C 146.079 133.352, 145.826 132.442, 145.174 132.225 C 144.521 132.007, 144.225 131.445, 144.515 130.975 C 144.805 130.506, 142.821 122.557, 140.104 113.311 C 130.621 81.030, 126 65.045, 126 64.524 C 126 64.236, 128.475 64, 131.500 64 C 134.525 64, 137 63.566, 137 63.035 C 137 61.828, 133.442 59.880, 129.500 58.929 C 127.642 58.480, 130.742 58.166, 137.643 58.102 C 149.400 57.994, 150 57.744, 150 52.937 C 150 50.363, 151.997 50.028, 169 49.743 L 183.500 49.500 183.500 45 L 183.500 40.500 168.250 40.224 C 159.211 40.060, 153 39.551, 153 38.974 C 153 38.438, 152.133 38, 151.073 38 C 150.014 38, 149.001 37.284, 148.823 36.408 C 148.532 34.975, 143.479 34.830, 98.335 34.950 C 64.488 35.040, 47.960 34.745, 47.526 34.042 C 46.770 32.819, 45 32.645, 45 33.793 M 29.192 42.075 C 29.389 42.666, 29.977 43.150, 30.500 43.150 C 31.023 43.150, 31.611 42.666, 31.808 42.075 C 32.005 41.484, 31.417 41, 30.500 41 C 29.583 41, 28.995 41.484, 29.192 42.075 M 88.387 62.750 C 88.085 63.712, 87.435 65.510, 86.943 66.745 C 85.620 70.061, 86.919 74.791, 89.766 77.031 C 92.176 78.926, 92.190 79, 90.135 79 C 87.369 79, 84.202 75.795, 83.489 72.275 C 81.754 63.716, 80.202 62.480, 75.663 66.050 C 72.058 68.886, 69.695 73.648, 70.433 76.590 C 72.256 83.852, 92.982 83.508, 96.919 76.151 C 98.917 72.419, 98.238 66.147, 95.545 63.455 C 92.682 60.591, 89.174 60.246, 88.387 62.750" stroke="none" fill-rule="evenodd"/>
</svg>