<svg xmlns="http://www.w3.org/2000/svg"   viewBox="0 0 262 165" version="1.1" fill="white">
	<path d="M 223.865 27.767 C 222.564 28.657, 221.268 29.716, 220.984 30.122 C 219.870 31.716, 206.430 32.924, 183.500 33.491 C 170.300 33.818, 159.050 34.104, 158.500 34.128 C 154.442 34.304, 115.453 32.786, 115.106 32.439 C 114.864 32.198, 110.804 32.023, 106.083 32.051 C 98.466 32.097, 93.064 32.629, 79.751 34.643 C 76.553 35.127, 75.485 34.755, 72.467 32.105 C 67.740 27.955, 66 28.062, 66 32.500 C 66 34.841, 65.534 36, 64.593 36 C 63.038 36, 55 45.124, 55 46.889 C 55 48.530, 53.893 48.248, 51.497 45.997 L 49.364 43.993 44.255 50.369 C 38.490 57.564, 38.702 59, 45.533 59 C 47.807 59, 49.951 59.284, 50.298 59.631 C 51.921 61.254, 48.447 63.927, 42.039 65.988 C 38.167 67.232, 35 68.532, 34.999 68.875 C 34.999 69.219, 38.984 69.345, 43.855 69.156 C 51.270 68.868, 53.368 69.147, 56.750 70.872 C 61.085 73.084, 65 79.398, 65 84.178 C 65 87.766, 60.349 109.694, 58.569 114.500 C 57.723 116.784, 57.069 122.039, 57.044 126.750 C 57.001 134.820, 57.053 135, 59.417 135 C 60.746 135, 61.983 135.441, 62.167 135.979 C 62.530 137.047, 98.567 135.767, 99.687 134.646 C 100.036 134.297, 99.727 131.529, 98.999 128.496 C 97.827 123.609, 97.923 121.301, 99.842 108.240 C 102.724 88.624, 101.644 89.534, 122.482 89.167 C 131.222 89.014, 138.708 88.681, 139.118 88.427 C 139.528 88.174, 139.222 86.736, 138.438 85.233 C 136.936 82.353, 136.584 76.332, 137.616 71.169 C 138.378 67.362, 139.923 67.079, 162.220 66.678 C 170.865 66.522, 178.144 66.190, 178.394 65.940 C 178.644 65.689, 185.918 65.533, 194.557 65.592 C 209.048 65.690, 210.304 65.555, 210.750 63.849 C 211.111 62.466, 212.176 62, 214.977 62 C 217.036 62, 220.760 61.721, 223.251 61.379 L 227.782 60.758 230.891 52.815 C 233.307 46.641, 234 43.327, 234 37.936 C 234 31.204, 233.926 31, 231.500 31 C 229.714 31, 229 30.460, 229 29.107 C 229 26.462, 226.666 25.853, 223.865 27.767 M 120.704 67.737 C 116.796 68.044, 115.745 68.541, 115.029 70.424 C 113.986 73.166, 115.152 79.057, 117.423 82.523 C 118.785 84.602, 118.814 85, 117.600 85 C 113.828 85, 107.670 74.961, 109.563 71.897 C 109.868 71.404, 109.714 71, 109.220 71 C 107.885 71, 106 75.679, 106 78.991 C 106 80.588, 107.052 83.111, 108.344 84.613 C 110.654 87.299, 110.840 87.334, 121.561 87.111 C 127.542 86.986, 133.012 86.405, 133.718 85.819 C 134.461 85.202, 135 82.561, 135 79.533 C 135 75.580, 134.514 73.870, 133 72.500 C 131.900 71.505, 131 69.860, 131 68.845 C 131 66.903, 131.137 66.918, 120.704 67.737" stroke="none" fill-rule="evenodd"/>
</svg>