<?xml version="1.0" encoding="utf-8"?>
<svg viewBox="0 0 100 100" version="1.1" fill="white" xmlns="http://www.w3.org/2000/svg">
  <path d="M 28.499 15.665 L 28.499 18.831 L 25.735 17.42 L 22.972 16.011 L 21.883 17.562 C 20.368 19.726 20.447 19.915 23.591 21.682 L 26.383 23.252 L 23.591 24.918 C 22.054 25.834 20.797 26.734 20.797 26.919 C 20.797 27.104 21.307 28.033 21.931 28.986 L 23.066 30.717 L 25.339 29.311 C 26.591 28.537 27.813 27.905 28.057 27.905 C 28.3 27.905 28.499 29.323 28.499 31.056 C 28.499 34.19 28.512 34.207 30.95 34.207 L 33.401 34.207 L 33.401 30.755 L 33.401 27.304 L 36.412 28.986 L 39.423 30.669 L 40.637 28.613 L 41.851 26.557 L 39.026 25.115 C 37.473 24.323 36.201 23.544 36.201 23.384 C 36.201 23.224 37.445 22.394 38.964 21.539 C 41.69 20.007 41.714 19.959 40.696 17.994 C 39.474 15.629 39.271 15.6 36.551 17.401 C 35.396 18.167 34.216 18.795 33.926 18.798 C 33.637 18.8 33.401 17.385 33.401 15.651 C 33.401 12.517 33.387 12.5 30.95 12.5 C 28.511 12.5 28.499 12.514 28.499 15.665 M 55.107 20.902 C 55.107 22.969 55.048 23.004 51.431 23.013 C 49.409 23.018 47.068 23.207 46.227 23.432 C 44.242 23.964 43.515 25.889 44.917 26.913 C 46.892 28.358 46.144 34.207 43.986 34.207 C 40.207 34.207 38.333 39.099 41.011 41.97 C 42.725 43.811 43.052 47.676 42.882 64.039 C 42.752 76.526 42.642 77.559 41.223 79.552 C 39.19 82.407 39.265 84.875 41.429 86.293 C 43.852 87.881 56.901 87.91 59.152 86.333 C 61.062 84.995 61.213 81.841 59.493 79.215 C 58.426 77.588 58.276 75.335 58.268 60.828 C 58.259 46.255 58.404 44.077 59.483 42.428 C 61.174 39.85 61.086 36.18 59.308 35.069 C 58.538 34.588 57.908 33.656 57.908 32.998 C 57.908 32.196 59.3 33.176 62.109 35.957 L 66.311 40.114 L 66.311 54.333 L 66.311 68.552 L 64.195 68.975 C 63.032 69.208 61.889 69.706 61.657 70.083 C 61.398 70.503 61.877 70.582 62.898 70.288 C 63.812 70.022 65.112 69.653 65.786 69.464 C 66.903 69.153 67.011 67.824 67.011 54.365 L 67.011 39.607 L 62.109 31.104 C 59.336 26.292 57.208 21.776 57.208 20.701 C 57.208 19.48 56.833 18.802 56.157 18.802 C 55.457 18.802 55.107 19.502 55.107 20.902 M 72.613 23.004 C 72.613 25.081 71.111 25.939 70.162 24.404 C 69.452 23.255 67.812 23.607 67.024 25.08 C 66.394 26.256 66.613 26.625 68.532 27.617 L 70.776 28.777 L 68.894 29.764 C 66.938 30.789 66.601 31.775 67.645 33.425 C 68.161 34.236 68.524 34.208 69.892 33.25 C 72.226 31.614 72.613 31.8 72.613 34.557 C 72.613 36.705 72.83 37.007 74.363 37.007 C 75.9 37.007 76.114 36.705 76.114 34.538 L 76.114 32.07 L 78.188 33.143 C 80.142 34.152 80.307 34.131 81.045 32.75 C 81.926 31.106 81.982 31.217 79.655 30.002 L 77.942 29.111 L 79.995 27.474 C 81.888 25.964 81.959 25.748 80.913 24.702 C 80.021 23.811 79.47 23.731 78.342 24.334 C 76.281 25.438 76.114 25.338 76.114 23.004 C 76.114 21.23 75.842 20.902 74.363 20.902 C 72.886 20.902 72.613 21.23 72.613 23.004 M 24.298 46.811 C 24.298 48.889 22.797 49.746 21.848 48.211 C 21.137 47.062 19.498 47.415 18.708 48.888 C 18.08 50.063 18.299 50.432 20.217 51.424 L 22.461 52.584 L 20.579 53.571 C 18.623 54.596 18.287 55.583 19.331 57.232 C 19.845 58.044 20.208 58.015 21.577 57.057 C 23.912 55.421 24.298 55.607 24.298 58.364 C 24.298 60.512 24.516 60.815 26.049 60.815 C 27.585 60.815 27.799 60.513 27.799 58.346 L 27.799 55.877 L 29.873 56.95 C 31.826 57.961 31.992 57.938 32.731 56.557 C 33.611 54.913 33.667 55.024 31.339 53.809 L 29.627 52.918 L 31.68 51.281 C 33.573 49.771 33.644 49.556 32.599 48.509 C 31.707 47.618 31.155 47.539 30.027 48.143 C 27.967 49.246 27.799 49.146 27.799 46.811 C 27.799 45.037 27.526 44.709 26.049 44.709 C 24.57 44.709 24.298 45.037 24.298 46.811" stroke="none" fill-rule="evenodd" style="fill: rgb(0, 0, 0);"/>
</svg>