<svg xmlns="http://www.w3.org/2000/svg"   viewBox="0 0 108 143" version="1.1" fill="white">
	<path d="M 22 24.520 L 22 29.041 18.052 27.027 L 14.105 25.013 12.552 27.229 C 10.387 30.320, 10.500 30.591, 14.989 33.114 L 18.978 35.356 14.989 37.735 C 12.795 39.043, 11 40.329, 11 40.592 C 11 40.855, 11.729 42.183, 12.620 43.543 L 14.240 46.015 17.488 44.007 C 19.274 42.903, 21.020 42, 21.368 42 C 21.716 42, 22 44.025, 22 46.500 C 22 50.976, 22.019 51, 25.500 51 L 29 51 29 46.070 L 29 41.141 33.300 43.544 L 37.600 45.947 39.334 43.011 L 41.068 40.076 37.034 38.017 C 34.815 36.885, 33 35.772, 33 35.544 C 33 35.315, 34.776 34.130, 36.946 32.910 C 40.839 30.722, 40.873 30.654, 39.420 27.846 C 37.674 24.468, 37.385 24.427, 33.500 27 C 31.850 28.093, 30.163 28.990, 29.750 28.993 C 29.337 28.997, 29 26.975, 29 24.500 C 29 20.024, 28.981 20, 25.500 20 C 22.016 20, 22 20.021, 22 24.520 M 60 32 C 60 34.951, 59.914 35, 54.750 35.014 C 51.862 35.021, 48.519 35.291, 47.319 35.612 C 44.482 36.373, 43.446 39.122, 45.446 40.584 C 48.267 42.647, 47.200 51, 44.116 51 C 38.721 51, 36.045 57.986, 39.868 62.088 C 42.316 64.716, 42.784 70.236, 42.541 93.605 C 42.355 111.437, 42.197 112.914, 40.171 115.760 C 37.269 119.836, 37.376 123.361, 40.465 125.385 C 43.926 127.653, 62.561 127.696, 65.777 125.443 C 68.504 123.533, 68.720 119.028, 66.263 115.279 C 64.740 112.954, 64.525 109.737, 64.513 89.020 C 64.502 68.206, 64.707 65.096, 66.250 62.741 C 68.663 59.059, 68.538 53.817, 66 52.232 C 64.900 51.545, 64 50.213, 64 49.273 C 64 48.129, 65.987 49.529, 70 53.500 L 76 59.437 76 79.744 L 76 100.050 72.979 100.654 C 71.318 100.986, 69.686 101.698, 69.354 102.236 C 68.984 102.836, 69.669 102.948, 71.125 102.528 C 72.431 102.150, 74.287 101.622, 75.250 101.353 C 76.846 100.908, 77 99.009, 77 79.789 L 77 58.713 70 46.568 C 66.039 39.697, 63 33.247, 63 31.712 C 63 29.968, 62.465 29, 61.500 29 C 60.500 29, 60 30, 60 32 M 85 35 C 85 37.968, 82.855 39.193, 81.500 37 C 80.486 35.359, 78.144 35.863, 77.018 37.966 C 76.119 39.645, 76.432 40.172, 79.172 41.589 L 82.377 43.246 79.689 44.655 C 76.895 46.119, 76.415 47.528, 77.906 49.883 C 78.641 51.042, 79.160 51.002, 81.114 49.633 C 84.448 47.298, 85 47.563, 85 51.500 C 85 54.567, 85.310 55, 87.500 55 C 89.694 55, 90 54.568, 90 51.474 L 90 47.949 92.962 49.480 C 95.752 50.923, 95.988 50.891, 97.043 48.920 C 98.300 46.572, 98.380 46.730, 95.056 44.996 L 92.611 43.722 95.543 41.384 C 98.246 39.229, 98.348 38.920, 96.854 37.426 C 95.581 36.153, 94.793 36.040, 93.182 36.902 C 90.239 38.478, 90 38.335, 90 35 C 90 32.467, 89.611 32, 87.500 32 C 85.389 32, 85 32.467, 85 35 M 16 69 C 16 71.968, 13.855 73.193, 12.500 71 C 11.486 69.359, 9.144 69.863, 8.018 71.966 C 7.119 73.645, 7.432 74.172, 10.172 75.589 L 13.377 77.246 10.689 78.655 C 7.895 80.119, 7.415 81.528, 8.906 83.883 C 9.641 85.042, 10.160 85.002, 12.114 83.633 C 15.448 81.298, 16 81.563, 16 85.500 C 16 88.567, 16.310 89, 18.500 89 C 20.694 89, 21 88.568, 21 85.474 L 21 81.949 23.962 83.480 C 26.752 84.923, 26.988 84.891, 28.043 82.920 C 29.300 80.572, 29.380 80.730, 26.056 78.996 L 23.611 77.722 26.543 75.384 C 29.246 73.229, 29.348 72.920, 27.854 71.426 C 26.581 70.153, 25.793 70.040, 24.182 70.902 C 21.239 72.478, 21 72.335, 21 69 C 21 66.467, 20.611 66, 18.500 66 C 16.389 66, 16 66.467, 16 69" stroke="none" fill-rule="evenodd"/>
</svg>