<svg xmlns="http://www.w3.org/2000/svg"   viewBox="0 0 240 156" version="1.1" fill="white">
	<path d="M 66.500 26 C 66.064 27.375, 64.987 28, 63.055 28 C 61.509 28, 59.663 28.702, 58.951 29.559 C 58.008 30.696, 56.667 30.951, 54 30.500 C 48.828 29.626, 47.532 31.421, 49.437 36.821 C 50.707 40.421, 50.702 41.327, 49.397 44.212 C 45.932 51.870, 45.455 52.436, 41.730 53.317 C 36.689 54.509, 36.956 56.656, 42.250 57.508 C 47.898 58.417, 50.868 60.440, 52.584 64.546 C 54.681 69.565, 54.331 73.015, 51.060 79.590 C 43.232 95.323, 37 112.691, 37 118.774 C 37 122.901, 37.432 123.833, 40.682 126.725 C 44.500 130.122, 46.421 130.746, 47.530 128.951 C 47.941 128.287, 48.603 128.247, 49.339 128.844 C 49.978 129.361, 56.556 130.286, 63.959 130.898 C 80.647 132.278, 80.306 132.496, 80.604 120.269 C 80.783 112.939, 81.531 109.367, 85.159 98.500 C 88.940 87.176, 89.866 85.326, 92.338 84.153 C 94.553 83.102, 96.131 83.047, 99.531 83.903 C 107.001 85.785, 117.123 85.244, 125.807 82.501 L 133.718 80.002 134.238 71.661 C 135.058 58.522, 134.394 59, 151.835 59 C 161.986 59, 166.975 58.625, 167.800 57.800 C 168.733 56.867, 169.267 56.867, 170.200 57.800 C 170.883 58.483, 174.154 59, 177.794 59 C 183.346 59, 184.256 58.737, 184.710 57 C 185.159 55.286, 186.074 55, 191.117 55 C 195.115 55, 197.025 54.599, 197.079 53.750 C 197.122 53.063, 197.092 49.718, 197.012 46.318 L 196.867 40.137 200.184 39.818 C 203.432 39.506, 203.506 39.393, 203.802 34.250 L 204.105 29 200.587 29 C 198.101 29, 196.759 28.418, 196.006 27.012 C 195.421 25.918, 193.768 24.729, 192.333 24.369 C 190.296 23.858, 189.327 24.239, 187.914 26.107 L 186.104 28.500 128.802 28.298 C 72.281 28.098, 71.481 28.067, 70.128 26.048 C 68.398 23.466, 67.309 23.451, 66.500 26 M 50.639 31.694 C 49.513 32.820, 49.954 34, 51.500 34 C 52.325 34, 53 33.577, 53 33.059 C 53 31.798, 51.438 30.895, 50.639 31.694 M 110.129 64.500 C 109.920 70.904, 111.822 75.319, 115.655 77.327 C 119.369 79.273, 117.102 80.190, 113.222 78.311 C 109.927 76.715, 103.498 67.621, 104.509 65.985 C 105.257 64.775, 102.833 61, 101.307 61 C 96.835 61, 92 66.952, 92 72.457 C 92 75.921, 96.273 80.466, 100.807 81.824 C 105.718 83.295, 115.263 83.332, 120.421 81.900 C 126.043 80.339, 130 76.054, 130 71.527 C 130 63.439, 124.751 59, 115.186 59 L 110.309 59 110.129 64.500 M 44 127 C 44 127.550, 44.423 128, 44.941 128 C 45.459 128, 46.160 127.550, 46.500 127 C 46.840 126.450, 46.416 126, 45.559 126 C 44.702 126, 44 126.450, 44 127" stroke="none" fill-rule="evenodd"/>
</svg>