<svg xmlns="http://www.w3.org/2000/svg"   viewBox="0 0 516 222" version="1.1" fill="white">
	<path d="M 217 26.019 C 211.891 28.054, 210.018 32.661, 208.880 45.992 C 208.304 52.736, 208.071 59.162, 208.361 60.271 C 208.757 61.785, 208.603 62.003, 207.744 61.144 C 206.329 59.729, 201.342 59.638, 200.493 61.011 C 200.098 61.650, 199.077 61.467, 197.712 60.511 C 195.881 59.229, 189.912 59, 158.277 59 C 122.333 59, 120.928 59.072, 119 61 C 117.402 62.598, 115.667 63, 110.367 63 L 103.735 63 97.779 56.500 L 91.823 50 63.991 50 L 36.159 50 35.583 52.750 C 35.266 54.263, 34.313 60.558, 33.465 66.740 C 32.074 76.892, 32.076 79.362, 33.489 92.240 C 35.438 110.009, 36.850 119.556, 38.149 123.750 L 39.155 127 50.069 127 C 59.900 127, 61.107 126.802, 62.232 125 C 62.919 123.900, 64.160 122.995, 64.991 122.989 C 65.821 122.983, 70.775 121.638, 76 120 C 81.225 118.362, 85.807 117.017, 86.183 117.011 C 86.558 117.005, 87.151 117.900, 87.500 119 C 88.379 121.769, 94.038 121.769, 95.768 119 C 96.455 117.900, 98.048 117, 99.308 117 C 101.996 117, 104 115.274, 104 112.958 C 104 110.062, 113.957 107.982, 126.500 108.258 L 137.500 108.500 138.130 125.500 C 138.779 143.002, 139.329 146.926, 143.011 160.324 C 145.046 167.726, 154.719 196.052, 155.468 196.802 C 156.235 197.568, 195 183.658, 195 182.617 C 195 182.003, 192.773 175.131, 190.052 167.346 C 187.331 159.561, 184.214 149.211, 183.126 144.346 C 180.973 134.719, 179.525 121.728, 180.832 123.773 C 181.484 124.792, 182.360 124.748, 185.222 123.552 C 188.293 122.268, 189.082 121.215, 190.820 116.068 C 193.791 107.269, 200.201 99.635, 207 96.796 C 211.684 94.841, 214.255 94.500, 224.331 94.500 C 234.889 94.500, 236.315 94.709, 237.581 96.441 C 239.968 99.707, 239.198 102.679, 234.457 108.499 C 227.966 116.469, 222.949 127.777, 221.534 137.628 C 220.891 142.099, 220.724 146.724, 221.162 147.908 C 222.522 151.585, 227.171 154.760, 235.852 157.940 C 243.480 160.735, 245.269 161, 256.510 161 C 268.731 161, 268.916 160.965, 283.158 155.954 C 291.046 153.179, 298.237 150.142, 299.138 149.204 C 300.038 148.267, 305.966 138.659, 312.311 127.853 C 331.629 94.951, 329.107 97.064, 350.444 95.919 C 362.701 95.262, 388.885 96.158, 389.473 97.254 C 391.653 101.318, 393.412 103, 395.485 103 C 397.975 103, 398.544 101.814, 400.528 92.500 C 401.597 87.479, 401.939 86.844, 403.166 87.603 C 405.114 88.807, 410.097 88.588, 411.207 87.250 C 411.778 86.562, 413.315 86, 414.622 86 C 415.930 86, 417 85.484, 417 84.854 C 417 83.294, 455.685 84.285, 457.285 85.885 C 457.979 86.579, 462.848 87, 470.165 87 C 483.108 87, 484.019 86.560, 483.985 80.316 C 483.955 74.826, 483.582 74.715, 467.370 75.392 C 427.250 77.067, 417 77.214, 417 76.112 C 417 75.500, 415.861 75, 414.469 75 C 413.076 75, 411.678 74.325, 411.362 73.500 C 411.045 72.675, 409.895 72, 408.805 72 C 407.010 72, 406.903 71.602, 407.662 67.750 C 408.935 61.292, 408.056 38.008, 406.419 34.843 C 403.577 29.347, 402.603 29.258, 326.500 27.558 C 288 26.698, 248.175 25.776, 238 25.509 C 226.844 25.216, 218.508 25.419, 217 26.019 M 322 42.112 C 301.925 42.550, 274.571 43.205, 261.213 43.568 L 236.927 44.227 233.963 47.190 C 231.471 49.683, 231 50.947, 231 55.143 C 231 64.024, 233.874 66.315, 238.347 61 C 241.492 57.261, 244.436 56.941, 243.773 60.409 C 243.137 63.732, 244.882 63.904, 272.549 63.246 L 295.599 62.698 296.787 57.599 C 297.914 52.762, 302.387 47, 305.016 47 C 306.603 47, 306.153 48.552, 304 50.500 C 302.900 51.495, 302 53.265, 302 54.432 C 302 57.473, 304.752 61.033, 306.565 60.337 C 307.395 60.018, 308.845 60.391, 309.787 61.165 C 311.149 62.284, 314.268 62.462, 325 62.036 L 338.500 61.500 338.825 57.513 C 339.003 55.320, 339.621 52.957, 340.197 52.263 C 341.472 50.726, 345.632 50.596, 346.540 52.064 C 346.992 52.797, 353.112 52.906, 366.188 52.415 L 385.178 51.702 384.839 54.101 L 384.500 56.500 367.012 57 C 350.512 57.472, 349.504 57.613, 349.165 59.500 C 348.875 61.118, 349.054 61.261, 350.103 60.250 C 351.525 58.880, 356.225 58.558, 357.417 59.750 C 358.587 60.920, 378.065 60.909, 382.250 59.735 L 386 58.683 386 52.743 C 386 47.387, 385.694 46.517, 382.894 43.901 C 379.309 40.552, 385.375 40.730, 322 42.112 M 267.846 100.669 C 267.204 102.226, 266.572 105.660, 266.440 108.301 C 266.275 111.616, 265.360 114.316, 263.483 117.024 C 261.468 119.932, 260.887 121.775, 261.236 124.153 C 261.635 126.871, 261.120 127.917, 257.853 131.025 C 254.711 134.014, 254 135.386, 254 138.463 C 254 141.229, 253.199 143.148, 251 145.653 C 248.946 147.992, 248 150.124, 248 152.412 C 248 157.602, 249.566 158.238, 261.213 157.778 C 270.524 157.411, 272.696 156.923, 284.106 152.632 L 296.713 147.891 308.106 127.775 C 314.373 116.711, 319.650 107.039, 319.833 106.282 C 321.181 100.697, 303.615 95.577, 295.707 99.250 C 293.406 100.319, 293.014 101.116, 293.008 104.750 C 293.004 107.088, 292.550 109, 292 109 C 291.450 109, 291 107.051, 291 104.669 C 291 99.404, 288.638 97.703, 281.994 98.183 C 277.883 98.480, 277.454 98.797, 275.190 103.207 C 273.110 107.260, 272.929 108.359, 273.892 111.119 C 275.291 115.134, 274.655 115.930, 272.580 112.762 C 271.117 110.529, 270.506 105.121, 271.206 100.608 C 271.682 97.542, 269.115 97.588, 267.846 100.669" stroke="none" fill-rule="evenodd"/>
</svg>