<svg xmlns="http://www.w3.org/2000/svg"   viewBox="0 0 204 160" version="1.1" fill="white">
	<path d="M 34 27.658 C 34 29.412, 32.955 31.253, 31.008 32.927 C 28.613 34.986, 27.516 37.397, 25.511 45 C 21.558 59.987, 21.882 61.053, 31.728 65.464 C 40.395 69.346, 40.525 70.616, 34.093 88.500 C 27.881 105.771, 23.229 127.213, 24.829 131.200 C 26.627 135.682, 31.208 136.274, 51.506 134.652 C 61.175 133.879, 69.328 133.005, 69.623 132.710 C 69.918 132.415, 69.408 131.026, 68.489 129.623 C 66.913 127.218, 66.945 126.455, 69.056 116.286 C 70.287 110.354, 71.903 104.285, 72.647 102.800 C 73.391 101.314, 74 98.705, 74 97 C 74 95.295, 74.644 92.655, 75.431 91.133 L 76.863 88.365 95.181 87.101 C 112.928 85.877, 113.586 85.753, 116.250 83.150 C 118.095 81.346, 119.673 78.001, 121.048 72.981 C 123.174 65.214, 124.846 63, 128.584 63 C 129.795 63, 131.045 62.325, 131.362 61.500 C 132.110 59.551, 135 59.551, 135 61.500 C 135 63.553, 137.975 63.392, 139.640 61.250 C 140.935 59.583, 141.065 59.583, 142.360 61.250 C 144.025 63.392, 147 63.553, 147 61.500 C 147 59.552, 149.614 59.552, 150.362 61.500 C 151.106 63.439, 153.894 63.439, 154.638 61.500 C 154.955 60.675, 155.841 60, 156.607 60 C 157.373 60, 158 60.675, 158 61.500 C 158 63.553, 160.975 63.392, 162.640 61.250 C 163.931 59.589, 164.073 59.594, 165.433 61.350 C 167.304 63.764, 168.619 62.845, 169.422 58.564 C 170.042 55.260, 170.280 55.093, 174.785 54.803 C 177.617 54.621, 179.500 54.021, 179.500 53.300 C 179.500 52.640, 180.063 51.537, 180.750 50.850 C 182.047 49.553, 182.531 36.547, 181.393 33.582 C 181.059 32.712, 179.698 32, 178.368 32 C 176.747 32, 175.655 31.222, 175.052 29.636 C 174.240 27.502, 172.170 26, 170.040 26 C 169.601 26, 168.654 27.421, 167.935 29.157 L 166.628 32.313 138.151 31.657 C 122.489 31.296, 97.373 31, 82.337 31 C 58.704 31, 55 30.797, 55 29.500 C 55 28.314, 53.578 28, 48.200 28 C 44.460 28, 40.973 27.608, 40.450 27.129 C 39.928 26.650, 38.263 25.967, 36.750 25.610 C 34.270 25.025, 34 25.226, 34 27.658 M 93.769 70.250 C 94.027 74.318, 94.845 77.460, 96.112 79.250 C 98.367 82.434, 97.272 82.846, 93.861 80.098 C 92.193 78.754, 91.198 76.481, 90.471 72.348 C 89.449 66.538, 89.420 66.500, 85.971 66.500 C 82.653 66.500, 82.424 66.737, 80.776 71.882 C 79.087 77.154, 79.095 77.325, 81.158 80.221 L 83.263 83.178 98.105 82.839 C 115.218 82.448, 116.355 81.920, 117.530 73.809 C 118.135 69.632, 117.929 68.838, 115.650 66.559 C 113.251 64.160, 112.476 64, 103.232 64 L 93.372 64 93.769 70.250" stroke="none" fill-rule="evenodd"/>
</svg>