<svg xmlns="http://www.w3.org/2000/svg"   viewBox="0 0 108 143" version="1.1" fill="white">
	<path d="M 54.052 16.269 C 51.638 24.096, 49.390 30.826, 49.056 31.225 C 48.723 31.624, 47.111 30.845, 45.475 29.495 C 43.839 28.144, 42.046 26.693, 41.491 26.270 C 40.936 25.846, 38.686 24.022, 36.491 22.215 C 31.785 18.342, 32.590 18.956, 22.500 11.547 C 18.100 8.317, 14.169 5.185, 13.765 4.587 C 13.269 3.852, 13.026 3.915, 13.015 4.781 C 13.001 5.985, 18.473 16.783, 28.699 35.731 C 32.855 43.431, 33.479 46.782, 30.549 45.657 C 29.863 45.394, 27.321 45.549, 24.900 46.003 C 22.480 46.456, 16.565 47.362, 11.755 48.016 C 6.945 48.671, 3.224 49.554, 3.488 49.980 C 3.751 50.406, 6.068 51.283, 8.637 51.930 C 11.206 52.577, 17.522 54.456, 22.672 56.106 L 32.036 59.106 29.268 62.986 C 27.746 65.121, 21.622 73.240, 15.661 81.029 C 4.686 95.369, 4.266 96.829, 12.500 92.020 C 20.893 87.118, 41.288 76.955, 41.768 77.435 C 42.071 77.738, 42.321 85.868, 42.325 95.502 C 42.331 112.093, 42.217 113.140, 40.166 115.324 C 37.152 118.531, 37.294 123.308, 40.465 125.385 C 42.352 126.622, 45.478 127, 53.810 127 C 63.080 127, 64.935 126.729, 66.345 125.171 C 68.451 122.844, 68.469 118.115, 66.384 115.138 C 65.148 113.373, 64.701 109.857, 64.481 100.166 C 64.323 93.199, 64.429 85.833, 64.717 83.796 L 65.241 80.093 70.620 84.737 C 75.749 89.165, 76 89.608, 76 94.232 C 76 98.975, 75.906 99.124, 71.750 100.970 C 67.178 103.002, 68.692 103.701, 73.803 101.919 C 76.700 100.909, 76.925 100.477, 77.203 95.395 L 77.500 89.952 86.213 96.476 C 91.005 100.064, 95.186 103, 95.504 103 C 96.176 103, 86.346 83.551, 80.796 73.900 C 78.708 70.270, 77 66.364, 77 65.221 C 77 62.926, 79.306 62.301, 96.334 59.975 C 101.193 59.311, 104.793 58.426, 104.334 58.008 C 103.343 57.105, 91.337 53.110, 87.549 52.423 C 84.460 51.863, 77 48.983, 77 48.351 C 77 48.113, 81.838 41.612, 87.750 33.903 C 93.662 26.195, 99.791 18.072, 101.368 15.852 L 104.237 11.816 88.868 19.831 C 80.416 24.239, 71.607 28.893, 69.293 30.173 C 65.160 32.459, 65.062 32.466, 63.672 30.566 C 62.858 29.452, 61.730 23.515, 61.014 16.566 C 60.330 9.930, 59.472 3.946, 59.106 3.269 C 58.741 2.591, 56.466 8.441, 54.052 16.269" stroke="none" fill-rule="evenodd"/>
</svg>