<svg xmlns="http://www.w3.org/2000/svg" viewBox="0 0 28.5 33.5"><g fill="#fff"><path d="M11.183 19.96l-10.4 5.6 7.3-9.9-8.2-2.5 8.4-1.4-5.7-11.1 10 7.5 2.5-8.1 1.4 8.3 10.9-5.5-7.2 9.9 8.1 2.7-8.6 1.3 5.7 10.9-11.6-8.8-2.6 1.1z" fill-opacity=".4"/><path d="M11.683 33.46c-1.8-.5-2.2-1.3-1.1-2.8.6-.8.6-1 .6-7.1s0-6.3-.6-6.9c-1.1-1.2-.5-3.1 1-3.1.5 0 .8-.5.8-1.7 0-.5-.2-.9-.4-1-.6-.2-.5-.9.3-1.2.4-.1 1.3-.3 2.1-.3 1.4 0 1.4 0 1.4-.8 0-.5.1-.8.4-.8.2 0 .4.2.4.5 0 .6 1.2 3.2 2.6 5.4l1.1 1.8v5.5c0 5.2 0 5.5-.5 5.8-.3.2-.7.3-.9.3-.2 0 0-.1.4-.3l.7-.3v-10.7l-1.6-1.6c-1-1-1.6-1.4-1.6-1.1 0 .2.2.6.5.7.7.3.7 1.8.1 2.7-.5.7-.7 4-.7 9.5 0 3.3.1 3.7.6 4.4.6.9.7 2.1.1 2.6-.3.4-4.7.7-5.7.5z"/></g></svg>