<svg viewBox="0 0 28.464 33.622">
 <g transform="translate(-96.017 -134.24)">
  <path fill-opacity="0.4" d="m107.24 154.21-10.424 5.6127 7.3499-9.889-8.1517-2.5391 8.419-1.4032-5.6795-11.092 10.023 7.4836 2.5391-8.1517 1.4032 8.3522 10.891-5.479-7.2163 9.889 8.0849 2.7395-8.6194 1.2695 5.6795 10.958-11.626-8.8199z"/>
  <path d="m107.66 167.76c-1.8201-0.45322-2.1832-1.3512-1.125-2.7825 0.57804-0.78184 0.59462-0.98237 0.58861-7.1188-6e-3 -6.1586-0.0207-6.3298-0.5948-6.9409-1.1152-1.1871-0.47918-3.106 1.0295-3.106 0.52844 0 0.76318-0.52693 0.76318-1.7131 0-0.53468-0.15466-0.93545-0.39687-1.0284-0.62569-0.2401-0.46344-0.95045 0.28181-1.2338 0.37327-0.14192 1.3258-0.25803 2.1167-0.25803 1.4214 0 1.438-9e-3 1.438-0.79375 0-0.52917 0.13229-0.79375 0.39687-0.79375 0.21828 0 0.39697 0.20836 0.39709 0.46302 2.9e-4 0.61663 1.2474 3.215 2.6054 5.4286l1.0986 1.7906v5.5423c0 5.2087-0.0308 5.5588-0.51177 5.8162-0.28147 0.15064-0.66843 0.26449-0.8599 0.253-0.19146-0.0115-0.0207-0.14047 0.37949-0.28663l0.7276-0.26575v-10.688l-1.5875-1.5709c-1.0423-1.0314-1.5875-1.418-1.5875-1.1255 0 0.24499 0.23812 0.57287 0.52917 0.72863 0.65368 0.34984 0.71924 1.8452 0.12094 2.7583-0.47385 0.72318-0.7126 3.9855-0.69682 9.5215 9e-3 3.2969 0.0676 3.758 0.55777 4.4211 0.64383 0.87083 0.71426 2.1458 0.14465 2.6185-0.41063 0.34079-4.8041 0.61603-5.8151 0.3643z"/>
 </g>
</svg>
