<svg xmlns="http://www.w3.org/2000/svg"   viewBox="0 0 665 222" version="1.1" fill="white">
	<path d="M 266 33.902 C 266 36.862, 265.335 38.574, 263.455 40.455 C 261.001 42.908, 260.460 43, 248.524 43 C 236.442 43, 236.131 42.945, 235.820 40.750 C 235.554 38.880, 234.783 38.448, 231.250 38.193 C 227.527 37.923, 227 38.140, 227 39.943 C 227 42.412, 225.112 42.562, 218.928 40.583 C 215.725 39.559, 206.411 39.013, 185.252 38.610 C 161.830 38.164, 155.417 37.750, 153.059 36.530 C 149.162 34.515, 148.803 35.256, 148.273 46.392 C 147.725 57.890, 148.857 63.644, 151.569 63.145 C 158.001 61.960, 175.326 60.858, 194 60.444 C 208.743 60.118, 217.120 59.502, 220.654 58.484 C 223.489 57.668, 226.098 57, 226.454 57 C 226.809 57, 227.020 61.275, 226.923 66.500 C 226.825 71.725, 226.461 76, 226.113 76 C 224.389 76, 223.071 71.943, 224.001 69.497 C 224.796 67.406, 224.655 66.815, 223.239 66.317 C 222.282 65.980, 219.932 65.075, 218.016 64.305 C 215.721 63.384, 214.412 63.264, 214.182 63.953 C 213.990 64.529, 212.382 65, 210.608 65 C 206.082 65, 204.151 66.844, 203.801 71.500 L 203.500 75.500 190 76.126 C 182.575 76.470, 175.253 77.150, 173.729 77.636 C 172.205 78.123, 167.366 81.362, 162.977 84.833 C 155.995 90.355, 154.326 91.214, 149.645 91.697 C 144.742 92.203, 143.820 91.946, 138.628 88.625 L 132.961 85 99.409 85 L 65.856 85 61.178 87.713 C 58.605 89.205, 56.350 90.780, 56.167 91.213 C 55.983 91.646, 53.958 92.034, 51.667 92.075 C 49.375 92.116, 42.341 92.908, 36.035 93.835 C 24.624 95.512, 24.565 95.535, 23.688 98.591 C 23.066 100.760, 23.578 106.392, 25.431 117.766 C 27.543 130.730, 28.001 136.564, 27.777 147.685 C 27.625 155.283, 27.864 162.063, 28.309 162.750 C 28.867 163.612, 32.199 164, 39.033 164 C 47.787 164, 49.858 163.637, 56.724 160.896 C 109.662 139.761, 159.856 120.601, 165.315 119.444 C 169.805 118.493, 178.241 118, 190.034 118 C 205.412 118, 207.857 118.208, 207.371 119.477 C 207.011 120.414, 207.719 121.371, 209.308 122.094 C 210.685 122.722, 212.572 124.647, 213.502 126.373 C 216.383 131.724, 214.314 139.242, 207.380 148.619 C 204.241 152.863, 200.141 159.968, 198.269 164.408 L 194.864 172.480 197.491 174.575 C 203.569 179.421, 214.700 184.926, 218.996 185.211 C 223.138 185.485, 223.405 185.340, 224.009 182.495 C 224.360 180.843, 225.804 177.693, 227.218 175.495 C 228.632 173.298, 230.103 169.700, 230.486 167.500 C 230.870 165.300, 231.788 162.375, 232.528 161 C 233.267 159.625, 234.642 155.898, 235.583 152.718 C 236.524 149.538, 237.591 146.753, 237.954 146.528 C 238.318 146.304, 241.289 147.871, 244.558 150.011 L 250.500 153.903 261.678 154.071 C 276.263 154.291, 277.511 153.505, 281.570 141.550 L 284.473 133 288.256 133 C 292.312 133, 292.309 132.987, 290.340 140.250 C 290.079 141.213, 290.337 142, 290.914 142 C 291.490 142, 292.237 140.762, 292.574 139.250 C 293.816 133.667, 294.084 133.250, 296.433 133.250 C 299.529 133.250, 299.849 135.415, 301.381 166.692 C 302.033 180.006, 302.846 191.180, 303.189 191.522 C 303.980 192.313, 345.187 185.992, 346.414 184.891 C 346.965 184.397, 346.603 171.626, 345.503 152.786 C 344.499 135.579, 344.003 119.361, 344.400 116.747 L 345.124 111.993 374.812 112.025 C 391.140 112.042, 433.975 110.922, 470 109.537 C 506.025 108.151, 535.837 107.013, 536.250 107.008 C 536.663 107.004, 537 109.025, 537 111.500 L 537 116 543.485 116 L 549.969 116 549.342 110 L 548.715 104 553.299 104 C 555.819 104, 558.160 103.550, 558.500 103 C 558.840 102.450, 559.991 102, 561.059 102 C 562.127 102, 563 102.450, 563 103 C 563 104.302, 567.695 104.302, 568.500 103 C 569.338 101.643, 607 101.643, 607 103 C 607 103.550, 607.900 104, 609 104 C 610.100 104, 611 103.550, 611 103 C 611 101.697, 616.695 101.697, 617.500 103 C 617.858 103.579, 623.308 104, 630.452 104 C 640.777 104, 642.885 103.742, 643.393 102.418 C 644.421 99.738, 644.070 98, 642.500 98 C 641.675 98, 641 97.550, 641 97 C 641 96.450, 641.675 96, 642.500 96 C 644.070 96, 644.421 94.262, 643.393 91.582 C 642.885 90.258, 640.777 90, 630.452 90 C 623.308 90, 617.858 90.421, 617.500 91 C 616.699 92.297, 612.301 92.297, 611.500 91 C 610.556 89.473, 607.287 89.809, 606.638 91.500 C 605.779 93.740, 569.221 93.740, 568.362 91.500 C 567.615 89.555, 563.385 89.555, 562.638 91.500 C 562.322 92.325, 561.431 93, 560.660 93 C 559.547 93, 559.154 90.149, 558.762 79.250 C 558.141 61.985, 557.446 60, 552.025 60 L 548 60 548 69.013 L 548 78.026 475.750 77.385 C 367.604 76.426, 356.777 76.343, 315.250 76.165 L 277 76 277 73.649 C 277 66.616, 283.958 60, 291.355 60 C 293.928 60, 295 59.559, 295 58.500 C 295 57.293, 296.547 57, 302.921 57 C 309.894 57, 311.838 57.444, 319.171 60.709 L 327.500 64.417 353.753 64.959 L 380.006 65.500 380.551 62.500 C 380.851 60.850, 380.962 53.943, 380.798 47.152 L 380.500 34.803 354.635 34.947 L 328.771 35.091 319.183 39.081 C 310.187 42.825, 309.066 43.054, 301.047 42.786 C 293.046 42.518, 292.480 42.356, 292.180 40.250 C 291.911 38.353, 291.245 38, 287.930 38 C 284.405 38, 284 38.257, 284 40.500 C 284 46.420, 277.328 40.844, 276.820 34.500 L 276.500 30.500 271.250 30.198 L 266 29.895 266 33.902 M 236 58.500 C 236 59.611, 237.167 60, 240.500 60 C 242.975 60, 245 59.550, 245 59 C 245 58.450, 247.475 58, 250.500 58 C 253.525 58, 256 58.450, 256 59 C 256 60.613, 274.055 60.183, 277 58.500 C 279.226 57.228, 277.114 57.067, 257.750 57.035 C 239.068 57.005, 236 57.212, 236 58.500 M 236 71.952 L 236 76 242.560 76 L 249.121 76 248.810 72.250 L 248.500 68.500 242.250 68.202 L 236 67.905 236 71.952 M 254.709 68.624 C 254.319 69.014, 254 70.833, 254 72.667 C 254 75.556, 254.333 76, 256.500 76 C 258.611 76, 259 75.533, 259 73 C 259 71.350, 259.113 69.662, 259.250 69.250 C 259.580 68.259, 255.620 67.714, 254.709 68.624 M 266 72 C 266 74.200, 266.450 76, 267 76 C 267.550 76, 268 74.200, 268 72 C 268 69.800, 267.550 68, 267 68 C 266.450 68, 266 69.800, 266 72 M 242.652 138.470 L 239.020 143.939 244.955 147.970 L 250.890 152 262.290 152 C 271.881 152, 273.940 151.722, 275.265 150.250 C 276.738 148.613, 282 135.824, 282 133.881 C 282 133.396, 276.697 133, 270.216 133 L 258.431 133 256.716 135.904 C 254.592 139.499, 254.519 144.170, 256.526 148.050 C 257.763 150.442, 257.796 151, 256.700 151 C 253.077 151, 248.022 139.656, 249.530 134.907 C 249.982 133.482, 249.648 133, 248.209 133 C 246.985 133, 244.959 134.994, 242.652 138.470" stroke="none" fill-rule="evenodd"/>
</svg>