<svg xmlns="http://www.w3.org/2000/svg"   viewBox="0 0 594 222" version="1.1" fill="white">
	<path d="M 470.261 22.817 C 469.580 23.250, 467.935 26.280, 466.604 29.552 L 464.186 35.500 443.843 36 C 432.654 36.275, 415.288 36.368, 405.250 36.206 C 390.072 35.962, 387 35.668, 387 34.456 C 387 33.655, 386.094 33, 384.986 33 C 383.879 33, 382.020 32.438, 380.856 31.750 C 379.162 30.750, 378.648 30.750, 378.286 31.750 C 378.037 32.438, 376.783 33, 375.500 33 C 374.217 33, 372.963 32.438, 372.714 31.750 C 372.352 30.750, 371.838 30.750, 370.144 31.750 C 367.443 33.345, 365.292 33.345, 364.714 31.750 C 364.352 30.750, 363.838 30.750, 362.144 31.750 C 359.443 33.345, 357.292 33.345, 356.714 31.750 C 356.352 30.750, 355.838 30.750, 354.144 31.750 C 351.599 33.253, 349 33.379, 349 32 C 349 31.450, 348.325 31, 347.500 31 C 346.675 31, 346 31.450, 346 32 C 346 32.550, 344.875 33, 343.500 33 C 342.125 33, 341 32.550, 341 32 C 341 31.450, 340.325 31, 339.500 31 C 338.675 31, 338 31.450, 338 32 C 338 33.373, 334.662 33.262, 333.242 31.842 C 331.917 30.517, 329 32.328, 329 34.476 C 329 36.241, 317.685 37, 291.349 37 C 271.698 37, 269 36.810, 269 35.429 C 269 33.675, 266.677 31, 265.155 31 C 264.611 31, 263.940 31.563, 263.662 32.250 C 263.259 33.250, 263.142 33.250, 263.079 32.250 C 262.976 30.627, 260.317 30.627, 259.662 32.250 C 259.259 33.250, 259.142 33.250, 259.079 32.250 C 259.036 31.563, 258.325 31, 257.500 31 C 256.675 31, 255.993 31.563, 255.985 32.250 C 255.975 33.079, 255.722 33.143, 255.235 32.440 C 254.199 30.945, 200.753 30.819, 199.819 32.309 C 199.422 32.942, 198.611 32.166, 197.875 30.448 C 195.892 25.816, 193.918 24, 190.868 24 C 187.585 24, 185.548 26.652, 184.579 32.188 C 183.803 36.614, 175.211 45, 171.451 45 C 168.964 45, 167.745 46.294, 167.254 49.457 C 167.086 50.533, 166.487 51.699, 165.922 52.048 C 165.357 52.398, 165.031 53.317, 165.197 54.092 C 165.668 56.284, 136.211 56.713, 135.372 54.527 C 134.857 53.185, 128.618 53, 84 53 C 41.586 53, 33.126 52.771, 32.681 51.611 C 32.296 50.609, 31.224 50.411, 28.824 50.902 C 25.658 51.550, 25.463 51.851, 24.706 57.274 C 23.883 63.164, 27.223 126.917, 28.528 130.250 C 29.538 132.827, 35.024 132.623, 35.715 129.982 C 36.005 128.872, 39.856 125.475, 44.273 122.433 L 52.303 116.901 55.401 119.732 C 57.106 121.288, 59.516 123.408, 60.757 124.442 L 63.014 126.323 76.801 112.661 L 90.588 99 95.544 98.956 C 102.556 98.894, 105.824 97.475, 120.313 88.201 C 127.360 83.691, 133.772 80, 134.563 80 C 135.353 80, 136 79.550, 136 79 C 136 78.380, 141.461 78, 150.383 78 C 163.435 78, 164.811 78.168, 165.241 79.814 C 165.600 81.187, 167.471 81.943, 172.929 82.918 C 176.896 83.627, 180.300 84.723, 180.493 85.354 C 182.563 92.115, 182.235 93.131, 173.328 107.506 C 165.740 119.753, 164.384 122.655, 162.470 130.752 L 160.284 140.003 164.892 142.831 C 171.685 147, 181.490 150, 188.323 150 L 194.258 150 193.620 145.194 C 193.087 141.176, 193.644 138.429, 197.017 128.444 C 199.236 121.875, 201.435 114.783, 201.904 112.685 C 202.372 110.587, 204.096 107.212, 205.735 105.185 L 208.715 101.500 231.965 100.816 C 244.752 100.439, 255.841 99.891, 256.607 99.597 C 257.373 99.303, 258 99.554, 258 100.154 C 258 100.910, 258.384 100.928, 259.250 100.213 C 259.938 99.646, 262.525 99.036, 265 98.857 L 269.500 98.533 270.108 109.516 C 271.027 126.120, 275.368 148.746, 281.460 168.684 C 288.721 192.447, 291.586 200.536, 292.665 200.323 C 294.048 200.050, 326 180.995, 326 180.443 C 326 180.175, 324.611 176.928, 322.913 173.228 C 312.185 149.844, 305.481 122.403, 304.333 97.168 L 303.703 83.313 308.102 82.696 C 310.521 82.356, 313.962 81.780, 315.750 81.414 C 318.778 80.795, 319 80.934, 319 83.448 C 319 87.088, 322.372 86.582, 322.803 82.878 C 322.993 81.250, 324.042 79.846, 325.600 79.136 C 327.341 78.343, 341.330 78, 371.922 78 L 415.750 78 416.350 81 C 416.774 83.121, 417.530 84, 418.930 84 C 421.163 84, 421.842 81.445, 422.252 71.500 L 422.500 65.500 438.750 65.225 L 455 64.950 455 70.475 C 455 73.514, 455.337 75.993, 455.750 75.985 C 457.419 75.951, 464.139 73.261, 465.197 72.203 C 465.819 71.581, 466.404 70.043, 466.495 68.785 L 466.662 66.500 497.792 65.649 C 523.120 64.956, 529.488 65.048, 531.961 66.143 C 533.632 66.883, 535 67.828, 535 68.244 C 535 69.376, 541.786 69.156, 542.500 68 C 542.862 67.414, 548.634 67, 556.431 67 L 569.744 67 570.368 63.102 C 570.710 60.959, 570.712 57.809, 570.370 56.102 L 569.750 53 556.434 53 C 548.635 53, 542.862 52.586, 542.500 52 C 541.578 50.508, 535.779 50.853, 533.559 52.532 C 531.419 54.151, 514.032 54.548, 497.306 53.361 L 488.304 52.722 486.110 45.909 C 484.903 42.162, 483.259 36.576, 482.457 33.497 C 480.087 24.396, 478.472 21.998, 474.724 22.015 C 472.951 22.024, 470.943 22.385, 470.261 22.817 M 471.607 27.582 C 470.579 30.262, 470.930 32, 472.500 32 C 473.325 32, 474 31.502, 474 30.893 C 474 30.284, 474.675 30.045, 475.500 30.362 C 476.325 30.678, 477 30.501, 477 29.969 C 477 29.436, 476.550 29, 476 29 C 475.450 29, 475 28.325, 475 27.500 C 475 25.509, 472.378 25.572, 471.607 27.582 M 481.100 43.143 C 481.022 47.517, 481.370 48.928, 482.643 49.417 C 485.131 50.371, 485.174 49.808, 483.108 43.409 L 481.200 37.500 481.100 43.143 M 422 51.500 L 422 54 436.250 53.993 C 444.087 53.989, 453.538 53.699, 457.250 53.348 C 462.929 52.812, 464 52.416, 464 50.855 C 464 49.107, 462.788 49, 443 49 L 422 49 422 51.500 M 550.750 55.732 C 553.087 55.943, 556.913 55.943, 559.250 55.732 C 561.587 55.522, 559.675 55.349, 555 55.349 C 550.325 55.349, 548.413 55.522, 550.750 55.732 M 550.750 64.732 C 553.087 64.943, 556.913 64.943, 559.250 64.732 C 561.587 64.522, 559.675 64.349, 555 64.349 C 550.325 64.349, 548.413 64.522, 550.750 64.732 M 213.253 83.250 C 210.271 85.335, 210.033 85.920, 210.017 91.215 C 210.003 95.852, 210.365 97.125, 211.934 97.965 C 213.984 99.062, 239.733 99.424, 242.418 98.393 C 243.662 97.916, 244 96.217, 244 90.452 C 244 86.418, 243.540 82.834, 242.978 82.487 C 241.596 81.632, 226.464 81.595, 225.093 82.442 C 223.613 83.357, 223.699 93.299, 225.200 94.800 C 226.133 95.733, 226.060 96, 224.869 96 C 223.085 96, 221.397 92.951, 220.440 88 C 219.670 84.018, 218.274 81, 217.201 81 C 216.800 81, 215.023 82.013, 213.253 83.250 M 255.523 102.250 C 254.520 105.279, 253.011 111.614, 253.006 112.820 C 253.002 113.613, 253.885 114.012, 255.221 113.820 C 258.324 113.373, 260.914 104.771, 258.632 102.490 C 256.815 100.673, 256.065 100.615, 255.523 102.250" stroke="none" fill-rule="evenodd"/>
</svg>