<svg xmlns="http://www.w3.org/2000/svg"   viewBox="0 0 237 164" version="1.1" fill="white">
	<path d="M 43.300 32.389 C 42.860 33.152, 41.600 33.944, 40.500 34.149 C 38.699 34.484, 38.440 35.563, 37.893 45.010 C 37.525 51.367, 37.675 55.996, 38.273 56.759 C 38.816 57.451, 41.114 58.311, 43.380 58.670 C 50.800 59.845, 56.902 68.955, 55.624 76.950 C 54.760 82.355, 50.798 90.802, 46.462 96.481 C 41.548 102.919, 37.655 111.489, 38.363 114.310 C 39.046 117.033, 44.454 120.376, 47.071 119.692 C 48.284 119.374, 49 119.696, 49 120.559 C 49 121.856, 53.501 123.436, 79.742 131.348 C 85.796 133.173, 88.183 133.523, 88.732 132.667 C 89.144 132.025, 89.535 127.214, 89.601 121.975 C 89.735 111.466, 90.350 108.464, 92.538 107.624 C 93.629 107.205, 94 105.276, 94 100.022 C 94 89.223, 93.408 89.455, 119.857 89.861 L 141.681 90.196 141.216 79.753 C 140.781 69.977, 140.892 69.179, 142.945 67.266 C 146.155 64.275, 148.854 64, 175.003 64 C 192.791 64, 199.013 63.686, 199.780 62.750 C 200.383 62.016, 200.743 56.148, 200.653 48.529 C 200.509 36.346, 200.370 35.494, 198.357 34.490 C 197.178 33.903, 195.447 32.786, 194.510 32.008 C 193.026 30.777, 192.684 30.814, 191.854 32.297 C 190.970 33.876, 185.731 34, 119.919 34 C 57.747 34, 48.866 33.814, 48.362 32.500 C 47.638 30.614, 44.363 30.542, 43.300 32.389 M 110.977 67.750 C 107.831 71.741, 108.758 77.572, 113.120 81.229 C 117.015 84.495, 116.425 85.625, 111.649 84.049 C 108.155 82.896, 106.086 80.523, 102.887 74 L 101.170 70.500 100.475 73.257 C 100.093 74.773, 100.081 77.619, 100.449 79.582 C 101.451 84.919, 105.472 86.256, 119.253 85.834 C 130.148 85.501, 130.174 85.494, 133.084 82.234 C 136.955 77.899, 137.249 70.522, 133.686 67.174 C 131.659 65.270, 130.238 65, 122.258 65 C 113.509 65, 113.059 65.110, 110.977 67.750" stroke="none" fill-rule="evenodd"/>
</svg>