<svg xmlns="http://www.w3.org/2000/svg" viewBox="0 0 13.7 18"><path d="M8.488.218c0 .112-1.044.267-2.332.311-1.932.09-2.399.178-2.665.556-.444.6-.311.91.422 1.088.555.133.6.266.755 2.31.089 1.2.133 2.287.089 2.443-.045.155-.578.355-1.177.444C1.292 7.703.026 9.258.026 11.745c0 2.843.955 4.576 3.11 5.62 1.132.555 1.665.666 3.331.666 3.332 0 5.264-1.266 6.197-4.042l.4-1.155.177 2.22c.111 1.555.089 2.31-.11 2.555-.156.2-.179.333-.045.333.71 0 .8-.71.6-4.53l-.223-3.843-1.843-4.131C9.11-.137 9.177-.004 8.844-.026c-.223.022-.356.111-.356.244m-.444 6.108c.067.733.155.8 1.532 1.11 1.555.356 2.421.978 2.932 2.133.178.4.333.555.333.355 0-.2-.51-1.244-1.132-2.31l-1.155-1.932-1.288-.066-1.289-.067.067.777" fill-rule="evenodd" clip-rule="evenodd" fill="#fff"/></svg>