<svg xmlns="http://www.w3.org/2000/svg"   viewBox="0 0 198 145" version="1.1" fill="white">
	<path d="M 48.318 20.893 C 48.035 21.975, 46.619 23.026, 45.012 23.348 C 43.465 23.657, 41.337 25.168, 40.282 26.705 C 36.983 31.513, 33 41.970, 33.002 45.816 C 33.005 49.268, 33.353 49.682, 38.533 52.389 C 45.578 56.070, 48.440 59.900, 47.674 64.622 C 47.363 66.535, 44.893 72.915, 42.185 78.800 C 36.197 91.812, 33.231 101.528, 32.814 109.500 L 32.500 115.500 35.821 115.557 C 37.648 115.588, 39.497 116.187, 39.930 116.887 C 40.614 117.993, 72.459 124.891, 77.250 124.971 C 78.213 124.987, 79 124.325, 79 123.500 C 79 122.675, 78.582 122, 78.071 122 C 73.278 122, 72.451 109.231, 76.614 99.500 C 78.026 96.200, 79.519 91.925, 79.931 90 C 80.343 88.075, 81.519 84.013, 82.542 80.974 L 84.404 75.448 100.452 75.778 C 109.278 75.959, 119.200 75.743, 122.500 75.297 L 128.500 74.486 128.146 66.726 C 127.875 60.791, 128.174 58.383, 129.419 56.483 L 131.046 54 150.420 54 L 169.794 54 170.177 41.250 C 170.629 26.206, 170.332 23.900, 167.858 23.253 C 166.836 22.985, 166 22.144, 166 21.383 C 166 19.571, 161.152 19.568, 159.079 21.379 C 157.341 22.898, 121.607 23.713, 77.367 23.245 C 55.180 23.010, 54.212 22.918, 53.710 21 C 53.027 18.389, 48.994 18.309, 48.318 20.893 M 94.370 56.791 C 88.440 61.924, 89.035 71.370, 95.361 72.523 C 97.088 72.838, 104.350 72.962, 111.500 72.798 L 124.500 72.500 124.795 65.783 C 125.014 60.787, 124.658 58.408, 123.405 56.495 C 121.794 54.037, 121.363 53.936, 113.610 54.212 L 105.500 54.500 105.202 58.554 C 104.864 63.161, 107.841 68, 111.014 68 C 112.041 68, 113.160 68.450, 113.500 69 C 114.802 71.106, 109.017 69.885, 106.111 67.440 C 103.164 64.960, 101.274 59.755, 101.867 55.750 C 102.268 53.041, 98.020 53.631, 94.370 56.791" stroke="none" fill-rule="evenodd"/>
</svg>