<?xml version="1.0" encoding="utf-8"?>
<svg viewBox="0 0 100 100" version="1.1" fill="white" xmlns="http://www.w3.org/2000/svg">
  <path d="M 39.746 13.449 C 39.477 13.885 40.041 15.078 41.001 16.099 C 42.374 17.561 42.746 19.016 42.746 22.92 C 42.746 25.675 42.303 28.326 41.751 28.878 C 41.204 29.426 39.151 29.873 37.191 29.873 L 33.625 29.873 L 33.625 50.628 C 33.625 69.628 33.748 71.431 35.076 71.945 C 37.115 72.733 55.784 72.712 59.536 71.916 L 62.646 71.256 L 62.773 51.601 L 62.902 31.946 L 63.619 50.188 C 64.014 60.22 64.218 69.641 64.072 71.124 C 63.812 73.775 64.796 74.834 65.592 72.759 C 65.816 72.177 65.677 62.009 65.285 50.164 C 64.877 37.856 64.883 28.222 65.298 27.678 C 67.663 24.581 66.168 18.862 62.579 17.273 C 61.247 16.684 60.158 15.92 60.158 15.575 C 60.158 15.23 59.638 14.948 59.003 14.948 C 58.368 14.948 57.628 14.374 57.358 13.672 C 56.957 12.626 55.358 12.418 48.552 12.525 C 43.978 12.596 40.015 13.012 39.746 13.449 M 60.158 19.408 C 60.158 20.036 60.757 21.983 61.488 23.733 C 62.743 26.736 62.884 26.827 63.976 25.334 C 65.457 23.311 65.432 22.378 63.842 20.108 C 62.409 18.061 60.158 17.633 60.158 19.408 M 53.674 26.764 C 53.954 28.732 57.241 29.704 60.016 28.64 C 61.198 28.186 61.101 27.889 59.323 26.523 C 58.186 25.65 56.391 24.927 55.333 24.917 C 53.809 24.902 53.464 25.286 53.674 26.764 M 45.069 38.509 C 37.24 45.681 35.405 59.92 41.522 66.037 C 44.258 68.773 45.354 68.51 43.842 65.481 C 42.437 62.666 42.863 58.661 44.845 56.041 C 46.041 54.46 46.063 54.462 46.063 56.164 C 46.063 57.118 47.539 59.863 49.343 62.264 C 51.148 64.666 52.431 66.942 52.197 67.323 C 51.961 67.703 52.356 68.015 53.074 68.015 C 53.791 68.015 55.14 66.801 56.07 65.32 C 58.799 60.974 57.961 55.449 53.509 48.44 C 51.513 45.297 49.473 41.156 48.978 39.239 L 48.077 35.754 L 45.069 38.509 M 33.799 81.634 L 34.04 87.5 L 48.135 87.5 L 62.231 87.5 L 62.476 81.444 L 62.72 75.388 L 59.574 75.901 C 57.843 76.183 54.72 76.745 52.634 77.149 C 50.547 77.554 48.121 77.716 47.244 77.509 C 46.366 77.303 42.927 76.827 39.603 76.451 L 33.558 75.769 L 33.799 81.634" stroke="none" fill-rule="evenodd" style=""/>
</svg>