<svg xmlns="http://www.w3.org/2000/svg" viewBox="0 0 39.7 90.5">
  <path d="M7.5 1.1c-.4.6.3 2 1.5 3.2 1.7 1.8 2.1 3.5 2.1 8.2 0 3.3-.5 6.5-1.2 7.2-.7.7-3.2 1.3-5.5 1.3H.1v25c0 22.9.1 25.1 1.8 25.7 2.4.9 25.5 1.3 30.1.3l3.1-1.1.2-23.7.2-23.7.9 22c.5 12.1.7 23.5.5 25.3-.3 3.2.9 4.5 1.8 2 .3-.7.1-13-.4-27.3-.5-14.8-.5-26.5 0-27.1 2.9-3.7 1-10.6-3.3-12.5-1.6-.7-2.9-1.6-2.9-2s-.6-.9-1.4-.9c-.8 0-1.7-.7-2-1.5C28.2.2 26.3-.1 18.1 0 12.6.1 7.8.6 7.5 1.1m24.6 7.2c0 .8.7 3.1 1.6 5.2 1.5 3.6 1.7 3.7 3 1.9 1.8-2.4 1.8-3.6-.2-6.3-1.7-2.4-4.4-2.9-4.4-.8m-7.8 8.9c.3 2.4 4.3 3.5 7.6 2.3 1.4-.5 1.3-.9-.8-2.6-1.4-1.1-3.5-1.9-4.8-1.9-1.9 0-2.3.4-2 2.2M13.9 31.4C4.4 40 2.2 57.2 9.6 64.6c3.3 3.3 4.6 3 2.8-.7-1.7-3.4-1.2-8.2 1.2-11.4 1.4-1.9 1.5-1.9 1.5.1 0 1.2 1.8 4.5 4 7.4 2.2 2.9 3.7 5.6 3.4 6.1-.3.5.2.8 1.1.8.9 0 2.5-1.5 3.6-3.3 3.3-5.2 2.3-11.9-3.1-20.4-2.4-3.8-4.9-8.8-5.5-11.1L17.5 28l-3.6 3.4M.3 83.4c.1 2.4.2 4.7.3 7.1h34l.3-7.3.3-7.3-3.8.6c-3.6.6-7.8 1-12.3 1.1-4.3.1-8.3-.1-11.8-.4-2.4-.3-4.9-.5-7.3-.8.1 2.3.2 4.6.3 7z" fill-rule="evenodd" clip-rule="evenodd" fill="#fff"/>
</svg>
