<svg xmlns="http://www.w3.org/2000/svg"   viewBox="0 0 100 130" version="1.1" fill="white">
	<path d="M 40.382 24.191 C 40.057 24.717, 40.738 26.156, 41.895 27.388 C 43.551 29.151, 44 30.906, 44 35.614 C 44 38.937, 43.466 42.134, 42.800 42.800 C 42.140 43.460, 39.665 44, 37.300 44 L 33 44 33 69.031 C 33 91.946, 33.148 94.120, 34.750 94.740 C 37.209 95.691, 59.724 95.665, 64.250 94.705 L 68 93.909 68.154 70.205 L 68.309 46.500 69.174 68.500 C 69.650 80.600, 69.896 91.962, 69.720 93.750 C 69.407 96.947, 70.593 98.224, 71.553 95.722 C 71.823 95.020, 71.656 82.757, 71.183 68.472 C 70.691 53.627, 70.698 42.008, 71.199 41.352 C 74.051 37.617, 72.248 30.720, 67.919 28.804 C 66.313 28.093, 65 27.172, 65 26.756 C 65 26.340, 64.373 26, 63.607 26 C 62.841 26, 61.948 25.307, 61.623 24.460 C 61.139 23.199, 59.211 22.948, 51.002 23.077 C 45.486 23.163, 40.707 23.665, 40.382 24.191 M 65 31.378 C 65 32.136, 65.722 34.484, 66.604 36.595 C 68.117 40.216, 68.288 40.326, 69.604 38.526 C 71.390 36.085, 71.361 34.960, 69.443 32.223 C 67.714 29.754, 65 29.238, 65 31.378 M 57.180 40.250 C 57.518 42.623, 61.482 43.796, 64.828 42.513 C 66.254 41.965, 66.137 41.607, 63.993 39.960 C 62.622 38.907, 60.456 38.034, 59.180 38.022 C 57.342 38.005, 56.927 38.467, 57.180 40.250 M 46.802 54.415 C 37.360 63.065, 35.147 80.238, 42.524 87.615 C 45.824 90.915, 47.145 90.598, 45.322 86.945 C 43.628 83.549, 44.141 78.719, 46.532 75.559 C 47.974 73.653, 48 73.655, 48 75.708 C 48 76.858, 49.781 80.169, 51.957 83.065 C 54.133 85.961, 55.681 88.707, 55.398 89.166 C 55.114 89.624, 55.590 90, 56.456 90 C 57.321 90, 58.948 88.537, 60.070 86.750 C 63.361 81.509, 62.350 74.845, 56.981 66.392 C 54.573 62.602, 52.113 57.608, 51.516 55.296 L 50.429 51.092 46.802 54.415 M 33.210 106.426 L 33.500 113.500 50.500 113.500 L 67.500 113.500 67.795 106.196 L 68.090 98.893 64.295 99.511 C 62.208 99.852, 58.441 100.529, 55.925 101.017 C 53.408 101.505, 50.483 101.700, 49.425 101.451 C 48.366 101.202, 44.219 100.628, 40.210 100.175 L 32.919 99.352 33.210 106.426" stroke="none" fill-rule="evenodd"/>
</svg>