<svg version="1.1" id="Layer_1" xmlns="http://www.w3.org/2000/svg" viewBox="0 0 60.8 90.9">
<path d="M49.1,1.8c-1,1-2.6,2.1-3.5,2.5c-1,0.3-1.8,1.3-1.8,2.1c0,0.8-2.6,5.5-5.7,10.5c-5,7.8-6.3,9.2-10.1,10.6
	l-4.4,1.7L11.6,53.7C5.1,67.3-0.2,79,0,79.9c0.3,1.4,17.9,11,20.4,11c0.6,0,6.6-11.3,13.4-25.2L46,40.4l-1.2-4.6
	c-1.1-4.2-0.9-5.3,1.9-13c1.7-4.6,3.7-9.6,4.5-11.1s1.5-3.6,1.5-4.8s0.4-1.9,1-1.5c2.3,1.4,1,9.5-3,17.9c-4.1,8.6-4.8,12.5-3,17.1
	c1.3,3.3,5.4,3.5,7.4,0.3c3.3-5.1,5.6-14.6,5.6-23.2c0-8.4-1-12.4-3.8-15.8C55-0.6,51.3-0.6,49.1,1.8"/>
</svg>
