<svg xmlns="http://www.w3.org/2000/svg"   viewBox="0 0 367 156" version="1.1" fill="white">
	<path d="M 196.762 26.635 C 182.078 34.178, 174.170 35.713, 143.500 36.976 C 116.228 38.099, 112.297 38.780, 88.548 46.495 C 51.093 58.661, 29.467 73.661, 26.030 89.857 C 23.810 100.320, 26.223 109.059, 33.162 115.689 C 37.470 119.804, 40.791 121, 47.916 121 C 62.178 121, 69.953 114.244, 75.536 97 C 79.187 85.726, 86.376 82.140, 107 81.304 C 119.466 80.800, 119.522 80.786, 127.759 76.389 C 139.964 69.873, 149.366 66.989, 158.176 67.056 C 169.111 67.141, 171.790 68.402, 176.105 75.500 L 179.753 81.500 184.127 81.179 C 189.411 80.792, 197.099 77.401, 202.416 73.113 C 204.570 71.376, 207.270 69.783, 208.416 69.574 C 209.562 69.364, 212.300 68.796, 214.500 68.311 C 218.909 67.339, 231.122 69.149, 246 72.979 C 274.170 80.231, 303.291 96.896, 333.715 123.176 C 339.333 128.029, 344.143 132, 344.402 132 C 345.219 132, 343.865 124.837, 341.282 115.500 C 338.265 104.596, 331.308 89.938, 325.452 82.148 C 320.368 75.384, 306.984 62.358, 298.500 55.915 C 289.731 49.256, 263.295 34, 260.525 34 C 260.236 34, 260 34.900, 260 36 C 260 38.952, 258.579 38.447, 255.490 34.399 C 253.480 31.763, 252.527 31.147, 251.938 32.101 C 251.495 32.818, 251.354 33.763, 251.625 34.202 C 251.896 34.641, 251.699 35, 251.188 35 C 250.676 35, 249.187 33.428, 247.879 31.507 C 245.183 27.548, 244 27.088, 244 30 C 244 32.897, 242.621 32.471, 239.134 28.500 C 235.604 24.479, 235 24.251, 235 26.941 C 235 30.226, 233.071 30.288, 231.241 27.062 C 229.332 23.699, 228.788 23.438, 221.566 22.416 L 216.633 21.718 218.845 24.530 C 222.674 29.398, 219.715 29.785, 214.169 25.142 C 211.449 22.864, 208.835 21.027, 208.361 21.059 C 207.888 21.092, 202.668 23.601, 196.762 26.635 M 227.223 37.557 C 223.476 40.181, 225.220 47, 229.637 47 C 234.667 47, 236.919 41.047, 233.171 37.655 C 230.905 35.604, 230.030 35.590, 227.223 37.557 M 240.632 43.115 C 237.867 47.062, 241.907 51.154, 245.845 48.396 C 248.481 46.550, 248.578 44.833, 246.171 42.655 C 243.744 40.458, 242.416 40.568, 240.632 43.115 M 252.309 48.636 C 251.482 50.792, 253.259 53.500, 255.500 53.500 C 256.480 53.500, 257.740 52.774, 258.300 51.886 C 259.828 49.464, 258.416 47, 255.500 47 C 254.050 47, 252.665 47.710, 252.309 48.636 M 41.218 81.663 C 36.431 84.023, 33.712 88.425, 33.196 94.653 C 32.658 101.137, 34.129 105.028, 38.602 108.955 C 44.804 114.401, 53.553 114.205, 59.890 108.480 C 71.344 98.133, 64.285 79.942, 48.849 80.023 C 46.457 80.035, 43.023 80.773, 41.218 81.663" stroke="none" fill-rule="evenodd"/>
</svg>