<svg xmlns="http://www.w3.org/2000/svg"   viewBox="0 0 450 106" version="1.1" fill="white">
	<path d="M 211 18 C 209.900 19.100, 209 20.888, 209 21.974 C 209 23.157, 207.796 24.571, 206 25.500 C 204.350 26.353, 203 27.715, 203 28.526 C 203 29.971, 201.853 30.424, 199.138 30.049 C 198.390 29.946, 196.715 30.858, 195.418 32.077 C 193.439 33.936, 192.807 34.084, 191.495 32.996 C 190.214 31.933, 189.493 31.933, 187.500 33 C 185.503 34.069, 184.788 34.069, 183.500 33 C 182.212 31.931, 181.497 31.931, 179.500 33 C 177.478 34.082, 176.783 34.065, 175.377 32.901 C 173.984 31.746, 165.921 31.500, 129.549 31.500 C 89.048 31.500, 85.189 31.645, 82.717 33.266 C 80.524 34.703, 79.664 34.807, 78.093 33.826 C 76.596 32.891, 75.839 32.889, 74.724 33.814 C 73.888 34.508, 72.021 34.754, 70.264 34.403 C 68.463 34.043, 66.960 34.255, 66.543 34.930 C 66.115 35.623, 64.561 35.821, 62.537 35.441 C 60.661 35.089, 58.955 35.264, 58.596 35.844 C 58.248 36.408, 56.454 36.623, 54.609 36.324 C 52.646 36.005, 50.969 36.241, 50.566 36.892 C 50.070 37.696, 49.318 37.706, 47.861 36.926 C 46.752 36.332, 45.091 36.174, 44.172 36.575 C 43.252 36.975, 39.849 37.348, 36.609 37.402 C 31.950 37.479, 30.487 37.896, 29.609 39.395 C 28.999 40.437, 27.215 42.462, 25.644 43.895 C 24.073 45.328, 21.457 48.176, 19.830 50.225 L 16.872 53.949 21.573 58.975 C 24.158 61.739, 26.887 64, 27.637 64 C 28.387 64, 29 64.586, 29 65.303 C 29 67.590, 47.896 89.714, 50.918 90.966 C 54.740 92.549, 59.369 90.250, 60.836 86.040 C 61.549 83.996, 62.367 83.203, 63.367 83.587 C 64.180 83.899, 65.803 83.197, 66.974 82.026 C 68.197 80.803, 69.825 80.127, 70.801 80.436 C 71.736 80.732, 73.687 80.358, 75.138 79.604 C 76.589 78.851, 78.954 78.460, 80.394 78.735 C 81.834 79.010, 83.619 78.731, 84.363 78.114 C 85.137 77.472, 87.055 77.261, 88.854 77.621 C 90.775 78.005, 92.579 77.765, 93.498 77.002 C 94.677 76.023, 95.314 76.016, 96.461 76.968 C 97.607 77.918, 105.980 77.893, 135.211 76.850 C 189.037 74.930, 196.568 75.014, 201.500 77.588 C 203.700 78.737, 207.001 81.662, 208.835 84.088 C 214.947 92.174, 219.620 91.486, 222.261 82.112 L 223.561 77.500 232.001 77.206 C 237.893 77.001, 240.957 76.444, 242.155 75.359 C 243.618 74.035, 249.124 73.742, 279.537 73.365 C 306.300 73.033, 315.562 73.221, 316.643 74.119 C 317.738 75.027, 326.648 75.147, 353.654 74.616 L 389.223 73.916 410.112 56.766 C 421.600 47.334, 431 39.321, 431 38.959 C 431 38.188, 410.263 34.465, 394.500 32.406 C 380.005 30.512, 308.797 28.802, 260.727 29.193 L 222.955 29.500 221.983 26 C 221.448 24.075, 221.009 22.022, 221.006 21.439 C 220.996 19.593, 217.003 16, 214.961 16 C 213.882 16, 212.100 16.900, 211 18 M 27.970 51.536 C 26.154 53.725, 27.908 56.500, 31.109 56.500 C 33.099 56.500, 33.500 55.997, 33.500 53.500 C 33.500 51.220, 32.999 50.428, 31.412 50.202 C 30.264 50.038, 28.715 50.638, 27.970 51.536" stroke="none" fill-rule="evenodd"/>
</svg>