<svg xmlns="http://www.w3.org/2000/svg"   viewBox="0 0 452 112" version="1.1" fill="white">
	<path d="M 199.177 21.194 C 195.948 28.231, 191.941 32.575, 189.533 31.651 C 188.671 31.320, 186.443 31.775, 184.582 32.662 C 181.468 34.147, 178.868 34.144, 151.850 32.625 C 118.304 30.739, 105.065 30.637, 86 32.122 C 78.575 32.700, 63.973 33.319, 53.551 33.499 C 31.859 33.872, 32.022 33.804, 31.968 42.441 C 31.937 47.446, 30.347 51, 28.140 51 C 27.513 51, 27 52.350, 27 54 C 27 55.650, 27.513 57, 28.140 57 C 30.689 57, 31.937 60.642, 31.968 68.168 C 32.006 77.402, 32.420 78.649, 36.073 80.538 C 40.087 82.613, 43.677 80.823, 44.991 76.091 C 45.540 74.116, 45.991 71.976, 45.994 71.336 C 45.997 70.695, 48.257 68.783, 51.015 67.086 C 55.106 64.568, 57.087 64.004, 61.765 64.020 C 68.967 64.045, 79.035 65.445, 90 67.947 C 103.549 71.039, 122.630 73.270, 131.529 72.803 C 138.404 72.442, 140.913 71.781, 147.588 68.569 C 157.715 63.696, 161.212 62.902, 167.389 64.074 C 172.773 65.095, 174.510 66.403, 182.150 75.193 L 187.099 80.886 184.994 85.011 C 183.837 87.280, 182.623 91.389, 182.297 94.143 L 181.704 99.149 184.997 98.824 C 188.013 98.527, 188.393 98.098, 189.494 93.739 C 190.206 90.918, 192.592 86.537, 195.348 82.987 C 198.975 78.317, 200.003 76.171, 200.015 73.249 C 200.043 66.511, 201.118 66.056, 208.233 69.778 C 213.219 72.386, 215.665 73.051, 220.200 73.028 C 224.450 73.007, 226.137 72.578, 226.829 71.341 C 227.603 69.958, 230.656 69.517, 245.129 68.699 C 271.966 67.182, 300.249 69.515, 322.134 75.052 C 341.234 79.884, 365.914 80.092, 383.477 75.570 C 389.027 74.140, 397.899 70.805, 403.477 68.052 C 413.080 63.311, 427.907 52.872, 428.760 50.250 C 429.067 49.306, 426.722 49, 419.194 49 C 400.003 49, 377.280 42.358, 363.719 32.784 C 361.165 30.980, 360.271 30.908, 352.719 31.893 C 336.309 34.035, 324.891 34.436, 323.904 32.904 C 323.164 31.755, 322.846 31.739, 322.150 32.817 C 321.470 33.870, 320.553 33.715, 317.574 32.042 C 313.869 29.961, 313.853 29.960, 314.492 31.975 C 315.213 34.245, 312.605 34.940, 311.583 32.750 C 311.124 31.766, 310.877 31.762, 310.423 32.731 C 309.992 33.650, 308.850 33.454, 305.923 31.961 C 302.089 30.005, 300.802 30.402, 303.200 32.800 C 304.133 33.733, 304.041 34, 302.783 34 C 301.894 34, 300.938 33.438, 300.659 32.750 C 300.260 31.766, 299.956 31.778, 299.231 32.808 C 298.497 33.851, 297.546 33.665, 294.534 31.887 L 290.757 29.659 291.446 31.830 C 291.942 33.391, 291.719 34, 290.651 34 C 289.834 34, 288.938 33.438, 288.659 32.750 C 288.263 31.772, 287.964 31.765, 287.287 32.717 C 286.630 33.643, 285.646 33.463, 283.187 31.967 C 279.129 29.500, 278.665 29.505, 280 32 C 281.381 34.581, 279.312 34.780, 277.392 32.250 C 276.129 30.586, 276.062 30.587, 276.032 32.270 C 276.002 33.914, 275.708 33.892, 271.912 31.955 L 267.824 29.869 268.479 31.935 C 269.296 34.507, 267.263 34.715, 265.392 32.250 C 264.137 30.596, 264.062 30.595, 264.032 32.235 C 264.003 33.833, 263.743 33.814, 260.750 31.989 C 257.136 29.786, 254.949 29.349, 256.800 31.200 C 257.460 31.860, 258 32.760, 258 33.200 C 258 34.695, 255.105 34.008, 253.992 32.250 C 253.209 31.014, 252.731 30.863, 252.364 31.735 C 251.962 32.688, 251.186 32.631, 248.971 31.485 C 245.359 29.617, 243.060 29.460, 244.800 31.200 C 246.912 33.312, 246.084 34.285, 243.575 32.641 C 241.962 31.584, 241.026 31.422, 240.781 32.158 C 240.532 32.903, 239.382 32.732, 237.256 31.632 C 233.330 29.602, 232.394 29.564, 234 31.500 C 235.098 32.823, 233.232 33, 218.151 33 L 201.056 33 203.501 28.402 C 205.779 24.117, 207.714 17.328, 206.870 16.578 C 206.667 16.397, 205.503 15.942, 204.285 15.568 C 202.327 14.966, 201.736 15.618, 199.177 21.194" stroke="none" fill-rule="evenodd"/>
</svg>