<svg xmlns="http://www.w3.org/2000/svg"   viewBox="0 0 422 83" version="1.1" fill="white">
	<path d="M 212.513 19.979 C 212.125 20.607, 212.346 22.421, 213.004 24.010 C 213.662 25.598, 214.016 27.453, 213.790 28.130 C 213.469 29.094, 195.867 29.330, 132.940 29.218 C 54.829 29.078, 43.363 28.687, 33.844 25.835 C 31.812 25.226, 29.524 24.969, 28.759 25.262 C 26.881 25.983, 24.529 36.121, 24.529 43.500 C 24.529 50.540, 26.852 61.006, 28.560 61.662 C 29.216 61.913, 32.396 61.455, 35.626 60.643 C 46.063 58.020, 52.664 57.822, 133.036 57.713 L 212.215 57.606 213.474 60.600 C 215.038 64.319, 218.989 67, 222.906 67 C 226.353 67, 227.675 65.518, 226.014 63.517 C 225.377 62.749, 225.001 60.856, 225.178 59.310 C 225.485 56.633, 225.807 56.468, 232 55.829 C 235.575 55.460, 264.150 54.687, 295.500 54.111 C 352.099 53.072, 365.913 52.371, 388 49.422 C 402.395 47.500, 404.702 46.965, 402.876 45.972 C 400.885 44.889, 379.612 41.342, 364.500 39.572 C 346.382 37.450, 295.510 34.069, 264.500 32.924 C 250.200 32.397, 235.908 31.636, 232.740 31.233 C 227.484 30.564, 226.828 30.200, 225.240 27.071 C 222.503 21.677, 214.291 17.102, 212.513 19.979 M 250.667 47.667 C 249.400 48.933, 250.006 51.788, 251.678 52.430 C 253.845 53.261, 256.261 50.845, 255.430 48.678 C 254.788 47.006, 251.933 46.400, 250.667 47.667" stroke="none" fill-rule="evenodd"/>
</svg>