<svg xmlns="http://www.w3.org/2000/svg"   viewBox="0 0 431 110" version="1.1" fill="white">
	<path d="M 397 29.626 C 358.963 39.865, 329.913 43.409, 284 43.413 C 251.936 43.416, 244.675 42.760, 222.901 37.896 L 213.302 35.752 207.401 38.320 C 199.887 41.589, 192.776 42.258, 188.058 40.141 C 185.087 38.807, 178.976 38.484, 151 38.183 C 100.591 37.639, 79.818 39.509, 57.983 46.555 C 41.335 51.928, 32.557 58.116, 20.849 72.732 C 14.859 80.209, 14.789 82.488, 20.454 85.659 C 22.629 86.877, 24.744 88.778, 25.153 89.884 C 26.005 92.187, 32.966 94.463, 36.109 93.466 C 37.214 93.115, 41.392 90.479, 45.393 87.608 C 54.522 81.059, 60.732 78.371, 70.116 76.909 C 80.176 75.341, 91.306 76.274, 102.117 79.590 C 110.851 82.269, 111.254 82.305, 113.831 80.628 C 119.375 77.020, 123.717 75.616, 130.580 75.214 C 136.335 74.876, 138.642 75.220, 142.897 77.051 L 148.134 79.304 153.933 76.532 C 164.407 71.526, 172.568 73.482, 178.172 82.343 C 179.966 85.179, 181.899 87.831, 182.467 88.235 C 184.907 89.970, 188.715 88.889, 191.962 85.539 C 195.417 81.975, 197 81.779, 197 84.914 C 197 87.585, 210.125 88.630, 214.110 86.276 C 216.503 84.862, 217.412 84.816, 220.795 85.932 C 223.863 86.945, 225.196 86.966, 226.946 86.029 C 228.687 85.097, 229.836 85.104, 232.141 86.058 C 234.510 87.040, 235.587 87.024, 237.542 85.978 C 239.447 84.958, 240.546 84.928, 242.546 85.839 C 244.567 86.760, 245.668 86.714, 247.749 85.623 C 249.643 84.631, 251.160 84.508, 253.112 85.189 C 255.084 85.876, 256.614 85.739, 258.667 84.689 C 260.675 83.662, 262.220 83.512, 263.974 84.171 C 265.762 84.843, 267.460 84.645, 270.094 83.458 C 273.323 82.002, 274.068 81.979, 276.620 83.261 C 279.161 84.539, 280.923 84.500, 291.598 82.934 C 322.994 78.327, 348.395 69.697, 371 55.958 C 379.420 50.840, 409.307 28.931, 410.499 27.002 C 411.278 25.740, 411.835 25.632, 397 29.626 M 161.194 52.083 C 161.726 53.677, 174.001 53.838, 174 52.250 C 174 51.377, 172.016 51, 167.417 51 C 163.137 51, 160.960 51.379, 161.194 52.083" stroke="none" fill-rule="evenodd"/>
</svg>