<svg xmlns="http://www.w3.org/2000/svg"   viewBox="0 0 446 141" version="1.1" fill="white">
	<path d="M 167.667 14.667 C 167.300 15.033, 166.994 23.471, 166.986 33.417 C 166.979 43.362, 166.727 52.415, 166.427 53.533 C 165.930 55.382, 164.964 55.591, 155.708 55.850 C 149.267 56.030, 145.253 56.568, 144.767 57.317 C 144.213 58.172, 143.792 58.193, 143.250 57.391 C 142.032 55.590, 128.541 54.658, 125.941 56.197 C 124.194 57.230, 123.645 57.242, 123.286 56.250 C 122.566 54.263, 107.356 54.542, 106.225 56.563 C 105.431 57.981, 105.229 57.981, 104.052 56.563 C 102.390 54.560, 88.423 54.293, 87.714 56.250 C 87.354 57.243, 86.812 57.234, 85.075 56.207 C 82.599 54.742, 72.035 55.397, 68.234 57.250 C 66.455 58.117, 65.190 57.984, 62.353 56.631 C 59.294 55.173, 55.921 54.933, 40.396 55.069 C 27.941 55.179, 21.746 55.601, 21.096 56.384 C 18.007 60.106, 17.264 82.116, 19.974 89.612 C 21.014 92.487, 21.609 92.807, 27.800 93.827 C 36.842 95.317, 58.305 94.359, 63.326 92.242 C 66.366 90.959, 67.313 90.889, 67.938 91.899 C 68.989 93.600, 85 94.768, 85 93.143 C 85 92.514, 85.675 92, 86.500 92 C 87.325 92, 88 92.450, 88 93 C 88 94.453, 102.329 94.271, 103.800 92.800 C 104.733 91.867, 105.267 91.867, 106.200 92.800 C 107.771 94.371, 122.194 94.406, 123.758 92.842 C 124.634 91.966, 125.287 91.993, 126.447 92.956 C 128.598 94.741, 141.779 93.954, 143.059 91.964 C 143.800 90.811, 144.174 90.769, 144.820 91.767 C 145.372 92.621, 148.874 93.110, 155.570 93.267 C 163.265 93.448, 165.653 93.838, 166.180 95 C 166.554 95.825, 166.891 102.679, 166.930 110.231 L 167 123.962 169.513 124.593 C 174.321 125.799, 175 123.977, 175 109.878 L 175 97 189.750 97.035 C 200.650 97.062, 205.153 97.444, 207 98.500 C 210.766 100.653, 345.814 100.666, 362.220 98.516 C 380.860 96.072, 395.404 90.861, 414.174 79.899 C 420.374 76.277, 421.095 75.579, 419.315 74.921 C 415.148 73.379, 389.027 68.011, 371.500 65.094 C 361.600 63.446, 345.175 60.446, 335 58.426 C 324.825 56.407, 313.890 54.529, 310.700 54.253 C 304.913 53.753, 304.901 53.758, 305.531 56.267 C 306.463 59.980, 304.120 60.874, 301.584 57.774 C 300.223 56.110, 298.222 55.085, 295.817 54.821 C 292.252 54.430, 292.151 54.507, 292.692 57.209 C 293.462 61.061, 290.758 60.945, 287.842 57 C 286.146 54.706, 284.836 54, 282.277 54 C 279.228 54, 279.026 54.180, 280.011 56.021 C 281.324 58.474, 280.540 60, 277.967 60 C 276.850 60, 275.405 58.749, 274.500 57 C 273.231 54.546, 272.320 54, 269.499 54 C 266.200 54, 266.076 54.131, 266.650 57 C 267.146 59.481, 266.926 59.999, 265.375 59.994 C 264.343 59.990, 262.734 58.642, 261.797 56.994 C 260.348 54.447, 259.492 54, 256.072 54 C 252.136 54, 252.063 54.065, 252.650 57 C 253.146 59.481, 252.926 59.999, 251.375 59.994 C 250.343 59.990, 248.734 58.642, 247.797 56.994 C 246.348 54.447, 245.492 54, 242.072 54 C 238.136 54, 238.063 54.065, 238.650 57 C 239.157 59.535, 238.939 60, 237.246 60 C 235.963 60, 234.796 58.922, 234 57 C 232.885 54.307, 232.305 54, 228.343 54 C 224.224 54, 224.002 54.135, 225.011 56.021 C 227.420 60.523, 222.795 61.548, 220.231 57.081 C 218.456 53.987, 215.683 53, 208.768 53 C 205.369 53, 204.891 53.256, 205.504 54.750 C 207.823 60.401, 204.361 61.317, 200.781 56 L 198.425 52.500 186.712 52.218 L 175 51.937 175 34.550 C 175 24.987, 174.727 16.452, 174.393 15.582 C 173.790 14.010, 168.978 13.356, 167.667 14.667 M 331.223 69.557 C 326.217 73.063, 329.604 78, 337.015 78 C 340.916 78, 342.197 77.557, 343.443 75.777 C 345.447 72.917, 345.408 72.408, 343 70 C 340.557 67.557, 334.408 67.325, 331.223 69.557" stroke="none" fill-rule="evenodd"/>
</svg>