<svg xmlns="http://www.w3.org/2000/svg"   viewBox="0 0 445 119" version="1.1" fill="white">
	<path d="M 169.709 14.624 C 169.319 15.014, 169 22.683, 169 31.667 L 169 48 159.700 48 C 153.888 48, 149.957 48.443, 149.220 49.180 C 148.314 50.086, 147.490 50.065, 145.665 49.088 C 144.065 48.232, 141.037 47.998, 136.394 48.372 C 132.602 48.678, 128.713 48.905, 127.750 48.877 C 125.365 48.807, 111.417 48.812, 109.250 48.883 C 108.287 48.915, 104.626 48.686, 101.113 48.375 C 96.848 47.997, 93.935 48.232, 92.343 49.084 C 90.512 50.064, 89.686 50.086, 88.780 49.180 C 87.325 47.725, 74.369 47.594, 73.485 49.025 C 72.672 50.340, 63.905 49.327, 58.220 47.261 C 54.790 46.014, 51.153 45.816, 39.895 46.262 C 32.170 46.567, 25.546 47.121, 25.175 47.491 C 24.257 48.407, 24.315 74.841, 25.241 78.140 C 25.649 79.592, 26.549 80.985, 27.241 81.236 C 29.179 81.939, 58.685 80.265, 66 79.037 C 70.775 78.236, 73.063 78.245, 74.621 79.073 C 75.920 79.763, 79.021 79.969, 82.621 79.604 C 89.917 78.865, 91.083 78.865, 98.379 79.604 C 102.335 80.005, 105.053 79.774, 106.691 78.898 C 108.603 77.875, 109.535 77.853, 111.048 78.798 C 113.537 80.352, 123.463 80.352, 125.952 78.798 C 127.464 77.853, 128.396 77.874, 130.301 78.894 C 131.948 79.775, 134.776 80.004, 139.113 79.607 C 146.541 78.928, 146.489 78.928, 159.250 79.613 L 169 80.137 169 90.569 L 169 101 171.961 101 L 174.922 101 175.211 92.250 L 175.500 83.500 272 82.947 L 368.500 82.395 380.744 79.691 C 392.662 77.059, 402.224 73.957, 409.114 70.486 C 413.288 68.384, 427 58.069, 427 57.032 C 427 56.616, 423.531 55.961, 419.290 55.577 C 415.050 55.193, 395.595 52.431, 376.058 49.439 L 340.536 44 267.327 44 C 219.600 44, 193.903 44.348, 193.500 45 C 193.160 45.550, 189.084 46, 184.441 46 L 176 46 175.882 33.250 C 175.738 17.715, 175.176 14.599, 172.452 14.208 C 171.333 14.047, 170.099 14.235, 169.709 14.624 M 354.200 56.200 C 353.540 56.860, 353 58.345, 353 59.500 C 353 62.819, 355.002 64, 360.629 64 C 367.739 64, 370.383 61.453, 367.965 56.934 C 367.125 55.365, 365.841 55, 361.165 55 C 357.994 55, 354.860 55.540, 354.200 56.200" stroke="none" fill-rule="evenodd"/>
</svg>