<svg xmlns="http://www.w3.org/2000/svg"   viewBox="0 0 437 131" version="1.1" fill="white">
	<path d="M 188.539 22.644 C 186.881 31.482, 180.580 39.644, 172.846 42.971 C 167.026 45.475, 161.805 45.679, 138.500 44.318 C 130.800 43.868, 118.425 43.500, 111 43.500 C 97.502 43.500, 69.040 44.857, 67.911 45.555 C 67.582 45.758, 63.194 46.163, 58.159 46.453 C 50.194 46.913, 48.003 46.654, 41.281 44.460 C 29.158 40.503, 26.621 41.875, 20.578 55.662 C 16.495 64.976, 16.499 64.949, 18.416 71 C 19.200 73.475, 20.606 78.187, 21.541 81.471 C 23.808 89.432, 28.657 94.519, 33.128 93.624 C 34.825 93.285, 38.434 91.148, 41.148 88.876 C 47.476 83.578, 49.376 83.384, 74.479 85.478 C 97.660 87.412, 120.864 87.600, 140 86.008 C 160.883 84.271, 167.363 84.442, 171.224 86.833 C 177.486 90.711, 179.805 98.609, 176.537 104.928 L 175.074 107.757 179.650 109.504 C 183.480 110.967, 184.367 111.028, 185.089 109.876 C 186.124 108.226, 193 86.662, 193 85.068 C 193 82.884, 198.056 82.087, 208.055 82.696 C 216.176 83.191, 218.365 83.034, 219.079 81.907 C 219.569 81.133, 219.977 80.950, 219.985 81.500 C 219.994 82.050, 222.251 82.509, 225.001 82.520 C 227.750 82.531, 230 82.166, 230 81.711 C 230 81.255, 230.510 81.197, 231.132 81.582 C 232.718 82.562, 250.021 82.752, 252.750 81.819 C 253.988 81.396, 255 81.436, 255 81.909 C 255 82.860, 263.318 82.539, 264.961 81.524 C 265.533 81.171, 266 81.269, 266 81.741 C 266 82.213, 267.575 82.600, 269.500 82.600 C 271.425 82.600, 273 82.251, 273 81.825 C 273 81.398, 274.154 81.488, 275.565 82.025 C 278.970 83.319, 339.070 83.271, 354.500 81.961 C 370.447 80.607, 387.291 77.574, 395.678 74.546 C 403.129 71.856, 414 66.273, 414 65.136 C 414 64.081, 400.417 57.479, 393.500 55.173 C 384.494 52.170, 364.513 49.163, 346 48.024 C 326.522 46.826, 277 46.655, 277 47.786 C 277 48.218, 276.100 48.571, 275 48.571 C 273.900 48.571, 273 48.330, 273 48.036 C 273 47.741, 271.425 47.500, 269.500 47.500 C 267.575 47.500, 266 47.741, 266 48.036 C 266 48.330, 265.100 48.571, 264 48.571 C 262.900 48.571, 262 48.232, 262 47.817 C 262 47.402, 261.438 47.246, 260.750 47.471 C 257.409 48.562, 251 48.852, 251 47.912 C 251 47.345, 250.505 47.188, 249.899 47.562 C 248.465 48.449, 225.535 48.449, 224.101 47.562 C 223.495 47.188, 223 47.356, 223 47.935 C 223 49.048, 219.534 48.867, 218.359 47.692 C 217.227 46.561, 206.301 46.906, 203.548 48.160 C 201.575 49.059, 200.100 49.023, 197.001 48 C 193.321 46.786, 193 46.392, 193 43.090 C 193 41.115, 194.118 35.900, 195.485 31.500 C 198.590 21.503, 198.587 21.369, 195.250 20.695 C 193.738 20.390, 191.768 19.857, 190.873 19.510 C 189.605 19.020, 189.089 19.713, 188.539 22.644" stroke="none" fill-rule="evenodd"/>
</svg>