<svg xmlns="http://www.w3.org/2000/svg"   viewBox="0 0 360 150" version="1.1" fill="white">
	<path d="M 199.506 18.294 C 197.310 19.507, 195.285 20.781, 195.006 21.124 C 194.728 21.468, 193.037 22.066, 191.250 22.454 C 189.463 22.842, 188 23.582, 188 24.099 C 188 24.616, 186.809 24.739, 185.351 24.373 C 183.486 23.905, 182.911 24.048, 183.410 24.854 C 183.799 25.484, 183.641 26, 183.059 26 C 182.477 26, 182 25.541, 182 24.981 C 182 23.762, 176.798 24.854, 175.871 26.267 C 175.508 26.820, 175.061 26.683, 174.814 25.941 C 174.258 24.275, 165.776 23.756, 164.776 25.328 C 164.221 26.201, 164.027 26.181, 164.015 25.250 C 164.007 24.563, 163.100 24, 162 24 C 160.900 24, 160 23.618, 160 23.152 C 160 22.686, 158.615 22.265, 156.923 22.217 C 155.231 22.169, 152.729 21.397, 151.364 20.503 C 148.242 18.457, 141.820 18.957, 125.373 22.526 C 118.843 23.942, 112.418 25.325, 111.095 25.598 C 109.773 25.872, 107.919 26.508, 106.977 27.012 C 106.034 27.517, 104.979 27.645, 104.631 27.298 C 104.284 26.951, 104 27.267, 104 28 C 104 28.733, 103.740 29.073, 103.423 28.756 C 102.162 27.495, 80.757 35.981, 76 39.628 C 75.175 40.260, 72.983 41.100, 71.129 41.495 C 69.058 41.936, 67.567 42.938, 67.265 44.095 C 66.898 45.499, 65.988 45.916, 63.680 45.738 C 61.179 45.546, 60.328 46.027, 59.239 48.250 C 57.837 51.111, 56.557 51.710, 55.500 50 C 54.350 48.139, 51.956 48.986, 50.960 51.605 C 50.152 53.730, 49.519 54.096, 47.515 53.593 C 45.599 53.112, 44.691 53.542, 43.371 55.557 C 42.107 57.486, 41.110 57.994, 39.421 57.570 C 37.607 57.114, 36.712 57.730, 34.882 60.691 C 33.629 62.719, 32.664 65.193, 32.739 66.189 C 32.814 67.185, 32.445 68, 31.919 68 C 31.392 68, 28.738 72.749, 26.021 78.552 C 23.304 84.356, 18.987 92.100, 16.428 95.762 C 10.987 103.545, 11.233 104.799, 18.607 106.864 C 21.751 107.744, 25.135 109.757, 28.074 112.492 C 35.008 118.948, 41.002 121.377, 50 121.377 C 56.211 121.378, 58.360 120.919, 62.500 118.710 C 65.250 117.242, 68.687 115.020, 70.138 113.771 C 73.955 110.485, 79.732 100.948, 80.551 96.578 C 81.425 91.920, 86.388 85.266, 91.015 82.547 C 93.783 80.921, 96.042 80.533, 101.996 80.662 L 109.493 80.824 114.523 76.066 C 122.433 68.585, 136.176 65.309, 143.422 69.177 C 146.337 70.732, 146.358 70.723, 151.422 65.557 C 159.494 57.323, 168.094 56.011, 177.645 61.555 C 183.524 64.968, 186.797 69.300, 188.719 76.213 C 189.636 79.512, 190.927 82.419, 191.588 82.672 C 193.893 83.557, 201.008 80.917, 202.514 78.619 C 204.821 75.098, 215.182 73.496, 235.500 73.520 C 255.319 73.544, 263.953 75.033, 279.672 81.139 C 302.964 90.187, 324.303 107.598, 336.568 127.562 L 340.216 133.500 339.588 128.360 C 338.644 120.628, 334.474 107.532, 329.921 98 C 311.524 59.479, 277.007 32.861, 234.111 24.118 C 228.397 22.953, 222.221 22, 220.386 22 C 217.692 22, 216.753 21.424, 215.500 19 C 214.071 16.236, 213.537 16.003, 208.724 16.044 C 205.279 16.073, 202.140 16.840, 199.506 18.294 M 41.227 74.116 C 25.124 82.087, 25.176 105.098, 41.315 112.910 C 55.669 119.859, 72.044 109.649, 71.978 93.790 C 71.911 77.607, 55.451 67.076, 41.227 74.116" stroke="none" fill-rule="evenodd"/>
</svg>