<svg xmlns="http://www.w3.org/2000/svg"   viewBox="0 0 400 148" version="1.1" fill="white">
	<path d="M 37.589 22.250 C 36.788 23.488, 33.828 29.253, 31.012 35.062 C 24.237 49.038, 22.539 58.334, 23.353 77 C 23.677 84.425, 24.419 92.525, 25.001 95 C 26.398 100.935, 37.661 123.933, 39.521 124.647 C 42.141 125.652, 49.350 120.456, 51.908 115.718 L 54.317 111.259 51.571 104.402 C 49.240 98.580, 48.930 96.712, 49.514 92.023 C 50.355 85.278, 51.119 83.763, 55.123 80.912 C 60.675 76.959, 67.879 78.681, 73.746 85.363 C 77.042 89.117, 78.480 92.850, 79.480 100.250 C 80.125 105.020, 81.472 106.128, 83.800 103.800 C 84.460 103.140, 85 101.841, 85 100.914 C 85 98.907, 87.480 98.471, 107.500 96.963 C 137.738 94.686, 162.649 89.605, 176.365 82.917 C 183.754 79.314, 191.652 72.864, 190.653 71.247 C 188.980 68.541, 175.773 60.954, 167.943 58.201 C 152.775 52.868, 129.597 48.833, 106.500 47.503 C 86.459 46.349, 86.142 46.276, 84.533 42.426 C 82.037 36.450, 80.280 37.943, 78.980 47.144 C 77.603 56.886, 71.469 64.055, 63.170 65.623 C 59.602 66.298, 56.423 65.048, 52.530 61.440 C 50.849 59.882, 50.045 57.694, 49.533 53.284 C 48.927 48.064, 49.199 46.343, 51.568 40.423 L 54.302 33.589 51.901 29.065 C 49.421 24.392, 44.078 20, 40.875 20 C 39.869 20, 38.391 21.012, 37.589 22.250 M 230.589 22.250 C 229.788 23.488, 226.828 29.253, 224.012 35.062 C 217.237 49.038, 215.539 58.334, 216.353 77 C 216.677 84.425, 217.419 92.525, 218.001 95 C 219.398 100.935, 230.661 123.933, 232.521 124.647 C 235.141 125.652, 242.350 120.456, 244.908 115.718 L 247.317 111.259 244.571 104.402 C 242.240 98.580, 241.930 96.712, 242.514 92.023 C 243.355 85.278, 244.119 83.763, 248.123 80.912 C 253.675 76.959, 260.879 78.681, 266.746 85.363 C 270.042 89.117, 271.480 92.850, 272.480 100.250 C 273.125 105.020, 274.472 106.128, 276.800 103.800 C 277.460 103.140, 278 101.841, 278 100.914 C 278 98.907, 280.480 98.471, 300.500 96.963 C 330.738 94.686, 355.649 89.605, 369.365 82.917 C 376.754 79.314, 384.652 72.864, 383.653 71.247 C 381.980 68.541, 368.773 60.954, 360.943 58.201 C 345.775 52.868, 322.597 48.833, 299.500 47.503 C 279.459 46.349, 279.142 46.276, 277.533 42.426 C 275.037 36.450, 273.280 37.943, 271.980 47.144 C 270.603 56.886, 264.469 64.055, 256.170 65.623 C 252.602 66.298, 249.423 65.048, 245.530 61.440 C 243.849 59.882, 243.045 57.694, 242.533 53.284 C 241.927 48.064, 242.199 46.343, 244.568 40.423 L 247.302 33.589 244.901 29.065 C 242.421 24.392, 237.078 20, 233.875 20 C 232.869 20, 231.391 21.012, 230.589 22.250 M 38.620 29.465 C 35.709 32.606, 32.586 39.480, 33.266 41.251 C 33.553 41.998, 35.888 43.710, 38.455 45.055 C 42.870 47.368, 43.193 47.404, 44.434 45.733 C 45.918 43.733, 47.369 33.124, 46.476 30.799 C 46.154 29.958, 44.768 28.760, 43.397 28.135 C 41.235 27.150, 40.602 27.326, 38.620 29.465 M 231.620 29.465 C 228.709 32.606, 225.586 39.480, 226.266 41.251 C 226.553 41.998, 228.888 43.710, 231.455 45.055 C 235.870 47.368, 236.193 47.404, 237.434 45.733 C 238.918 43.733, 240.369 33.124, 239.476 30.799 C 239.154 29.958, 237.768 28.760, 236.397 28.135 C 234.235 27.150, 233.602 27.326, 231.620 29.465 M 29.274 54.705 C 27.906 56.792, 27.418 60.036, 27.136 68.905 C 26.622 85.115, 28.727 93, 33.569 93 C 33.954 93, 38.484 88.867, 43.635 83.816 C 50.829 76.761, 53 74.012, 53 71.958 C 53 69.902, 50.931 67.290, 44.035 60.643 C 38.826 55.621, 34.227 52, 33.058 52 C 31.951 52, 30.249 53.217, 29.274 54.705 M 222.274 54.705 C 220.906 56.792, 220.418 60.036, 220.136 68.905 C 219.622 85.115, 221.727 93, 226.569 93 C 226.954 93, 231.484 88.867, 236.635 83.816 C 243.829 76.761, 246 74.012, 246 71.958 C 246 69.902, 243.931 67.290, 237.035 60.643 C 231.826 55.621, 227.227 52, 226.058 52 C 224.951 52, 223.249 53.217, 222.274 54.705 M 37.690 99.853 C 34.888 101.437, 33.007 103.209, 33.004 104.265 C 32.997 107.221, 39.040 117, 40.873 117 C 41.798 117, 43.600 116.268, 44.877 115.374 C 47 113.887, 47.141 113.265, 46.525 108.124 C 45.134 96.506, 44.560 95.969, 37.690 99.853 M 230.690 99.853 C 227.888 101.437, 226.007 103.209, 226.004 104.265 C 225.997 107.221, 232.040 117, 233.873 117 C 234.798 117, 236.600 116.268, 237.877 115.374 C 240 113.887, 240.141 113.265, 239.525 108.124 C 238.134 96.506, 237.560 95.969, 230.690 99.853" stroke="none" fill-rule="evenodd"/>
</svg>