<svg xmlns="http://www.w3.org/2000/svg"   viewBox="0 0 442 105" version="1.1" fill="white">
	<path d="M 166.291 22.051 C 163.739 29.249, 160.329 32.173, 153.797 32.765 C 150.884 33.029, 147.759 33.893, 146.854 34.684 C 145.840 35.570, 145.072 35.722, 144.854 35.079 C 144.611 34.364, 128.160 34.694, 92.500 36.130 C 49.146 37.876, 40.209 38.480, 38.750 39.767 C 37.788 40.616, 37 41.867, 37 42.548 C 37 43.229, 36.325 44.045, 35.500 44.362 C 34.675 44.678, 34 45.574, 34 46.352 C 34 47.130, 33.100 48.002, 32 48.290 C 30.900 48.577, 30 49.530, 30 50.406 C 30 51.283, 29.311 52, 28.469 52 C 27.626 52, 26.636 52.788, 26.269 53.750 C 25.901 54.712, 24.045 56.970, 22.143 58.766 L 18.686 62.032 20.593 67.661 C 23.624 76.609, 23.201 76.383, 33.538 74.565 C 42.354 73.015, 120.059 62.797, 133.250 61.454 C 136.963 61.076, 140 60.376, 140 59.898 C 140 58.790, 145.135 61.899, 149.016 65.356 C 151.478 67.551, 152 68.789, 152 72.443 C 152 74.878, 151.574 77.989, 151.054 79.357 C 150.064 81.963, 150.779 83.077, 154.235 84.308 C 156.212 85.012, 157.359 83.281, 160.049 75.535 C 161.412 71.611, 162.647 70.007, 165.649 68.266 C 172.216 64.458, 183.781 65.692, 188.150 70.667 C 190.706 73.579, 193 78.678, 193 81.450 C 193 82.853, 193.359 84, 193.797 84 C 194.235 84, 199.973 82.186, 206.547 79.970 C 224.678 73.857, 232.979 72.677, 258.500 72.582 C 270.600 72.537, 290.406 73.130, 302.513 73.900 C 351.365 77.007, 379.426 73.288, 405.500 60.248 C 413.307 56.344, 423 50.176, 423 49.114 C 423 48.733, 418.163 46.758, 412.250 44.724 C 376.658 32.484, 313.037 26.871, 246.500 30.102 C 236.050 30.610, 226.150 31.075, 224.500 31.136 C 222.850 31.197, 221.197 31.725, 220.826 32.309 C 220.366 33.034, 219.652 32.956, 218.576 32.063 C 217.315 31.017, 216.700 31.004, 215.500 32 C 214.303 32.993, 213.697 32.993, 212.500 32 C 211.303 31.007, 210.697 31.007, 209.500 32 C 208.303 32.993, 207.697 32.993, 206.500 32 C 205.310 31.012, 204.693 31.010, 203.513 31.989 C 202.695 32.668, 201.288 32.941, 200.386 32.595 C 199.484 32.249, 198.129 32.478, 197.373 33.105 C 196.338 33.964, 195.623 33.932, 194.469 32.974 C 193.319 32.020, 190.173 31.871, 181.852 32.376 C 171.790 32.987, 170.826 32.897, 171.402 31.396 C 171.751 30.487, 172.550 27.703, 173.177 25.210 C 174.239 20.995, 174.159 20.547, 172.049 18.838 C 170.800 17.827, 169.397 17, 168.930 17 C 168.464 17, 167.276 19.273, 166.291 22.051 M 27.390 62.427 C 26.296 65.276, 27.452 68.493, 29.682 68.811 C 32.570 69.222, 34.511 65.823, 33 63 C 31.764 60.691, 28.196 60.327, 27.390 62.427" stroke="none" fill-rule="evenodd"/>
</svg>