<svg xmlns="http://www.w3.org/2000/svg"   viewBox="0 0 441 114" version="1.1" fill="white">
	<path d="M 130 27.030 C 88.972 31.159, 46.641 45.580, 31.911 60.447 C 29.760 62.618, 28 64.682, 28 65.033 C 28 65.385, 31.050 68.616, 34.778 72.215 C 40.129 77.381, 41.348 79.087, 40.570 80.321 C 39.861 81.444, 40.064 82.413, 41.292 83.770 C 42.231 84.808, 43 85.960, 43 86.329 C 43 86.698, 38.688 87, 33.417 87 C 26.193 87, 23.937 87.308, 24.253 88.250 C 24.562 89.174, 27.345 89.405, 34.921 89.136 C 45.152 88.773, 45.176 88.778, 48.335 91.776 C 53.330 96.516, 55.196 96.624, 59.643 92.429 C 67.545 84.976, 96.984 73.174, 121.745 67.531 C 140.911 63.164, 157.794 61.685, 181 62.340 C 192.275 62.658, 206 63.603, 211.500 64.440 C 217 65.277, 223.663 65.970, 226.306 65.981 C 231.051 66, 231.139 66.059, 233.148 70.602 C 235.332 75.539, 235.155 79.266, 232.495 84.364 C 230.674 87.854, 230.666 88, 232.313 88 C 233.035 88, 234.910 86.660, 236.479 85.022 C 238.722 82.681, 239.430 80.864, 239.790 76.522 C 240.173 71.896, 240.560 71, 242.173 71 C 245.594 71, 249.949 68.041, 252.518 63.972 C 254.868 60.248, 259 58.405, 259 61.079 C 259 61.739, 260.078 61.922, 261.769 61.551 C 263.396 61.193, 265.273 61.479, 266.316 62.242 C 267.681 63.240, 270.110 63.339, 276.797 62.666 C 284.493 61.892, 290.302 62.383, 327 66.905 C 349.825 69.717, 372.035 72.014, 376.356 72.009 C 394.524 71.988, 411.216 63.665, 422.502 48.997 C 425.092 45.632, 427.046 42.713, 426.844 42.511 C 426.643 42.309, 423.333 42.852, 419.489 43.717 C 415.058 44.715, 407.192 45.329, 398 45.395 C 381.291 45.516, 376.339 44.318, 359.833 36.164 L 350.339 31.475 341.920 33.205 C 320.081 37.694, 296.897 37.968, 275 33.996 C 268.675 32.849, 262.088 31.654, 260.362 31.342 C 258.083 30.930, 256.434 31.359, 254.339 32.908 C 252.752 34.081, 249.198 35.308, 246.441 35.634 C 241.678 36.198, 241.248 36.048, 237.814 32.614 C 233.524 28.324, 230.542 28.023, 222.787 31.094 C 219.008 32.590, 215.217 33.196, 209.500 33.215 C 199.222 33.251, 197.156 32.898, 187.500 29.456 C 179.800 26.711, 178.731 26.596, 159 26.390 C 147.725 26.272, 134.675 26.560, 130 27.030 M 156.390 32.426 C 155.480 34.797, 156.767 37.191, 158.747 36.810 C 161.125 36.352, 161.125 31.648, 158.747 31.190 C 157.783 31.004, 156.722 31.560, 156.390 32.426 M 170.667 32.667 C 169.692 33.641, 169.852 36.791, 170.910 37.444 C 172.652 38.521, 175 36.770, 175 34.393 C 175 32.739, 174.434 32, 173.167 32 C 172.158 32, 171.033 32.300, 170.667 32.667 M 166.405 45.091 C 186.588 46.245, 195.682 47.607, 202.840 50.548 C 206.328 51.980, 209.368 52.965, 209.597 52.736 C 209.826 52.507, 209.743 50.966, 209.413 49.313 L 208.811 46.306 198.156 45.151 C 192.295 44.517, 179.625 44.064, 170 44.147 L 152.500 44.296 166.405 45.091 M 301.500 44.998 C 319.111 46.042, 363.886 46.924, 352.500 46.003 C 347.550 45.602, 331.125 45.038, 316 44.750 C 298.120 44.410, 293.048 44.496, 301.500 44.998 M 182.362 52.500 C 181.569 54.564, 182.644 57, 184.346 57 C 186.393 57, 188.135 54.514, 187.410 52.627 C 186.626 50.584, 183.131 50.496, 182.362 52.500 M 195.152 52.871 C 192.920 54.308, 194.204 57.500, 197.014 57.500 C 198.995 57.500, 199.500 56.995, 199.500 55.014 C 199.500 52.388, 197.461 51.383, 195.152 52.871 M 57.147 56.323 C 55.719 58.044, 56.662 61, 58.638 61 C 60.752 61, 61.490 58.062, 59.801 56.372 C 58.529 55.101, 58.167 55.094, 57.147 56.323 M 43.394 61.417 C 42.566 63.574, 43.717 66.261, 45.251 65.750 C 45.938 65.521, 46.500 64.283, 46.500 63 C 46.500 60.259, 44.273 59.124, 43.394 61.417 M 80.175 69.662 C 80.587 73.264, 83.500 73.572, 83.500 70.014 C 83.500 68.402, 82.858 67.404, 81.675 67.176 C 80.200 66.892, 79.912 67.368, 80.175 69.662 M 68.695 73.354 C 67.854 75.543, 70.563 78.797, 72.026 77.356 C 72.665 76.727, 73.028 75.382, 72.832 74.368 C 72.394 72.092, 69.455 71.372, 68.695 73.354" stroke="none" fill-rule="evenodd"/>
</svg>