<svg xmlns="http://www.w3.org/2000/svg"   viewBox="0 0 417 116" version="1.1" fill="white">
	<path d="M 111.500 19.026 C 94.218 20.570, 73.925 23.053, 62.154 25.062 C 55.913 26.127, 50.448 26.777, 50.008 26.505 C 49.569 26.234, 48.933 26.732, 48.595 27.612 C 48.166 28.732, 47.257 29.030, 45.570 28.607 C 44.244 28.274, 42.467 28.267, 41.621 28.592 C 39.930 29.241, 25.851 50.916, 22.899 57.416 C 19.676 64.511, 20.595 71.069, 25.397 75.247 C 28.600 78.035, 36.560 76.966, 49 72.077 C 55.147 69.662, 62.610 67.543, 67 66.966 C 79.002 65.389, 118.339 63.990, 132.500 64.636 C 144.182 65.169, 145.879 65.483, 149.234 67.739 C 154.177 71.063, 156.377 70.892, 163.388 66.637 C 171.451 61.744, 175.250 60.666, 182.407 61.240 C 188.822 61.755, 198.949 66.064, 202.195 69.659 C 204.808 72.553, 207.954 80.150, 207.978 83.628 C 208.001 86.964, 210.324 89.904, 211.470 88.049 C 212.767 85.951, 215.798 86.982, 216.802 89.862 C 217.755 92.596, 218.152 92.754, 225.650 93.385 C 244.414 94.964, 269.053 95.973, 289.199 95.986 C 323.762 96.008, 341.401 92.841, 364.095 82.538 C 377.639 76.388, 399.720 62.156, 397.961 60.709 C 395.129 58.380, 340.603 36.610, 336 35.971 C 329.393 35.054, 331.031 37.998, 339.566 42.380 C 347.654 46.532, 350.570 49.630, 349.515 52.952 C 347.898 58.046, 340.609 57.396, 324.500 50.721 C 298.877 40.104, 269.493 31.158, 264.424 32.430 C 263.161 32.747, 261.740 32.392, 261.078 31.594 C 260.445 30.831, 259.041 30.438, 257.958 30.721 C 256.875 31.004, 255.338 30.696, 254.543 30.035 C 253.744 29.373, 252.157 29.133, 251 29.500 C 249.847 29.866, 248.270 29.639, 247.496 28.997 C 246.721 28.354, 245.598 28.130, 245 28.500 C 244.402 28.870, 243.259 28.630, 242.462 27.968 C 241.664 27.306, 240.109 27, 239.006 27.288 C 237.904 27.576, 236.727 27.368, 236.392 26.825 C 236.056 26.282, 234.733 26.101, 233.452 26.423 C 232.171 26.744, 230.827 26.529, 230.466 25.945 C 230.096 25.346, 228.585 25.152, 227 25.500 C 225.374 25.857, 223.904 25.654, 223.511 25.018 C 223.137 24.413, 221.948 24.199, 220.868 24.542 C 219.788 24.885, 218.251 24.623, 217.452 23.960 C 216.365 23.058, 215.656 23.040, 214.633 23.890 C 213.594 24.752, 212.968 24.667, 212.028 23.533 C 211.084 22.396, 210.320 22.294, 208.812 23.101 C 207.318 23.900, 206.426 23.798, 205.167 22.683 C 204.043 21.688, 199.101 20.829, 190 20.049 C 172.203 18.523, 124.135 17.897, 111.500 19.026 M 26.655 62.829 C 23.343 66.488, 25.361 72, 30.012 72 C 33.899 72, 36.466 68.355, 35.103 64.771 C 33.579 60.763, 29.395 59.801, 26.655 62.829" stroke="none" fill-rule="evenodd"/>
</svg>