<svg xmlns="http://www.w3.org/2000/svg"   viewBox="0 0 426 114" version="1.1" fill="white">
	<path d="M 238.518 19.421 C 236.328 20.746, 234.203 21.626, 233.797 21.375 C 233.391 21.124, 231.753 21.594, 230.156 22.419 C 228.560 23.245, 226.986 23.652, 226.658 23.325 C 226.330 22.997, 224.911 23.484, 223.503 24.406 C 222.095 25.328, 220.519 25.821, 220 25.500 C 219.481 25.179, 218.031 25.558, 216.778 26.342 C 214.754 27.608, 200.561 28.410, 167 29.157 C 148.975 29.558, 100.584 34.306, 87.947 36.914 C 60.331 42.612, 38.917 53.289, 25.766 67.915 C 21.143 73.057, 18.649 78.659, 17.412 86.679 C 16.850 90.321, 17.106 91.197, 19.400 93.491 C 22.552 96.642, 24.083 96.342, 32 91.023 C 56.496 74.565, 76.813 67.195, 104 64.906 C 120.101 63.550, 171.761 63.183, 191.668 64.283 C 199.651 64.724, 212.747 66.348, 221.668 68.002 C 239.937 71.390, 239.670 71.468, 242.095 62.005 C 242.801 59.252, 243.677 57, 244.043 57 C 244.409 57, 245.922 58.125, 247.405 59.500 C 249.517 61.457, 251.164 62, 254.985 62 C 261.501 62, 283.229 66.104, 300.500 70.597 C 324.381 76.809, 330.187 77.990, 340.076 78.646 C 360.286 79.986, 380.615 74.245, 399.833 61.769 L 406.165 57.658 396.833 53.761 C 391.700 51.619, 375.941 45.181, 361.814 39.455 C 336.308 29.118, 336.090 29.051, 330.814 29.977 C 309.725 33.680, 258.397 33.702, 249.500 30.011 C 248.400 29.555, 246.713 28.930, 245.750 28.622 C 243.168 27.797, 243.447 22.611, 246.171 20.803 C 248.718 19.112, 247.894 16.998, 244.691 17.005 C 243.486 17.008, 240.708 18.095, 238.518 19.421" stroke="none" fill-rule="evenodd"/>
</svg>