<svg xmlns="http://www.w3.org/2000/svg"   viewBox="0 0 449 118" version="1.1" fill="white">
	<path d="M 199.418 16.969 C 198.274 17.432, 196.136 19.238, 194.668 20.982 C 192.184 23.935, 192 24.813, 192 33.721 L 192 43.289 185.750 42.684 C 182.313 42.351, 173.425 41.307, 166 40.364 C 144.037 37.573, 98.442 37.835, 70.958 40.911 C 59.110 42.237, 48.145 43.002, 46.592 42.612 C 45.038 42.222, 42.171 40.125, 40.219 37.952 C 38.268 35.778, 36.092 34, 35.383 34 C 33.735 34, 32.013 40.169, 32.006 46.095 C 32.002 49.415, 31.445 51.192, 30 52.500 C 27.184 55.048, 27.184 63.747, 30 66.770 C 31.353 68.222, 32.002 70.304, 32.006 73.208 C 32.013 79.170, 33.779 85, 35.578 85 C 36.394 85, 38.395 83.480, 40.026 81.623 C 45.193 75.738, 46.708 75.523, 66.720 77.843 C 94.130 81.021, 96.551 81.169, 120.795 81.165 C 143.545 81.160, 159.442 80.143, 178.924 77.444 C 184.657 76.650, 189.894 76, 190.561 76 C 191.406 76, 191.892 79.101, 192.165 86.250 C 192.617 98.059, 194.097 101.562, 200.046 104.906 C 204.514 107.417, 207.287 107.564, 209.095 105.385 C 210.247 103.997, 210.089 103.514, 207.968 101.937 C 202.565 97.922, 202 97.049, 202.022 92.750 C 202.087 80.079, 216.004 69.206, 227.359 72.953 C 231.393 74.285, 237.643 80.730, 238.601 84.545 L 239.252 87.141 291.376 86.728 C 346.688 86.290, 354.205 85.737, 370.500 80.905 C 378.970 78.394, 390.523 72.752, 399.134 66.923 C 406.033 62.252, 425.857 43.524, 424.907 42.574 C 424.587 42.254, 415.364 43.198, 404.412 44.673 C 387 47.017, 381.298 47.345, 359 47.284 C 344.975 47.246, 324.050 46.494, 312.500 45.614 C 269.163 42.310, 262.803 42.017, 234.250 42.009 C 205.479 42, 205 41.967, 205 39.960 C 205 38.838, 204.100 36.156, 203 34 C 199.925 27.973, 200.321 25.182, 204.500 23.436 C 206.648 22.538, 208 21.283, 208 20.187 C 208 16.467, 204.190 15.039, 199.418 16.969" stroke="none" fill-rule="evenodd"/>
</svg>