<svg xmlns="http://www.w3.org/2000/svg"   viewBox="0 0 447 89" version="1.1" fill="white">
	<path d="M 174.195 21.443 L 167.890 24.841 166.970 22.421 C 165.991 19.847, 164.098 19.302, 162.318 21.082 C 161.542 21.858, 160.600 21.788, 158.987 20.832 C 157.258 19.808, 156.637 19.780, 156.298 20.714 C 155.961 21.642, 155.422 21.656, 154.010 20.774 C 152.597 19.892, 151.809 19.914, 150.660 20.868 C 149.456 21.866, 148.716 21.854, 146.948 20.807 C 145.242 19.798, 144.638 19.777, 144.298 20.714 C 143.961 21.642, 143.422 21.656, 142.010 20.774 C 140.586 19.885, 139.799 19.922, 138.581 20.933 C 137.295 22, 136.713 22.006, 135.458 20.965 C 134.348 20.044, 133.611 19.989, 132.829 20.771 C 132.048 21.552, 131.241 21.543, 129.953 20.738 C 128.590 19.888, 127.766 19.949, 126.505 20.996 C 125.095 22.166, 124.714 22.157, 123.954 20.936 C 123.244 19.794, 122.672 19.741, 121.159 20.678 C 119.722 21.568, 118.974 21.574, 118.103 20.703 C 117.232 19.832, 116.434 19.872, 114.841 20.867 C 113.091 21.960, 112.590 21.956, 111.896 20.842 C 111.239 19.787, 110.655 19.752, 109.159 20.678 C 107.722 21.568, 106.974 21.574, 106.103 20.703 C 105.232 19.832, 104.434 19.872, 102.841 20.867 C 101.091 21.960, 100.590 21.956, 99.896 20.842 C 99.239 19.787, 98.655 19.752, 97.159 20.678 C 95.722 21.568, 94.974 21.574, 94.103 20.703 C 93.232 19.832, 92.434 19.872, 90.841 20.867 C 89.091 21.960, 88.590 21.956, 87.896 20.842 C 87.239 19.787, 86.655 19.752, 85.159 20.678 C 83.722 21.568, 82.974 21.574, 82.103 20.703 C 81.232 19.832, 80.434 19.872, 78.841 20.867 C 77.091 21.960, 76.590 21.956, 75.896 20.842 C 75.239 19.787, 74.655 19.752, 73.159 20.678 C 71.722 21.568, 70.974 21.574, 70.103 20.703 C 69.232 19.832, 68.434 19.872, 66.841 20.867 C 65.091 21.960, 64.590 21.956, 63.896 20.842 C 63.239 19.787, 62.655 19.752, 61.159 20.678 C 59.722 21.568, 58.974 21.574, 58.103 20.703 C 57.232 19.832, 56.498 19.832, 55.103 20.703 C 53.709 21.574, 52.974 21.574, 52.103 20.703 C 51.232 19.832, 50.498 19.832, 49.103 20.703 C 47.709 21.574, 46.974 21.574, 46.103 20.703 C 45.232 19.832, 44.498 19.832, 43.103 20.703 C 41.801 21.517, 40.944 21.544, 40.196 20.796 C 38.673 19.273, 36.122 20.550, 35.050 23.369 C 34.473 24.886, 31.306 27.396, 26.565 30.094 L 19 34.398 19 40.691 L 19 46.984 25.945 51.602 C 31.790 55.489, 32.938 56.716, 33.195 59.352 C 33.526 62.750, 36.559 64.284, 38.130 61.848 C 38.751 60.885, 39.214 60.821, 39.750 61.622 C 40.725 63.082, 49.275 63.082, 50.250 61.622 C 50.805 60.793, 51.195 60.793, 51.750 61.622 C 52.725 63.082, 61.275 63.082, 62.250 61.622 C 62.805 60.793, 63.195 60.793, 63.750 61.622 C 64.725 63.082, 73.275 63.082, 74.250 61.622 C 74.805 60.793, 75.195 60.793, 75.750 61.622 C 76.725 63.082, 85.275 63.082, 86.250 61.622 C 86.801 60.798, 87.199 60.807, 87.752 61.658 C 88.671 63.073, 95.994 63.070, 97.826 61.654 C 98.740 60.947, 99.362 60.968, 99.828 61.722 C 100.672 63.088, 108.037 63.037, 109.826 61.654 C 110.740 60.947, 111.362 60.968, 111.828 61.722 C 112.672 63.088, 120.037 63.037, 121.826 61.654 C 122.740 60.947, 123.362 60.968, 123.828 61.722 C 124.672 63.088, 132.037 63.037, 133.826 61.654 C 134.740 60.947, 135.362 60.968, 135.828 61.722 C 136.672 63.088, 144.037 63.037, 145.826 61.654 C 146.736 60.950, 147.364 60.961, 147.826 61.687 C 148.649 62.979, 156.829 63.086, 157.614 61.815 C 157.935 61.296, 158.784 61.406, 159.584 62.069 C 160.357 62.711, 161.867 63.007, 162.939 62.726 C 164.463 62.328, 164.955 62.792, 165.194 64.858 C 165.431 66.903, 166.122 67.572, 168.250 67.816 C 170.930 68.125, 171 68.003, 171 63.066 L 171 58 175.922 58 C 180.661 58, 180.888 58.130, 182 61.500 L 183.155 65 273.052 65 L 362.950 65 393.725 49.850 L 424.500 34.701 378 29.914 L 331.500 25.127 291.225 25.064 L 250.950 25 244 21.500 L 237.050 18 208.775 18.023 L 180.500 18.045 174.195 21.443 M 181.480 23.032 C 181.092 23.660, 181.245 24.645, 181.820 25.220 C 183.164 26.564, 186.297 25.392, 185.750 23.749 C 185.194 22.078, 182.364 21.602, 181.480 23.032 M 193.461 23.063 C 191.942 25.521, 195.232 26.042, 210.576 25.776 C 223.941 25.544, 226.500 25.259, 226.500 24 C 226.500 22.740, 223.914 22.456, 210.324 22.226 C 199.262 22.038, 193.931 22.303, 193.461 23.063 M 230.534 22.945 C 229.569 24.506, 230.839 26, 233.132 26 C 234.507 26, 235.040 25.448, 234.812 24.261 C 234.428 22.269, 231.507 21.370, 230.534 22.945 M 208.345 33.543 C 208.019 34.392, 207.967 35.300, 208.228 35.561 C 208.569 35.903, 283.424 36.227, 311.750 36.010 C 312.438 36.004, 313 35.100, 313 34 C 313 32.026, 312.333 32, 260.969 32 C 214.995 32, 208.868 32.180, 208.345 33.543 M 25 41.941 C 25 42.459, 25.445 43.157, 25.989 43.493 C 26.555 43.843, 26.723 43.442, 26.382 42.552 C 25.717 40.820, 25 40.503, 25 41.941" stroke="none" fill-rule="evenodd"/>
</svg>