<svg xmlns="http://www.w3.org/2000/svg"   viewBox="0 0 439 127" version="1.1" fill="white">
	<path d="M 192.896 29.088 C 180.981 38.622, 173.975 40.950, 154.869 41.721 C 141.523 42.260, 124.228 40.817, 107 37.728 C 97.814 36.080, 72.384 36.439, 61.322 38.372 C 38.760 42.313, 19 53.170, 19 61.624 C 19 70.317, 37.945 81.234, 61.500 86.115 C 70.159 87.909, 98.108 87.599, 112 85.555 C 131.177 82.732, 143.920 81.838, 156.143 82.456 C 173.335 83.325, 182.262 86.465, 193.249 95.511 C 198.800 100.080, 199.065 100.182, 201.245 98.585 C 202.485 97.677, 205.029 95.824, 206.898 94.467 C 209.213 92.786, 211.619 92, 214.448 92 C 216.732 92, 219.154 91.446, 219.831 90.769 C 220.736 89.864, 230.916 89.360, 258.281 88.864 C 321.141 87.724, 350.487 84.906, 382 76.980 C 404.374 71.353, 427.836 63.381, 426.280 61.935 C 424.824 60.581, 399.203 52.118, 385.777 48.555 C 352.821 39.811, 301.339 35, 240.730 35 C 226.318 35, 221.966 34.691, 220.441 33.559 C 219.374 32.766, 217.527 32.355, 216.339 32.645 C 213.822 33.259, 206.853 30.201, 202.396 26.528 L 199.293 23.970 192.896 29.088 M 186.637 42.465 C 172.386 47.545, 168.504 66.770, 179.624 77.197 C 187.789 84.853, 201.467 84.698, 208.975 76.864 C 224.409 60.759, 207.662 34.970, 186.637 42.465 M 31.357 58.577 C 29.145 61.954, 30.496 66.099, 34.238 67.415 C 39.596 69.299, 43.501 61.574, 39.171 57.655 C 36.502 55.239, 33.296 55.618, 31.357 58.577 M 230.750 58.080 C 228.597 59.334, 228.432 64.284, 230.487 65.989 C 232.807 67.914, 236.862 66.398, 237.636 63.316 C 238.150 61.268, 237.786 60.245, 236.040 58.831 C 233.451 56.735, 233.136 56.690, 230.750 58.080 M 246.309 60.636 C 245.482 62.792, 247.259 65.500, 249.500 65.500 C 250.480 65.500, 251.740 64.774, 252.300 63.886 C 253.828 61.464, 252.416 59, 249.500 59 C 248.050 59, 246.665 59.710, 246.309 60.636 M 263.011 60.487 C 261.229 62.634, 262.548 65.203, 265.235 64.820 C 267.798 64.455, 268.873 61.168, 266.848 59.885 C 264.974 58.697, 264.425 58.783, 263.011 60.487 M 277.180 62.250 C 277.356 63.487, 278.175 64.500, 279 64.500 C 279.825 64.500, 280.644 63.487, 280.820 62.250 C 281.065 60.518, 280.646 60, 279 60 C 277.354 60, 276.935 60.518, 277.180 62.250" stroke="none" fill-rule="evenodd"/>
</svg>