<svg xmlns="http://www.w3.org/2000/svg"   viewBox="0 0 434 109" version="1.1" fill="white">
	<path d="M 198.185 21.684 C 197.462 21.973, 196.453 23.308, 195.943 24.650 C 195.432 25.993, 194.449 27.017, 193.757 26.927 C 191.169 26.589, 190.220 27.052, 189.740 28.885 C 189.368 30.309, 188.606 30.647, 186.624 30.268 C 184.612 29.884, 184 30.169, 184 31.492 C 184 32.853, 183.448 33.078, 181.382 32.560 C 179.564 32.104, 178.145 32.452, 176.736 33.701 C 175.259 35.012, 174.589 35.161, 174.271 34.250 C 173.733 32.714, 170.786 32.614, 169.318 34.082 C 168.542 34.858, 167.660 34.805, 166.199 33.892 C 164.544 32.859, 163.866 32.866, 162.581 33.933 C 161.353 34.952, 160.681 34.980, 159.568 34.056 C 158.780 33.402, 155.517 32.466, 152.318 31.976 C 149.118 31.485, 143.350 30.557, 139.500 29.912 C 130.459 28.399, 90.642 29.366, 75.500 31.468 C 52.930 34.600, 32.199 39.783, 28.152 43.305 C 27.243 44.096, 24.206 45.489, 21.403 46.401 C 14.559 48.627, 13.171 51.173, 14.926 58.275 C 15.637 61.149, 17.008 64.885, 17.974 66.579 C 18.940 68.272, 20.061 72.747, 20.466 76.524 C 21.190 83.288, 23.316 87.907, 25.734 87.969 C 26.413 87.986, 36.398 85.321, 47.922 82.046 C 59.446 78.771, 72.840 75.561, 77.687 74.912 C 90.945 73.138, 107.122 74.295, 120.775 77.993 L 132.049 81.048 142.775 77.355 C 155.908 72.834, 165.223 72.482, 176.500 76.081 C 180.350 77.309, 184.688 78.240, 186.140 78.150 C 187.737 78.050, 189.019 78.608, 189.385 79.561 C 189.799 80.639, 190.653 80.927, 192.084 80.473 C 193.569 80.002, 194.596 80.406, 195.616 81.863 C 196.513 83.142, 197.664 83.682, 198.672 83.296 C 199.637 82.925, 200.817 83.396, 201.597 84.463 C 202.340 85.480, 203.568 85.996, 204.445 85.660 C 205.324 85.322, 206.809 85.952, 207.902 87.125 C 210.614 90.036, 213.200 89.173, 214.272 84.998 C 216.176 77.583, 220.259 76.105, 225.199 81.045 C 227.977 83.823, 228.393 83.954, 229.950 82.545 C 230.889 81.695, 232.372 81, 233.245 81 C 234.119 81, 234.990 80.531, 235.181 79.958 C 235.372 79.385, 236.872 78.762, 238.514 78.572 C 240.156 78.383, 241.500 78.124, 241.500 77.997 C 241.500 77.460, 256.587 77.347, 257.500 77.877 C 258.050 78.196, 261.055 78.497, 264.178 78.546 C 267.441 78.598, 270.571 79.229, 271.537 80.030 C 272.880 81.145, 278.565 81.430, 299.859 81.448 C 328.824 81.473, 335.117 80.775, 357.088 75.102 C 378.736 69.512, 376.876 70.672, 398.015 49.572 C 408.444 39.162, 416.828 30.494, 416.645 30.311 C 414.678 28.344, 329.990 22.237, 329.998 24.063 C 329.999 24.373, 331.350 25.919, 333 27.500 C 336.671 31.017, 336.928 34.620, 333.616 36.129 C 329.908 37.819, 322.051 35.658, 308.728 29.286 L 296.955 23.655 264.228 24.860 C 246.227 25.523, 226.076 26.340, 219.447 26.675 L 207.395 27.285 203.815 24.143 C 201.847 22.414, 200.070 21.036, 199.868 21.079 C 199.666 21.122, 198.908 21.395, 198.185 21.684 M 232.200 41.200 C 231.540 41.860, 231 43.644, 231 45.165 C 231 49.868, 233.333 50.334, 252.920 49.542 C 283.080 48.322, 311.146 46.254, 312.228 45.172 C 312.799 44.601, 313.023 43.502, 312.726 42.729 C 312.296 41.608, 307.602 41.191, 289.432 40.662 C 253.700 39.622, 233.589 39.811, 232.200 41.200 M 18.446 51.087 C 17.416 52.755, 19.733 54.667, 21.113 53.287 C 22.267 52.133, 21.545 50, 20 50 C 19.515 50, 18.816 50.489, 18.446 51.087" stroke="none" fill-rule="evenodd"/>
</svg>