<svg xmlns="http://www.w3.org/2000/svg"   viewBox="0 0 437 138" version="1.1" fill="white">
	<path d="M 187.124 29.970 C 184.167 30.977, 179.667 32.049, 177.124 32.353 C 174.581 32.657, 171.375 33.169, 170 33.490 C 168.625 33.812, 162.325 34.319, 156 34.617 C 144.578 35.155, 142.424 34.932, 116.023 30.473 C 104.259 28.486, 94.544 29.541, 79.023 34.490 C 61.226 40.165, 53.410 42.056, 44.523 42.835 C 36.988 43.495, 35.787 43.874, 34.343 46.042 C 33.442 47.394, 30.137 50.995, 26.998 54.045 C 17.752 63.026, 17.720 61.417, 27.543 81.387 C 32.263 90.983, 36.855 99.114, 37.749 99.457 C 38.877 99.890, 41.527 97.964, 46.436 93.144 C 54.857 84.875, 57.979 83.166, 66.548 82.134 C 70.457 81.664, 74.116 80.551, 75.765 79.332 C 84.415 72.937, 93.763 71.744, 102.201 75.958 L 106.872 78.291 112.014 74.991 C 119.241 70.354, 125.372 69.856, 131.444 73.414 C 135.200 75.616, 136.540 77.271, 139.217 83.017 C 143.531 92.275, 145.807 93.100, 148.600 86.415 C 150.558 81.728, 155.876 75.950, 159.702 74.351 C 167.328 71.165, 175.773 74.161, 181.454 82.069 C 183.404 84.784, 185 87.693, 185 88.534 C 185 91.628, 182.167 96.635, 177.475 101.836 C 171.877 108.039, 172.149 108.535, 181.699 109.558 C 191.435 110.601, 190.917 111.153, 195.970 94.353 C 197.649 88.772, 199.580 84.018, 200.261 83.789 C 202.496 83.039, 286.147 90.818, 289.130 92.054 C 292.359 93.391, 297 98.391, 297 100.531 C 297 102.186, 300.186 102.738, 313.437 103.381 C 332.282 104.294, 359.483 101.652, 379.909 96.925 L 389.318 94.748 404.659 80.238 C 413.097 72.258, 420 65.450, 420 65.109 C 420 64.769, 411.788 62.740, 401.750 60.601 C 378.449 55.635, 377.567 55.491, 378.361 56.775 C 379.301 58.296, 378.020 61, 376.359 61 C 375.575 61, 374.003 59.425, 372.867 57.500 C 370.817 54.024, 368.532 52.616, 369.643 55.513 C 369.963 56.345, 369.676 57.685, 369.007 58.492 C 367.316 60.529, 364.494 58.855, 363.157 55.021 C 361.899 51.412, 360 51.034, 360 54.393 C 360 59.475, 354.751 58.612, 352.310 53.129 L 350.694 49.500 350.087 52.500 C 349.199 56.893, 345.998 56.519, 343.668 51.750 C 341.795 47.917, 339.390 46.501, 340.455 49.859 C 341.218 52.264, 338.698 54.356, 336.050 53.516 C 334.925 53.159, 333.734 51.790, 333.404 50.474 C 333.074 49.159, 332.108 47.505, 331.258 46.799 C 329.934 45.700, 329.801 45.802, 330.333 47.508 C 330.675 48.604, 330.573 50.107, 330.107 50.848 C 328.635 53.192, 325.574 51.619, 323.564 47.487 L 321.624 43.500 321.052 46.500 C 320.220 50.864, 316.072 50.730, 314 46.272 C 312.231 42.464, 311.260 42.152, 310.820 45.250 C 310.616 46.682, 309.696 47.614, 308.288 47.815 C 306.571 48.059, 305.671 47.276, 304.264 44.315 C 302.055 39.665, 300.283 39.566, 291 43.575 C 282.535 47.230, 269.295 47.934, 253.246 45.580 C 239.735 43.599, 211.609 35.826, 207.824 33.028 C 206.315 31.913, 204.218 31, 203.163 31 C 202.108 31, 199.629 30.325, 197.654 29.500 C 193.364 27.708, 193.833 27.687, 187.124 29.970 M 183.153 101.247 C 181.582 102.818, 181.705 104.511, 183.500 106 C 184.697 106.993, 185.303 106.993, 186.500 106 C 188.532 104.314, 188.388 102.278, 186.153 101.082 C 184.883 100.402, 183.947 100.453, 183.153 101.247" stroke="none" fill-rule="evenodd"/>
</svg>