<svg xmlns="http://www.w3.org/2000/svg"   viewBox="0 0 423 116" version="1.1" fill="white">
	<path d="M 228.574 24.568 C 227.681 25.462, 226.205 25.882, 225.144 25.546 C 224.061 25.202, 222.746 25.601, 222 26.500 C 221.239 27.418, 219.943 27.799, 218.811 27.440 C 217.762 27.107, 216.251 27.377, 215.452 28.040 C 214.365 28.942, 213.656 28.960, 212.633 28.110 C 211.593 27.247, 210.965 27.337, 210.010 28.488 C 208.303 30.545, 206.259 30.391, 205.548 28.151 C 205.028 26.512, 204.088 26.352, 197.231 26.734 C 192.979 26.971, 185 27.825, 179.500 28.633 C 155.451 32.165, 151.250 32.376, 131.452 31.048 C 113.008 29.810, 108.223 29.937, 92 32.095 C 74.971 34.359, 50.827 42.900, 40 50.489 C 30.656 57.038, 30.123 59.010, 35.527 67.041 C 37.467 69.924, 39.511 74.318, 40.069 76.807 C 41.359 82.564, 43.967 87, 46.061 87 C 46.957 87, 48.547 86.053, 49.594 84.896 C 57.266 76.418, 76.406 72.683, 90.161 76.980 L 96.500 78.960 100.639 75.997 C 105.867 72.256, 108.444 71.287, 116.666 69.973 C 125.299 68.594, 132.380 70.045, 139.108 74.572 C 141.909 76.458, 144.860 78, 145.665 78 C 146.471 78, 149.275 75.798, 151.897 73.106 C 155.894 69.002, 157.587 68.020, 162.377 67.025 C 172.769 64.868, 186.776 68.713, 193.353 75.529 C 202.574 85.082, 204.826 87.932, 205.467 90.851 C 206.832 97.063, 212.181 101.055, 214.712 97.750 C 215.239 97.063, 216.909 92.900, 218.424 88.500 C 222.847 75.656, 221.388 76.543, 238.609 76.223 C 246.799 76.070, 264.749 76.632, 278.498 77.473 C 309.615 79.374, 321.850 79.388, 334.143 77.535 C 345.982 75.750, 363.499 70.224, 375.500 64.486 C 384.600 60.136, 400.587 50.253, 399.798 49.465 C 399.563 49.230, 393.324 47.500, 385.935 45.621 C 356.143 38.045, 323.185 33.645, 284.324 32.054 C 259.328 31.031, 250.647 29.801, 237.968 25.489 C 229.300 22.541, 230.486 22.657, 228.574 24.568 M 38.105 58.373 C 36.948 59.768, 37.569 63, 38.993 63 C 39.422 63, 39.971 61.650, 40.213 60 C 40.688 56.769, 39.925 56.180, 38.105 58.373" stroke="none" fill-rule="evenodd"/>
</svg>