<svg xmlns="http://www.w3.org/2000/svg"   viewBox="0 0 419 123" version="1.1" fill="white">
	<path d="M 114.500 19.627 C 90.804 21.803, 79.728 24.188, 68.591 29.516 C 51.778 37.559, 40.007 47.554, 34.249 58.678 C 27.297 72.106, 24.653 83.327, 26.991 89.475 C 27.874 91.798, 28.226 91.952, 30.241 90.901 C 31.483 90.252, 38.575 83.808, 46 76.581 C 64.602 58.474, 68.438 56.879, 75.430 64.346 C 77.669 66.736, 80.175 68.925, 81 69.211 C 83.453 70.059, 85.861 68.197, 88.107 63.717 C 90.940 58.063, 94.637 54.275, 98.597 52.968 C 101.293 52.078, 102.531 52.226, 105.682 53.816 C 109.098 55.539, 111.081 55.690, 124.500 55.249 C 138.887 54.776, 139.963 54.881, 150.829 57.816 C 162.665 61.013, 164.538 61.030, 165.515 57.952 C 166.417 55.109, 171.655 51.155, 175.464 50.441 C 180.301 49.533, 185.594 51.601, 188.633 55.585 C 190.069 57.468, 192.462 62.917, 193.952 67.695 C 195.441 72.473, 197.387 76.842, 198.276 77.403 C 200.109 78.559, 208.943 77.031, 217.987 73.993 C 221.005 72.979, 223.705 72.513, 223.987 72.956 C 224.269 73.399, 228.325 74.085, 233 74.481 C 238.897 74.981, 245.481 76.537, 254.500 79.562 C 270.140 84.809, 285.525 87.698, 305 89.045 C 342.911 91.666, 370.228 85.053, 389.966 68.474 C 393.223 65.738, 395.913 63.225, 395.944 62.889 C 395.975 62.552, 387.337 62.031, 376.750 61.730 C 356.604 61.157, 342.857 59.280, 324.223 54.557 C 312.903 51.687, 292.434 44.772, 286.895 41.946 C 283.532 40.231, 280.940 40, 265.040 40 C 247.665 40, 246.917 39.917, 244.750 37.750 L 242.500 35.500 244.750 35.180 C 245.988 35.005, 247 34.282, 247 33.574 C 247 32.714, 244.760 32.078, 240.250 31.657 C 236.537 31.310, 222.925 29.223, 210 27.018 C 197.075 24.814, 183.800 22.964, 180.500 22.907 C 177.200 22.850, 170 22.106, 164.500 21.255 C 155.178 19.811, 123.668 18.786, 114.500 19.627" stroke="none" fill-rule="evenodd"/>
</svg>