<svg xmlns="http://www.w3.org/2000/svg"   viewBox="0 0 659 222" version="1.1" fill="white">
	<path d="M 210.763 43.565 C 207.332 45.427, 205 49.832, 205 54.450 L 205 58 199.224 58 C 191.291 58, 177.432 59.774, 172 61.485 C 169.525 62.265, 166.150 63.037, 164.500 63.201 C 162.346 63.416, 161.577 63.970, 161.775 65.166 C 162.179 67.621, 149.208 74.411, 139.300 76.931 C 134.790 78.078, 124.261 80.083, 115.902 81.387 C 97.610 84.239, 95.492 83.893, 89 76.996 C 86.525 74.366, 83.553 71.736, 82.395 71.150 C 79.880 69.877, 72.890 68.725, 51.500 66.055 L 35.500 64.058 31.973 60.029 C 28.033 55.529, 26.150 55.072, 23.521 57.976 C 22.538 59.063, 21.394 59.744, 20.980 59.488 C 19.306 58.453, 19.151 63.577, 20.784 65.978 C 22.291 68.193, 22.561 72.481, 23 101.216 C 23.443 130.184, 23.694 134.126, 25.191 135.621 C 26.694 137.123, 29.576 137.293, 51.191 137.153 C 86.363 136.926, 105 136.002, 105 134.485 C 105 133.805, 103.846 130.639, 102.435 127.450 C 97.774 116.910, 100.025 115.181, 122.457 112.072 C 138.738 109.816, 172.332 109.111, 173.500 111 C 173.840 111.550, 175.161 112, 176.437 112 C 177.712 112, 179.343 112.708, 180.062 113.574 C 181.151 114.887, 182.757 115.033, 189.708 114.454 C 197.864 113.775, 198.102 113.818, 200.524 116.431 C 201.886 117.901, 203 119.474, 203 119.927 C 203 120.379, 204.265 121.003, 205.811 121.312 C 209.295 122.009, 211.285 125.965, 210.434 130.502 C 210.016 132.726, 205.803 138.619, 197.459 148.648 C 190.663 156.817, 185.417 163.770, 185.801 164.100 C 187.410 165.480, 214.047 174.135, 216.941 174.217 C 221.156 174.337, 222.868 172.619, 221.197 169.944 C 220.095 168.179, 221.085 165.754, 229.453 149.719 C 234.683 139.699, 238.970 132.480, 238.981 133.679 C 239.021 138.218, 241.249 139, 254.137 139 C 271.193 139, 272.919 137.785, 272.968 125.750 C 272.987 121.271, 273.422 118, 274 118 C 274.550 118, 275 116.024, 275 113.608 C 275 109.758, 275.308 109.139, 277.500 108.589 C 278.875 108.244, 280 107.295, 280 106.481 C 280 105.413, 281.146 105, 284.107 105 C 287.678 105, 288.102 105.228, 287.357 106.750 C 286.886 107.713, 286.500 124.250, 286.500 143.500 L 286.500 178.500 305.370 178.773 C 318.442 178.961, 324.665 178.693, 325.620 177.900 C 326.746 176.966, 327 170.157, 327 140.878 L 327 105 333 105 L 339 105 339 112.941 C 339 120.297, 338.023 123.465, 336.510 121.016 C 336.165 120.457, 334.434 120, 332.665 120 C 329.497 120, 329.452 120.066, 329.757 124.250 C 330.340 132.246, 331.093 135.009, 333.235 137.004 C 336.344 139.901, 337 139.507, 337 134.748 L 337 130.495 362.750 130.743 C 376.913 130.880, 407.814 131.110, 431.420 131.256 C 464.493 131.459, 474.435 131.804, 474.753 132.760 C 475.334 134.501, 478.944 134.309, 479.638 132.500 C 479.955 131.675, 480.679 131, 481.247 131 C 482.693 131, 484.930 127.844, 484.968 125.750 C 484.986 124.787, 484.550 124, 484 124 C 483.450 124, 483 122.875, 483 121.500 C 483 120.125, 483.450 119, 484 119 C 484.550 119, 485 116.552, 485 113.559 C 485 110.566, 485.511 107.802, 486.135 107.416 C 486.760 107.031, 490.247 106.561, 493.885 106.373 C 497.523 106.186, 503.762 105.781, 507.750 105.474 C 513.856 105.005, 515 105.160, 515 106.458 C 515 107.436, 515.914 108, 517.500 108 C 519.241 108, 520 107.453, 520 106.200 C 520 105.210, 520.415 103.973, 520.923 103.450 C 521.488 102.868, 521.350 100.562, 520.567 97.500 L 519.288 92.500 514.144 92.198 C 510.633 91.991, 509 91.466, 509 90.541 C 509 89.432, 515.723 89.124, 546.055 88.843 C 566.436 88.654, 586.502 88.727, 590.648 89.005 C 594.793 89.282, 598.400 89.163, 598.662 88.738 C 598.924 88.314, 599.670 88.297, 600.319 88.700 C 602.469 90.034, 625.001 90.244, 626.566 88.945 C 628.412 87.413, 628.426 80.598, 626.586 79.072 C 625.192 77.915, 601.224 77.838, 600.503 78.988 C 600.152 79.547, 577.387 79.639, 535.750 79.250 C 509.750 79.007, 509 78.944, 509 77 C 509 75.900, 508.550 75, 508 75 C 507.384 75, 507 69.980, 507 61.940 L 507 48.879 503.250 49.190 L 499.500 49.500 498.963 55 C 498.667 58.025, 497.655 61.940, 496.713 63.700 C 495.771 65.461, 495 68.678, 495 70.850 L 495 74.799 490.250 75.211 C 487.366 75.461, 481.571 74.696, 475.500 73.264 C 470 71.967, 463.813 70.642, 461.750 70.321 C 458.963 69.887, 458 69.257, 458 67.868 C 458 66.090, 456.699 66, 431 66 L 404 66 404 63.635 C 404 62.334, 403.067 60.084, 401.927 58.635 L 399.855 56 383.034 56 C 368.815 56, 366.123 55.762, 365.623 54.461 C 365.141 53.205, 363.418 52.975, 356.266 53.211 L 347.500 53.500 347.195 58.250 C 346.914 62.635, 347.068 63, 349.202 63 C 351.334 63, 351.486 63.356, 351.151 67.574 L 350.787 72.148 348.579 70.074 C 345.762 67.428, 345.033 67.463, 344.863 70.250 C 344.788 71.487, 344.402 69.641, 344.006 66.147 C 343.592 62.498, 342.693 59.419, 341.893 58.913 C 339.733 57.545, 336.302 57.841, 334.602 59.541 C 333.213 60.930, 332.737 60.915, 329.797 59.395 C 326.873 57.883, 322.092 57.721, 283.767 57.833 L 241 57.958 241 54.502 C 241 50.250, 239.588 49.253, 227.670 45.087 C 217.859 41.657, 214.789 41.381, 210.763 43.565 M 220.571 47.571 C 217.788 50.355, 218.606 52.735, 222.501 53.190 C 226.230 53.625, 228 52.598, 228 50 C 228 46.247, 223.399 44.743, 220.571 47.571 M 365.647 61.476 C 365.231 62.562, 363.616 63, 360.031 63 L 355 63 355 67.500 C 355 71.578, 355.224 72, 357.389 72 C 358.703 72, 359.757 71.438, 359.731 70.750 C 359.547 65.774, 358.580 66, 380.066 66 L 400.133 66 399.816 63.250 L 399.500 60.500 382.866 60.226 C 368.718 59.994, 366.145 60.180, 365.647 61.476 M 499.412 66.369 C 498.661 68.325, 499.684 70, 501.629 70 C 502.610 70, 503.027 69.240, 502.820 67.828 C 502.432 65.191, 500.226 64.247, 499.412 66.369 M 290 69.500 C 290 71.971, 290.100 72, 298.500 72 C 303.500 72, 307 71.588, 307 71 C 307 70.450, 306.550 70, 306 70 C 305.450 70, 305 69.325, 305 68.500 C 305 67.300, 303.500 67, 297.500 67 C 290.167 67, 290 67.056, 290 69.500 M 320.032 67.750 C 320.089 69.105, 322.697 72, 323.860 72 C 324.487 72, 325 70.875, 325 69.500 C 325 67.500, 324.500 67, 322.500 67 C 321.125 67, 320.014 67.338, 320.032 67.750 M 375 69 C 375 69.550, 375.900 70, 377 70 C 378.100 70, 379 69.550, 379 69 C 379 68.450, 378.100 68, 377 68 C 375.900 68, 375 68.450, 375 69 M 384 69 C 384 69.550, 384.900 70, 386 70 C 387.100 70, 388 69.550, 388 69 C 388 68.450, 387.100 68, 386 68 C 384.900 68, 384 68.450, 384 69 M 393.500 69 C 393.840 69.550, 394.766 70, 395.559 70 C 396.352 70, 397 69.550, 397 69 C 397 68.450, 396.073 68, 394.941 68 C 393.809 68, 393.160 68.450, 393.500 69 M 404 69 C 404 69.550, 404.450 70, 405 70 C 405.550 70, 406 69.550, 406 69 C 406 68.450, 405.550 68, 405 68 C 404.450 68, 404 68.450, 404 69 M 418 69 C 418 69.550, 418.675 70, 419.500 70 C 420.325 70, 421 69.550, 421 69 C 421 68.450, 420.325 68, 419.500 68 C 418.675 68, 418 68.450, 418 69 M 427.500 69 C 427.840 69.550, 428.541 70, 429.059 70 C 429.577 70, 430 69.550, 430 69 C 430 68.450, 429.298 68, 428.441 68 C 427.584 68, 427.160 68.450, 427.500 69 M 436.500 69 C 436.840 69.550, 437.541 70, 438.059 70 C 438.577 70, 439 69.550, 439 69 C 439 68.450, 438.298 68, 437.441 68 C 436.584 68, 436.160 68.450, 436.500 69 M 446 69 C 446 69.550, 446.450 70, 447 70 C 447.550 70, 448 69.550, 448 69 C 448 68.450, 447.550 68, 447 68 C 446.450 68, 446 68.450, 446 69 M 614 84 C 614 84.550, 615.800 85, 618 85 C 620.200 85, 622 84.550, 622 84 C 622 83.450, 620.200 83, 618 83 C 615.800 83, 614 83.450, 614 84 M 474 89.880 C 474 90.364, 476.787 90.961, 480.193 91.208 C 483.642 91.457, 486.557 92.171, 486.773 92.820 C 487.048 93.643, 487.713 93.689, 489.043 92.977 C 490.136 92.392, 490.686 91.346, 490.356 90.485 C 489.919 89.345, 487.950 89, 481.893 89 C 477.552 89, 474 89.396, 474 89.880 M 424.453 109.330 C 424.132 110.612, 424.011 113.598, 424.184 115.966 L 424.500 120.272 443.366 120.186 C 453.743 120.139, 462.481 119.853, 462.783 119.550 C 463.086 119.248, 465.283 119, 467.667 119 C 471.952 119, 472 118.962, 472 115.500 C 472 113.575, 471.550 112, 471 112 C 470.450 112, 470 112.810, 470 113.800 C 470 116.664, 468.171 117.784, 464.689 117.053 C 462.239 116.539, 461.518 115.875, 461.579 114.192 C 461.623 112.986, 461.087 112, 460.388 112 C 457.891 112, 457.926 109.979, 460.440 109.023 C 461.848 108.488, 463 107.813, 463 107.525 C 463 107.236, 458.978 107, 454.063 107 L 445.126 107 445.682 110.427 C 446.798 117.304, 438.006 121.651, 432.126 117.130 C 430.347 115.762, 429.724 114.263, 429.643 111.152 C 429.548 107.546, 429.238 107, 427.286 107 C 425.766 107, 424.849 107.754, 424.453 109.330 M 253.998 119.180 C 253.999 119.555, 255.012 120.013, 256.250 120.199 C 258.265 120.501, 258.051 120.848, 254.211 123.518 C 250.036 126.421, 249.933 126.626, 250.314 131.250 C 250.530 133.863, 250.300 136, 249.802 136 C 248.095 136, 245.865 128.738, 246.154 124.120 C 246.429 119.736, 246.302 119.484, 243.682 119.180 L 240.920 118.859 241.210 127.680 L 241.500 136.500 254.650 136.778 C 270.869 137.122, 271 137.040, 271 126.502 L 271 119.147 262.498 118.823 C 257.821 118.646, 253.996 118.806, 253.998 119.180 M 470.395 123.564 C 470.041 124.974, 470.227 127.111, 470.808 128.314 C 471.714 130.188, 471.874 129.823, 471.932 125.750 C 472.007 120.507, 471.384 119.621, 470.395 123.564" stroke="none" fill-rule="evenodd"/>
</svg>