<svg xmlns="http://www.w3.org/2000/svg"   viewBox="0 0 599 222" version="1.1" fill="white">
	<path d="M 245.200 24.200 C 244.540 24.860, 244 26.345, 244 27.500 C 244 28.655, 243.556 30.044, 243.013 30.587 C 242.363 31.237, 243.070 32.842, 245.081 35.283 C 248.320 39.212, 248.356 41.686, 245.227 45.250 C 243.948 46.706, 241.828 47.017, 232.595 47.100 C 217.803 47.233, 216.580 47.619, 216.190 52.289 C 215.890 55.877, 215.751 56, 212.011 56 C 209.884 56, 207.468 56.675, 206.643 57.500 C 205.407 58.736, 201.524 59, 184.571 59 C 166.952 59, 164 58.785, 164 57.500 C 164 56.182, 156.093 56.003, 98.750 56.022 C 37.262 56.043, 33.263 56.151, 29.398 57.907 C 26.159 59.378, 25.160 60.451, 24.648 63.010 C 23.536 68.572, 23.890 148.925, 25.036 151.067 C 25.941 152.758, 31.841 156, 34.014 156 C 34.437 156, 35.056 154.988, 35.389 153.750 C 36.140 150.955, 83.134 119.902, 83.762 121.785 C 83.984 122.453, 84.627 123, 85.190 123 C 85.753 123, 91.781 119.175, 98.586 114.500 L 110.958 106 123.479 106 C 133.942 106, 136 105.753, 136 104.500 C 136 103.388, 137.168 103, 140.515 103 C 144.551 103, 145.231 102.656, 146.933 99.750 C 147.980 97.963, 151.147 92.849, 153.971 88.388 L 159.106 80.275 173.303 79.602 C 181.111 79.232, 190.945 78.424, 195.156 77.806 C 201.831 76.827, 203.272 76.901, 206.406 78.388 L 210 80.094 210 88.306 C 210 97.704, 210.485 98.350, 218.427 99.541 C 222.745 100.189, 223.325 100.616, 225.237 104.550 L 227.326 108.851 208.913 142.048 C 198.786 160.306, 190.500 175.526, 190.500 175.872 C 190.500 177.075, 228.703 185.630, 229.687 184.647 C 230.120 184.213, 234.860 172.907, 245.954 145.842 C 250.238 135.389, 251.609 132.997, 253.821 132.115 C 255.338 131.510, 265.682 130.928, 277.661 130.773 L 298.822 130.500 299.400 134 C 299.718 135.925, 299.983 139.117, 299.989 141.094 C 300.006 146.657, 305.484 172.203, 309.440 185.169 C 311.398 191.587, 313 197.549, 313 198.419 C 313 199.288, 313.337 199.996, 313.750 199.992 C 314.940 199.978, 357.176 188.157, 357.620 187.714 C 357.839 187.494, 356.250 181.731, 354.088 174.907 C 347.449 153.958, 342.435 122.352, 345.584 121.307 C 346.109 121.133, 346.374 113.224, 346.205 102.793 C 345.946 86.828, 346.131 84.173, 347.703 81.254 C 349.276 78.332, 349.312 77.808, 347.998 76.977 C 347.174 76.457, 346.988 76.024, 347.584 76.015 C 348.180 76.007, 350.372 78.475, 352.456 81.500 C 356.073 86.752, 356.441 87, 360.622 87 C 363.030 87, 365 87.450, 365 88 C 365 89.608, 494.975 89.358, 495.088 87.750 C 495.647 79.838, 496.028 77.125, 496.876 75 C 497.424 73.625, 497.902 73.063, 497.937 73.750 C 498.012 75.237, 503.604 75.450, 504.500 74 C 504.840 73.450, 508.916 73, 513.559 73 C 518.520 73, 522 73.412, 522 74 C 522 74.550, 523.350 75, 525 75 C 526.650 75, 528 74.580, 528 74.066 C 528 73.495, 537.939 73.362, 553.500 73.722 L 579 74.313 578.985 67.906 C 578.976 64.383, 578.570 60.870, 578.083 60.100 C 577.346 58.936, 574.008 58.825, 558.348 59.444 C 547.982 59.854, 537.025 60.259, 534 60.344 L 528.500 60.500 528.222 45.519 L 527.944 30.537 524.776 27.269 C 523.033 25.471, 521.220 24, 520.745 24 C 518.433 24, 511.181 31.412, 504.941 40.151 C 499.087 48.351, 498 50.509, 498 53.937 C 498 58.439, 496.083 59.615, 495.858 55.250 C 495.706 52.290, 495.445 49.253, 495.171 47.250 C 494.951 45.643, 366 45.393, 366 47 C 366 47.550, 363.769 48, 361.042 48 C 356.186 48, 356.027 48.098, 353.292 52.750 L 350.500 57.500 350.198 52.250 L 349.895 47 309.527 47 L 269.159 47 268.500 44 C 267.906 41.294, 267.460 41, 263.956 41 C 261.155 41, 259.785 41.533, 259.048 42.910 C 258.436 44.054, 257.320 44.633, 256.263 44.355 C 254.747 43.955, 254.493 42.619, 254.454 34.831 C 254.414 27.125, 254.124 25.564, 252.513 24.386 C 250.182 22.681, 246.804 22.596, 245.200 24.200 M 506.101 43.575 C 499.586 53.722, 499.066 53, 512.893 53 L 525 53 525 48.906 C 525 45.684, 524.584 44.704, 523.043 44.301 C 521.934 44.011, 520.600 42.317, 519.965 40.395 C 518.925 37.242, 518.542 37, 514.584 37 C 510.429 37, 510.217 37.164, 506.101 43.575 M 508.750 60.732 C 511.087 60.943, 514.913 60.943, 517.250 60.732 C 519.587 60.522, 517.675 60.349, 513 60.349 C 508.325 60.349, 506.413 60.522, 508.750 60.732 M 275 107.882 C 271.989 108.414, 271.374 109.010, 270.598 112.149 C 269.947 114.786, 270.117 117.074, 271.211 120.399 C 272.980 125.772, 272.237 126.365, 269.514 121.754 C 268.316 119.727, 267.578 116.564, 267.548 113.330 L 267.500 108.152 264.522 108.747 C 258.089 110.031, 256.545 116.024, 260.500 124.358 L 262.228 128 275.754 128 C 291.949 128, 291.921 128.019, 291.968 117.199 L 292 109.898 288.532 108.449 C 284.969 106.960, 281.128 106.799, 275 107.882" stroke="none" fill-rule="evenodd"/>
</svg>