<svg xmlns="http://www.w3.org/2000/svg"   viewBox="0 0 660 222" version="1.1" fill="white">
	<path d="M 205.452 34.396 C 204.356 35.164, 199.868 41.678, 195.479 48.872 L 187.500 61.951 183.250 61.976 C 180.387 61.992, 179 62.435, 179 63.333 C 179 64.295, 177.342 64.667, 173.053 64.667 C 169.783 64.667, 166.456 65.206, 165.661 65.866 C 164.582 66.762, 157.545 66.933, 137.858 66.540 C 123.361 66.252, 96.875 65.810, 79 65.558 C 47.608 65.116, 46.453 65.031, 45.128 63.050 C 43.859 61.154, 42.753 61, 30.413 61 C 18.170 61, 16.984 61.162, 16.018 62.966 C 14.284 66.206, 13.664 91.414, 14.903 108.249 C 15.540 116.911, 16.330 124.695, 16.657 125.548 C 17.616 128.048, 20.467 126.770, 20.822 123.681 C 21.112 121.158, 22.398 120.286, 33.711 114.939 C 40.622 111.673, 46.664 109, 47.138 109 C 47.612 109, 48 111.250, 48 114 C 48 117.001, 48.444 119, 49.112 119 C 49.723 119, 54.493 116.044, 59.712 112.430 C 71.124 104.528, 72 104.130, 72 106.834 C 72 109.457, 73.480 110.347, 76.557 109.575 C 78.119 109.183, 79 108.248, 79 106.981 C 79 105.198, 79.689 105, 85.893 105 C 93.882 105, 94.393 104.445, 93.389 96.873 L 92.742 92 102.871 92 C 111.208 92, 113 91.735, 113 90.500 C 113 89.252, 114.975 88.999, 124.750 88.993 C 134.794 88.988, 136.936 88.698, 139.500 87 C 142.045 85.314, 144.205 85.012, 153.750 85.007 C 160.588 85.003, 165 85.392, 165 86 C 165 86.550, 166.350 87, 168 87 L 171 87 171 93.509 L 171 100.017 176.466 99.375 C 181.747 98.754, 182.052 98.852, 185.466 102.266 C 191.231 108.031, 190.976 108.809, 173.076 140.115 L 157.151 167.965 160.826 169.025 C 172.075 172.269, 190.591 175.671, 191.792 174.714 C 192.689 174, 192.766 173.366, 192.042 172.642 C 190.192 170.792, 190.905 168.152, 195.996 158.007 C 199.217 151.589, 201.971 147.439, 203.746 146.328 C 205.261 145.381, 206.654 144.503, 206.842 144.378 C 207.030 144.252, 206.733 143.345, 206.183 142.362 C 205.432 141.021, 205.798 139.358, 207.645 135.713 C 211.291 128.518, 213.471 127.893, 233.775 128.226 L 250.500 128.500 251.230 137.500 C 251.631 142.450, 252.662 150.007, 253.519 154.294 C 255.050 161.945, 262.500 187.833, 263.442 188.775 C 263.927 189.261, 298.178 180.126, 299.928 179.045 C 300.475 178.707, 299.637 174.960, 297.948 170.185 C 293.729 158.265, 291.277 147.878, 290.063 136.789 C 288.475 122.286, 288.601 120.338, 291.164 119.667 C 292.922 119.208, 293.104 118.830, 292.130 117.656 C 291.317 116.677, 291.022 112.712, 291.215 105.367 C 291.497 94.638, 291.529 94.509, 294.250 93.207 C 296.142 92.302, 297 91.128, 297 89.445 C 297 85.868, 300.754 86.052, 301.184 89.650 C 301.586 93.024, 299.724 92.893, 348 92.928 C 392.975 92.961, 400.044 92.550, 400.747 89.858 C 401.015 88.836, 401.867 88, 402.642 88 C 403.416 88, 404.320 86.650, 404.650 85 C 405.303 81.734, 408 80.831, 408 83.878 C 408 86.538, 410.311 88.289, 411.824 86.776 C 412.471 86.129, 413 84.790, 413 83.800 C 413 82.232, 413.936 82, 420.276 82 L 427.553 82 427.171 86 C 426.815 89.741, 426.959 90, 429.395 90 C 430.828 90, 432 89.579, 432 89.063 C 432 88.548, 433.462 87.986, 435.250 87.813 C 438.064 87.542, 438.495 87.131, 438.461 84.750 L 438.421 82 449.461 81.807 C 476.214 81.339, 511.501 82.002, 511.826 82.979 C 512.014 83.541, 511.229 84, 510.083 84 C 508.589 84, 508 84.636, 508.001 86.250 L 508.003 88.500 570.136 88.500 L 632.268 88.500 633.210 86 C 634.511 82.543, 634.480 68.765, 633.165 66.308 C 632.108 64.334, 630.839 64.275, 573.347 63.553 C 517.659 62.854, 514.540 62.908, 513.304 64.599 C 512.587 65.580, 512 67.138, 512 68.061 C 512 69.567, 509.758 69.785, 490.119 70.187 C 478.085 70.433, 460.535 70.435, 451.119 70.190 L 434 69.744 433.900 56.622 C 433.782 41.099, 433.291 38.826, 429.785 37.593 C 425.827 36.201, 423.077 38.561, 414.528 50.689 C 407.970 59.993, 407 61.924, 407 65.684 C 407 68.058, 406.550 70, 406 70 C 405.450 70, 405 68.831, 405 67.401 C 405 65.785, 403.829 63.709, 401.906 61.912 L 398.811 59.021 353.656 58.831 C 328.820 58.726, 306.925 58.834, 305 59.070 C 301.783 59.465, 301.451 59.824, 300.892 63.500 C 300.476 66.233, 300.232 64.492, 300.120 58 C 299.952 48.299, 299.333 46.550, 294.876 43.189 C 293.601 42.228, 216.130 33.046, 208.973 33.008 C 208.132 33.004, 206.548 33.628, 205.452 34.396 M 208.192 42.075 C 208.389 42.666, 208.978 43.150, 209.500 43.150 C 210.022 43.150, 210.611 42.666, 210.808 42.075 C 211.005 41.484, 210.417 41, 209.500 41 C 208.583 41, 207.995 41.484, 208.192 42.075 M 218.788 47.952 C 216.263 49.938, 211.701 59.367, 212.755 60.421 C 213.073 60.740, 230.758 61, 252.056 61 C 295.080 61, 294.295 61.120, 295.609 54.316 C 296.105 51.748, 295.727 50.636, 293.657 48.566 L 291.091 46 256.180 46 C 223.070 46, 221.142 46.101, 218.788 47.952 M 415.605 55.029 C 413.201 58.780, 412.066 61.466, 412.640 62.040 C 413.169 62.569, 417.112 62.697, 421.785 62.337 C 429.813 61.718, 430 61.644, 430 59.092 C 430 57.598, 429.177 55.967, 428.075 55.279 C 427.016 54.617, 426.003 53.047, 425.825 51.788 C 425.580 50.063, 424.762 49.432, 422.500 49.224 C 419.815 48.978, 419.091 49.587, 415.605 55.029 M 21.256 64.250 C 21.557 65.140, 24.603 65.500, 31.839 65.500 C 39.300 65.500, 41.999 65.168, 42 64.250 C 42 63.329, 39.217 63, 31.417 63 C 23.391 63, 20.936 63.302, 21.256 64.250 M 413 69 C 413 69.578, 416.167 70, 420.500 70 C 424.833 70, 428 69.578, 428 69 C 428 68.422, 424.833 68, 420.500 68 C 416.167 68, 413 68.422, 413 69 M 23 93 C 23 93.593, 26.667 94, 32 94 C 37.333 94, 41 93.593, 41 93 C 41 92.407, 37.333 92, 32 92 C 26.667 92, 23 92.407, 23 93 M 220.455 110.455 C 216.907 114.002, 217.063 119.729, 220.805 123.313 C 223.483 125.879, 224.081 126, 234.068 126 L 244.527 126 245.724 120.961 C 247.754 112.413, 244.391 108, 235.846 108 C 231.789 108, 230.850 108.402, 229.068 110.904 C 226.440 114.595, 226.442 118.020, 229.073 121.365 C 231.542 124.505, 230.300 124.811, 226.672 121.957 C 223.622 119.558, 222.250 113.942, 223.853 110.423 C 225.310 107.226, 223.668 107.241, 220.455 110.455" stroke="none" fill-rule="evenodd"/>
</svg>