<svg xmlns="http://www.w3.org/2000/svg"   viewBox="0 0 318 222" version="1.1" fill="white">
	<path d="M 75.376 28.097 C 69.955 29.650, 69.746 30.448, 68.835 53.091 C 68.242 67.803, 67.541 75.162, 66.494 77.668 C 64.331 82.846, 64.633 85.566, 67.635 87.927 C 69.480 89.379, 71.727 90, 75.135 90 L 80 90 80 82.500 C 80 78.375, 80.338 75.014, 80.750 75.032 C 81.162 75.049, 82.374 75.724, 83.441 76.532 C 84.886 77.624, 88.314 78, 96.846 78 L 108.310 78 112.155 82.042 C 117.570 87.734, 117.612 91.820, 112.416 107.251 C 109.857 114.849, 109 119.099, 109 124.196 L 109 131 118.136 131 L 127.273 131 126.538 163.500 L 125.804 196 137.402 196 L 149 196 149 163.500 C 149 142.500, 149.354 131, 150 131 C 150.630 131, 151 124.275, 151 112.826 L 151 94.651 153.495 96.995 C 155.645 99.015, 157.478 99.451, 166.745 100.150 C 179.814 101.134, 182.225 100.710, 185.473 96.850 C 187.502 94.439, 188 92.768, 188 88.375 C 188 83.660, 188.380 82.570, 190.750 80.484 C 193.450 78.107, 193.845 78.063, 212.500 78.033 L 231.500 78.002 231.444 83.603 C 231.402 87.696, 230.949 89.449, 229.759 90.115 C 228.563 90.785, 228.274 91.916, 228.674 94.376 C 228.973 96.218, 228.787 98.575, 228.260 99.613 C 227.686 100.744, 227.555 108.308, 227.933 118.500 C 228.279 127.850, 228.228 140.225, 227.820 146 C 226.983 157.834, 227.265 159.632, 230.099 160.531 C 234.446 161.911, 234.569 160.926, 234.473 125.309 C 234.422 106.714, 234.683 91.050, 235.053 90.500 C 236.622 88.161, 236.910 80.260, 235.494 78.389 C 233.527 75.791, 233.531 67.394, 235.500 66.638 C 236.325 66.322, 236.999 65.486, 236.999 64.781 C 236.998 63.973, 238.383 63.487, 240.749 63.465 C 242.812 63.446, 248.213 63.334, 252.750 63.215 L 261 63 261 57 L 261 51 252.750 50.785 C 248.213 50.666, 242.812 50.554, 240.749 50.535 C 237.915 50.508, 236.998 50.089, 236.999 48.820 C 236.999 47.838, 236.065 47.006, 234.750 46.820 C 232.618 46.517, 232.500 46.053, 232.500 38 C 232.500 30.177, 232.336 29.477, 230.438 29.205 C 226.786 28.683, 219.196 32.590, 218.829 35.181 C 218.526 37.316, 217.945 37.526, 211.500 37.833 C 207.650 38.015, 194.984 37.855, 183.354 37.475 L 162.207 36.786 161.629 33.893 C 161.093 31.214, 160.716 31, 156.525 31 C 152.164 31, 152 31.109, 152 34 L 152 37 138 37 C 126.924 37, 124 36.718, 124 35.652 C 124 34.648, 121.331 34.141, 113.543 33.664 C 104.987 33.141, 95.163 31.357, 80 27.575 C 79.175 27.369, 77.094 27.604, 75.376 28.097 M 75.136 33.336 C 74.302 34.341, 74.029 39.366, 74.223 50.135 L 74.500 65.500 77.250 65.816 L 80 66.133 80.150 50.566 C 80.233 42.005, 80.345 34.438, 80.400 33.750 C 80.544 31.953, 76.544 31.639, 75.136 33.336 M 83 34 C 83 34.550, 84.688 34.955, 86.750 34.900 C 90.097 34.811, 90.231 34.715, 88 34 C 84.425 32.855, 83 32.855, 83 34 M 153 85.845 C 153 96.745, 153.429 97.060, 169.193 97.729 C 180.849 98.223, 181.601 98.138, 183.419 96.110 C 184.633 94.756, 185.503 91.974, 185.788 88.539 C 186.202 83.545, 186.008 82.907, 183.369 80.586 C 180.745 78.279, 179.699 78.061, 171.134 78.032 L 161.767 78 162.237 84.250 C 162.495 87.688, 163.082 91.400, 163.541 92.500 C 164.308 94.340, 164.227 94.380, 162.532 93 C 160.035 90.966, 158 85.818, 158 81.532 C 158 78.431, 157.695 78, 155.500 78 C 153.046 78, 153 78.144, 153 85.845" stroke="none" fill-rule="evenodd"/>
</svg>