<svg xmlns="http://www.w3.org/2000/svg"   viewBox="0 0 445 222" version="1.1" fill="white">
	<path d="M 46.667 34.667 C 46.300 35.033, 46 38.234, 46 41.780 L 46 48.227 43 47.787 C 40.493 47.419, 39.996 47.688, 39.978 49.423 C 39.966 50.565, 39.066 53.462, 37.978 55.859 C 36.890 58.257, 36 61.426, 36 62.901 C 36 64.759, 34.617 66.940, 31.500 70 C 26.449 74.957, 26.159 75.929, 28.973 78.475 C 30.391 79.759, 31.819 80.086, 34.054 79.639 C 36.241 79.202, 38.692 79.725, 42.331 81.408 C 51.670 85.726, 105.330 103, 109.403 103 C 111.277 103, 112.800 104.122, 114.945 107.082 L 117.902 111.165 115.403 116.832 C 114.029 119.950, 108.876 129.151, 103.952 137.280 L 95 152.060 95 159.030 C 95 165.259, 95.206 166, 96.938 166 C 98.698 166, 98.469 166.973, 94.438 176.593 C 91.997 182.419, 90 187.829, 90 188.614 C 90 189.813, 93.247 189.998, 110.250 189.771 L 130.500 189.500 135.111 178.145 C 139.830 166.522, 140.906 165.042, 144.652 165.015 C 147.220 164.997, 149.208 160.325, 148.403 156.201 C 148.027 154.275, 149.640 149.481, 154.020 139.504 C 157.399 131.806, 160.632 124.943, 161.204 124.254 C 161.936 123.372, 165.926 123, 174.655 123 C 191.147 123, 192.824 122.276, 197.035 113.340 C 198.808 109.578, 201.892 104.900, 203.888 102.944 L 207.518 99.388 226.309 97.077 C 236.643 95.806, 245.223 94.931, 245.374 95.133 C 245.525 95.335, 246.131 100.591, 246.720 106.812 C 247.309 113.034, 247.977 118.311, 248.204 118.538 C 248.431 118.765, 251.513 118.484, 255.053 117.914 C 259.299 117.230, 261.791 116.303, 262.378 115.189 C 262.867 114.260, 265.648 111.250, 268.559 108.500 C 276.157 101.321, 288.130 97.495, 307.534 96.047 C 315.252 95.471, 324.091 95, 327.177 95 C 333.764 95, 334 94.668, 334 85.418 L 334 79 337.750 78.968 C 339.813 78.951, 342.374 78.276, 343.441 77.468 C 344.945 76.330, 348.722 76, 360.223 76 C 372.491 76, 375.163 75.740, 375.638 74.500 C 376.116 73.254, 378.890 73, 392 73 C 409.385 73, 409 73.147, 409 66.500 C 409 59.852, 409.387 60, 391.976 60 C 383.281 60, 376.017 59.611, 375.833 59.135 C 375.650 58.659, 368.525 57.961, 360 57.583 C 349.134 57.102, 343.838 56.464, 342.285 55.448 C 341.067 54.652, 338.530 54, 336.646 54 C 333.509 54, 333.166 53.700, 332.549 50.411 C 331.172 43.070, 330.179 42, 324.744 42 C 321.391 42, 318.897 42.649, 316.964 44.026 C 315.399 45.140, 310.645 46.940, 306.400 48.026 C 298.987 49.922, 295.006 50, 206.200 50 C 125.881 50, 113.575 49.806, 112.610 48.526 C 111.987 47.698, 107.116 46.191, 101.500 45.090 C 96 44.011, 85.902 41.074, 79.059 38.564 C 67.494 34.321, 65.941 34, 56.976 34 C 51.673 34, 47.033 34.300, 46.667 34.667 M 53 42.500 C 53 43.962, 53.574 45, 54.383 45 C 55.144 45, 55.982 43.875, 56.245 42.500 C 56.616 40.558, 56.308 40, 54.861 40 C 53.543 40, 53 40.729, 53 42.500 M 61.080 42.377 C 63.223 44.842, 63.878 44.995, 71.930 44.916 L 80.500 44.831 76 42.730 C 73.525 41.574, 68.642 40.432, 65.150 40.191 L 58.800 39.754 61.080 42.377 M 281 59 C 281 59.617, 286.167 60, 294.500 60 C 302.833 60, 308 59.617, 308 59 C 308 58.383, 302.833 58, 294.500 58 C 286.167 58, 281 58.383, 281 59 M 310 59 C 310 59.550, 311.377 60, 313.059 60 C 314.844 60, 315.861 59.583, 315.500 59 C 315.160 58.450, 313.784 58, 312.441 58 C 311.098 58, 310 58.450, 310 59 M 32.118 71.368 C 28.640 74.967, 28.447 77.467, 31.555 78.659 C 34.247 79.693, 36.162 76.736, 35.815 72.083 L 35.500 67.867 32.118 71.368 M 170.118 106.773 C 165.652 111.021, 164.218 114.988, 165.852 118.574 C 166.879 120.828, 167.473 120.996, 174.229 120.937 C 179.470 120.891, 180.888 120.627, 179.308 119.990 C 174.505 118.056, 172.710 110.975, 175.445 104.750 C 176.724 101.838, 174.363 102.735, 170.118 106.773 M 179.667 104.816 C 177.356 107.369, 176.484 112.667, 177.929 115.368 C 178.591 116.605, 180.661 118.440, 182.528 119.445 C 185.458 121.023, 186.347 121.099, 189 120 C 192.882 118.392, 194 116.295, 194 110.622 C 194 107.097, 193.515 105.774, 191.777 104.557 C 188.673 102.382, 181.735 102.531, 179.667 104.816" stroke="none" fill-rule="evenodd"/>
</svg>