<svg xmlns="http://www.w3.org/2000/svg"   viewBox="0 0 100 130" version="1.1" fill="white">
	<path d="M 70.289 25.840 C 69.305 26.852, 67.713 27.963, 66.750 28.309 C 65.787 28.654, 65 29.618, 65 30.449 C 65 31.281, 62.422 35.998, 59.270 40.932 C 54.295 48.722, 52.962 50.125, 49.152 51.580 L 44.764 53.255 32.845 77.818 C 26.290 91.328, 21.060 103.074, 21.223 103.921 C 21.497 105.342, 39.114 114.897, 41.592 114.968 C 42.193 114.986, 48.211 103.637, 54.965 89.750 L 67.246 64.500 66.079 59.938 C 65.010 55.760, 65.168 54.665, 67.961 46.938 C 69.638 42.297, 71.683 37.306, 72.505 35.846 C 73.327 34.386, 74 32.222, 74 31.037 C 74 29.852, 74.450 29.160, 75 29.500 C 77.338 30.945, 75.990 38.983, 72 47.381 C 67.927 55.953, 67.235 59.857, 68.975 64.435 C 70.238 67.755, 74.355 67.930, 76.402 64.750 C 79.702 59.624, 82 50.111, 82 41.579 C 82 33.214, 81.020 29.185, 78.152 25.750 C 76.251 23.474, 72.548 23.516, 70.289 25.840" stroke="none" fill-rule="evenodd"/>
</svg>