<?xml version="1.0" encoding="utf-8"?>
<svg viewBox="0 0 100 100" version="1.1" fill="white" xmlns="http://www.w3.org/2000/svg">
  <path d="M 65.412 13.961 C 64.601 14.796 63.287 15.712 62.492 15.997 C 61.698 16.282 61.048 17.077 61.048 17.763 C 61.048 18.45 58.922 22.342 56.321 26.412 C 52.216 32.84 51.116 33.997 47.972 35.198 L 44.352 36.581 L 34.518 56.847 C 29.109 67.994 24.794 77.685 24.928 78.385 C 25.154 79.557 39.69 87.44 41.735 87.5 C 42.231 87.514 47.196 78.15 52.768 66.692 L 62.902 45.858 L 61.939 42.095 C 61.057 38.647 61.187 37.744 63.492 31.368 C 64.875 27.539 66.562 23.421 67.241 22.217 C 67.919 21.012 68.474 19.226 68.474 18.248 C 68.474 17.271 68.846 16.7 69.299 16.98 C 71.228 18.172 70.116 24.805 66.824 31.734 C 63.463 38.806 62.892 42.027 64.328 45.805 C 65.371 48.544 68.767 48.689 70.456 46.065 C 73.179 41.836 75.075 33.986 75.075 26.947 C 75.075 20.045 74.266 16.72 71.9 13.886 C 70.331 12.008 67.276 12.042 65.412 13.961" stroke="none" fill-rule="evenodd" style=""/>
</svg>