<svg xmlns="http://www.w3.org/2000/svg"   viewBox="0 0 474 222" version="1.1" fill="white">
	<path d="M 301.406 30.519 C 301.040 31.975, 301.005 35.393, 301.327 38.114 L 301.913 43.060 249.206 42.532 C 161.808 41.656, 151.304 41.602, 130.626 41.915 C 109.131 42.241, 108.463 42.084, 109.535 36.963 C 109.997 34.751, 109.580 34.252, 106.283 33.071 C 104.202 32.327, 101.938 31.508, 101.250 31.252 C 100.563 30.996, 100 31.513, 100 32.401 C 100 33.746, 99.677 33.815, 98.074 32.814 C 94.748 30.737, 91.190 33.131, 90.813 37.700 L 90.500 41.500 76.039 42 L 61.577 42.500 59.387 49.500 L 57.197 56.500 52.848 56.357 C 50.457 56.278, 45.562 55.887, 41.971 55.487 C 32.695 54.456, 32.543 54.730, 32.323 72.902 C 32.181 84.601, 31.344 97.644, 30.520 101 C 30.453 101.275, 30.053 104.200, 29.632 107.500 C 29.211 110.800, 28.670 114.711, 28.429 116.191 C 28.110 118.154, 28.594 119.303, 30.219 120.441 C 32.617 122.120, 36.717 122.466, 38.772 121.162 C 39.471 120.718, 41.385 113.234, 43.025 104.531 C 46.756 84.735, 47.690 81.630, 50.772 78.786 L 53.248 76.500 52.498 79 C 52.085 80.375, 51.105 82.760, 50.322 84.300 C 48.038 88.788, 49.373 91, 54.367 91 C 56.695 91, 59.095 90.505, 59.701 89.899 C 60.502 89.098, 60.983 89.371, 61.468 90.899 C 61.835 92.055, 62.442 93.014, 62.817 93.032 C 63.193 93.049, 67.325 93.217, 72 93.405 C 86.786 93.998, 90.602 97.138, 89.735 108 C 89.371 112.571, 88.441 114.766, 84.232 121 C 78.896 128.901, 70.689 147.938, 71.200 151.231 C 71.408 152.575, 75.472 155.294, 84.433 160.087 L 97.367 167.004 99.588 164.917 C 100.810 163.770, 102.105 161.181, 102.467 159.165 C 102.829 157.149, 104.222 153.371, 105.562 150.768 C 106.903 148.166, 108.002 145.016, 108.005 143.768 C 108.008 142.521, 109.119 139.700, 110.474 137.500 C 111.829 135.300, 112.952 132.537, 112.969 131.361 C 112.986 130.184, 113.787 128.326, 114.750 127.231 C 116.340 125.422, 117.185 125.315, 124 126.058 C 133.522 127.097, 146.160 127.191, 147.625 126.235 C 148.243 125.831, 150.835 121.338, 153.385 116.250 L 158.020 107 161.940 107 L 165.860 107 164.930 110.243 C 163.763 114.315, 163.751 116, 164.892 116 C 165.382 116, 166.172 113.862, 166.646 111.250 C 167.493 106.592, 167.586 106.494, 171.505 106.205 C 175.476 105.912, 175.511 105.941, 177.294 110.963 C 184.293 130.677, 203.768 166.503, 218.210 186.230 L 225.240 195.833 232.870 189.813 C 237.067 186.503, 240.887 183.431, 241.360 182.987 C 241.833 182.543, 239.060 177.752, 235.198 172.340 C 231.336 166.928, 224.705 156.669, 220.463 149.542 C 209.312 130.808, 195.114 100.242, 196.513 97.980 C 196.789 97.533, 196.567 95.992, 196.021 94.555 C 195.474 93.118, 194.923 90.571, 194.795 88.895 C 194.667 87.219, 194.211 85.631, 193.781 85.365 C 192.226 84.403, 193.046 82, 194.930 82 C 196.171 82, 196.975 82.804, 197.180 84.250 L 197.500 86.500 253.887 86.758 C 294.700 86.945, 310.651 86.704, 311.637 85.886 C 312.387 85.264, 313 83.910, 313 82.878 C 313 81.061, 315.014 81, 374.961 81 L 436.923 81 438.077 76.750 C 439.216 72.557, 438.845 60.235, 437.474 56.750 C 436.829 55.110, 432.910 55, 374.893 55 L 313 55 313 50.404 C 313 47.877, 312.389 44.614, 311.642 43.154 C 310.894 41.694, 309.432 37.800, 308.392 34.500 C 306.905 29.784, 306.026 28.433, 304.285 28.185 C 302.599 27.945, 301.912 28.502, 301.406 30.519 M 56.015 77.691 C 56.024 78.136, 56.467 79.175, 57 80 C 57.835 81.293, 57.971 81.266, 57.985 79.809 C 57.993 78.879, 57.550 77.840, 57 77.500 C 56.450 77.160, 56.007 77.246, 56.015 77.691 M 120.073 109.309 C 119.590 110.579, 118.613 113.559, 117.903 115.930 C 115.940 122.481, 117.381 123.121, 133.322 122.777 L 146.186 122.500 148.532 116.731 C 152.886 106.022, 153.579 107, 141.635 107 C 129.468 107, 129.423 107.039, 130.487 116.760 L 131.114 122.500 129.126 120.224 C 127.956 118.885, 126.856 115.695, 126.453 112.474 C 125.838 107.546, 125.529 107, 123.360 107 C 121.763 107, 120.654 107.779, 120.073 109.309" stroke="none" fill-rule="evenodd"/>
</svg>