<svg xmlns="http://www.w3.org/2000/svg"   viewBox="0 0 332 222" version="1.1" fill="white">
	<path d="M 81.983 25.191 C 81.969 29.466, 81.503 30.938, 79.592 32.750 C 78.286 33.987, 76.521 35, 75.668 35 C 74.816 35, 73.840 35.450, 73.500 36 C 73.160 36.550, 71.837 37, 70.560 37 C 69.081 37, 67.268 38.271, 65.568 40.500 C 62.623 44.361, 58.596 45.198, 56.534 42.377 C 55.733 41.283, 54.641 40.979, 53.174 41.445 C 51.373 42.016, 51 42.895, 51 46.567 L 51 51 44.500 51 L 38 51 38 86.500 C 38 126.191, 37.363 123.138, 45.187 120.965 C 50.500 119.489, 52.336 115.631, 55.049 100.235 L 57.386 86.970 85.914 87.235 L 114.442 87.500 115.572 89.767 C 116.442 91.513, 116.284 94.734, 114.884 103.767 C 113.086 115.376, 112.555 134.167, 113.890 139 C 114.466 141.088, 115.274 141.551, 118.790 141.807 L 123 142.115 123 147.006 C 123 155.168, 125.801 173.789, 128.988 186.811 C 132.519 201.243, 132.377 200, 130.500 200 C 129.675 200, 129 200.675, 129 201.500 C 129 203.443, 131.247 203.426, 148.250 201.349 C 157.915 200.169, 162 199.288, 162 198.385 C 162 197.678, 161.410 196.740, 160.689 196.300 C 156.423 193.697, 147.701 144.039, 151.138 141.915 C 152.100 141.320, 152.105 140.295, 151.162 137.147 C 150.502 134.942, 149.529 126.469, 149.001 118.319 C 147.837 100.351, 147.865 101.531, 148.627 102.293 C 148.972 102.638, 150.524 102.263, 152.077 101.460 C 153.987 100.472, 158.071 99.999, 164.700 99.996 C 172.639 99.993, 175.105 99.624, 177.686 98.050 C 181.496 95.727, 182.292 94.280, 183.910 86.746 C 184.716 82.991, 185.808 80.638, 187.052 79.972 C 188.195 79.360, 195.680 79.061, 205.730 79.226 L 222.500 79.500 222.652 86 C 222.736 89.575, 223.142 93.339, 223.553 94.365 C 223.965 95.390, 224.044 105.341, 223.728 116.478 C 223.412 127.615, 223.394 138.518, 223.687 140.707 L 224.221 144.686 231.861 146.423 C 236.062 147.378, 240.257 148.369, 241.183 148.626 C 242.728 149.054, 242.892 146.649, 243.183 119.296 C 243.489 90.513, 243.579 89.341, 245.811 84.809 C 247.753 80.867, 248.631 80.066, 251.311 79.795 C 256.025 79.319, 258.293 80.634, 261.274 85.569 C 265.823 93.100, 267.780 91.173, 265.512 81.397 C 264.659 77.717, 264.215 74.452, 264.526 74.141 C 264.836 73.830, 270.695 73.712, 277.545 73.877 L 290 74.178 290 69.089 L 290 64 279.200 64 C 272.756 64, 267.961 64.439, 267.313 65.087 C 266.530 65.870, 266.038 65.870, 265.554 65.087 C 265.184 64.489, 264.085 64, 263.110 64 C 261.736 64, 260.795 62.047, 258.914 55.290 C 256.608 47.007, 256.334 46.548, 253.315 45.931 C 251.569 45.573, 248.006 43.868, 245.399 42.141 C 242.791 40.413, 240.059 39, 239.329 39 C 238.598 39, 238 38.283, 238 37.406 C 238 36.530, 237.076 35.571, 235.946 35.276 C 233.923 34.747, 233.926 34.721, 236.117 33.619 C 239.432 31.952, 239.521 30.190, 236.309 29.822 C 233.854 29.541, 233.437 28.996, 233 25.500 C 232.604 22.333, 232.083 21.500, 230.500 21.500 C 228.727 21.500, 228.466 22.265, 228.204 28.250 L 227.909 35 221.930 35 C 216.406 35, 215.875 35.199, 214.959 37.609 C 214.092 39.888, 213.759 40.046, 212.321 38.859 C 211.034 37.797, 210.583 37.773, 210.254 38.750 C 210.023 39.438, 209.233 40, 208.500 40 C 207.767 40, 206.938 39.438, 206.659 38.750 C 206.273 37.796, 205.915 37.841, 205.152 38.936 C 204.283 40.183, 203.925 40.183, 202.414 38.936 C 201.074 37.830, 200.578 37.787, 200.254 38.750 C 200.023 39.438, 199.233 40, 198.500 40 C 197.767 40, 196.938 39.438, 196.659 38.750 C 196.278 37.809, 195.886 37.871, 195.076 39 C 194.147 40.296, 193.874 40.304, 193.076 39.064 C 192.311 37.875, 191.882 37.853, 190.576 38.937 C 189.278 40.014, 188.722 40.014, 187.424 38.937 C 186.121 37.856, 185.700 37.867, 185 39 C 184.348 40.055, 183.830 40.103, 182.752 39.209 C 181.709 38.343, 181.064 38.336, 180.219 39.181 C 179.373 40.027, 178.737 40.027, 177.719 39.181 C 176.695 38.332, 176.047 38.353, 175.135 39.265 C 174.177 40.223, 173.728 40.178, 173.035 39.056 C 172.304 37.873, 171.882 37.853, 170.576 38.937 C 169.418 39.898, 168.649 39.954, 167.676 39.146 C 166.712 38.346, 166.044 38.356, 165.219 39.181 C 164.373 40.027, 163.737 40.027, 162.719 39.181 C 161.695 38.332, 161.047 38.353, 160.135 39.265 C 159.177 40.223, 158.728 40.178, 158.035 39.056 C 157.285 37.844, 156.903 37.835, 155.500 39 C 154.096 40.165, 153.709 40.156, 152.924 38.936 C 152.126 37.696, 151.868 37.705, 151.031 39 C 150.254 40.201, 149.682 40.265, 148.159 39.322 C 146.706 38.422, 145.980 38.420, 145.087 39.313 C 144.193 40.207, 143.690 40.131, 142.958 38.992 C 142.130 37.703, 141.875 37.695, 141.076 38.936 C 140.291 40.156, 139.904 40.165, 138.500 39 C 137.100 37.838, 136.718 37.838, 136 39 C 135.348 40.055, 134.830 40.103, 133.752 39.209 C 132.686 38.324, 132.063 38.337, 131.135 39.265 C 130.177 40.223, 129.728 40.178, 129.035 39.056 C 128.285 37.844, 127.903 37.835, 126.500 39 C 125.096 40.165, 124.709 40.156, 123.924 38.936 C 123.121 37.688, 122.879 37.688, 122.076 38.936 C 121.291 40.156, 120.904 40.165, 119.500 39 C 118.097 37.835, 117.715 37.844, 116.965 39.056 C 116.272 40.178, 115.823 40.223, 114.865 39.265 C 113.974 38.374, 113.293 38.342, 112.324 39.146 C 111.351 39.954, 110.582 39.898, 109.424 38.937 C 108.118 37.853, 107.689 37.875, 106.924 39.064 C 106.121 40.312, 105.879 40.312, 105.076 39.064 C 104.363 37.956, 103.833 37.894, 102.752 38.791 C 101.763 39.611, 101.040 39.640, 100.289 38.889 C 99.538 38.138, 99.028 38.145, 98.554 38.913 C 97.450 40.699, 96.160 40.150, 95.820 37.750 C 95.548 35.839, 94.699 35.402, 90.185 34.851 C 87.261 34.494, 84.595 33.929, 84.261 33.594 C 83.926 33.259, 83.761 30.334, 83.893 27.093 C 84.030 23.734, 83.675 20.917, 83.067 20.541 C 82.363 20.106, 81.994 21.689, 81.983 25.191 M 205.477 48.038 C 204.229 50.056, 206.603 51.128, 211.610 50.810 C 215.152 50.586, 216.500 50.086, 216.500 49 C 216.500 47.128, 206.574 46.262, 205.477 48.038 M 225.185 48.750 C 225.417 49.973, 226.643 50.593, 229.258 50.810 C 232.470 51.077, 233 50.829, 233 49.060 C 233 47.317, 232.373 47, 228.927 47 C 225.588 47, 224.913 47.315, 225.185 48.750 M 215.500 58 C 215.104 58.640, 218.343 59, 224.500 59 C 230.657 59, 233.896 58.640, 233.500 58 C 233.160 57.450, 229.110 57, 224.500 57 C 219.890 57, 215.840 57.450, 215.500 58 M 276.750 66.723 C 278.538 66.945, 281.462 66.945, 283.250 66.723 C 285.038 66.502, 283.575 66.320, 280 66.320 C 276.425 66.320, 274.962 66.502, 276.750 66.723 M 274.500 72 C 274.115 72.623, 276.069 72.994, 279.691 72.985 C 283.810 72.974, 285.064 72.687, 284 72 C 282.026 70.724, 275.288 70.724, 274.500 72 M 158 83.826 C 158 85.547, 158.977 87.569, 160.500 89 C 163.312 91.642, 163.680 93, 161.584 93 C 160.805 93, 158.742 91.200, 157 89 C 152.425 83.223, 149.544 83.942, 150.734 90.563 C 151.774 96.354, 153.216 97, 165.116 97 C 177.612 97, 179.170 96.131, 180.858 88.218 C 182.382 81.072, 182.267 81, 169.393 81 L 158 81 158 83.826" stroke="none" fill-rule="evenodd"/>
</svg>