<svg xmlns="http://www.w3.org/2000/svg"   viewBox="0 0 431 222" version="1.1" fill="white">
	<path d="M 232.278 27.074 L 231.118 30.148 223.033 29.442 C 216.049 28.833, 214.679 28.980, 212.977 30.520 C 211.811 31.576, 211.342 32.752, 211.827 33.402 C 212.278 34.006, 212.456 38.155, 212.223 42.621 L 211.800 50.742 205.210 51.271 C 200.523 51.647, 198.249 52.307, 197.337 53.554 C 196.127 55.208, 191.763 55.276, 121.026 54.752 C 64.965 54.336, 45.812 54.487, 45.265 55.348 C 44.406 56.700, 43.982 60.519, 41.146 92.500 C 39.975 105.700, 38.561 120.072, 38.004 124.439 C 37.218 130.609, 37.271 132.554, 38.246 133.173 C 40.213 134.422, 46.654 134.134, 47.700 132.750 C 49.856 129.899, 61.389 87.414, 61.153 83.192 C 60.944 79.457, 61.350 78.475, 64.206 75.805 C 70.085 70.308, 73.423 68.272, 77.582 67.645 C 79.828 67.307, 109.078 67.007, 142.582 66.980 L 203.500 66.930 204 69.608 C 204.275 71.081, 205.175 72.638, 206 73.067 C 206.825 73.497, 218.236 74.531, 231.358 75.366 C 250.289 76.571, 255.580 77.215, 256.984 78.485 C 260.287 81.474, 260.079 86.144, 255.953 101.725 C 252.430 115.025, 252.038 117.723, 252.020 128.750 L 252 141 256.750 141 L 261.500 140.999 261.500 169.750 L 261.500 198.500 274.500 198.500 L 287.500 198.500 287.765 169.750 C 287.911 153.938, 288.412 141, 288.879 141 C 289.345 141, 289.963 133.238, 290.252 123.750 C 290.697 109.140, 291.149 105.352, 293.207 99 C 295.243 92.715, 295.950 91.563, 297.568 91.891 C 301.360 92.658, 317.313 93.138, 319.637 92.555 C 320.939 92.228, 325.095 89.045, 328.873 85.481 C 337.169 77.655, 340.474 76.599, 345.256 80.246 L 348.525 82.740 348.826 93.120 C 349.262 108.132, 353.367 139.491, 355.032 140.520 C 355.414 140.756, 361.188 139.992, 367.863 138.821 C 379.441 136.791, 380 136.582, 380 134.278 C 380 130.172, 373.241 101.068, 369.702 89.937 C 366.559 80.050, 366.439 79.175, 367.823 76.251 C 369.018 73.727, 370.241 72.902, 374.184 71.956 C 381.055 70.307, 384.068 71.740, 387.029 78.063 C 389.196 82.688, 391.162 84.165, 392.427 82.117 C 392.728 81.632, 392.149 78.819, 391.143 75.867 C 390.136 72.915, 389.046 68.814, 388.720 66.753 C 388.034 62.420, 388.490 62.187, 398.500 61.757 L 404.500 61.500 404.792 53.750 L 405.084 46 400.742 46 C 398.354 46, 395.841 45.441, 395.158 44.758 C 394.170 43.770, 393.737 43.807, 393.035 44.944 C 392.293 46.143, 391.894 46.157, 390.534 45.028 C 389.308 44.011, 388.634 43.966, 387.758 44.842 C 387.121 45.479, 385.227 45.948, 383.550 45.884 C 381.867 45.820, 381.284 45.563, 382.250 45.311 C 384.539 44.713, 384.520 42, 382.227 42 C 381.214 42, 379.615 40.440, 378.495 38.360 C 377.417 36.358, 374.727 33.546, 372.517 32.110 C 370.308 30.675, 368.350 29.163, 368.167 28.750 C 367.709 27.721, 365 27.799, 365 28.842 C 365 30.260, 356.770 32.295, 351.837 32.097 C 349.273 31.994, 346.908 32.340, 346.583 32.866 C 346.215 33.462, 344.802 33.385, 342.839 32.662 C 340.402 31.763, 339.593 31.775, 339.272 32.714 C 338.948 33.662, 338.435 33.664, 336.929 32.723 C 335.417 31.780, 334.567 31.789, 333 32.768 C 331.814 33.508, 331 33.606, 331 33.008 C 331 31.675, 327.299 31.707, 326.470 33.049 C 326.031 33.759, 325.340 33.697, 324.330 32.859 C 323.165 31.892, 322.417 31.883, 320.919 32.819 C 319.428 33.750, 318.572 33.750, 317.081 32.819 C 315.552 31.864, 314.808 31.913, 313.419 33.060 C 312.076 34.169, 311.578 34.212, 311.254 33.250 C 310.756 31.769, 307.380 31.577, 306.513 32.980 C 306.131 33.596, 305.184 33.507, 303.954 32.739 C 302.454 31.803, 301.565 31.791, 300.128 32.688 C 298.715 33.571, 297.974 33.574, 297.103 32.703 C 296.232 31.832, 295.467 31.852, 293.975 32.784 C 292.435 33.746, 291.578 33.753, 290.081 32.819 C 288.618 31.905, 287.829 31.897, 286.757 32.786 C 285.729 33.640, 285.055 33.655, 284.243 32.843 C 283.598 32.198, 282.375 32.062, 281.317 32.518 C 278.429 33.764, 277 33.894, 277 32.912 C 277 31.687, 273.276 31.744, 272.513 32.980 C 272.129 33.600, 271.221 33.531, 270.035 32.790 C 268.563 31.870, 267.789 31.928, 266.419 33.060 C 265.076 34.169, 264.578 34.212, 264.254 33.250 C 263.731 31.697, 260 31.585, 260 33.122 C 260 33.872, 259.475 33.809, 258.419 32.933 C 257.237 31.952, 256.394 31.898, 255.079 32.718 C 254.003 33.391, 252.774 33.470, 251.911 32.924 C 249.973 31.697, 245.626 31.774, 244.342 33.058 C 243.598 33.802, 242.027 32.616, 239.049 29.058 C 236.719 26.276, 234.504 24, 234.126 24 C 233.748 24, 232.916 25.383, 232.278 27.074 M 299.701 75.688 C 297.360 80.340, 296.955 84.491, 298.611 86.855 C 299.812 88.570, 301.132 89, 305.192 89 L 310.270 89 307.551 86.862 C 305.077 84.916, 304.863 84.220, 305.167 79.112 C 305.472 73.976, 305.314 73.474, 303.308 73.188 C 301.736 72.964, 300.715 73.672, 299.701 75.688 M 310.161 75.547 C 308.662 78.836, 308.704 79.909, 310.463 83.281 C 311.261 84.810, 311.660 86.723, 311.350 87.531 C 310.908 88.683, 311.717 89, 315.105 89 C 318.834 89, 320.010 88.425, 323.712 84.792 C 331.087 77.554, 328.816 73, 317.832 73 C 311.825 73, 311.231 73.197, 310.161 75.547" stroke="none" fill-rule="evenodd"/>
</svg>