<svg xmlns="http://www.w3.org/2000/svg"   viewBox="0 0 680 222" version="1.1" fill="white">
	<path d="M 396.750 38.080 C 395.379 38.879, 395 40.452, 395 45.348 L 395 51.597 422.500 51.459 C 437.625 51.383, 450 51.468, 450 51.647 C 450 52.315, 435.132 59, 433.646 59 C 432.795 59, 431.701 59.712, 431.214 60.582 C 430.423 61.996, 429.425 61.889, 421.863 59.582 C 414.618 57.373, 411.521 57, 400.398 57 C 392.187 57, 386.990 56.590, 386.287 55.887 C 385.644 55.244, 379.646 54.550, 372.090 54.244 C 362.832 53.868, 358.677 53.316, 357.881 52.356 C 356.428 50.606, 354.085 50.616, 353.409 52.376 C 353.057 53.293, 350.267 53.980, 345.042 54.436 C 338.447 55.011, 337.121 55.428, 336.695 57.060 C 336.396 58.201, 335.325 59, 334.094 59 C 332.645 59, 332 59.636, 332 61.063 C 332 62.622, 332.543 63.049, 334.225 62.813 C 335.706 62.605, 336.567 63.085, 336.799 64.250 C 337.300 66.769, 333.478 66.521, 331.654 63.916 C 330.265 61.934, 329.573 61.861, 317.347 62.411 C 301.641 63.119, 301.623 63.119, 285.250 62.412 L 272 61.841 272 58.031 C 272 55.824, 271.227 53.267, 270.163 51.953 C 268.464 49.855, 267.342 49.650, 255.166 49.210 L 242.006 48.735 236.822 44.867 C 230.961 40.495, 228.867 40.133, 226 43 C 224.292 44.708, 224 46.333, 224 54.140 C 224 61.174, 224.351 63.535, 225.523 64.390 C 226.662 65.219, 223.753 65.423, 214.023 65.194 C 201.450 64.899, 201 64.960, 201 66.944 C 201 68.676, 200.369 69, 197 69 C 194.800 69, 193 68.550, 193 68 C 193 67.436, 190.178 67, 186.535 67 C 180.854 67, 179.924 67.273, 178.866 69.250 C 178.204 70.487, 177.851 71.725, 178.081 72 C 179.184 73.316, 163.425 73.810, 117.424 73.901 L 67.349 74 65.139 71.648 C 62.492 68.830, 57.799 67.321, 48.875 66.419 C 42.899 65.815, 42.036 65.964, 40.060 67.940 C 38.417 69.583, 38.024 70.833, 38.488 72.945 C 40.582 82.477, 40.581 121.898, 38.487 141.894 L 37.713 149.288 47.107 148.715 C 59.418 147.965, 63.671 146.500, 66.915 141.890 C 68.777 139.244, 78.103 132.679, 100.275 118.408 C 117.201 107.513, 132.440 98.014, 134.140 97.299 C 137.454 95.906, 160.131 95.507, 172.047 96.633 C 177.633 97.160, 178.615 97.543, 178.743 99.239 C 178.959 102.107, 179.375 102.304, 186.027 102.693 C 190.722 102.967, 192.174 102.709, 192.630 101.522 C 193.010 100.531, 194.532 100, 196.990 100 C 199.926 100, 200.883 100.445, 201.290 102 C 201.775 103.856, 202.654 104, 213.496 104 C 223.860 104, 225.367 104.221, 226.840 105.956 C 228.112 107.456, 229.958 107.963, 234.743 108.130 C 238.176 108.250, 241.289 108.044, 241.659 107.674 C 243.708 105.625, 246.332 107.413, 250.103 113.429 C 252.320 116.965, 255.200 120.556, 256.503 121.410 C 261.135 124.445, 260.505 136.441, 255.616 138.317 C 253.197 139.246, 245.777 151.020, 242.904 158.490 C 239.291 167.884, 237.372 176.772, 238.674 178.074 C 239.931 179.331, 268.603 182.863, 270.090 181.944 C 270.805 181.503, 270.937 179.348, 270.477 175.662 L 269.776 170.053 278.487 153.966 L 287.199 137.880 297.459 138.567 C 309.458 139.371, 316.678 137.667, 319.494 133.368 C 320.404 131.980, 322.421 130.400, 323.978 129.858 C 326.330 129.038, 326.951 128.081, 327.658 124.186 C 328.398 120.111, 328.857 119.460, 331.177 119.191 C 333.425 118.931, 333.949 118.263, 334.510 114.941 L 335.176 111 340.588 111 L 346 111 346 115.418 C 346 120.806, 345.238 123, 343.368 123 C 340.333 123, 339.667 128.198, 339.845 150.500 C 339.942 162.600, 340.353 175.200, 340.760 178.500 L 341.500 184.500 362.701 184.770 L 383.902 185.039 384.541 181.636 C 385.373 177.200, 384.511 128.152, 383.552 125.342 C 383.147 124.156, 381.957 122.960, 380.908 122.686 C 379.196 122.238, 379 121.189, 379 112.451 L 379 102.715 385.147 103.358 C 388.527 103.711, 412.347 104, 438.079 104 L 484.865 104 485.540 106.125 C 485.911 107.294, 485.756 108.533, 485.196 108.879 C 484.533 109.288, 484.489 111.075, 485.068 114.004 C 485.636 116.874, 485.557 120.878, 484.850 125.077 C 484.067 129.721, 484.046 133.395, 484.776 137.577 C 485.609 142.351, 485.537 143.806, 484.405 145.079 C 480.962 148.948, 484.208 154, 490.138 154 C 495.187 154, 497.466 152.022, 496.582 148.406 C 495.515 144.046, 495.587 143.055, 497.476 136.057 C 498.716 131.462, 499.026 127.948, 498.558 123.807 L 497.901 118 502.754 118 C 506.931 118, 508.053 117.541, 510.804 114.702 C 513.134 112.298, 514.004 110.470, 514.014 107.952 C 514.042 100.760, 514.673 100, 520.617 100 L 526 100 526 105.927 C 526 111.077, 526.332 112.116, 528.529 113.844 C 532.077 116.635, 539.712 116.584, 542.750 113.750 C 544.713 111.919, 545 110.653, 545 103.826 L 545 96 541.417 96 C 538.994 96, 537.968 95.595, 538.250 94.750 C 538.479 94.063, 539.304 93.500, 540.083 93.500 C 540.885 93.500, 541.637 92.307, 541.816 90.750 C 542.032 88.876, 541.674 88, 540.691 88 C 539.472 88, 538 84.104, 538 80.875 C 538 80.394, 546.523 80, 556.941 80 C 568.490 80, 576.123 79.610, 576.500 79 C 577.349 77.626, 613 77.647, 613 79.021 C 613 79.691, 619.800 79.949, 632.750 79.771 L 652.500 79.500 652.816 75.080 C 653.468 65.956, 654.680 66.455, 632.794 66.832 C 622.182 67.014, 613.073 67.577, 612.550 68.082 C 611.237 69.350, 577.287 69.273, 576.500 68 C 576.121 67.387, 568.048 67, 555.617 67 L 535.353 67 532.176 57.240 C 530.429 51.873, 529 46.923, 529 46.240 C 529 45.420, 527.321 45, 524.039 45 C 519.145 45, 519.064 45.051, 518.106 48.750 C 517.572 50.813, 516.667 54.300, 516.096 56.501 C 515.424 59.088, 514.253 60.854, 512.779 61.501 C 511.525 62.050, 510.356 63.513, 510.180 64.750 L 509.861 67 478.430 67 L 447 67 447 64.545 C 447 62.484, 447.602 61.992, 450.750 61.478 C 459.092 60.115, 460.128 59.734, 461.602 57.484 C 463.938 53.919, 463.798 40.056, 461.408 38.309 C 459.154 36.661, 399.548 36.450, 396.750 38.080 M 270 65 C 270 65.550, 270.450 66, 271 66 C 271.550 66, 272 65.550, 272 65 C 272 64.450, 271.550 64, 271 64 C 270.450 64, 270 64.450, 270 65 M 634.500 72 C 634.840 72.550, 637.341 73, 640.059 73 C 642.777 73, 645 72.550, 645 72 C 645 71.450, 642.498 71, 639.441 71 C 635.990 71, 634.116 71.379, 634.500 72 M 192.975 75.565 C 191.904 78.382, 191.640 91.899, 192.607 94.418 C 193.017 95.486, 194.480 96, 197.107 96 L 201 96 201 84.500 L 201 73 197.475 73 C 194.612 73, 193.768 73.481, 192.975 75.565 M 637.250 77.689 C 638.212 77.941, 639.788 77.941, 640.750 77.689 C 641.712 77.438, 640.925 77.232, 639 77.232 C 637.075 77.232, 636.288 77.438, 637.250 77.689 M 70.963 82.750 C 70.736 87.362, 71.170 125.503, 71.453 125.786 C 71.662 125.995, 81.122 120.205, 92.475 112.919 C 113.646 99.334, 116.034 97.136, 115.968 91.300 C 115.933 88.162, 114.662 86.209, 111.027 83.704 C 108.913 82.247, 105.834 82, 89.777 82 C 79.450 82, 70.983 82.338, 70.963 82.750 M 167.415 82.917 C 167.187 83.146, 167 84.206, 167 85.274 C 167 86.632, 167.474 87.032, 168.582 86.607 C 169.452 86.273, 172.152 86, 174.582 86 C 177.713 86, 179 85.590, 179 84.593 C 179 83.591, 177.387 83.086, 173.415 82.843 C 170.342 82.654, 167.642 82.688, 167.415 82.917 M 302.751 122.190 C 302.167 126.107, 303.338 129.651, 306.241 132.750 C 309.228 135.939, 306.905 135.600, 299.790 131.807 L 293.799 128.614 291.922 131.057 C 288.190 135.913, 289.697 136.812, 302 137.070 C 306.311 137.160, 310.776 136.673, 312.500 135.924 C 316.960 133.989, 321 129.927, 321 127.378 C 321 126.142, 321.439 123.976, 321.975 122.565 L 322.950 120 314.557 120 C 309.941 120, 305.507 119.748, 304.704 119.440 C 303.654 119.037, 303.106 119.809, 302.751 122.190" stroke="none" fill-rule="evenodd"/>
</svg>