<svg xmlns="http://www.w3.org/2000/svg"   viewBox="0 0 662 222" version="1.1" fill="white">
	<path d="M 261.082 48.771 C 259.251 49.427, 255.368 53.741, 253.451 57.250 C 252.625 58.763, 251.354 60, 250.628 60 C 249.901 60, 242.375 63.321, 233.903 67.379 C 208.579 79.511, 186.249 88, 179.662 88 C 176.926 88, 175.612 87.319, 173.746 84.934 L 171.346 81.868 106.541 87.950 C 38.882 94.299, 36.577 94.664, 33.396 99.518 C 30.880 103.358, 29.988 116.962, 31.016 135.801 C 32.922 170.689, 35.057 175.765, 46.500 172.615 C 49.250 171.857, 76.250 161.446, 106.500 149.479 C 136.750 137.511, 162.347 127.490, 163.382 127.209 C 164.562 126.888, 165.867 127.491, 166.882 128.825 C 168.850 131.413, 179.065 132.654, 189.334 131.555 L 195.938 130.847 196.620 127.174 C 199.482 111.755, 215.537 99.349, 231.532 100.198 L 237.232 100.500 239.177 105.725 C 241.989 113.281, 244.649 115.010, 253.385 114.956 C 264.537 114.888, 268.349 113.706, 279.801 106.766 C 285.685 103.199, 292.030 99.768, 293.899 99.141 C 298.165 97.709, 349.600 97.544, 350.475 98.959 C 350.819 99.515, 353.784 99.665, 357.534 99.315 C 363.480 98.759, 364 98.867, 364 100.656 C 364 103.788, 371.782 107, 379.370 107 C 385.591 107, 438.058 104.428, 492.119 101.472 C 507.310 100.642, 520.439 100.231, 521.295 100.560 C 522.290 100.942, 523.460 100.227, 524.541 98.578 C 525.911 96.487, 527.021 96, 530.415 96 C 532.717 96, 535.095 96.495, 535.701 97.101 C 536.844 98.244, 554.794 97.423, 556.675 96.141 C 557.193 95.788, 558.377 94.387, 559.308 93.027 C 563.263 87.249, 559.805 79, 553.427 79 C 551.542 79, 550 78.550, 550 78 C 550 77.404, 554.341 76.945, 560.750 76.864 C 566.663 76.789, 573.075 76.606, 575 76.458 C 576.925 76.310, 591.177 76.146, 606.671 76.094 L 634.841 76 635.500 73 C 635.862 71.350, 635.862 68.650, 635.500 67 C 634.893 64.237, 634.503 64, 630.567 64 C 627.415 64, 625.597 63.356, 623.646 61.548 C 622.191 60.199, 621 58.601, 621 57.997 C 621 56.591, 614.846 54, 611.507 54 C 609.700 54, 608.672 54.733, 608 56.500 C 607.477 57.875, 606.588 59, 606.025 59 C 605.461 59, 605 59.482, 605 60.071 C 605 60.661, 604.284 61.858, 603.410 62.733 C 601.968 64.175, 591.197 64.266, 487.728 63.713 C 386.091 63.169, 373.542 62.933, 372.769 61.551 C 372.006 60.188, 366.770 60, 329.473 60 L 287.046 60 285.408 57.500 C 284.059 55.441, 282.969 55, 279.231 55 C 275.951 55, 273.002 54.066, 268.596 51.632 C 265.243 49.779, 261.862 48.492, 261.082 48.771 M 607.351 62.250 C 607.093 62.663, 609.860 63, 613.500 63 C 617.833 63, 619.896 62.640, 619.474 61.959 C 618.760 60.802, 608.096 61.058, 607.351 62.250 M 531.500 80 C 531.160 80.550, 531.809 81, 532.941 81 C 534.073 81, 535 80.550, 535 80 C 535 79.450, 534.352 79, 533.559 79 C 532.766 79, 531.840 79.450, 531.500 80 M 250.200 101.200 C 248.279 103.121, 248.799 107.735, 251.189 109.961 C 253.031 111.677, 253.110 112, 251.689 112 C 249.261 112, 246.035 108.425, 245.344 104.969 C 244.490 100.702, 243 101.311, 243 105.927 C 243 108.878, 243.595 110.323, 245.391 111.735 C 247.475 113.375, 248.766 113.521, 255.482 112.880 C 264.340 112.034, 267 110.340, 267 105.545 C 267 100.960, 265.442 100, 258 100 C 254.200 100, 250.891 100.509, 250.200 101.200" stroke="none" fill-rule="evenodd"/>
</svg>