<svg xmlns="http://www.w3.org/2000/svg"   viewBox="0 0 204 150" version="1.1" fill="white">
	<path d="M 47.724 28.163 C 46.414 31.680, 44.775 38.317, 44.545 41.033 C 44.520 41.326, 42.844 43.870, 40.820 46.688 C 38.208 50.323, 36.232 52.010, 34.014 52.497 C 29.500 53.488, 30.540 55.867, 36.500 58.180 C 48.229 62.731, 48.975 67.326, 41.255 87.500 C 36.089 101.002, 31.220 120.524, 32.310 123.365 C 32.727 124.451, 34.122 125, 36.469 125 C 38.411 125, 40 125.450, 40 126 C 40 126.628, 46.344 127, 57.031 127 C 71.913 127, 74.142 126.792, 74.694 125.355 C 75.080 124.348, 74.606 123.185, 73.471 122.355 C 71.995 121.276, 71.930 121, 73.152 121 C 74.270 121, 75.565 117.695, 77.925 108.822 C 79.706 102.124, 81.567 94.161, 82.061 91.126 C 83.262 83.748, 86.459 80.966, 92.413 82.121 C 97.478 83.102, 110.781 83.207, 122.736 82.358 L 131.779 81.716 130.901 78.653 C 130.382 76.844, 130.415 73.117, 130.982 69.545 C 132.317 61.140, 134.868 59, 143.556 59 C 147.185 59, 150 58.563, 150 58 C 150 57.450, 150.900 57, 152 57 C 153.100 57, 154 57.450, 154 58 C 154 58.550, 154.900 59, 156 59 C 157.100 59, 158 58.550, 158 58 C 158 56.621, 160.599 56.747, 163.144 58.250 C 164.838 59.250, 165.352 59.250, 165.714 58.250 C 166.250 56.770, 170 56.551, 170 58 C 170 59.598, 175.004 59.154, 175.638 57.500 C 175.955 56.675, 176.841 56, 177.607 56 C 178.735 56, 179 53.172, 179 41.117 L 179 26.233 176.595 25.773 C 175.273 25.521, 160.985 25.660, 144.845 26.083 C 117.485 26.800, 64.322 25.840, 53.919 24.442 L 49.338 23.826 47.724 28.163 M 91.134 62.329 C 89.421 63.523, 87.744 65.337, 87.408 66.360 C 86.308 69.701, 89.949 75.801, 94.593 78.396 C 98.656 80.667, 99.539 80.765, 111.270 80.259 C 118.992 79.925, 124.320 79.239, 125.417 78.437 C 127.657 76.799, 128.788 66.340, 127.071 63.132 C 125.955 61.048, 125.338 60.948, 115.197 61.217 L 104.500 61.500 104.542 66.738 C 104.579 71.313, 105.015 72.420, 107.988 75.488 L 111.392 79 108.773 79 C 104.249 79, 100.425 74.751, 98.479 67.562 C 97.519 64.014, 96.174 60.897, 95.491 60.635 C 94.808 60.373, 92.847 61.135, 91.134 62.329" stroke="none" fill-rule="evenodd"/>
</svg>