<svg xmlns="http://www.w3.org/2000/svg"   viewBox="0 0 445 222" version="1.1" fill="white">
	<path d="M 351 28.434 C 351 34.694, 350.725 36, 349.404 36 C 347.219 36, 342 39.837, 342 41.443 C 342 42.162, 340.762 42.961, 339.250 43.218 C 337.048 43.593, 277.951 43.490, 273.250 43.103 C 272.563 43.046, 272 41.897, 272 40.550 C 272 39.202, 271.297 37.706, 270.437 37.225 C 269.019 36.431, 269.019 36.229, 270.437 35.052 C 272.208 33.582, 272.547 28.456, 270.938 27.462 C 270.354 27.101, 269.466 25.724, 268.963 24.403 C 268.403 22.931, 267.245 22, 265.974 22 C 263.477 22, 261 27.201, 261 32.445 C 261 35.088, 260.381 36.360, 258.489 37.599 C 257.108 38.504, 255.340 40.652, 254.560 42.372 C 251.450 49.231, 247 63.944, 247 67.369 L 247 71 137.079 71 L 27.159 71 26.495 74.021 C 26.131 75.682, 26.340 84.344, 26.960 93.271 C 27.580 102.197, 27.956 121.650, 27.794 136.500 L 27.500 163.500 75.911 163.500 L 124.322 163.500 125.495 160 C 126.264 157.704, 127.389 156.393, 128.762 156.190 C 129.914 156.019, 139.439 158.941, 149.928 162.683 C 166.820 168.709, 169 169.737, 169 171.678 C 169 172.884, 169.409 174.946, 169.910 176.262 C 170.749 178.469, 171.657 178.745, 181.660 179.829 C 206.857 182.558, 225.060 180.293, 241.375 172.397 C 250.355 168.051, 258.874 161.227, 263.654 154.551 C 265.623 151.801, 266.362 151.550, 274.632 150.814 C 287.317 149.686, 287.608 150.246, 283.570 167.997 C 282.029 174.771, 281.541 178.716, 282.194 179.120 C 284.071 180.280, 296.159 181.081, 302.351 180.455 C 311.052 179.576, 320.618 176.312, 326.817 172.107 C 331.168 169.156, 332.834 167.126, 335.981 160.945 C 339.908 153.229, 342 145.018, 342 137.316 C 342 130.661, 344.272 129, 353.378 129 C 358.094 129, 361.133 129.455, 361.802 130.261 C 362.377 130.955, 363.220 135.342, 363.674 140.011 L 364.500 148.500 371.750 148.794 L 379 149.088 379.092 145.794 C 379.142 143.982, 379.521 136.425, 379.934 129 C 380.627 116.526, 380.530 115.215, 378.658 111.750 C 377.544 109.688, 376.152 107.993, 375.566 107.985 C 374.980 107.976, 375.175 107.533, 376 107 C 377.992 105.713, 383 105.729, 383 107.023 C 383 107.692, 389.304 107.951, 401.250 107.773 L 419.500 107.500 419.143 102.501 C 418.946 99.752, 418.270 95.927, 417.639 94.001 L 416.493 90.500 400.573 90.224 C 390.645 90.051, 384.266 90.334, 383.626 90.974 C 383.062 91.538, 381.002 91.955, 379.050 91.900 C 375.925 91.813, 375.799 91.718, 378 91.106 C 380.498 90.413, 380.500 90.400, 380.777 76.330 L 381.053 62.247 373.441 53.123 C 366.668 45.006, 365.465 44, 362.528 44 C 358.689 44, 358.272 42.873, 357.163 29.500 C 356.517 21.704, 356.430 21.492, 353.750 21.184 L 351 20.867 351 28.434 M 252.667 51.667 C 252.300 52.033, 252 53.046, 252 53.917 C 252 55.274, 253.537 55.475, 262.750 55.328 C 272.801 55.168, 273.521 55.022, 273.820 53.078 C 274.126 51.087, 273.706 51, 263.736 51 C 258.015 51, 253.033 51.300, 252.667 51.667 M 274.495 63.595 C 274.223 64.918, 273.766 67.125, 273.481 68.500 L 272.962 71 307.416 71 C 327.302 71, 342.951 70.589, 344.426 70.028 C 349.252 68.193, 349.983 69.377, 350.189 79.357 C 350.337 86.516, 350.458 87.198, 350.744 82.500 C 350.945 79.200, 351.535 76.072, 352.055 75.550 C 353.789 73.807, 353.028 70.970, 350.519 69.827 C 349.155 69.205, 347.793 67.922, 347.492 66.975 C 346.763 64.677, 342.231 64.024, 326.905 64.011 C 315.591 64.001, 288.500 62.641, 278.745 61.592 C 275.434 61.237, 274.932 61.473, 274.495 63.595 M 289.501 117.434 L 285.859 120.869 286.134 128.934 L 286.409 137 291.519 137 C 296.368 137, 296.714 137.178, 298.287 140.475 C 301.673 147.576, 311.176 148.509, 317.168 142.327 C 319.879 139.529, 320.500 138.099, 320.500 134.650 C 320.500 129.581, 317.879 125.158, 314.009 123.697 C 312.286 123.047, 310.611 121.246, 309.602 118.958 C 308.147 115.661, 307.482 115.201, 303.347 114.634 C 294.979 113.487, 293.333 113.820, 289.501 117.434 M 190.311 121.250 C 185.910 125.763, 185.096 127.222, 184.517 131.636 C 183.416 140.033, 187.662 146.668, 195.646 149.029 C 199.467 150.158, 200.448 150.006, 208.146 147.084 C 218.545 143.137, 229.385 136.089, 231.577 131.851 C 233.692 127.761, 232.930 121.619, 229.908 118.402 C 227.707 116.059, 227.257 116, 211.542 116 L 195.432 116 190.311 121.250" stroke="none" fill-rule="evenodd"/>
</svg>