<svg xmlns="http://www.w3.org/2000/svg"   viewBox="0 0 266 177" version="1.1" fill="white">
	<path d="M 121.255 37.131 C 120.726 39.157, 120.299 39.229, 112.654 38.591 C 108.229 38.223, 104.116 37.511, 103.513 37.011 C 102.278 35.986, 99.572 39.499, 100.473 40.957 C 101.456 42.547, 99.092 47, 97.265 47 C 96.284 47, 94.919 47.900, 94.232 49 C 92.647 51.538, 90.995 51.520, 86.581 48.915 C 83.918 47.344, 82.241 47.010, 79.774 47.557 L 76.500 48.283 80.500 49.645 C 82.700 50.395, 85.512 52.155, 86.749 53.558 L 88.997 56.108 83.670 58.911 C 80.739 60.452, 76.735 62.015, 74.771 62.383 C 70.023 63.274, 68.744 65.061, 67.933 71.936 C 67.366 76.742, 66.257 79.182, 61.254 86.623 C 53.960 97.470, 48.838 107.480, 44.449 119.466 C 42.630 124.435, 39.942 131.409, 38.476 134.964 L 35.810 141.428 37.936 143.149 C 40.965 145.602, 49.926 147.222, 60.281 147.189 C 70.548 147.157, 74.375 145.924, 75.941 142.143 C 76.552 140.666, 78.617 138.210, 80.529 136.684 C 83.921 133.978, 83.969 133.840, 82.503 131.005 C 80.437 127.010, 80.600 125.629, 83.550 122.123 C 85.981 119.234, 86.028 118.954, 84.550 116.096 C 82.501 112.134, 82.591 110.789, 85.123 107.570 C 87.170 104.968, 87.556 104.880, 95.873 105.125 C 102.067 105.307, 105.346 105.888, 107.500 107.186 C 111.475 109.580, 118.584 109.502, 125.298 106.990 C 132.132 104.433, 134.762 101.594, 136.526 94.874 C 138.423 87.641, 140.636 86, 148.491 86 L 154.760 86 155.179 80.205 C 155.629 73.981, 158.042 69.545, 161.500 68.584 C 162.600 68.278, 168.848 68.021, 175.385 68.014 C 187.044 68, 187.319 67.948, 189.807 65.264 C 191.424 63.519, 192.492 62.975, 192.755 63.764 C 192.981 64.444, 194.704 65, 196.583 65 C 198.463 65, 200 65.450, 200 66 C 200 66.550, 201.125 67, 202.500 67 C 203.875 67, 205 67.450, 205 68 C 205 69.466, 217.349 69.251, 218.842 67.758 C 219.830 66.770, 220.248 66.784, 220.893 67.828 C 221.400 68.648, 223.163 69.019, 225.602 68.819 C 229.487 68.501, 229.502 68.483, 230.038 63.500 C 230.334 60.750, 231.172 57.422, 231.901 56.104 C 234.058 52.205, 232.807 44.091, 229.628 41.357 C 228.183 40.113, 227 38.667, 227 38.142 C 227 36.995, 217.534 35.552, 216.046 36.472 C 215.471 36.827, 215 37.664, 215 38.331 C 215 39.030, 212.258 40.064, 208.526 40.772 C 200.099 42.371, 196 42.347, 196 40.699 C 196 39.115, 187.823 35, 184.673 35 C 183.423 35, 181.911 35.489, 181.313 36.087 C 180.530 36.870, 180.038 36.870, 179.554 36.087 C 178.668 34.654, 175.270 34.689, 174.788 36.136 C 174.516 36.952, 173.810 36.898, 172.286 35.946 C 170.592 34.889, 169.860 34.871, 168.670 35.859 C 167.660 36.697, 166.969 36.759, 166.530 36.049 C 165.663 34.646, 162.264 34.709, 161.788 36.136 C 161.516 36.952, 160.810 36.898, 159.286 35.946 C 157.592 34.889, 156.860 34.871, 155.670 35.859 C 154.660 36.697, 153.969 36.759, 153.530 36.049 C 152.629 34.591, 149.256 34.733, 148.746 36.250 C 148.422 37.212, 147.924 37.169, 146.581 36.060 C 145.246 34.958, 144.418 34.882, 143.047 35.738 C 141.720 36.567, 140.958 36.558, 140.103 35.703 C 139.232 34.832, 138.417 34.883, 136.770 35.911 C 135.216 36.882, 134.482 36.947, 134.212 36.136 C 133.731 34.693, 130.737 34.663, 129.313 36.087 C 128.530 36.870, 128.038 36.870, 127.554 36.087 C 126.317 34.086, 121.859 34.825, 121.255 37.131 M 110 47 C 110 47.550, 110.450 48, 111 48 C 111.550 48, 112 47.550, 112 47 C 112 46.450, 111.550 46, 111 46 C 110.450 46, 110 46.450, 110 47 M 196.750 61.662 C 197.438 61.940, 198.563 61.940, 199.250 61.662 C 199.938 61.385, 199.375 61.158, 198 61.158 C 196.625 61.158, 196.063 61.385, 196.750 61.662 M 143 69.059 C 143 72.844, 143.375 74.886, 144 74.500 C 144.550 74.160, 145 71.434, 145 68.441 C 145 65.448, 144.550 63, 144 63 C 143.443 63, 143 65.686, 143 69.059 M 110 72.500 C 110 73.325, 110.450 74, 111 74 C 111.550 74, 112 73.325, 112 72.500 C 112 71.675, 111.550 71, 111 71 C 110.450 71, 110 71.675, 110 72.500 M 121.378 84.544 C 121.704 85.393, 120.775 87.894, 119.313 90.103 C 116.086 94.979, 116.813 98.399, 121.733 101.494 C 125.450 103.831, 125.988 105.418, 122.750 104.490 C 117.722 103.050, 113.260 96.346, 113.928 91.237 C 114.019 90.542, 113.285 89.721, 112.297 89.414 C 111.309 89.106, 109.719 88.437, 108.764 87.927 C 106.317 86.621, 106.225 86.665, 104.526 89.950 C 101.765 95.289, 103.371 102.607, 107.889 105.276 C 114.024 108.899, 129.999 105.728, 132.789 100.333 C 134.514 96.997, 135.078 91.265, 133.929 88.743 C 131.990 84.488, 119.791 80.406, 121.378 84.544" stroke="none" fill-rule="evenodd"/>
</svg>