<svg xmlns="http://www.w3.org/2000/svg"   viewBox="0 0 593 189" version="1.1" fill="white">
	<path d="M 160.803 41.540 C 140.248 44.400, 116.626 53.354, 102.045 63.811 C 97.503 67.068, 89.709 70.815, 76.524 76.081 L 57.542 83.661 51.521 82.176 C 47.970 81.299, 43.147 79.057, 39.765 76.710 C 32.690 71.802, 31.766 72.313, 29.662 82.298 C 26.086 99.268, 27.326 119.761, 32.458 128.519 C 37.229 136.660, 55.242 148.586, 61.606 147.818 C 63.626 147.574, 64.598 146.572, 65.793 143.500 C 66.649 141.300, 69.529 135.636, 72.194 130.913 C 76.288 123.659, 78.648 120.914, 87.404 113.226 C 100.666 101.579, 106.423 98, 111.893 98 C 119.370 98, 122.200 99.959, 127.308 108.672 C 132.574 117.656, 135.442 120.163, 143.026 122.415 C 154.574 125.844, 165.811 123.466, 181 114.379 C 194.045 106.574, 204.142 102.278, 212.901 100.804 C 218.029 99.942, 220.428 99.079, 220.711 97.997 C 220.936 97.138, 222.555 95.858, 224.310 95.152 C 226.064 94.446, 228.281 93.448, 229.236 92.935 C 230.191 92.421, 235.141 91.984, 240.236 91.964 C 245.331 91.944, 256.917 91.513, 265.982 91.007 C 281.653 90.133, 282.567 90.184, 284.546 92.044 C 286.064 93.470, 288.044 94, 291.848 94 C 296.756 94, 297.191 93.790, 299.138 90.490 L 301.209 86.980 346.855 87.240 L 392.500 87.500 392.812 90.726 C 393.032 93.006, 394.058 94.618, 396.312 96.226 L 399.500 98.500 463.500 98.500 L 527.500 98.500 531.186 95.680 C 533.213 94.129, 535.136 91.654, 535.460 90.180 C 536.009 87.674, 536.355 87.520, 540.774 87.815 C 543.631 88.006, 546.214 87.599, 547.306 86.787 C 549.905 84.855, 551.280 77.755, 549.986 72.949 C 548.823 68.628, 546.671 67, 542.125 67 C 538.683 67, 537.604 65.824, 538.489 63.036 C 539.006 61.405, 540.193 61.041, 545.803 60.794 L 552.500 60.500 552.788 52.404 C 552.995 46.589, 552.701 43.996, 551.744 43.202 C 550.794 42.414, 515.325 41.938, 428.456 41.546 C 361.380 41.244, 275.900 40.815, 238.500 40.593 C 185.097 40.277, 168.418 40.480, 160.803 41.540 M 148.898 99.287 C 144.100 102.515, 142.498 107.704, 144.643 113.066 C 146.707 118.223, 145.874 119.035, 142.859 114.808 C 140.987 112.182, 140.500 110.215, 140.500 105.269 L 140.500 99.038 137.551 101.988 C 131.524 108.015, 134.755 115.624, 144.552 118.472 C 151.134 120.385, 156.135 120.392, 162.383 118.497 C 176.016 114.361, 181.913 105.470, 174.923 99.589 C 172.072 97.190, 171.129 97, 162.071 97 C 153.545 97, 151.862 97.292, 148.898 99.287" stroke="none" fill-rule="evenodd"/>
</svg>