<svg xmlns="http://www.w3.org/2000/svg"   viewBox="0 0 678 222" version="1.1" fill="white">
	<path d="M 283 34 C 283 35.100, 282.599 36, 282.108 36 C 281.618 36, 280.921 37.179, 280.559 38.621 C 279.486 42.897, 277.623 44, 271.478 44 C 266.654 44, 265.735 43.703, 265.290 42 C 264.819 40.201, 263.926 40, 256.383 40 C 248.667 40, 248 40.159, 248 42 C 248 44.261, 244.299 44.765, 240.932 42.964 C 238.868 41.859, 195.706 41.446, 193.978 42.514 C 192.800 43.241, 192.689 58.961, 193.847 60.787 C 194.487 61.796, 199.523 61.983, 217.082 61.651 C 229.412 61.418, 241.412 60.904, 243.750 60.509 L 248 59.790 248 68.328 C 248 78.357, 248.686 77.845, 235.305 77.804 L 226.110 77.775 225.805 74.638 C 225.500 71.503, 225.494 71.500, 219.500 71.500 C 215.249 71.500, 212.131 70.826, 208.803 69.186 C 204.960 67.294, 203.716 67.082, 201.959 68.022 C 200.778 68.654, 197.492 69.382, 194.656 69.640 C 189.361 70.122, 186.242 71.965, 187.441 73.904 C 187.813 74.507, 188.965 75, 190 75 C 191.035 75, 192.160 75.450, 192.500 76 C 192.873 76.604, 191.510 77, 189.059 77 C 185.208 77, 185 77.155, 185 80.025 C 185 83.975, 182.322 85, 171.996 85 L 164.123 85 152.500 98 L 140.877 111 126.939 111 L 113 111 113 107.500 L 113 104 126.250 103.996 C 137.486 103.993, 139.972 103.705, 142.605 102.099 C 146.799 99.542, 164 77.315, 164 74.453 C 164 73.787, 66.861 74.902, 66.123 75.576 C 65.156 76.460, 64.083 85.284, 64.044 92.682 C 64.001 100.593, 64.096 100.932, 66.904 102.932 C 69.299 104.637, 71.317 105, 78.404 105 L 87 105 87 108 L 87 111 75.070 111 C 63.459 111, 63.131 111.060, 62.820 113.250 C 62.529 115.294, 61.883 115.527, 55.750 115.796 L 49 116.091 49 107.627 C 49 96.837, 48.658 96, 44.253 96 C 42.310 96, 40.221 95.356, 39.610 94.568 C 39 93.780, 36.362 92.829, 33.750 92.454 C 28.158 91.652, 28.569 89.393, 30.015 113 C 30.671 123.707, 30.606 134.296, 29.807 147.241 C 29.170 157.549, 28.932 166.265, 29.278 166.612 C 29.624 166.958, 31.931 166.938, 34.403 166.567 C 37.562 166.093, 39.078 165.330, 39.500 164.001 C 39.939 162.616, 41.224 162.028, 44.300 161.805 L 48.500 161.500 48.790 153.250 L 49.081 145 55.803 145 C 61.816 145, 62.630 145.238, 63.513 147.250 L 64.500 149.500 102 149.500 L 139.500 149.500 139.800 146.427 C 139.998 144.404, 142.444 140.442, 146.956 134.835 L 153.812 126.315 164.562 125.658 C 180.849 124.661, 184.596 124.808, 186 126.500 C 186.968 127.666, 189.682 128, 198.199 128 C 208.974 128, 209.202 128.048, 212.077 130.923 C 213.685 132.531, 215 134.446, 215 135.180 C 215 139.231, 211.876 144.838, 200.069 161.975 C 192.881 172.409, 187 181.301, 187 181.736 C 187 182.604, 204.038 187.530, 210.624 188.567 C 215.267 189.297, 216.110 188.583, 216.400 183.673 C 216.624 179.857, 225.322 166, 227.493 166 C 228.503 166, 229 165.004, 229 162.980 C 229 161.319, 230.133 158.166, 231.518 155.972 L 234.035 151.984 250.768 152.242 C 259.970 152.384, 268.903 152.118, 270.619 151.651 L 273.737 150.803 274.472 169.936 C 275.127 187.024, 275.382 189.019, 276.853 188.596 C 277.759 188.335, 286.375 186.676, 296 184.908 C 305.625 183.141, 314.063 181.258, 314.750 180.725 C 315.669 180.012, 316 174.896, 316 161.378 C 316 143.853, 316.090 143, 317.941 143 C 320.730 143, 321.243 141.549, 319.782 137.794 C 319.077 135.982, 318.636 132.125, 318.803 129.222 C 319.095 124.139, 319.284 123.828, 323.931 120.753 C 327.502 118.389, 328.981 116.664, 329.627 114.106 C 330.978 108.760, 333 108.946, 333 114.417 C 333 118.822, 333.114 119, 335.941 119 C 337.559 119, 339.135 118.590, 339.445 118.089 C 340.115 117.005, 357.978 117.161, 359.681 118.266 C 360.330 118.688, 361.120 118.615, 361.435 118.105 C 362.112 117.009, 379.963 117.152, 381.681 118.266 C 382.330 118.688, 383.144 118.575, 383.490 118.016 C 384.293 116.718, 388.691 116.691, 389.487 117.980 C 389.869 118.596, 390.816 118.507, 392.046 117.739 C 393.584 116.779, 394.416 116.779, 395.954 117.739 C 397.184 118.507, 398.131 118.596, 398.513 117.980 C 399.356 116.614, 403.354 116.754, 404.800 118.200 C 405.733 119.133, 406 119.133, 406 118.200 C 406 116.765, 410.622 116.580, 411.487 117.980 C 411.868 118.596, 412.829 118.503, 414.077 117.730 C 415.671 116.741, 416.225 116.764, 416.896 117.842 C 417.595 118.965, 418.102 118.965, 419.997 117.842 C 421.783 116.784, 422.357 116.764, 422.714 117.750 C 422.963 118.438, 424.704 119, 426.583 119 C 429.947 119, 430 118.933, 430 114.660 L 430 110.320 502.590 109.612 C 542.515 109.223, 575.702 109.277, 576.340 109.731 C 578.151 111.021, 647.700 109.700, 649.051 108.349 C 649.854 107.546, 649.865 107.035, 649.087 106.554 C 647.654 105.668, 647.683 102, 649.122 102 C 649.952 102, 649.952 101.647, 649.124 100.649 C 647.746 98.989, 629.922 98.030, 598.524 97.929 C 583.730 97.881, 576.431 98.208, 576.190 98.929 C 575.948 99.657, 566.729 100, 547.417 100 L 519 100 519 91.500 C 519 86.452, 518.590 83, 517.992 83 C 517.386 83, 517.471 82.219, 518.204 81.045 C 518.875 79.970, 519.087 78.754, 518.675 78.342 C 518.263 77.930, 503.147 77.606, 485.083 77.623 L 452.241 77.654 451.049 72.327 C 449.899 67.190, 449.737 67, 446.512 67 C 444.672 67, 443.007 67.478, 442.813 68.062 C 442.563 68.812, 441.636 68.812, 439.664 68.062 C 438.127 67.478, 433.074 67, 428.435 67 L 420 67 420 71.629 L 420 76.257 431 75.544 C 440.159 74.951, 442 75.068, 442 76.248 C 442 77.454, 433.296 77.668, 383.500 77.687 L 325 77.709 325 68.854 L 325 60 333.409 60 C 339.770 60, 346.654 61.096, 361.659 64.499 C 381.239 68.939, 381.739 68.999, 399.691 68.999 C 409.989 69, 418.134 68.591, 418.464 68.058 C 419.541 66.316, 420.282 48.459, 419.558 41.699 L 418.841 35 399.386 35 C 379.981 35, 379.881 35.011, 359.781 39.500 C 336.475 44.705, 325 45.529, 325 42 C 325 40.157, 324.333 40, 316.500 40 C 308.667 40, 308 40.157, 308 42 C 308 43.693, 307.333 44, 303.655 44 C 299.059 44, 296 41.858, 296 38.640 C 296 37.703, 295.325 36.678, 294.500 36.362 C 293.675 36.045, 293 34.934, 293 33.893 C 293 32.288, 292.239 32, 288 32 C 283.667 32, 283 32.267, 283 34 M 265.665 59.666 C 265.574 59.758, 265.656 62.120, 265.847 64.916 L 266.193 70 287.097 70 L 308 70 308 65 L 308 60 303.559 60 C 301.116 60, 298.852 60.430, 298.527 60.956 C 298.202 61.482, 297.270 61.657, 296.455 61.344 C 295.641 61.032, 294.318 61.321, 293.517 61.986 C 291.640 63.544, 285.761 63.709, 282.802 62.287 C 278.634 60.285, 276.563 59.817, 271.165 59.657 C 268.231 59.571, 265.756 59.575, 265.665 59.666 M 194.500 76 C 194.160 76.550, 194.835 77, 196 77 C 197.165 77, 197.840 76.550, 197.500 76 C 197.160 75.450, 196.485 75, 196 75 C 195.515 75, 194.840 75.450, 194.500 76 M 445 85 C 445 85.550, 446.988 86, 449.417 86 C 454.144 86, 455.378 87.243, 453.762 90.377 C 453.085 91.689, 453.164 92.484, 454.025 93.015 C 454.702 93.434, 454.947 94.277, 454.569 94.888 C 454.076 95.687, 458.515 96, 470.324 96 C 488.829 96, 487.955 96.408, 487.986 87.750 L 488 84 466.500 84 C 452.833 84, 445 84.364, 445 85 M 48 127.375 C 48 130.881, 48.281 135.156, 48.625 136.875 L 49.250 140 56.125 140 L 63 140 63 130.500 L 63 121 55.500 121 L 48 121 48 127.375 M 242.194 134.206 C 240.954 135.446, 240.545 144.650, 241.607 147.418 C 241.963 148.347, 243.387 149, 245.056 149 L 247.898 149 246.449 145.532 C 245.652 143.625, 244.993 140.587, 244.985 138.782 C 244.965 134.466, 243.817 132.583, 242.194 134.206 M 251.803 136.962 C 247.712 141.053, 247.679 141.251, 250.050 147.596 C 250.731 149.417, 251.743 149.719, 257.764 149.894 C 261.575 150.006, 265.888 149.553, 267.347 148.888 C 269.765 147.786, 270 147.175, 270 141.994 C 270 134.673, 268.336 133, 261.054 133 C 256.225 133, 255.420 133.345, 251.803 136.962" stroke="none" fill-rule="evenodd"/>
</svg>