<svg xmlns="http://www.w3.org/2000/svg"   viewBox="0 0 592 222" version="1.1" fill="white">
	<path d="M 185.630 21.250 C 185.299 22.488, 185.021 24.722, 185.014 26.215 C 185.005 27.896, 184.239 29.337, 183 30 C 181.199 30.964, 181.002 32.085, 181.015 41.285 C 181.030 51.382, 182.093 55.902, 183.823 53.228 C 184.417 52.310, 187.338 52.031, 194.322 52.228 L 203.998 52.500 203.999 56.623 L 204 60.746 199.583 60.623 C 197.154 60.555, 194.829 60.163, 194.416 59.750 C 193.378 58.712, 185 58.802, 185 59.852 C 185 60.858, 171.243 60.632, 168.855 59.587 C 167.951 59.191, 165.476 59.009, 163.355 59.183 C 159.838 59.472, 159.517 59.741, 159.688 62.250 C 159.836 64.409, 159.440 65, 157.846 65 C 156.729 65, 153.102 67.455, 149.786 70.456 L 143.757 75.912 89.983 75.974 L 36.208 76.036 35.156 73.018 C 34.174 70.201, 33.769 70, 29.087 70 C 25.151 70, 23.847 70.417, 23.035 71.934 C 22.425 73.074, 22 81.714, 22 92.966 C 22 108.556, 22.470 115.040, 24.558 128.281 C 28.511 153.354, 29.519 156, 35.117 156 C 39.721 156, 43.127 153.136, 45.106 147.599 C 45.883 145.423, 48.139 142.380, 50.207 140.717 C 52.245 139.077, 56.010 135.066, 58.573 131.803 C 62.086 127.332, 64.590 125.272, 68.741 123.436 C 71.770 122.096, 74.509 121, 74.827 121 C 75.146 121, 73.777 122.687, 71.786 124.750 C 67.779 128.901, 66.226 134.595, 69.162 134.376 C 70.075 134.308, 75.300 130.820, 80.772 126.626 C 92.044 117.986, 96 116.784, 96 122 C 96 124.333, 96.444 125, 98 125 C 99.619 125, 100 124.333, 100 121.500 L 100 118 107.500 118 L 115 118 115 114 L 115 110 123.345 110 C 133.563 110, 135 108.912, 135 101.171 L 135 96 138.500 96 L 142 96 142 100.872 C 142 105.726, 142.014 105.747, 145.750 106.363 C 148.880 106.880, 150.130 107.893, 153.311 112.493 C 159.132 120.910, 158.387 123.613, 145.803 139.725 C 134.164 154.628, 132.197 157.886, 134.118 159.073 C 138.111 161.541, 165.152 171.156, 166.569 170.612 C 167.751 170.158, 168.080 169.198, 167.712 167.273 C 167.309 165.166, 169.082 161.299, 175.749 149.739 C 180.453 141.582, 185.174 134.442, 186.240 133.872 C 187.305 133.301, 197.552 132.579, 209.009 132.266 C 232.658 131.621, 233 131.715, 233 138.898 C 233 151.874, 245.281 204.865, 248.124 204.158 C 251.297 203.370, 284.534 192.744, 284.905 192.400 C 285.127 192.193, 282.794 182.681, 279.719 171.262 C 271.764 141.718, 270.016 128.332, 273.976 127.296 C 275.540 126.887, 275.748 126.399, 274.976 124.955 C 273.487 122.174, 273.725 112, 275.278 112 C 275.981 112, 279.919 110.385, 284.028 108.412 L 291.500 104.824 307 105.520 C 319.599 106.085, 323.083 106.569, 325.618 108.108 C 328.585 109.909, 331.642 110, 388.879 110 L 449.022 110 451.719 104.500 C 453.203 101.475, 454.978 99, 455.663 99 C 456.349 99, 457.204 97.429, 457.564 95.509 C 457.991 93.236, 458.617 92.271, 459.360 92.743 C 459.987 93.143, 460.950 93.481, 461.500 93.496 C 462.050 93.510, 462.500 95.992, 462.500 99.011 C 462.500 104.498, 462.501 104.500, 465.824 104.819 L 469.147 105.138 468.884 98.819 C 468.626 92.629, 468.675 92.494, 471.310 92.184 C 472.938 91.992, 474 91.255, 474 90.316 C 474 88.938, 476.913 88.840, 500.250 89.436 C 514.688 89.805, 532.958 90.420, 540.851 90.803 C 556.842 91.580, 557.016 91.515, 556.985 84.816 C 556.957 78.787, 556.839 78.750, 539.883 79.414 C 531.422 79.745, 513.289 80.279, 499.587 80.600 C 476.358 81.143, 474.787 81.070, 476.337 79.520 C 477.252 78.605, 478 76.989, 478 75.929 C 478 74.281, 478.728 74, 483 74 C 485.750 74, 488 73.550, 488 73 C 488 72.450, 487.325 72, 486.500 72 C 485.675 72, 485 71.325, 485 70.500 C 485 69.675, 485.675 69, 486.500 69 C 487.325 69, 488 68.550, 488 68 C 488 67.450, 485.806 67, 483.125 67 C 478.468 67, 478.222 66.861, 477.627 63.883 C 477.126 61.379, 476.610 60.869, 475.002 61.289 C 473.252 61.747, 473 61.321, 473 57.906 L 473 54 464.167 54 C 459.309 54, 452.808 54.507, 449.721 55.127 C 444.450 56.186, 444.089 56.445, 443.804 59.377 L 443.500 62.500 370.787 63 C 298.644 63.496, 298.071 63.484, 297.787 61.500 C 297.527 59.686, 296.623 59.473, 288.075 59.210 C 282.891 59.051, 277.941 59.239, 277.075 59.629 C 276.209 60.019, 272.238 60.427, 268.250 60.536 C 261.843 60.712, 261 60.524, 261 58.922 C 261 57.469, 260.058 57.049, 256.250 56.805 L 251.500 56.500 253.662 54.603 C 256.520 52.096, 264.047 29.887, 262.250 29.266 C 261.563 29.028, 261 28.196, 261 27.417 C 261 26.637, 260.325 26, 259.500 26 C 258.675 26, 258 26.675, 258 27.500 C 258 28.704, 256.469 29.001, 250.250 29.007 C 244.198 29.012, 241.843 29.449, 239.500 31 C 236.918 32.710, 234.793 32.988, 224.250 32.993 L 212 33 212 30.500 C 212 28.204, 211.633 28, 207.500 28 C 203.530 28, 203 28.259, 203 30.200 C 203 31.911, 202.733 32.133, 201.800 31.200 C 200.349 29.749, 196 29.599, 196 31 C 196 31.550, 194.678 32, 193.061 32 C 190.313 32, 190.081 31.693, 189.477 27.250 C 188.628 21, 188.040 19, 187.049 19 C 186.600 19, 185.962 20.012, 185.630 21.250 M 436.673 101.819 C 435.187 103.370, 434.278 104.945, 434.653 105.319 C 435.027 105.694, 437.508 106, 440.167 106 L 445 106 445 102.500 C 445 99.330, 444.735 99, 442.187 99 C 440.407 99, 438.382 100.035, 436.673 101.819 M 115 104.500 L 115 108 123.383 108 C 131.731 108, 131.769 107.988, 132.291 105.256 C 132.580 103.746, 132.606 102.171, 132.349 101.756 C 132.092 101.340, 128.084 101, 123.441 101 L 115 101 115 104.500 M 40 104.500 C 40 105.728, 41.722 106, 49.500 106 C 57.278 106, 59 105.728, 59 104.500 C 59 103.272, 57.278 103, 49.500 103 C 41.722 103, 40 103.272, 40 104.500 M 202.341 113.555 C 202.012 114.410, 201.959 118.460, 202.222 122.555 C 202.485 126.650, 202.357 130, 201.939 130 C 201.088 130, 196 120.197, 195.999 118.554 C 195.999 117.974, 194.874 117.435, 193.499 117.356 C 191.208 117.224, 191.003 117.556, 191.032 121.356 C 191.054 124.285, 191.773 126.306, 193.484 128.250 C 195.871 130.962, 196.069 131, 207.875 131 L 219.846 131 222.923 127.923 C 226.436 124.410, 227.519 121.205, 226.528 117.256 C 225.292 112.332, 224.459 112, 213.346 112 C 204.853 112, 202.827 112.286, 202.341 113.555 M 192.500 114 C 190.728 114.762, 190.813 114.867, 193.250 114.930 C 194.762 114.968, 196 114.550, 196 114 C 196 112.826, 195.231 112.826, 192.500 114" stroke="none" fill-rule="evenodd"/>
</svg>