<svg viewBox="0 0 10.501 24.026" xmlns="http://www.w3.org/2000/svg">
 <g transform="translate(15.078 -186.8)">
  <g transform="matrix(.20386 0 0 .20386 -20.446 185.11)" >
   <path d="m40.382 25.191c-0.325 0.526 0.356 1.965 1.513 3.197 1.656 1.763 2.105 3.518 2.105 8.226 0 3.323-0.534 6.52-1.2 7.186-0.66 0.66-3.16 1.2-5.555 1.2h-4.355l0.61 9.5 5 1.31c5.596 1.466 22.254 1.048 26.683-0.669 2.034-0.789 2.761-1.838 3.007-4.341 0.178-1.815 0.666 7.643 1.084 21.018s0.501 24.737 0.184 25.25-0.085 0.932 0.514 0.932c0.6 0 1.311-0.575 1.581-1.278 0.27-0.702 0.103-12.965-0.37-27.25-0.492-14.845-0.485-26.464 0.016-27.12 2.852-3.735 1.049-10.632-3.28-12.548-1.606-0.711-2.919-1.632-2.919-2.048s-0.627-0.756-1.393-0.756-1.659-0.693-1.984-1.54c-0.484-1.261-2.412-1.512-10.621-1.383-5.516 0.086-10.295 0.588-10.62 1.114m24.618 7.187c0 0.758 0.722 3.106 1.604 5.217 1.513 3.621 1.684 3.731 3 1.931 1.786-2.441 1.757-3.566-0.161-6.303-1.729-2.469-4.443-2.985-4.443-0.845m-7.82 8.872c0.338 2.373 4.302 3.546 7.648 2.263 1.426-0.548 1.309-0.906-0.835-2.553-1.371-1.053-3.537-1.926-4.813-1.938-1.838-0.017-2.253 0.445-2 2.228m4.32 20.415c-5.795 1.356-19.046 1.21-25.75-0.285l-2.75-0.613v32.283l2.75 1.185c3.561 1.536 25.822 1.512 29.5-0.031l2.75-1.154v-16.525c0-9.089-0.112-16.466-0.25-16.395-0.138 0.072-2.95 0.762-6.25 1.535m0 39.12c-5.769 1.235-19.363 1.017-25.796-0.414l-2.797-0.622 0.297 7.376 0.296 7.375 16.772 0.274c13.488 0.221 16.875 6e-3 17.299-1.099 0.29-0.755 0.393-4.254 0.228-7.774l-0.299-6.401-6 1.285" fill-rule="evenodd"/>
  </g>
 </g>
</svg>
