<svg xmlns="http://www.w3.org/2000/svg"   viewBox="0 0 100 130" version="1.1" fill="white">
	<path d="M 40.382 25.191 C 40.057 25.717, 40.738 27.156, 41.895 28.388 C 43.551 30.151, 44 31.906, 44 36.614 C 44 39.937, 43.466 43.134, 42.800 43.800 C 42.140 44.460, 39.640 45, 37.245 45 L 32.890 45 33.195 49.750 L 33.500 54.500 38.500 55.810 C 44.096 57.276, 60.754 56.858, 65.183 55.141 C 67.217 54.352, 67.944 53.303, 68.190 50.800 C 68.368 48.985, 68.856 58.443, 69.274 71.818 C 69.692 85.193, 69.775 96.555, 69.458 97.068 C 69.141 97.581, 69.373 98, 69.972 98 C 70.572 98, 71.283 97.425, 71.553 96.722 C 71.823 96.020, 71.656 83.757, 71.183 69.472 C 70.691 54.627, 70.698 43.008, 71.199 42.352 C 74.051 38.617, 72.248 31.720, 67.919 29.804 C 66.313 29.093, 65 28.172, 65 27.756 C 65 27.340, 64.373 27, 63.607 27 C 62.841 27, 61.948 26.307, 61.623 25.460 C 61.139 24.199, 59.211 23.948, 51.002 24.077 C 45.486 24.163, 40.707 24.665, 40.382 25.191 M 65 32.378 C 65 33.136, 65.722 35.484, 66.604 37.595 C 68.117 41.216, 68.288 41.326, 69.604 39.526 C 71.390 37.085, 71.361 35.960, 69.443 33.223 C 67.714 30.754, 65 30.238, 65 32.378 M 57.180 41.250 C 57.518 43.623, 61.482 44.796, 64.828 43.513 C 66.254 42.965, 66.137 42.607, 63.993 40.960 C 62.622 39.907, 60.456 39.034, 59.180 39.022 C 57.342 39.005, 56.927 39.467, 57.180 41.250 M 61.500 61.665 C 55.705 63.021, 42.454 62.875, 35.750 61.380 L 33 60.767 33 76.908 L 33 93.050 35.750 94.235 C 39.311 95.771, 61.572 95.747, 65.250 94.204 L 68 93.050 68 76.525 C 68 67.436, 67.888 60.059, 67.750 60.130 C 67.612 60.202, 64.800 60.892, 61.500 61.665 M 61.500 100.785 C 55.731 102.020, 42.137 101.802, 35.704 100.371 L 32.907 99.749 33.204 107.125 L 33.500 114.500 50.272 114.774 C 63.760 114.995, 67.147 114.780, 67.571 113.675 C 67.861 112.920, 67.964 109.421, 67.799 105.901 L 67.500 99.500 61.500 100.785" stroke="none" fill-rule="evenodd"/>
</svg>