<svg version="1.1" xmlns="http://www.w3.org/2000/svg" viewBox="0 0 8.1 18.5">
<g transform="translate(15.078 -186.8)">
	<g transform="matrix(.20386 0 0 .20386 -20.446 185.11)">
		<path d="M33.8,9.4c-0.3,0.5,0.4,2,1.5,3.2c1.7,1.8,2.1,3.5,2.1,8.2c0,3.3-0.5,6.5-1.2,7.2c-0.7,0.7-3.2,1.2-5.6,1.2
			h-4.4l0.6,9.5l5,1.3c5.6,1.5,22.3,1,26.7-0.7c2-0.8,2.8-1.8,3-4.3c0.2-1.8,0.7,7.6,1.1,21s0.5,24.7,0.2,25.3s-0.1,0.9,0.5,0.9
			c0.6,0,1.3-0.6,1.6-1.3c0.3-0.7,0.1-13-0.4-27.3c-0.5-14.8-0.5-26.5,0-27.1c2.9-3.7,1-10.6-3.3-12.5c-1.6-0.7-2.9-1.6-2.9-2
			s-0.6-0.8-1.4-0.8s-1.7-0.7-2-1.5c-0.5-1.3-2.4-1.5-10.6-1.4C38.9,8.4,34.1,8.9,33.8,9.4 M58.4,16.6c0,0.8,0.7,3.1,1.6,5.2
			c1.5,3.6,1.7,3.7,3,1.9c1.8-2.4,1.8-3.6-0.2-6.3C61.2,15,58.4,14.5,58.4,16.6 M50.6,25.5c0.3,2.4,4.3,3.5,7.6,2.3
			c1.4-0.5,1.3-0.9-0.8-2.6c-1.4-1.1-3.5-1.9-4.8-1.9C50.8,23.2,50.4,23.7,50.6,25.5 M54.9,45.9c-5.8,1.4-19,1.2-25.8-0.3L26.4,45
			v32.3l2.8,1.2c3.6,1.5,25.8,1.5,29.5,0l2.8-1.2V60.8c0-9.1-0.1-16.5-0.2-16.4C61.1,44.4,58.2,45.1,54.9,45.9 M54.9,85
			c-5.8,1.2-19.4,1-25.8-0.4L26.3,84l0.3,7.4l0.3,7.4L43.7,99c13.5,0.2,16.9,0,17.3-1.1c0.3-0.8,0.4-4.3,0.2-7.8l-0.3-6.4L54.9,85"
			/>
	</g>
</g>
</svg>
