<svg xmlns="http://www.w3.org/2000/svg"   viewBox="0 0 669 222" version="1.1" fill="white">
	<path d="M 285.801 42.710 L 285.500 48.500 267 48.408 C 256.825 48.358, 239.222 47.953, 227.883 47.508 L 207.265 46.699 206.681 53.100 C 206.359 56.620, 206.412 61.525, 206.798 64 L 207.500 68.500 222 68.495 C 229.975 68.492, 243.137 68.089, 251.250 67.600 L 266 66.710 266 70.855 C 266 74.773, 264.863 76.206, 263.502 74.004 C 262.805 72.875, 257 75.492, 257 76.935 C 257 77.420, 252.353 77.971, 246.673 78.159 C 237.527 78.461, 235.672 78.845, 230.451 81.518 C 225.183 84.215, 223.453 85.933, 219.500 92.393 C 218.950 93.292, 215.575 94.867, 212 95.894 C 208.425 96.921, 197.989 100.065, 188.809 102.881 C 173.218 107.663, 171.422 108, 161.559 108 C 152.840 108, 151 107.739, 151 106.500 C 151 105.452, 149.944 105, 147.500 105 C 145.056 105, 144 105.452, 144 106.500 C 144 107.781, 141.222 108, 125 108 L 106 108 106 103.500 L 106 99 128.881 99 L 151.763 99 154.381 95.567 C 157.388 91.624, 157.764 87.096, 155.385 83.465 L 153.770 81 119.492 81 C 80.945 81, 84 80.304, 84 89.082 C 84 92.787, 84.370 94, 85.500 94 C 86.341 94, 87 94.892, 87 96.031 C 87 97.149, 87.675 98.322, 88.500 98.638 C 89.518 99.029, 90 100.625, 90 103.607 L 90 108 85.500 108 L 81 108 81 103.526 C 81 97.208, 78.376 96, 64.657 96 C 56.297 96, 54.099 95.701, 53.638 94.500 C 52.860 92.472, 47.349 92.553, 46.199 94.609 C 45.371 96.089, 45.248 96.089, 44.680 94.609 C 43.979 92.781, 39.949 92.451, 38.313 94.087 C 37.530 94.870, 37.038 94.870, 36.554 94.087 C 36.184 93.489, 33.771 93.002, 31.191 93.005 C 20.609 93.016, 18.041 99.488, 18.016 126.201 C 17.997 145.697, 19.093 152.247, 23.031 156.185 C 25.691 158.845, 26.214 158.960, 35.404 158.911 C 41.837 158.876, 45 158.486, 45 157.729 C 45 156.930, 45.350 156.950, 46.200 157.800 C 48.084 159.684, 52.597 159.232, 54.128 157.005 C 55.098 155.594, 56.159 155.189, 57.750 155.622 C 59.906 156.208, 60 156.682, 60 167 C 60 176.926, 59.844 177.808, 58 178.290 C 56.468 178.690, 56 179.654, 56 182.406 L 56 186 63 186 L 70 186 70 182 C 70 178.667, 69.667 178, 68 178 C 66.123 178, 66 177.333, 66 167.129 L 66 156.258 70.890 155.609 C 73.579 155.252, 77.300 153.929, 79.158 152.668 C 84.631 148.953, 130.907 132.755, 134.472 133.306 C 136.295 133.588, 138.155 133.198, 139.147 132.325 C 140.053 131.529, 143.315 130.617, 146.397 130.298 C 151.652 129.756, 152 129.555, 152 127.060 C 152 122.562, 153.506 122, 165.564 122 L 176.728 122 177.375 126.722 L 178.022 131.443 168.162 141.472 C 156.524 153.309, 152.513 159.588, 153.438 164.522 C 153.975 167.385, 155.090 168.456, 161.202 171.979 C 169.493 176.759, 177.746 179.009, 179.108 176.859 C 179.582 176.112, 179.976 174.793, 179.985 173.928 C 180.017 170.592, 183.214 163.147, 185.562 160.942 C 186.915 159.670, 188.457 157.017, 188.988 155.044 C 189.622 152.690, 191.017 150.831, 193.048 149.631 C 195.139 148.396, 196.970 145.895, 198.692 141.924 L 201.242 136.045 203.756 138.023 C 206.134 139.893, 207.927 140.002, 236.885 140.032 C 260.858 140.057, 267.882 140.354, 269.262 141.401 C 270.664 142.465, 276.185 142.644, 296.262 142.280 C 319.055 141.866, 321.762 141.636, 324.210 139.911 C 325.700 138.860, 327.500 137.952, 328.210 137.894 C 328.919 137.835, 334.450 132.470, 340.500 125.971 L 351.500 114.155 418.250 114.077 L 485 114 485.116 110.250 C 485.180 108.188, 485.438 107.287, 485.689 108.250 C 485.941 109.213, 486.983 110, 488.006 110 C 490.313 110, 491.762 113.911, 489.885 115.071 C 489.032 115.598, 488.545 117.973, 488.528 121.696 L 488.500 127.500 499.886 128.396 C 510.798 129.254, 511.339 129.204, 512.886 127.202 C 514.417 125.220, 515.465 125.108, 533.175 125.030 C 544.954 124.978, 552.084 125.326, 552.484 125.974 C 553.315 127.318, 562.693 127.306, 563.525 125.959 C 563.879 125.387, 565.089 125.211, 566.214 125.568 C 572.596 127.593, 578 125.912, 578 121.902 C 578 119.451, 574.026 116.733, 572.407 118.077 C 571.565 118.776, 570.964 118.751, 570.500 118 C 570.018 117.220, 569.389 117.263, 568.324 118.146 C 566.483 119.674, 536.617 120.584, 522.665 119.538 C 514.507 118.926, 513.119 118.561, 512.688 116.914 C 512.271 115.321, 511.264 115, 506.688 115 L 501.190 115 501.690 109.250 C 501.964 106.088, 501.708 102.263, 501.119 100.750 C 500.109 98.153, 499.698 98, 493.725 98 C 490.007 98, 486.878 98.515, 486.133 99.250 C 485.113 100.257, 484.928 99.723, 485.183 96.512 L 485.500 92.523 538.157 92.153 L 590.814 91.783 591.942 93.892 C 593.055 95.971, 596.518 96.804, 597.167 95.148 C 597.637 93.947, 612.853 92.953, 613.548 94.078 C 613.862 94.585, 619.026 95, 625.024 95 C 637.264 95, 638 94.574, 638 87.500 C 638 80.440, 637.248 80, 625.165 80 C 618.416 80, 613.973 80.427, 613.256 81.144 C 612.425 81.975, 611.343 81.998, 609.306 81.226 C 607.763 80.642, 603.443 79.917, 599.706 79.616 C 594.295 79.179, 592.797 79.366, 592.349 80.533 C 591.862 81.802, 583.067 81.991, 527.143 81.933 C 437.861 81.841, 354.612 80.442, 349.250 78.944 C 346.913 78.291, 345 77.373, 345 76.904 C 345 75.483, 339.186 72.890, 338.498 74.004 C 338.159 74.552, 334.534 75, 330.441 75 L 323 75 323 70.500 C 323 68.025, 323.306 66, 323.680 66 C 324.054 66, 329.116 67.137, 334.930 68.526 C 344.534 70.821, 347.145 71.026, 363.500 70.776 L 381.500 70.500 381.500 58 L 381.500 45.500 364.500 44.867 C 349.196 44.298, 346.502 44.456, 337.500 46.451 C 329.922 48.130, 324.473 48.647, 315 48.583 L 302.500 48.500 302.407 43 L 302.314 37.500 294.208 37.210 L 286.102 36.921 285.801 42.710 M 276.667 66.667 C 276.300 67.033, 276 67.933, 276 68.667 C 276 69.730, 279.750 70, 294.500 70 C 312.617 70, 313 69.957, 313 67.903 C 313 65.959, 312.618 65.854, 307.750 66.449 C 296.081 67.877, 286.743 68.143, 285.680 67.080 C 284.502 65.902, 277.741 65.592, 276.667 66.667 M 205.557 124.223 C 203.407 127.291, 203.554 133.286, 205.829 135.345 C 206.835 136.255, 209.095 137, 210.852 137 C 213.935 137, 213.995 136.922, 212.571 134.749 C 210.926 132.238, 210.348 126.430, 211.477 123.750 C 212.624 121.026, 207.510 121.434, 205.557 124.223 M 218.500 122.719 C 213.434 123.953, 211.616 128.869, 214.161 134.453 C 215.304 136.962, 215.489 137, 226.529 137 L 237.736 137 239.443 130.917 C 240.382 127.571, 240.905 124.196, 240.606 123.417 C 240.184 122.317, 237.878 122.026, 230.281 122.116 C 224.902 122.180, 219.600 122.451, 218.500 122.719 M 81 139 C 81 143.400, 81.353 147, 81.785 147 C 82.764 147, 124.345 131.969, 124.917 131.408 C 125.146 131.184, 120.983 131, 115.667 131 L 106 131 106 134 L 106 137 99 137 C 95.150 137, 91.662 137.113, 91.250 137.250 C 90.838 137.387, 90.359 136.037, 90.187 134.250 C 89.885 131.119, 89.711 131, 85.437 131 L 81 131 81 139" stroke="none" fill-rule="evenodd"/>
</svg>