<svg xmlns="http://www.w3.org/2000/svg"   viewBox="0 0 249 179" version="1.1" fill="white">
	<path d="M 72.701 31.704 C 67.951 31.976, 65.733 32.532, 65.344 33.547 C 65.037 34.346, 63.679 35, 62.326 35 C 60.973 35, 58.307 36.189, 56.402 37.643 L 52.937 40.285 53.219 51.383 L 53.500 62.480 58.700 64.347 C 61.560 65.374, 65.722 67.897, 67.950 69.954 C 71.613 73.335, 72 74.156, 72 78.544 C 72 82.470, 70.671 86.207, 65.025 98.156 C 56.614 115.955, 54.054 123.267, 53.003 132.500 C 52.564 136.350, 51.904 140.426, 51.537 141.557 C 51.106 142.880, 51.516 144.387, 52.684 145.778 C 54.280 147.680, 56.381 148.126, 70 149.458 C 78.525 150.292, 87.194 151.211, 89.265 151.501 C 92.552 151.962, 93.173 151.715, 94.157 149.555 C 95.070 147.551, 94.949 146.571, 93.520 144.390 C 90.887 140.372, 91.999 130.150, 96.770 114.500 L 100.734 101.500 115.367 101.223 C 128.023 100.984, 130 101.156, 130 102.493 C 130 103.849, 132.627 104.006, 151.250 103.770 L 172.500 103.500 172.789 93.511 C 172.948 88.017, 173.398 83.209, 173.789 82.826 C 174.180 82.444, 181.651 81.118, 190.392 79.881 C 203.788 77.984, 206.358 77.345, 206.759 75.815 C 207.020 74.817, 207.856 74, 208.617 74 C 209.733 74, 210 71.097, 210 58.950 L 210 43.901 206.649 40.450 C 204.058 37.783, 202.486 37, 199.717 37 C 196.880 37, 195.693 36.377, 194 34 C 191.598 30.627, 187.006 29.896, 184.789 32.535 C 181.518 36.429, 180.700 37, 178.397 37 C 177.044 37, 175.678 37.675, 175.362 38.500 C 174.866 39.792, 170.110 40, 141.001 40 L 107.217 40 106.589 37.500 C 106.244 36.125, 105.443 35, 104.810 35 C 104.176 35, 102.947 34.376, 102.079 33.613 C 100.333 32.080, 84.303 31.038, 72.701 31.704 M 107.418 77.132 C 107.010 77.792, 106.698 81.654, 106.724 85.714 L 106.772 93.096 103.823 93.685 C 101.971 94.056, 101.226 94.626, 101.821 95.221 C 102.782 96.182, 112.589 95.768, 123.500 94.305 C 128.718 93.605, 129.543 93.200, 129.827 91.195 C 130.006 89.927, 129.627 88.256, 128.984 87.480 C 128.324 86.686, 127.964 83.983, 128.157 81.285 L 128.500 76.500 118.330 76.216 C 111.228 76.017, 107.936 76.294, 107.418 77.132" stroke="none" fill-rule="evenodd"/>
</svg>