<svg xmlns="http://www.w3.org/2000/svg"   viewBox="0 0 208 171" version="1.1" fill="white">
	<path d="M 172 29.198 C 168.603 31.094, 166.699 31.135, 107.126 30.595 C 63.330 30.199, 45.358 29.712, 44.376 28.897 C 43.304 28.008, 43 28.114, 43 29.378 C 43 30.514, 42.101 31, 40 31 C 37.667 31, 37 31.444, 37 33 C 37 34.100, 36.562 35, 36.026 35 C 32.661 35, 30.426 51.366, 33.282 55.087 C 34.991 57.313, 38.439 59, 41.279 59 C 44.042 59, 46.443 61.378, 47.328 64.991 C 47.787 66.862, 46.600 69.847, 42.556 76.991 C 35.416 89.606, 28.574 106.977, 30.731 107.013 C 31.154 107.020, 37.125 107.914, 44 109 C 59.595 111.463, 59.354 111.463, 58.712 109.005 C 58.102 106.676, 69.073 79.202, 71.133 77.897 C 71.885 77.420, 78.246 77.024, 85.269 77.015 L 98.038 77 97.411 79.500 C 96.922 81.445, 97.167 82, 98.514 82 C 99.891 82, 100.005 82.289, 99.074 83.411 C 98.273 84.376, 98.235 85.027, 98.951 85.470 C 100.370 86.347, 102 85.223, 102 83.368 C 102 82.533, 102.688 81.998, 103.534 82.177 C 104.868 82.458, 105.097 86.584, 105.284 113.750 C 105.403 130.938, 105.162 145, 104.750 145 C 104.338 145, 104 145.718, 104 146.597 C 104 147.970, 105.315 148.145, 113.418 147.847 C 123.123 147.489, 125.229 146.829, 123.183 144.783 C 122.323 143.923, 122 135.181, 122 112.800 C 122 82.667, 122.043 82, 124 82 C 126.070 82, 126.760 79.587, 125 78.500 C 124.450 78.160, 124 75.300, 124 72.144 C 124 66.820, 124.273 66.139, 127.792 62.703 C 130.276 60.278, 132.519 59, 134.292 59 C 136.785 59, 137 58.682, 137 55 L 137 51 142.750 50.944 C 184.557 50.537, 182.475 50.674, 182.811 48.316 C 183.023 46.828, 184.058 45.927, 186.061 45.487 C 188.691 44.909, 189 44.437, 189 41 C 189 37.545, 188.698 37.093, 186 36.500 C 184.296 36.126, 183 35.194, 183 34.344 C 183 32.706, 177.658 26.925, 176.327 27.123 C 175.872 27.190, 173.925 28.124, 172 29.198 M 142 35 C 142 35.550, 142.675 36, 143.500 36 C 144.325 36, 145 35.550, 145 35 C 145 34.450, 144.325 34, 143.500 34 C 142.675 34, 142 34.450, 142 35 M 151 35 C 151 35.550, 151.675 36, 152.500 36 C 153.325 36, 154 35.550, 154 35 C 154 34.450, 153.325 34, 152.500 34 C 151.675 34, 151 34.450, 151 35 M 142 47 C 142 47.550, 142.675 48, 143.500 48 C 144.325 48, 145 47.550, 145 47 C 145 46.450, 144.325 46, 143.500 46 C 142.675 46, 142 46.450, 142 47 M 151 47 C 151 47.550, 151.675 48, 152.500 48 C 153.325 48, 154 47.550, 154 47 C 154 46.450, 153.325 46, 152.500 46 C 151.675 46, 151 46.450, 151 47 M 160 47 C 160 47.550, 160.675 48, 161.500 48 C 162.325 48, 163 47.550, 163 47 C 163 46.450, 162.325 46, 161.500 46 C 160.675 46, 160 46.450, 160 47 M 169 47 C 169 47.550, 169.675 48, 170.500 48 C 171.325 48, 172 47.550, 172 47 C 172 46.450, 171.325 46, 170.500 46 C 169.675 46, 169 46.450, 169 47 M 75.398 64.635 C 71.499 73.450, 71.556 73.500, 85.514 73.500 L 97.500 73.500 97.802 67.666 C 98.191 60.163, 97.195 59, 90.378 59 L 85 59 85 62.428 C 85 65.102, 85.714 66.418, 88.250 68.416 C 90.605 70.273, 91.023 70.981, 89.766 70.989 C 86.599 71.009, 81.667 65.630, 81.667 62.156 C 81.667 59.729, 81.231 59, 79.778 59 C 78.445 59, 77.157 60.658, 75.398 64.635" stroke="none" fill-rule="evenodd"/>
</svg>