<svg xmlns="http://www.w3.org/2000/svg"   viewBox="0 0 406 222" version="1.1" fill="white">
	<path d="M 349.975 27.565 C 349.439 28.976, 349 30.483, 349 30.915 C 349 31.347, 347.647 33.567, 345.994 35.850 L 342.987 40 312.400 40 C 283.509 40, 281.786 39.898, 281.330 38.155 C 280.872 36.402, 279.267 36.325, 249.174 36.625 C 231.753 36.799, 213.900 36.673, 209.500 36.344 L 201.500 35.747 201.500 31.176 L 201.500 26.605 196 26.889 C 188.786 27.261, 174.672 34.287, 174.180 37.750 C 173.890 39.795, 173.319 40, 167.923 40 C 162.943 40, 160.200 40.805, 150.924 44.990 L 139.864 49.980 124.682 49.412 C 111.174 48.906, 49.580 43.753, 42.898 42.570 C 40.895 42.215, 39.808 42.768, 38.181 44.969 C 36.180 47.675, 36.062 49.066, 35.963 71.025 C 35.861 93.758, 35.904 94.269, 38.104 96.611 C 42.242 101.015, 47.031 100.189, 97.943 86.289 L 144.500 73.578 163 73.269 L 181.500 72.959 186.218 76.466 C 192.508 81.142, 194.387 84.136, 193.606 88.246 C 193.266 90.036, 188.292 99.044, 182.553 108.266 C 172.251 124.817, 172.146 125.048, 174.309 126.375 C 180.733 130.316, 195.882 137.785, 196.400 137.267 C 196.730 136.937, 197 135.722, 197 134.567 C 197 132.436, 210.242 101.619, 212.140 99.331 C 212.946 98.360, 214.073 98.652, 217.238 100.650 C 221.062 103.064, 222.013 103.207, 233.401 103.077 L 245.500 102.938 248.833 98.969 C 251.882 95.338, 252.582 95, 257.064 95 C 261.594 95, 262.007 95.206, 262.564 97.750 C 263.716 103.005, 264.434 103.492, 264.774 99.250 C 265.559 89.466, 267.583 95.413, 273.795 125.754 C 284.156 176.355, 288.561 196.895, 289.188 197.521 C 289.514 197.848, 294.555 196.877, 300.391 195.365 C 311.654 192.446, 312.708 191.505, 309.120 187.564 C 306.466 184.650, 287.617 93.968, 289.360 92.500 C 290.160 91.827, 290.319 90.028, 289.848 87 C 288.269 76.849, 287.830 77.432, 298.570 75.409 C 306.314 73.951, 308.292 73.854, 308.940 74.902 C 309.420 75.679, 311.292 76.102, 313.620 75.959 C 321.274 75.488, 322 75.747, 322 78.941 C 322 80.559, 322.450 82.160, 323 82.500 C 323.589 82.864, 324.049 89.560, 324.118 98.809 C 324.183 107.439, 324.523 115.850, 324.873 117.500 C 325.460 120.263, 325.885 120.524, 330.259 120.805 C 334.589 121.083, 335.096 120.879, 336.004 118.490 C 336.552 117.049, 337.014 108.587, 337.032 99.685 C 337.057 87.040, 337.385 83.075, 338.532 81.559 C 339.339 80.491, 340 78.681, 340 77.537 C 340 75.619, 340.587 75.451, 347.500 75.399 C 354.119 75.350, 355 75.558, 355 77.171 C 355 78.573, 355.770 79, 358.299 79 C 361.128 79, 361.769 78.527, 362.799 75.679 C 363.460 73.852, 364 71.171, 364 69.719 C 364 67.105, 364.075 67.078, 372.250 66.790 L 380.500 66.500 380.500 63 L 380.500 59.500 372.500 59.484 L 364.500 59.469 363.907 48.484 C 363.494 40.844, 362.629 35.598, 361.065 31.250 C 358.825 25.024, 358.801 25, 354.883 25 C 351.582 25, 350.794 25.412, 349.975 27.565 M 51 66.300 C 51 83.439, 51.380 85, 55.545 85 C 56.725 85, 58.505 85.900, 59.500 87 C 60.495 88.100, 62.028 89.012, 62.905 89.026 C 63.782 89.040, 70.741 87.352, 78.370 85.276 L 92.239 81.500 94.572 76.233 C 95.855 73.336, 97.375 68.421, 97.951 65.310 C 99.459 57.147, 98.508 56.387, 85.689 55.509 C 79.819 55.108, 74.562 54.217, 73.287 53.407 C 71.046 51.985, 60.208 50.056, 54.250 50.020 L 51 50 51 66.300 M 310.750 55.732 C 313.087 55.943, 316.913 55.943, 319.250 55.732 C 321.587 55.522, 319.675 55.349, 315 55.349 C 310.325 55.349, 308.413 55.522, 310.750 55.732 M 339.280 55.736 C 341.909 55.943, 345.959 55.940, 348.280 55.731 C 350.601 55.521, 348.450 55.352, 343.500 55.355 C 338.550 55.358, 336.651 55.530, 339.280 55.736 M 109.169 58.750 C 106.902 60.683, 106.249 64.767, 107.409 69.767 C 108.429 74.166, 112.081 75.996, 118 75.071 C 126.466 73.749, 129.579 70.340, 128.338 63.750 C 127.283 58.153, 125.510 57, 117.956 57 C 112.991 57, 110.682 57.460, 109.169 58.750 M 132 62.559 C 132 63.416, 132.450 63.840, 133 63.500 C 133.550 63.160, 134 62.459, 134 61.941 C 134 61.423, 133.550 61, 133 61 C 132.450 61, 132 61.702, 132 62.559 M 216.199 90.527 C 214.990 93.016, 214 95.432, 214 95.894 C 214 96.356, 215.790 97.919, 217.979 99.367 C 221.693 101.825, 222.716 102, 233.383 102 L 244.809 102 247.963 96.412 C 249.697 93.339, 250.977 89.852, 250.808 88.662 C 250.513 86.590, 250.025 86.500, 239.038 86.500 C 227.615 86.500, 227.572 86.509, 226.055 89.212 C 224.519 91.948, 224.561 92.243, 227.484 99.250 C 228.628 101.993, 226.267 101.336, 224.324 98.372 C 223.377 96.927, 222.561 94.112, 222.511 92.117 C 222.325 84.697, 219.391 83.958, 216.199 90.527" stroke="none" fill-rule="evenodd"/>
</svg>