<svg xmlns="http://www.w3.org/2000/svg"   viewBox="0 0 316 154" version="1.1" fill="white">
	<path d="M 149.667 33.667 C 149.300 34.033, 149 35.197, 149 36.253 C 149 38.126, 147.751 38.165, 98.549 37.837 C 59.892 37.579, 47.807 37.208, 46.849 36.250 C 46.162 35.562, 45.342 35, 45.028 35 C 44.713 35, 43.340 38.595, 41.978 42.989 C 40.615 47.384, 39.024 50.984, 38.441 50.989 C 37.859 50.995, 36.509 50.339, 35.441 49.532 C 32.935 47.636, 32 47.634, 32 49.525 C 32 50.363, 30.875 51.477, 29.500 52 C 24.681 53.832, 27.425 57, 33.831 57 L 38.262 57 37.670 60.250 C 37.344 62.038, 36.791 64.481, 36.440 65.680 C 35.889 67.566, 36.371 68.031, 40.002 69.119 C 42.311 69.811, 44.889 71.427, 45.730 72.710 C 47.157 74.888, 47.014 75.579, 43.587 83.076 C 39.300 92.453, 35.223 109.516, 34.884 119.500 L 34.645 126.500 39.073 127.176 C 41.508 127.548, 49.268 127.885, 56.317 127.926 C 68.784 127.998, 69.117 127.944, 68.487 125.958 C 68.130 124.835, 69.773 115.106, 72.137 104.338 L 76.436 84.761 82.968 85.534 C 86.561 85.959, 94.675 86.350, 101 86.403 L 112.500 86.500 115.025 81.500 C 116.414 78.750, 118.526 74.138, 119.720 71.250 L 121.889 66 140.777 66 L 159.664 66 160.738 62.504 C 161.328 60.580, 161.625 57.093, 161.399 54.754 C 161.172 52.414, 161.252 51.063, 161.577 51.750 C 161.901 52.438, 163.029 53, 164.083 53 C 165.137 53, 166 53.679, 166 54.508 C 166 55.838, 172.775 55.986, 223.250 55.758 L 280.500 55.500 280.500 45 L 280.500 34.500 223.250 34.242 L 166 33.984 166 36.492 C 166 38.297, 165.463 39, 164.083 39 C 163.029 39, 161.940 39.563, 161.662 40.250 C 161.361 40.997, 161.126 40.795, 161.079 39.750 C 161.036 38.788, 160.550 38, 160 38 C 159.450 38, 159 37.148, 159 36.107 C 159 35.066, 158.288 33.941, 157.418 33.607 C 155.307 32.797, 150.500 32.834, 149.667 33.667 M 84.929 67.976 C 78.932 71.147, 77.460 74.175, 79.683 78.765 C 81.841 83.221, 86.491 84.648, 99.618 84.886 L 110.736 85.087 113.368 77.986 C 114.816 74.081, 116 70.252, 116 69.478 C 116 67.181, 112.534 66, 105.816 66.007 C 99.792 66.013, 99.396 66.167, 97.250 69.319 C 93.674 74.572, 94.488 79.104, 99.500 81.845 C 101.456 82.915, 101.452 82.940, 99.323 82.970 C 96.970 83.002, 93.295 79.023, 92.406 75.480 C 92.102 74.272, 92.539 71.645, 93.376 69.642 L 94.898 66 91.699 66.044 C 89.940 66.069, 86.893 66.938, 84.929 67.976" stroke="none" fill-rule="evenodd"/>
</svg>