<svg xmlns="http://www.w3.org/2000/svg"   viewBox="0 0 52 32" version="1.1" fill="white">
	<path d="M 21.500 3.161 C 20.400 3.766, 18.807 5.123, 17.960 6.178 C 16.454 8.052, 16.333 8.037, 12.564 5.479 C 9.043 3.089, 8.571 3, 7.121 4.450 C 5.905 5.666, 5.789 6.443, 6.626 7.769 C 7.227 8.721, 8.011 9.378, 8.369 9.230 C 9.289 8.848, 15.351 12.054, 16.235 13.390 C 18.726 17.155, 14.856 21.718, 7.750 23.391 C 4.696 24.110, 4.034 26.953, 6.452 28.960 C 7.630 29.937, 8.887 29.415, 13.118 26.188 L 18.334 22.211 21.643 25.720 C 24.399 28.643, 25.415 29.119, 27.726 28.573 C 29.252 28.212, 31.480 26.732, 32.677 25.284 L 34.854 22.651 38.540 25.575 C 44.798 30.539, 44.869 30.572, 46.750 29.386 C 49.718 27.514, 48.857 24.825, 44.845 23.436 C 38.628 21.284, 36 19.060, 36 15.953 C 36 12.866, 39.568 9.648, 44.311 8.458 C 45.962 8.044, 47 7.100, 47 6.014 C 47 3.558, 44.176 1.362, 42.556 2.558 C 36.764 6.835, 35.633 7.399, 35.236 6.208 C 34.111 2.833, 25.549 0.934, 21.500 3.161 M 28.960 14.548 C 28.025 15.674, 28.105 16.103, 29.339 16.577 C 31.026 17.224, 33 16.400, 33 15.048 C 33 13.473, 30.146 13.120, 28.960 14.548 M 21 15.573 C 21 16.505, 21.680 17.015, 22.667 16.823 C 25.176 16.337, 25.520 14, 23.083 14 C 21.855 14, 21 14.646, 21 15.573 M 23.655 24.250 C 23.909 24.663, 25.190 25, 26.500 25 C 27.810 25, 29.091 24.663, 29.345 24.250 C 29.600 23.837, 28.320 23.500, 26.500 23.500 C 24.680 23.500, 23.400 23.837, 23.655 24.250" stroke="none" fill-rule="evenodd"/>
</svg>