<svg xmlns="http://www.w3.org/2000/svg"   viewBox="0 0 673 222" version="1.1" fill="white">
	<path d="M 248.256 51.097 C 245.421 52.151, 242.009 57.664, 242.004 61.200 C 242 63.602, 240.924 64.457, 232.250 68.951 C 226.887 71.730, 219.405 75.009, 215.622 76.239 C 209.065 78.372, 208.630 78.711, 206.266 83.531 L 203.787 88.585 172.625 96.350 C 155.486 100.621, 140.745 103.839, 139.866 103.502 C 138.987 103.165, 134.645 103.814, 130.217 104.944 C 120.111 107.525, 120 107.520, 120 104.500 C 120 103.018, 120.573 102, 121.407 102 C 125.991 102, 158.385 86.028, 160.391 82.778 C 162.775 78.917, 160.124 78.680, 139.953 80.954 C 129.375 82.146, 119.545 83.029, 118.110 82.917 C 116.674 82.805, 114.825 82.984, 114 83.315 C 111.200 84.439, 97.429 85.925, 95.203 85.343 C 93.986 85.024, 92.388 85.263, 91.653 85.873 C 90.918 86.483, 86.083 87.217, 80.908 87.503 C 75.734 87.790, 69.700 88.479, 67.500 89.034 C 65.300 89.589, 55.182 90.466, 45.016 90.981 C 29.085 91.790, 26.350 92.166, 25.216 93.710 C 24.170 95.132, 23.961 103.052, 24.200 132.201 C 24.386 154.987, 24.879 169.253, 25.500 169.828 C 26.403 170.663, 46.174 164.011, 49.837 161.640 C 50.568 161.167, 52.056 158.692, 53.145 156.140 C 56.776 147.628, 61.970 141.083, 65.921 140.039 C 67.890 139.519, 86.150 134.964, 106.500 129.915 C 126.850 124.867, 143.950 120.210, 144.500 119.566 C 145.453 118.451, 189.140 106.826, 189.831 107.504 C 190.013 107.683, 189.660 108.767, 189.046 109.914 C 187.929 112.002, 189.264 112.999, 190.500 111 C 190.840 110.450, 192.688 110, 194.607 110 C 198.330 110, 202.967 113.794, 203.035 116.896 C 203.055 117.778, 198.922 126.644, 193.851 136.599 C 185.026 153.924, 184.687 154.829, 185.911 157.786 C 187.319 161.185, 186.199 160.819, 208.146 165.049 C 214.551 166.284, 220.562 166.998, 221.504 166.637 C 223.044 166.046, 223.068 165.752, 221.739 163.725 C 217.950 157.941, 218.326 156.326, 227.926 137.147 C 233.621 125.772, 237.774 118.656, 239.149 117.920 C 240.512 117.191, 245.781 116.806, 253.176 116.896 C 267.143 117.067, 268.242 116.653, 276.738 108.024 C 281.849 102.833, 283.176 102, 286.335 102 C 288.351 102, 290 102.477, 290 103.060 C 290 103.787, 295.270 103.947, 306.750 103.569 C 362.034 101.751, 362 101.751, 362 103.522 C 362 105.053, 366.745 105.139, 424.250 104.657 C 458.488 104.370, 488.188 103.830, 490.250 103.458 C 493.939 102.792, 494 102.833, 494 105.960 C 494 108.686, 494.321 109.093, 496.250 108.816 C 497.971 108.569, 498.437 107.923, 498.230 106.068 C 498.082 104.734, 498.459 103.334, 499.069 102.957 C 500.592 102.016, 624.055 102.532, 626.306 103.489 C 629.101 104.677, 636.850 103.243, 640.085 100.939 C 641.889 99.655, 643 97.968, 643 96.514 C 643 95.221, 643.267 93.467, 643.594 92.617 C 643.974 91.625, 642.807 89.779, 640.344 87.476 C 636.608 83.983, 636.310 83.891, 629.768 84.223 C 625.244 84.452, 623.367 84.233, 624.045 83.555 C 624.599 83.001, 628.973 82.311, 633.763 82.023 L 642.473 81.500 643.093 77.665 C 643.434 75.556, 643.423 72.406, 643.068 70.665 C 642.425 67.502, 642.421 67.500, 635.251 67.207 C 628.786 66.943, 627.877 66.647, 626.050 64.207 C 624.934 62.718, 623.567 60.956, 623.011 60.292 C 622.455 59.628, 622 58.691, 622 58.210 C 622 57.729, 620.384 56.840, 618.410 56.234 C 614.822 55.133, 612 55.486, 612 57.036 C 612 57.487, 611.438 58.465, 610.750 59.209 C 610.063 59.953, 608.742 61.897, 607.816 63.530 L 606.132 66.500 585.316 67.107 C 573.867 67.441, 518.931 67.479, 463.235 67.192 L 361.971 66.670 361.358 62.835 C 360.744 58.998, 359.351 58.049, 357.318 60.082 C 356.542 60.858, 355.600 60.788, 353.987 59.832 C 352.211 58.780, 351.644 58.763, 351.286 59.750 C 351.037 60.438, 350.233 61, 349.500 61 C 348.767 61, 347.963 60.438, 347.714 59.750 C 347.357 58.764, 346.783 58.784, 344.997 59.842 C 343.102 60.965, 342.595 60.965, 341.896 59.842 C 341.198 58.719, 340.707 58.719, 338.896 59.842 C 337.086 60.965, 336.595 60.965, 335.896 59.842 C 335.206 58.732, 334.696 58.726, 332.952 59.807 C 331.323 60.817, 330.520 60.846, 329.422 59.935 C 328.329 59.028, 327.671 59.028, 326.578 59.935 C 325.480 60.846, 324.677 60.817, 323.048 59.807 C 321.304 58.726, 320.794 58.732, 320.104 59.842 C 319.410 60.956, 318.909 60.960, 317.159 59.867 C 315.566 58.872, 314.768 58.832, 313.897 59.703 C 313.026 60.574, 312.278 60.568, 310.841 59.678 C 309.345 58.752, 308.761 58.787, 308.104 59.842 C 307.405 60.965, 306.914 60.965, 305.104 59.842 C 303.293 58.719, 302.802 58.719, 302.104 59.842 C 301.405 60.965, 300.914 60.965, 299.104 59.842 C 297.273 58.707, 296.801 58.722, 296.046 59.936 C 295.286 61.157, 294.905 61.166, 293.495 59.996 C 292.134 58.867, 291.470 58.850, 289.785 59.902 C 288.102 60.953, 287.581 60.942, 286.896 59.842 C 286.225 58.764, 285.671 58.741, 284.077 59.730 C 282.829 60.503, 281.868 60.596, 281.487 59.980 C 280.270 58.011, 278 59, 278 61.500 C 278 65.003, 275.429 64.669, 274.150 61 C 273.148 58.126, 272.857 58, 267.232 58 C 262.035 58, 260.908 57.618, 257.430 54.676 C 252.616 50.605, 251.134 50.027, 248.256 51.097 M 610.667 63.667 C 609.405 64.928, 610.004 66, 611.969 66 C 613.308 66, 613.753 65.520, 613.362 64.500 C 612.746 62.896, 611.747 62.587, 610.667 63.667 M 616.042 64.449 C 614.914 65.808, 615.275 66, 618.961 66 C 621.878 66, 623.041 65.617, 622.756 64.750 C 622.143 62.881, 617.515 62.674, 616.042 64.449 M 500 82.391 C 500 83.184, 499.438 84.023, 498.750 84.254 C 498.063 84.485, 522.813 84.659, 553.750 84.640 C 584.688 84.622, 610 84.245, 610 83.803 C 610 83.361, 608.677 83, 607.059 83 C 605.441 83, 603.859 82.581, 603.543 82.069 C 603.201 81.517, 582.053 81.100, 551.484 81.044 C 507.255 80.962, 500 81.152, 500 82.391 M 56.074 106.191 C 56.115 110.211, 56.461 115.525, 56.844 118 C 57.495 122.213, 57.730 122.492, 60.520 122.368 C 62.159 122.296, 65.525 121.679, 68 120.997 L 72.500 119.758 68.390 117.749 C 63.623 115.420, 59.231 109.295, 58.342 103.736 C 57.294 97.182, 55.997 98.586, 56.074 106.191 M 249.460 104.421 C 248.340 106.130, 248.024 107.958, 248.459 110.209 C 249.058 113.311, 249.005 113.388, 247.547 111.559 C 246.696 110.491, 246 109.029, 246 108.309 C 246 107.589, 245.501 107, 244.892 107 C 243.426 107, 244.652 112.011, 246.604 114 C 247.685 115.102, 250.348 115.500, 256.627 115.500 C 264.467 115.500, 265.341 115.299, 267.138 113.079 C 268.528 111.361, 269.011 109.472, 268.799 106.579 L 268.500 102.500 259.798 102.212 C 251.474 101.936, 251.025 102.032, 249.460 104.421" stroke="none" fill-rule="evenodd"/>
</svg>