<svg xmlns="http://www.w3.org/2000/svg" width="256" height="256" viewBox="0 0 256 256" version="1.1">
	<path d="M 36.500 28.428 C 29.399 32.706, 21.611 44.996, 18.574 56.716 C 17.679 60.167, 17 66.885, 17 72.276 L 17 81.763 13.500 84.432 L 10 87.102 10 148.527 C 10 208.153, 9.942 210.048, 8.004 213.226 C 5.617 217.140, 5.456 221.047, 7.517 225.033 C 10.483 230.768, 11.941 231, 45 231 C 77.260 231, 78.950 230.764, 82.439 225.783 C 84.900 222.270, 84.445 215.682, 81.500 212.182 L 79 209.211 79 148.136 L 79 87.060 76 84.842 C 73.042 82.655, 73 82.494, 73 73.361 C 73 62.201, 71.712 55.618, 67.855 47.060 C 59.636 28.822, 47.660 21.706, 36.500 28.428 M 119.500 28.428 C 112.399 32.706, 104.611 44.996, 101.574 56.716 C 100.679 60.167, 100 66.885, 100 72.276 L 100 81.763 96.500 84.432 L 93 87.102 93 148.527 C 93 208.153, 92.942 210.048, 91.004 213.226 C 88.617 217.140, 88.456 221.047, 90.517 225.033 C 93.483 230.768, 94.941 231, 128 231 C 160.260 231, 161.950 230.764, 165.439 225.783 C 167.900 222.270, 167.445 215.682, 164.500 212.182 L 162 209.211 162 148.136 L 162 87.060 159 84.842 C 156.042 82.655, 156 82.494, 156 73.361 C 156 62.201, 154.712 55.618, 150.855 47.060 C 142.636 28.822, 130.660 21.706, 119.500 28.428 M 202.500 28.428 C 195.399 32.706, 187.611 44.996, 184.574 56.716 C 183.679 60.167, 183 66.885, 183 72.276 L 183 81.763 179.500 84.432 L 176 87.102 176 148.527 C 176 208.153, 175.942 210.048, 174.004 213.226 C 171.617 217.140, 171.456 221.047, 173.517 225.033 C 176.483 230.768, 177.941 231, 211 231 C 243.260 231, 244.950 230.764, 248.439 225.783 C 250.900 222.270, 250.445 215.682, 247.500 212.182 L 245 209.211 245 148.136 L 245 87.060 242 84.842 C 239.042 82.655, 239 82.494, 239 73.361 C 239 62.201, 237.712 55.618, 233.855 47.060 C 225.636 28.822, 213.660 21.706, 202.500 28.428 M 22.498 96.363 C 21.139 98.436, 20.984 105.474, 21.225 153.944 C 21.491 207.282, 21.566 209.210, 23.441 210.581 C 25.976 212.434, 28.478 212.380, 30.429 210.429 C 31.820 209.037, 32 202.412, 32 152.629 C 32 110.229, 31.705 96.105, 30.800 95.200 C 28.736 93.136, 24.196 93.771, 22.498 96.363 M 105.498 96.363 C 104.139 98.436, 103.984 105.474, 104.225 153.944 C 104.491 207.282, 104.566 209.210, 106.441 210.581 C 108.976 212.434, 111.478 212.380, 113.429 210.429 C 114.820 209.037, 115 202.412, 115 152.629 C 115 110.229, 114.705 96.105, 113.800 95.200 C 111.736 93.136, 107.196 93.771, 105.498 96.363 M 188.498 96.363 C 187.139 98.436, 186.984 105.474, 187.225 153.944 C 187.491 207.282, 187.566 209.210, 189.441 210.581 C 191.976 212.434, 194.478 212.380, 196.429 210.429 C 197.820 209.037, 198 202.412, 198 152.629 C 198 110.229, 197.705 96.105, 196.800 95.200 C 194.736 93.136, 190.196 93.771, 188.498 96.363" stroke="none"  fill-rule="evenodd"/>
</svg>