<svg xmlns="http://www.w3.org/2000/svg" width="256" height="256" viewBox="0 0 256 256" version="1.1">
	<path d="M 66.500 24.022 C 44.194 28.499, 26.161 46.086, 20.381 69 C 18.426 76.750, 18.935 92.463, 21.499 103.500 C 28.045 131.681, 46.232 160.992, 75.333 190.259 C 94.467 209.503, 123.321 232.933, 127.940 232.977 C 132.818 233.023, 168.863 203.506, 185.414 185.912 C 195.330 175.371, 206.039 162.026, 213.429 151 C 219.234 142.340, 229 123.860, 229 121.537 C 229 120.831, 229.908 118.201, 231.018 115.692 C 234.246 108.395, 236.967 93.466, 236.984 82.960 C 237.002 72.118, 235.352 64.645, 230.825 55.073 C 226.597 46.135, 214.154 33.801, 204.711 29.191 C 187.618 20.845, 167.610 21.229, 150.728 30.225 C 144.708 33.433, 134.450 42.549, 130.162 48.500 L 128 51.500 125.838 48.500 C 121.550 42.549, 111.292 33.433, 105.272 30.225 C 93.846 24.136, 78.313 21.651, 66.500 24.022" stroke="none"  fill-rule="evenodd"/>
</svg>