<svg id="svg2" xmlns="http://www.w3.org/2000/svg" viewBox="0 0 141.5 80.9" width="2500" height="1429"><style>.st0{fill:#ffd744}</style><g id="g10" transform="matrix(1.25 0 0 -1.25 0 80.875)"><g id="g12" transform="scale(.1)"><path id="path14" class="st0" d="M117.1 323.5L45.6 519V323.5H0v321.1h43.2l71-194.7v194.7h45.6V323.5h-42.7"/><path id="path16" class="st0" d="M190.6 323.5h45.6v321.1h-45.6V323.5z"/><path id="path18" class="st0" d="M313 323.5v278.4h-53.8v42.7h154.1v-42.7h-54.7V323.5H313"/><path id="path20" class="st0" d="M435.4 323.5v321.1h80.2c21.1 0 38.9-7.4 53.3-22.1 14.4-14.8 21.6-32.7 21.6-53.9v-29.8c0-29.5-12.5-52.1-37.4-67.9l48.4-147.4h-48.3l-43.4 137.8H481V323.5h-45.6zm101.7 188.2c2.9 3.5 4.9 7.6 6 12.1s1.7 9.5 1.7 15v29.9c0 10-2.7 18-8.2 24.1-5.4 6.1-13.1 9.2-23 9.2H481V501.6h32.2c9.5 0 17.5 3.3 23.9 10.1"/><path id="path22" class="st0" d="M609.1 323.5L676 644.6h44.4L792 323.5h-49.2l-12.9 69.1h-59.2l-12.9-69.1h-48.7zm69.1 111.8h43.2l-21.6 114.2-21.6-114.2"/><path id="path24" class="st0" d="M878.4 644.6c20.5 0 38.2-7.3 53-21.9 14.9-14.6 22.3-32.2 22.3-52.7V402.9c0-23.1-7.1-42.1-21.4-57.1-14.2-14.9-32.7-22.4-55.4-22.4h-71v321.1l72.5.1zm29.7-241.8V570c0 9-3.2 16.5-9.7 22.4s-14.3 8.9-23.4 8.9h-23.6V366.2h22.2c23.1 0 34.5 12.2 34.5 36.6"/><path id="path26" class="st0" d="M991.7 613.9c7.4 10.2 16.6 18.3 27.8 24.2 11.2 5.9 22.9 8.9 35 8.9 11.8 0 23-2.4 33.4-7.2s19-11.4 25.9-19.7 11.6-16.8 14.2-25.4c2.6-8.6 3.8-18.1 3.8-28.3V403.2c0-9.6-.9-18-2.6-25.2-1.8-7.2-5.5-15.3-11.3-24.3s-14.3-16.6-25.4-23c-11.2-6.4-23.4-9.6-36.5-9.6-15 0-28.9 3.8-41.5 11.5-12.7 7.7-21.4 16.4-26.4 26.2s-7.9 17.6-8.9 23.5-1.4 12.9-1.4 20.9v163.2c0 9.6 1 18.1 3.1 25.4 2 7.3 5.6 14.7 10.8 22.1zm88.8-25.5c-6.4 8.6-14.7 13-25 13-5.4 0-10.8-1.5-16.1-4.6-5.3-3-9-6.4-11-10.1-2.1-3.7-3.4-7.4-4.1-11.3-.6-3.8-1-7-1-9.6V402.7c0-3.2.2-6.7.7-10.6.5-3.8 3-9.1 7.7-15.6 4.6-6.6 12.6-9.8 23.8-9.8 5.8 0 11 1.4 15.6 4.1 4.7 2.7 8 5.8 10.1 9.4 2.1 3.5 3.4 6.9 4.1 10.1.6 3.2 1 7.4 1 12.5V566c0 6.4-.3 10.9-.7 13.4-.6 2.5-2.3 5.5-5.1 9"/><path id="path28" class="st0" d="M294.2 234.4h540L564.2 0l-270 234.4"/></g></g></svg>